M48
INCH
T1C0.0118
T2C0.0256
T3C0.0256
T4C0.0276
T5C0.0276
T6C0.0394
T7C0.0398
T8C0.0400
T9C0.0626
%
G90
G05
T1
X15.2362Y-7.5118
X15.3189Y-7.5118
X15.3622Y-8.2598
X15.4331Y-8.2598
X15.4331Y-9.6024
X15.5157Y-9.6772
X15.5394Y-9.0079
X15.6181Y-9.0079
X15.9055Y-7.5118
X15.9213Y-9.7598
X15.9843Y-7.5118
X16.0Y-9.7598
X16.1417Y-8.2598
X16.189Y-9.0276
X16.2047Y-8.2598
X16.2835Y-9.0276
X16.7165Y-7.5118
X16.8031Y-7.5118
X16.937Y-8.2559
X16.9449Y-9.0236
X17.0157Y-9.0236
X17.0394Y-8.2559
X17.4409Y-7.5315
X17.5354Y-7.5315
X17.7953Y-8.2598
X17.7992Y-9.0197
X17.878Y-8.2598
X17.878Y-9.0197
X18.2677Y-7.5433
X18.3346Y-9.7598
X18.3583Y-7.5433
X18.4606Y-9.7559
X18.4961Y-8.2598
X18.5512Y-9.0118
X18.6024Y-8.2598
X18.622Y-9.0118
X18.9646Y-7.5709
X19.0591Y-7.5709
X19.2087Y-8.2598
X19.2992Y-8.2598
X19.2992Y-9.0079
X19.374Y-9.0079
X19.8268Y-7.6299
X19.8268Y-7.7126
X20.0Y-8.2598
X20.0472Y-9.0079
X20.0512Y-8.2598
X20.122Y-9.0079
X20.5748Y-7.6457
X20.5748Y-7.7283
X20.7087Y-8.2559
X20.7638Y-8.2559
X20.8031Y-9.0118
X20.8661Y-9.0118
X21.374Y-7.6417
X21.378Y-7.7441
X21.3819Y-9.7559
X21.4882Y-8.2559
X21.4882Y-9.7559
X21.5512Y-9.0079
X21.6063Y-8.2559
X21.6181Y-9.0079
X22.1102Y-7.6417
X22.1102Y-7.7441
X22.185Y-9.7598
X22.1969Y-9.0315
X22.2874Y-9.0354
X22.2913Y-9.7598
X22.3346Y-8.2323
X22.3347Y-8.3425
X22.8976Y-7.6417
X22.8976Y-7.7353
X22.9291Y-9.7598
X23.0118Y-9.7598
X23.0551Y-9.0118
X23.0847Y-8.3583
X23.0866Y-8.2283
X23.1181Y-9.0118
X23.6457Y-7.6457
X23.6457Y-7.7353
X23.8268Y-8.9685
X23.8661Y-8.2165
X23.8661Y-8.374
X23.8661Y-9.7638
X23.9016Y-8.9685
X23.9685Y-9.7638
X24.2598Y-9.0079
X24.3031Y-8.2323
X24.3047Y-8.3937
X24.3583Y-9.0079
X24.374Y-7.5118
X24.4803Y-7.5118
X24.5827Y-7.6496
X24.5827Y-7.7402
X24.8976Y-9.0118
X25.0Y-7.5079
X25.189Y-8.2598
X25.2677Y-9.7598
X25.4734Y-7.0551
X25.5069Y-7.0551
X25.6488Y-7.6024
X25.6654Y-7.6356
X25.6934Y-7.5926
X25.7047Y-7.5455
X25.7399Y-7.5492
X25.752Y-7.7205
X25.7791Y-7.5438
X25.7835Y-7.126
X25.7835Y-7.7244
X25.8031Y-7.3268
X25.8347Y-7.8573
X25.8425Y-7.6299
X25.8492Y-8.0445
X25.8502Y-7.8171
X25.874Y-7.6181
X25.8898Y-7.8504
X25.8937Y-8.1846
X25.9252Y-8.1846
X25.9331Y-7.251
X25.9331Y-7.2835
X25.9331Y-7.3749
X25.943Y-7.7675
X25.9764Y-7.7717
X26.0197Y-7.7467
X26.0197Y-8.0669
X26.0294Y-7.5911
X26.0551Y-7.7497
X26.0725Y-7.8009
X26.0787Y-7.5827
X26.0952Y-7.8442
X26.1063Y-8.0745
X26.1102Y-7.5827
X26.1339Y-7.7677
X26.1339Y-7.8952
X26.1339Y-8.0118
X26.1467Y-7.5788
X26.1558Y-7.8442
X26.1575Y-7.252
X26.1772Y-7.5709
X26.189Y-7.4331
X26.1929Y-7.5394
X26.2008Y-7.7008
X26.252Y-7.6732
X26.2854Y-7.435
X26.2992Y-7.8031
X26.2992Y-7.8858
X26.2992Y-7.9213
X26.2992Y-8.1623
X26.2992Y-8.2612
X26.5276Y-8.0897
X26.5615Y-8.0897
X26.6063Y-8.0787
X26.6772Y-7.0512
X26.6929Y-8.1041
X26.7362Y-7.4449
X26.7362Y-7.4921
X26.7362Y-7.5394
X26.874Y-7.0354
X26.9006Y-7.1811
X26.9252Y-8.0984
X26.9597Y-7.2386
X26.9711Y-8.091
X26.9867Y-7.4528
X27.0029Y-7.2669
X27.0094Y-7.1523
X27.0098Y-7.2059
X27.0276Y-6.9291
X27.0276Y-7.0472
X27.0314Y-7.3033
X27.0354Y-8.1024
X27.059Y-8.126
X27.0683Y-7.1162
X27.0906Y-7.2885
X27.0974Y-7.8811
X27.1024Y-7.0433
X27.1289Y-7.9007
X27.1457Y-6.9803
X27.1917Y-7.0939
X27.2126Y-6.878
X27.2186Y-8.1102
X27.2835Y-7.878
T2
X25.9335Y-7.1939
T3
X27.1178Y-7.1291
X27.1178Y-7.1791
X27.1678Y-7.1291
X27.1678Y-7.1791
X27.2178Y-7.1291
X27.2178Y-7.1791
X27.2678Y-7.1291
X27.2678Y-7.1791
X27.3178Y-7.1291
X27.3178Y-7.1791
T4
X25.937Y-7.122
T6
X26.3966Y-6.874
X26.3966Y-7.1063
X26.6929Y-8.2598
X26.7929Y-8.2598
X26.7981Y-8.0307
X26.8929Y-8.2598
X26.8981Y-8.0307
X26.9929Y-8.2598
X26.9981Y-8.0307
X27.0929Y-8.2598
X27.0981Y-8.0307
X27.1929Y-8.2598
X27.1981Y-8.0307
X27.2929Y-8.2598
X27.2981Y-8.0307
T7
X25.8611Y-6.9519
X25.9793Y-6.9519
X26.0974Y-6.9519
T8
X25.9435Y-8.5394
X26.0435Y-8.5394
X26.1435Y-8.5394
X26.2435Y-8.5394
X26.3435Y-8.5394
X26.4435Y-8.5394
X26.5435Y-8.5394
X26.6435Y-8.5394
X26.7435Y-8.5394
X26.8435Y-8.5394
T9
X25.7509Y-6.9519
X26.2076Y-6.9519
T3
G00X25.3821Y-6.9763
M15
G01X25.3821Y-6.9921
M16
G05
G00X25.5726Y-6.9763
M15
G01X25.5726Y-6.9921
M16
G05
T5
G00X25.3699Y-6.8563
M15
G01X25.3699Y-6.8759
M16
G05
G00X25.5848Y-6.8563
M15
G01X25.5848Y-6.8759
M16
G05
T0
M30
