%TF.GenerationSoftware,KiCad,Pcbnew,7.0.7*%
%TF.CreationDate,2023-10-31T18:53:21-05:00*%
%TF.ProjectId,KeyboardPCB,4b657962-6f61-4726-9450-43422e6b6963,rev?*%
%TF.SameCoordinates,Original*%
%TF.FileFunction,Soldermask,Top*%
%TF.FilePolarity,Negative*%
%FSLAX46Y46*%
G04 Gerber Fmt 4.6, Leading zero omitted, Abs format (unit mm)*
G04 Created by KiCad (PCBNEW 7.0.7) date 2023-10-31 18:53:21*
%MOMM*%
%LPD*%
G01*
G04 APERTURE LIST*
G04 Aperture macros list*
%AMRoundRect*
0 Rectangle with rounded corners*
0 $1 Rounding radius*
0 $2 $3 $4 $5 $6 $7 $8 $9 X,Y pos of 4 corners*
0 Add a 4 corners polygon primitive as box body*
4,1,4,$2,$3,$4,$5,$6,$7,$8,$9,$2,$3,0*
0 Add four circle primitives for the rounded corners*
1,1,$1+$1,$2,$3*
1,1,$1+$1,$4,$5*
1,1,$1+$1,$6,$7*
1,1,$1+$1,$8,$9*
0 Add four rect primitives between the rounded corners*
20,1,$1+$1,$2,$3,$4,$5,0*
20,1,$1+$1,$4,$5,$6,$7,0*
20,1,$1+$1,$6,$7,$8,$9,0*
20,1,$1+$1,$8,$9,$2,$3,0*%
G04 Aperture macros list end*
%ADD10C,2.200000*%
%ADD11RoundRect,0.102000X-0.889000X0.889000X-0.889000X-0.889000X0.889000X-0.889000X0.889000X0.889000X0*%
%ADD12C,1.982000*%
%ADD13C,1.701800*%
%ADD14C,3.000000*%
%ADD15C,3.987800*%
%ADD16RoundRect,0.237500X-0.287500X-0.237500X0.287500X-0.237500X0.287500X0.237500X-0.287500X0.237500X0*%
%ADD17RoundRect,0.150000X-0.512500X-0.150000X0.512500X-0.150000X0.512500X0.150000X-0.512500X0.150000X0*%
%ADD18RoundRect,0.237500X0.300000X0.237500X-0.300000X0.237500X-0.300000X-0.237500X0.300000X-0.237500X0*%
%ADD19R,2.400000X2.000000*%
%ADD20RoundRect,0.237500X0.237500X-0.300000X0.237500X0.300000X-0.237500X0.300000X-0.237500X-0.300000X0*%
%ADD21O,0.800000X2.400000*%
%ADD22O,2.400000X0.800000*%
%ADD23C,3.048000*%
%ADD24R,1.700000X1.700000*%
%ADD25O,1.700000X1.700000*%
%ADD26RoundRect,0.135000X-0.135000X-0.185000X0.135000X-0.185000X0.135000X0.185000X-0.135000X0.185000X0*%
%ADD27R,0.850000X0.350000*%
%ADD28R,1.700000X2.450000*%
%ADD29R,1.000000X1.000000*%
%ADD30O,1.000000X1.000000*%
%ADD31RoundRect,0.135000X-0.185000X0.135000X-0.185000X-0.135000X0.185000X-0.135000X0.185000X0.135000X0*%
%ADD32R,1.515000X1.515000*%
%ADD33C,1.515000*%
%ADD34C,2.385000*%
%ADD35C,2.000000*%
%ADD36R,0.400000X1.650000*%
%ADD37R,1.825000X0.700000*%
%ADD38R,2.000000X1.500000*%
%ADD39R,1.350000X2.000000*%
%ADD40O,1.350000X1.700000*%
%ADD41O,1.100000X1.500000*%
%ADD42R,1.430000X2.500000*%
%ADD43RoundRect,0.237500X-0.237500X0.300000X-0.237500X-0.300000X0.237500X-0.300000X0.237500X0.300000X0*%
G04 APERTURE END LIST*
D10*
%TO.C,U3*%
X685000000Y-216900000D03*
X655790000Y-216900000D03*
X685000000Y-267700000D03*
X655790000Y-267700000D03*
D11*
X658965000Y-216900000D03*
D12*
X661505000Y-216900000D03*
X664045000Y-216900000D03*
X666585000Y-216900000D03*
X669125000Y-216900000D03*
X671665000Y-216900000D03*
X674205000Y-216900000D03*
X676745000Y-216900000D03*
X679285000Y-216900000D03*
X681825000Y-216900000D03*
%TD*%
D13*
%TO.C,K39*%
X569305500Y-222504000D03*
D14*
X570575500Y-219964000D03*
D15*
X574385500Y-222504000D03*
D14*
X576925500Y-217424000D03*
D13*
X579465500Y-222504000D03*
%TD*%
D16*
%TO.C,D9*%
X689523000Y-176079000D03*
X691273000Y-176079000D03*
%TD*%
D13*
%TO.C,K4*%
X421668000Y-184404000D03*
D14*
X422938000Y-181864000D03*
D15*
X426748000Y-184404000D03*
D14*
X429288000Y-179324000D03*
D13*
X431828000Y-184404000D03*
%TD*%
%TO.C,K38*%
X550255500Y-222504000D03*
D14*
X551525500Y-219964000D03*
D15*
X555335500Y-222504000D03*
D14*
X557875500Y-217424000D03*
D13*
X560415500Y-222504000D03*
%TD*%
D17*
%TO.C,U2*%
X660262500Y-185650000D03*
X660262500Y-186600000D03*
X660262500Y-187550000D03*
X662537500Y-187550000D03*
X662537500Y-185650000D03*
%TD*%
D18*
%TO.C,C17*%
X657262500Y-182300000D03*
X655537500Y-182300000D03*
%TD*%
D13*
%TO.C,K32*%
X435955500Y-222504000D03*
D14*
X437225500Y-219964000D03*
D15*
X441035500Y-222504000D03*
D14*
X443575500Y-217424000D03*
D13*
X446115500Y-222504000D03*
%TD*%
%TO.C,K56*%
X390714260Y-260604000D03*
D14*
X391984260Y-258064000D03*
D15*
X395794260Y-260604000D03*
D14*
X398334260Y-255524000D03*
D13*
X400874260Y-260604000D03*
%TD*%
D19*
%TO.C,X2*%
X672500000Y-198737500D03*
X672500000Y-202737500D03*
%TD*%
D13*
%TO.C,K50*%
X540730500Y-241554000D03*
D14*
X542000500Y-239014000D03*
D15*
X545810500Y-241554000D03*
D14*
X548350500Y-236474000D03*
D13*
X550890500Y-241554000D03*
%TD*%
%TO.C,K46*%
X464530500Y-241554000D03*
D14*
X465800500Y-239014000D03*
D15*
X469610500Y-241554000D03*
D14*
X472150500Y-236474000D03*
D13*
X474690500Y-241554000D03*
%TD*%
D20*
%TO.C,C8*%
X669000000Y-200000000D03*
X669000000Y-198275000D03*
%TD*%
D13*
%TO.C,K17*%
X412143000Y-203454000D03*
D14*
X413413000Y-200914000D03*
D15*
X417223000Y-203454000D03*
D14*
X419763000Y-198374000D03*
D13*
X422303000Y-203454000D03*
%TD*%
D21*
%TO.C,IC2*%
X694273000Y-187029000D03*
X693073000Y-187029000D03*
X691873000Y-187029000D03*
X690673000Y-187029000D03*
X689473000Y-187029000D03*
X688273000Y-187029000D03*
X687073000Y-187029000D03*
X685873000Y-187029000D03*
X684673000Y-187029000D03*
X683473000Y-187029000D03*
X682273000Y-187029000D03*
X681073000Y-187029000D03*
D22*
X680973000Y-189079000D03*
X680973000Y-190279000D03*
X680973000Y-191479000D03*
X680973000Y-192679000D03*
X680973000Y-193879000D03*
X680973000Y-195079000D03*
X680973000Y-196279000D03*
D21*
X681073000Y-198329000D03*
X682273000Y-198329000D03*
X683473000Y-198329000D03*
X684673000Y-198329000D03*
X685873000Y-198329000D03*
X687073000Y-198329000D03*
X688273000Y-198329000D03*
X689473000Y-198329000D03*
X690673000Y-198329000D03*
X691873000Y-198329000D03*
X693073000Y-198329000D03*
X694273000Y-198329000D03*
%TD*%
D23*
%TO.C,K14*%
X614835000Y-177419000D03*
D15*
X614835000Y-192659000D03*
D13*
X621693000Y-184404000D03*
D14*
X622963000Y-181864000D03*
D15*
X626773000Y-184404000D03*
D14*
X629313000Y-179324000D03*
D13*
X631853000Y-184404000D03*
D23*
X638711000Y-177419000D03*
D15*
X638711000Y-192659000D03*
%TD*%
D13*
%TO.C,K2*%
X383568000Y-184404000D03*
D14*
X384838000Y-181864000D03*
D15*
X388648000Y-184404000D03*
D14*
X391188000Y-179324000D03*
D13*
X393728000Y-184404000D03*
%TD*%
D18*
%TO.C,C19*%
X653562500Y-181800000D03*
X651837500Y-181800000D03*
%TD*%
D13*
%TO.C,K48*%
X502630500Y-241554000D03*
D14*
X503900500Y-239014000D03*
D15*
X507710500Y-241554000D03*
D14*
X510250500Y-236474000D03*
D13*
X512790500Y-241554000D03*
%TD*%
D24*
%TO.C,J3*%
X680673000Y-203979000D03*
D25*
X683213000Y-203979000D03*
X685753000Y-203979000D03*
X688293000Y-203979000D03*
X690833000Y-203979000D03*
X693373000Y-203979000D03*
%TD*%
D13*
%TO.C,K23*%
X526443000Y-203454000D03*
D14*
X527713000Y-200914000D03*
D15*
X531523000Y-203454000D03*
D14*
X534063000Y-198374000D03*
D13*
X536603000Y-203454000D03*
%TD*%
%TO.C,K1*%
X364518000Y-184404000D03*
D14*
X365788000Y-181864000D03*
D15*
X369598000Y-184404000D03*
D14*
X372138000Y-179324000D03*
D13*
X374678000Y-184404000D03*
%TD*%
%TO.C,K31*%
X416905500Y-222504000D03*
D14*
X418175500Y-219964000D03*
D15*
X421985500Y-222504000D03*
D14*
X424525500Y-217424000D03*
D13*
X427065500Y-222504000D03*
%TD*%
%TO.C,K51*%
X559780500Y-241554000D03*
D14*
X561050500Y-239014000D03*
D15*
X564860500Y-241554000D03*
D14*
X567400500Y-236474000D03*
D13*
X569940500Y-241554000D03*
%TD*%
%TO.C,K54*%
X628778000Y-241554000D03*
D14*
X630048000Y-239014000D03*
D15*
X633858000Y-241554000D03*
D14*
X636398000Y-236474000D03*
D13*
X638938000Y-241554000D03*
%TD*%
D20*
%TO.C,C16*%
X665100000Y-187462500D03*
X665100000Y-185737500D03*
%TD*%
D13*
%TO.C,K61*%
X604965500Y-260604000D03*
D14*
X606235500Y-258064000D03*
D15*
X610045500Y-260604000D03*
D14*
X612585500Y-255524000D03*
D13*
X615125500Y-260604000D03*
%TD*%
%TO.C,K29*%
X371663020Y-222504000D03*
D14*
X372933020Y-219964000D03*
D15*
X376743020Y-222504000D03*
D14*
X379283020Y-217424000D03*
D13*
X381823020Y-222504000D03*
%TD*%
%TO.C,K33*%
X455005500Y-222504000D03*
D14*
X456275500Y-219964000D03*
D15*
X460085500Y-222504000D03*
D14*
X462625500Y-217424000D03*
D13*
X465165500Y-222504000D03*
%TD*%
%TO.C,K8*%
X497868000Y-184404000D03*
D14*
X499138000Y-181864000D03*
D15*
X502948000Y-184404000D03*
D14*
X505488000Y-179324000D03*
D13*
X508028000Y-184404000D03*
%TD*%
%TO.C,K44*%
X426430500Y-241554000D03*
D14*
X427700500Y-239014000D03*
D15*
X431510500Y-241554000D03*
D14*
X434050500Y-236474000D03*
D13*
X436590500Y-241554000D03*
%TD*%
%TO.C,K3*%
X402618000Y-184404000D03*
D14*
X403888000Y-181864000D03*
D15*
X407698000Y-184404000D03*
D14*
X410238000Y-179324000D03*
D13*
X412778000Y-184404000D03*
%TD*%
%TO.C,K5*%
X440718000Y-184404000D03*
D14*
X441988000Y-181864000D03*
D15*
X445798000Y-184404000D03*
D14*
X448338000Y-179324000D03*
D13*
X450878000Y-184404000D03*
%TD*%
%TO.C,K10*%
X535968000Y-184404000D03*
D14*
X537238000Y-181864000D03*
D15*
X541048000Y-184404000D03*
D14*
X543588000Y-179324000D03*
D13*
X546128000Y-184404000D03*
%TD*%
%TO.C,K28*%
X626455500Y-203454000D03*
D14*
X627725500Y-200914000D03*
D15*
X631535500Y-203454000D03*
D14*
X634075500Y-198374000D03*
D13*
X636615500Y-203454000D03*
%TD*%
%TO.C,K7*%
X478818000Y-184404000D03*
D14*
X480088000Y-181864000D03*
D15*
X483898000Y-184404000D03*
D14*
X486438000Y-179324000D03*
D13*
X488978000Y-184404000D03*
%TD*%
%TO.C,K59*%
X557340500Y-260604000D03*
D14*
X558610500Y-258064000D03*
D15*
X562420500Y-260604000D03*
D14*
X564960500Y-255524000D03*
D13*
X567500500Y-260604000D03*
%TD*%
%TO.C,K11*%
X555018000Y-184404000D03*
D14*
X556288000Y-181864000D03*
D15*
X560098000Y-184404000D03*
D14*
X562638000Y-179324000D03*
D13*
X565178000Y-184404000D03*
%TD*%
D26*
%TO.C,R7*%
X664480000Y-181100000D03*
X665500000Y-181100000D03*
%TD*%
D13*
%TO.C,K18*%
X431193000Y-203454000D03*
D14*
X432463000Y-200914000D03*
D15*
X436273000Y-203454000D03*
D14*
X438813000Y-198374000D03*
D13*
X441353000Y-203454000D03*
%TD*%
D26*
%TO.C,R10*%
X682590000Y-177800000D03*
X683610000Y-177800000D03*
%TD*%
%TO.C,R6*%
X677580000Y-178000000D03*
X678600000Y-178000000D03*
%TD*%
D13*
%TO.C,K40*%
X588355500Y-222504000D03*
D14*
X589625500Y-219964000D03*
D15*
X593435500Y-222504000D03*
D14*
X595975500Y-217424000D03*
D13*
X598515500Y-222504000D03*
%TD*%
%TO.C,K16*%
X393093000Y-203454000D03*
D14*
X394363000Y-200914000D03*
D15*
X398173000Y-203454000D03*
D14*
X400713000Y-198374000D03*
D13*
X403253000Y-203454000D03*
%TD*%
%TO.C,K6*%
X459768000Y-184404000D03*
D14*
X461038000Y-181864000D03*
D15*
X464848000Y-184404000D03*
D14*
X467388000Y-179324000D03*
D13*
X469928000Y-184404000D03*
%TD*%
%TO.C,K37*%
X531205500Y-222504000D03*
D14*
X532475500Y-219964000D03*
D15*
X536285500Y-222504000D03*
D14*
X538825500Y-217424000D03*
D13*
X541365500Y-222504000D03*
%TD*%
D27*
%TO.C,IC1*%
X662900000Y-183450000D03*
X662900000Y-182800000D03*
X662900000Y-182150000D03*
X662900000Y-181500000D03*
X660000000Y-181500000D03*
X660000000Y-182150000D03*
X660000000Y-182800000D03*
X660000000Y-183450000D03*
D28*
X661450000Y-182475000D03*
%TD*%
D13*
%TO.C,K35*%
X493105500Y-222504000D03*
D14*
X494375500Y-219964000D03*
D15*
X498185500Y-222504000D03*
D14*
X500725500Y-217424000D03*
D13*
X503265500Y-222504000D03*
%TD*%
%TO.C,K21*%
X488343000Y-203454000D03*
D14*
X489613000Y-200914000D03*
D15*
X493423000Y-203454000D03*
D14*
X495963000Y-198374000D03*
D13*
X498503000Y-203454000D03*
%TD*%
%TO.C,K13*%
X593118000Y-184404000D03*
D14*
X594388000Y-181864000D03*
D15*
X598198000Y-184404000D03*
D14*
X600738000Y-179324000D03*
D13*
X603278000Y-184404000D03*
%TD*%
%TO.C,K53*%
X602643000Y-241554000D03*
D14*
X603913000Y-239014000D03*
D15*
X607723000Y-241554000D03*
D14*
X610263000Y-236474000D03*
D13*
X612803000Y-241554000D03*
%TD*%
D23*
%TO.C,K58*%
X441035500Y-253619000D03*
D15*
X441035500Y-268859000D03*
D13*
X485955500Y-260604000D03*
D14*
X487225500Y-258064000D03*
D15*
X491035500Y-260604000D03*
D14*
X493575500Y-255524000D03*
D13*
X496115500Y-260604000D03*
D23*
X541035500Y-253619000D03*
D15*
X541035500Y-268859000D03*
%TD*%
D13*
%TO.C,K19*%
X450243000Y-203454000D03*
D14*
X451513000Y-200914000D03*
D15*
X455323000Y-203454000D03*
D14*
X457863000Y-198374000D03*
D13*
X460403000Y-203454000D03*
%TD*%
%TO.C,K47*%
X483580500Y-241554000D03*
D14*
X484850500Y-239014000D03*
D15*
X488660500Y-241554000D03*
D14*
X491200500Y-236474000D03*
D13*
X493740500Y-241554000D03*
%TD*%
D29*
%TO.C,J4*%
X688793000Y-182349000D03*
D30*
X688793000Y-181079000D03*
X690063000Y-182349000D03*
X690063000Y-181079000D03*
X691333000Y-182349000D03*
X691333000Y-181079000D03*
X692603000Y-182349000D03*
X692603000Y-181079000D03*
X693873000Y-182349000D03*
X693873000Y-181079000D03*
%TD*%
D13*
%TO.C,K36*%
X512155500Y-222504000D03*
D14*
X513425500Y-219964000D03*
D15*
X517235500Y-222504000D03*
D14*
X519775500Y-217424000D03*
D13*
X522315500Y-222504000D03*
%TD*%
%TO.C,K30*%
X397855500Y-222504000D03*
D14*
X399125500Y-219964000D03*
D15*
X402935500Y-222504000D03*
D14*
X405475500Y-217424000D03*
D13*
X408015500Y-222504000D03*
%TD*%
%TO.C,K15*%
X369280500Y-203454000D03*
D14*
X370550500Y-200914000D03*
D15*
X374360500Y-203454000D03*
D14*
X376900500Y-198374000D03*
D13*
X379440500Y-203454000D03*
%TD*%
D23*
%TO.C,K41*%
X612485500Y-215519000D03*
D15*
X612485500Y-230759000D03*
D13*
X619343500Y-222504000D03*
D14*
X620613500Y-219964000D03*
D15*
X624423500Y-222504000D03*
D14*
X626963500Y-217424000D03*
D13*
X629503500Y-222504000D03*
D23*
X636361500Y-215519000D03*
D15*
X636361500Y-230759000D03*
%TD*%
D24*
%TO.C,J2*%
X678000000Y-209800000D03*
D25*
X680540000Y-209800000D03*
X683080000Y-209800000D03*
X685620000Y-209800000D03*
X688160000Y-209800000D03*
X690700000Y-209800000D03*
X693240000Y-209800000D03*
%TD*%
D16*
%TO.C,D20*%
X683058000Y-176079000D03*
X684808000Y-176079000D03*
%TD*%
D13*
%TO.C,K45*%
X445480500Y-241554000D03*
D14*
X446750500Y-239014000D03*
D15*
X450560500Y-241554000D03*
D14*
X453100500Y-236474000D03*
D13*
X455640500Y-241554000D03*
%TD*%
%TO.C,K22*%
X507393000Y-203454000D03*
D14*
X508663000Y-200914000D03*
D15*
X512473000Y-203454000D03*
D14*
X515013000Y-198374000D03*
D13*
X517553000Y-203454000D03*
%TD*%
%TO.C,K20*%
X469293000Y-203454000D03*
D14*
X470563000Y-200914000D03*
D15*
X474373000Y-203454000D03*
D14*
X476913000Y-198374000D03*
D13*
X479453000Y-203454000D03*
%TD*%
D31*
%TO.C,R2*%
X655400000Y-184190000D03*
X655400000Y-185210000D03*
%TD*%
D23*
%TO.C,K42*%
X369567520Y-234569000D03*
D15*
X369567520Y-249809000D03*
D13*
X376425520Y-241554000D03*
D14*
X377695520Y-239014000D03*
D15*
X381505520Y-241554000D03*
D14*
X384045520Y-236474000D03*
D13*
X386585520Y-241554000D03*
D23*
X393443520Y-234569000D03*
D15*
X393443520Y-249809000D03*
%TD*%
D13*
%TO.C,K62*%
X628778000Y-260604000D03*
D14*
X630048000Y-258064000D03*
D15*
X633858000Y-260604000D03*
D14*
X636398000Y-255524000D03*
D13*
X638938000Y-260604000D03*
%TD*%
D16*
%TO.C,D71*%
X676525000Y-176100000D03*
X678275000Y-176100000D03*
%TD*%
D13*
%TO.C,K49*%
X521680500Y-241554000D03*
D14*
X522950500Y-239014000D03*
D15*
X526760500Y-241554000D03*
D14*
X529300500Y-236474000D03*
D13*
X531840500Y-241554000D03*
%TD*%
%TO.C,K43*%
X407380500Y-241554000D03*
D14*
X408650500Y-239014000D03*
D15*
X412460500Y-241554000D03*
D14*
X415000500Y-236474000D03*
D13*
X417540500Y-241554000D03*
%TD*%
%TO.C,K52*%
X578830500Y-241554000D03*
D14*
X580100500Y-239014000D03*
D15*
X583910500Y-241554000D03*
D14*
X586450500Y-236474000D03*
D13*
X588990500Y-241554000D03*
%TD*%
%TO.C,K25*%
X564543000Y-203454000D03*
D14*
X565813000Y-200914000D03*
D15*
X569623000Y-203454000D03*
D14*
X572163000Y-198374000D03*
D13*
X574703000Y-203454000D03*
%TD*%
D32*
%TO.C,SW2*%
X656873000Y-176579000D03*
D33*
X659873000Y-176579000D03*
X662873000Y-176579000D03*
D34*
X654073000Y-176579000D03*
X665673000Y-176579000D03*
%TD*%
D13*
%TO.C,K57*%
X414528000Y-260604000D03*
D14*
X415798000Y-258064000D03*
D15*
X419608000Y-260604000D03*
D14*
X422148000Y-255524000D03*
D13*
X424688000Y-260604000D03*
%TD*%
D35*
%TO.C,REF\u002A\u002A*%
X652900000Y-185700000D03*
%TD*%
D36*
%TO.C,J1*%
X648425000Y-177279000D03*
X647775000Y-177279000D03*
X647125000Y-177279000D03*
X646475000Y-177279000D03*
X645825000Y-177279000D03*
D37*
X650075000Y-176079000D03*
D38*
X649975000Y-177379000D03*
D39*
X649855000Y-175329000D03*
D40*
X649855000Y-174399000D03*
D41*
X649545000Y-177399000D03*
D42*
X648085000Y-174129000D03*
X646165000Y-174129000D03*
D41*
X644705000Y-177399000D03*
D40*
X644395000Y-174399000D03*
D39*
X644375000Y-175329000D03*
D38*
X644225000Y-177399000D03*
D37*
X644125000Y-176079000D03*
%TD*%
D13*
%TO.C,K26*%
X583593000Y-203454000D03*
D14*
X584863000Y-200914000D03*
D15*
X588673000Y-203454000D03*
D14*
X591213000Y-198374000D03*
D13*
X593753000Y-203454000D03*
%TD*%
D20*
%TO.C,C15*%
X657400000Y-186262500D03*
X657400000Y-184537500D03*
%TD*%
D43*
%TO.C,C9*%
X669000000Y-201675000D03*
X669000000Y-203400000D03*
%TD*%
D13*
%TO.C,K34*%
X474055500Y-222504000D03*
D14*
X475325500Y-219964000D03*
D15*
X479135500Y-222504000D03*
D14*
X481675500Y-217424000D03*
D13*
X484215500Y-222504000D03*
%TD*%
%TO.C,K27*%
X602643000Y-203454000D03*
D14*
X603913000Y-200914000D03*
D15*
X607723000Y-203454000D03*
D14*
X610263000Y-198374000D03*
D13*
X612803000Y-203454000D03*
%TD*%
%TO.C,K24*%
X545493000Y-203454000D03*
D14*
X546763000Y-200914000D03*
D15*
X550573000Y-203454000D03*
D14*
X553113000Y-198374000D03*
D13*
X555653000Y-203454000D03*
%TD*%
%TO.C,K55*%
X366900520Y-260604000D03*
D14*
X368170520Y-258064000D03*
D15*
X371980520Y-260604000D03*
D14*
X374520520Y-255524000D03*
D13*
X377060520Y-260604000D03*
%TD*%
%TO.C,K60*%
X581153000Y-260604000D03*
D14*
X582423000Y-258064000D03*
D15*
X586233000Y-260604000D03*
D14*
X588773000Y-255524000D03*
D13*
X591313000Y-260604000D03*
%TD*%
%TO.C,K12*%
X574068000Y-184404000D03*
D14*
X575338000Y-181864000D03*
D15*
X579148000Y-184404000D03*
D14*
X581688000Y-179324000D03*
D13*
X584228000Y-184404000D03*
%TD*%
%TO.C,K9*%
X516918000Y-184404000D03*
D14*
X518188000Y-181864000D03*
D15*
X521998000Y-184404000D03*
D14*
X524538000Y-179324000D03*
D13*
X527078000Y-184404000D03*
%TD*%
D35*
%TO.C,J5*%
X670473000Y-174600000D03*
%TD*%
%TO.C,J6*%
X670473000Y-180500000D03*
%TD*%
M02*
