%TF.GenerationSoftware,KiCad,Pcbnew,7.0.7*%
%TF.CreationDate,2023-10-31T18:53:21-05:00*%
%TF.ProjectId,KeyboardPCB,4b657962-6f61-4726-9450-43422e6b6963,rev?*%
%TF.SameCoordinates,Original*%
%TF.FileFunction,Copper,L1,Top*%
%TF.FilePolarity,Positive*%
%FSLAX46Y46*%
G04 Gerber Fmt 4.6, Leading zero omitted, Abs format (unit mm)*
G04 Created by KiCad (PCBNEW 7.0.7) date 2023-10-31 18:53:21*
%MOMM*%
%LPD*%
G01*
G04 APERTURE LIST*
G04 Aperture macros list*
%AMRoundRect*
0 Rectangle with rounded corners*
0 $1 Rounding radius*
0 $2 $3 $4 $5 $6 $7 $8 $9 X,Y pos of 4 corners*
0 Add a 4 corners polygon primitive as box body*
4,1,4,$2,$3,$4,$5,$6,$7,$8,$9,$2,$3,0*
0 Add four circle primitives for the rounded corners*
1,1,$1+$1,$2,$3*
1,1,$1+$1,$4,$5*
1,1,$1+$1,$6,$7*
1,1,$1+$1,$8,$9*
0 Add four rect primitives between the rounded corners*
20,1,$1+$1,$2,$3,$4,$5,0*
20,1,$1+$1,$4,$5,$6,$7,0*
20,1,$1+$1,$6,$7,$8,$9,0*
20,1,$1+$1,$8,$9,$2,$3,0*%
G04 Aperture macros list end*
%TA.AperFunction,ComponentPad*%
%ADD10R,1.778000X1.778000*%
%TD*%
%TA.AperFunction,ComponentPad*%
%ADD11C,1.778000*%
%TD*%
%TA.AperFunction,SMDPad,CuDef*%
%ADD12RoundRect,0.237500X-0.287500X-0.237500X0.287500X-0.237500X0.287500X0.237500X-0.287500X0.237500X0*%
%TD*%
%TA.AperFunction,SMDPad,CuDef*%
%ADD13RoundRect,0.150000X-0.512500X-0.150000X0.512500X-0.150000X0.512500X0.150000X-0.512500X0.150000X0*%
%TD*%
%TA.AperFunction,SMDPad,CuDef*%
%ADD14RoundRect,0.237500X0.300000X0.237500X-0.300000X0.237500X-0.300000X-0.237500X0.300000X-0.237500X0*%
%TD*%
%TA.AperFunction,SMDPad,CuDef*%
%ADD15R,2.400000X2.000000*%
%TD*%
%TA.AperFunction,SMDPad,CuDef*%
%ADD16RoundRect,0.237500X0.237500X-0.300000X0.237500X0.300000X-0.237500X0.300000X-0.237500X-0.300000X0*%
%TD*%
%TA.AperFunction,SMDPad,CuDef*%
%ADD17O,0.800000X2.400000*%
%TD*%
%TA.AperFunction,SMDPad,CuDef*%
%ADD18O,2.400000X0.800000*%
%TD*%
%TA.AperFunction,ComponentPad*%
%ADD19R,1.700000X1.700000*%
%TD*%
%TA.AperFunction,ComponentPad*%
%ADD20O,1.700000X1.700000*%
%TD*%
%TA.AperFunction,SMDPad,CuDef*%
%ADD21RoundRect,0.135000X-0.135000X-0.185000X0.135000X-0.185000X0.135000X0.185000X-0.135000X0.185000X0*%
%TD*%
%TA.AperFunction,SMDPad,CuDef*%
%ADD22R,0.850000X0.350000*%
%TD*%
%TA.AperFunction,SMDPad,CuDef*%
%ADD23R,1.700000X2.450000*%
%TD*%
%TA.AperFunction,ComponentPad*%
%ADD24R,1.000000X1.000000*%
%TD*%
%TA.AperFunction,ComponentPad*%
%ADD25O,1.000000X1.000000*%
%TD*%
%TA.AperFunction,SMDPad,CuDef*%
%ADD26RoundRect,0.135000X-0.185000X0.135000X-0.185000X-0.135000X0.185000X-0.135000X0.185000X0.135000X0*%
%TD*%
%TA.AperFunction,ComponentPad*%
%ADD27R,1.515000X1.515000*%
%TD*%
%TA.AperFunction,ComponentPad*%
%ADD28C,1.515000*%
%TD*%
%TA.AperFunction,ComponentPad*%
%ADD29C,2.385000*%
%TD*%
%TA.AperFunction,SMDPad,CuDef*%
%ADD30C,2.000000*%
%TD*%
%TA.AperFunction,SMDPad,CuDef*%
%ADD31R,0.400000X1.650000*%
%TD*%
%TA.AperFunction,SMDPad,CuDef*%
%ADD32R,1.825000X0.700000*%
%TD*%
%TA.AperFunction,SMDPad,CuDef*%
%ADD33R,2.000000X1.500000*%
%TD*%
%TA.AperFunction,SMDPad,CuDef*%
%ADD34R,1.350000X2.000000*%
%TD*%
%TA.AperFunction,ComponentPad*%
%ADD35O,1.350000X1.700000*%
%TD*%
%TA.AperFunction,ComponentPad*%
%ADD36O,1.100000X1.500000*%
%TD*%
%TA.AperFunction,SMDPad,CuDef*%
%ADD37R,1.430000X2.500000*%
%TD*%
%TA.AperFunction,SMDPad,CuDef*%
%ADD38RoundRect,0.237500X-0.237500X0.300000X-0.237500X-0.300000X0.237500X-0.300000X0.237500X0.300000X0*%
%TD*%
%TA.AperFunction,ComponentPad*%
%ADD39C,2.000000*%
%TD*%
%TA.AperFunction,ViaPad*%
%ADD40C,0.600000*%
%TD*%
%TA.AperFunction,ViaPad*%
%ADD41C,1.000000*%
%TD*%
%TA.AperFunction,ViaPad*%
%ADD42C,0.950000*%
%TD*%
%TA.AperFunction,Conductor*%
%ADD43C,0.254000*%
%TD*%
%TA.AperFunction,Conductor*%
%ADD44C,0.200000*%
%TD*%
%TA.AperFunction,Conductor*%
%ADD45C,0.177800*%
%TD*%
%TA.AperFunction,Conductor*%
%ADD46C,0.250000*%
%TD*%
%TA.AperFunction,Conductor*%
%ADD47C,0.239500*%
%TD*%
G04 APERTURE END LIST*
D10*
%TO.P,U3,1,LITE*%
%TO.N,/3V3*%
X658965000Y-216900000D03*
D11*
%TO.P,U3,2,MISO*%
%TO.N,/LCD_MISO*%
X661505000Y-216900000D03*
%TO.P,U3,3,SCK*%
%TO.N,/LCD_clk*%
X664045000Y-216900000D03*
%TO.P,U3,4,MOSI*%
%TO.N,/LCD_MOSI*%
X666585000Y-216900000D03*
%TO.P,U3,5,TFT_CS*%
%TO.N,/LCD_fs*%
X669125000Y-216900000D03*
%TO.P,U3,6,CARD_CS*%
%TO.N,/LCD_SD_Card*%
X671665000Y-216900000D03*
%TO.P,U3,7,D/C*%
%TO.N,/LCD_DC*%
X674205000Y-216900000D03*
%TO.P,U3,8,RESET*%
%TO.N,/LCD_Reset*%
X676745000Y-216900000D03*
%TO.P,U3,9,VCC*%
%TO.N,/3V3*%
X679285000Y-216900000D03*
%TO.P,U3,10,GND*%
%TO.N,GND*%
X681825000Y-216900000D03*
%TD*%
D12*
%TO.P,D9,1,K*%
%TO.N,Net-(D9-K)*%
X689523000Y-176079000D03*
%TO.P,D9,2,A*%
%TO.N,/3V3*%
X691273000Y-176079000D03*
%TD*%
D13*
%TO.P,U2,1,IN*%
%TO.N,/Switch_OUT*%
X660262500Y-185650000D03*
%TO.P,U2,2,GND*%
%TO.N,GND*%
X660262500Y-186600000D03*
%TO.P,U2,3,EN*%
%TO.N,/Switch_OUT*%
X660262500Y-187550000D03*
%TO.P,U2,4,NR*%
%TO.N,Net-(U2-NR)*%
X662537500Y-187550000D03*
%TO.P,U2,5,OUT*%
%TO.N,/3V3*%
X662537500Y-185650000D03*
%TD*%
D14*
%TO.P,C17,1*%
%TO.N,/VBUS*%
X657262500Y-182300000D03*
%TO.P,C17,2*%
%TO.N,GND*%
X655537500Y-182300000D03*
%TD*%
D15*
%TO.P,X2,1,1*%
%TO.N,Net-(U1-OSC0)*%
X672500000Y-198737500D03*
%TO.P,X2,2,2*%
%TO.N,Net-(U1-OSC1)*%
X672500000Y-202737500D03*
%TD*%
D16*
%TO.P,C8,1*%
%TO.N,Net-(U1-OSC0)*%
X669000000Y-200000000D03*
%TO.P,C8,2*%
%TO.N,GND*%
X669000000Y-198275000D03*
%TD*%
D17*
%TO.P,IC2,1,GND_1*%
%TO.N,GND*%
X694273000Y-187029000D03*
%TO.P,IC2,2,PB04*%
%TO.N,unconnected-(IC2-PB04-Pad2)*%
X693073000Y-187029000D03*
%TO.P,IC2,3,PB03*%
%TO.N,/~{BLUETOOTH_LED}*%
X691873000Y-187029000D03*
%TO.P,IC2,4,PB02*%
%TO.N,/BLUETOOTH_TX*%
X690673000Y-187029000D03*
%TO.P,IC2,5,PB01*%
%TO.N,/BLUETOOTH_RX*%
X689473000Y-187029000D03*
%TO.P,IC2,6,PB00*%
%TO.N,unconnected-(IC2-PB00-Pad6)*%
X688273000Y-187029000D03*
%TO.P,IC2,7,PA00*%
%TO.N,unconnected-(IC2-PA00-Pad7)*%
X687073000Y-187029000D03*
%TO.P,IC2,8,PA01*%
%TO.N,/BGM_SWCLK*%
X685873000Y-187029000D03*
%TO.P,IC2,9,PA02*%
%TO.N,/BGM_SWDIO*%
X684673000Y-187029000D03*
%TO.P,IC2,10,PA03*%
%TO.N,/BGM_SWO*%
X683473000Y-187029000D03*
%TO.P,IC2,11,PA04*%
%TO.N,unconnected-(IC2-PA04-Pad11)*%
X682273000Y-187029000D03*
%TO.P,IC2,12,GND_2*%
%TO.N,GND*%
X681073000Y-187029000D03*
D18*
%TO.P,IC2,13,VDD*%
%TO.N,/3V3*%
X680973000Y-189079000D03*
%TO.P,IC2,14,PA05*%
%TO.N,/BGM220P_DEBUG_TX*%
X680973000Y-190279000D03*
%TO.P,IC2,15,PA06*%
%TO.N,/BGM220P_DEBUG_RX*%
X680973000Y-191479000D03*
%TO.P,IC2,16,PA07*%
%TO.N,unconnected-(IC2-PA07-Pad16)*%
X680973000Y-192679000D03*
%TO.P,IC2,17,PA08*%
%TO.N,unconnected-(IC2-PA08-Pad17)*%
X680973000Y-193879000D03*
%TO.P,IC2,18,PD03*%
%TO.N,unconnected-(IC2-PD03-Pad18)*%
X680973000Y-195079000D03*
%TO.P,IC2,19,PD02*%
%TO.N,unconnected-(IC2-PD02-Pad19)*%
X680973000Y-196279000D03*
D17*
%TO.P,IC2,20,GND_3*%
%TO.N,GND*%
X681073000Y-198329000D03*
%TO.P,IC2,21,NC*%
%TO.N,unconnected-(IC2-NC-Pad21)*%
X682273000Y-198329000D03*
%TO.P,IC2,22,PC00*%
%TO.N,/EM4_WAKEUP*%
X683473000Y-198329000D03*
%TO.P,IC2,23,PC01*%
%TO.N,unconnected-(IC2-PC01-Pad23)*%
X684673000Y-198329000D03*
%TO.P,IC2,24,PC02*%
%TO.N,unconnected-(IC2-PC02-Pad24)*%
X685873000Y-198329000D03*
%TO.P,IC2,25,PC03*%
%TO.N,unconnected-(IC2-PC03-Pad25)*%
X687073000Y-198329000D03*
%TO.P,IC2,26,PC04*%
%TO.N,/PTI_DOUT*%
X688273000Y-198329000D03*
%TO.P,IC2,27,PC05*%
%TO.N,/PTI_DFRAME*%
X689473000Y-198329000D03*
%TO.P,IC2,28,PC06*%
%TO.N,unconnected-(IC2-PC06-Pad28)*%
X690673000Y-198329000D03*
%TO.P,IC2,29,PC07*%
%TO.N,unconnected-(IC2-PC07-Pad29)*%
X691873000Y-198329000D03*
%TO.P,IC2,30,RESETN*%
%TO.N,/~{RESET}*%
X693073000Y-198329000D03*
%TO.P,IC2,31,GND_4*%
%TO.N,GND*%
X694273000Y-198329000D03*
%TD*%
D14*
%TO.P,C19,1*%
%TO.N,/VBAT*%
X653562500Y-181800000D03*
%TO.P,C19,2*%
%TO.N,GND*%
X651837500Y-181800000D03*
%TD*%
D19*
%TO.P,J3,1,Pin_1*%
%TO.N,/BGM220P_DEBUG_TX*%
X680673000Y-203979000D03*
D20*
%TO.P,J3,2,Pin_2*%
%TO.N,/BGM220P_DEBUG_RX*%
X683213000Y-203979000D03*
%TO.P,J3,3,Pin_3*%
%TO.N,/BLUETOOTH_RX*%
X685753000Y-203979000D03*
%TO.P,J3,4,Pin_4*%
%TO.N,/BLUETOOTH_TX*%
X688293000Y-203979000D03*
%TO.P,J3,5,Pin_5*%
%TO.N,/TM4C_DEBUG_TX*%
X690833000Y-203979000D03*
%TO.P,J3,6,Pin_6*%
%TO.N,/TM4C_DEBUG_RX*%
X693373000Y-203979000D03*
%TD*%
D16*
%TO.P,C16,1*%
%TO.N,Net-(U2-NR)*%
X665100000Y-187462500D03*
%TO.P,C16,2*%
%TO.N,GND*%
X665100000Y-185737500D03*
%TD*%
D21*
%TO.P,R7,1*%
%TO.N,Net-(IC1-ILIM)*%
X664480000Y-181100000D03*
%TO.P,R7,2*%
%TO.N,GND*%
X665500000Y-181100000D03*
%TD*%
%TO.P,R10,1*%
%TO.N,/~{BLUETOOTH_LED}*%
X682590000Y-177800000D03*
%TO.P,R10,2*%
%TO.N,Net-(D20-K)*%
X683610000Y-177800000D03*
%TD*%
%TO.P,R6,1*%
%TO.N,/3V3*%
X677580000Y-178000000D03*
%TO.P,R6,2*%
%TO.N,Net-(D71-A)*%
X678600000Y-178000000D03*
%TD*%
D22*
%TO.P,IC1,1,STAT*%
%TO.N,unconnected-(IC1-STAT-Pad1)*%
X662900000Y-183450000D03*
%TO.P,IC1,2,~{EN}*%
%TO.N,GND*%
X662900000Y-182800000D03*
%TO.P,IC1,3,VSNS*%
X662900000Y-182150000D03*
%TO.P,IC1,4,ILIM*%
%TO.N,Net-(IC1-ILIM)*%
X662900000Y-181500000D03*
%TO.P,IC1,5,GND_1*%
%TO.N,GND*%
X660000000Y-181500000D03*
%TO.P,IC1,6,IN2*%
%TO.N,/VBAT*%
X660000000Y-182150000D03*
%TO.P,IC1,7,OUT*%
%TO.N,/Switch_OUT*%
X660000000Y-182800000D03*
%TO.P,IC1,8,IN1*%
%TO.N,/VBUS*%
X660000000Y-183450000D03*
D23*
%TO.P,IC1,9,GND_2*%
%TO.N,GND*%
X661450000Y-182475000D03*
%TD*%
D24*
%TO.P,J4,1,Pin_1*%
%TO.N,/3V3*%
X688793000Y-182349000D03*
D25*
%TO.P,J4,2,Pin_2*%
%TO.N,GND*%
X688793000Y-181079000D03*
%TO.P,J4,3,Pin_3*%
%TO.N,/~{RESET}*%
X690063000Y-182349000D03*
%TO.P,J4,4,Pin_4*%
%TO.N,unconnected-(J4-Pin_4-Pad4)*%
X690063000Y-181079000D03*
%TO.P,J4,5,Pin_5*%
%TO.N,unconnected-(J4-Pin_5-Pad5)*%
X691333000Y-182349000D03*
%TO.P,J4,6,Pin_6*%
%TO.N,/BGM_SWO*%
X691333000Y-181079000D03*
%TO.P,J4,7,Pin_7*%
%TO.N,/BGM_SWDIO*%
X692603000Y-182349000D03*
%TO.P,J4,8,Pin_8*%
%TO.N,/BGM_SWCLK*%
X692603000Y-181079000D03*
%TO.P,J4,9,Pin_9*%
%TO.N,/PTI_DFRAME*%
X693873000Y-182349000D03*
%TO.P,J4,10,Pin_10*%
%TO.N,/PTI_DOUT*%
X693873000Y-181079000D03*
%TD*%
D19*
%TO.P,J2,1,Pin_1*%
%TO.N,/JTAG_SWCLK_TCLK*%
X678000000Y-209800000D03*
D20*
%TO.P,J2,2,Pin_2*%
%TO.N,/JTAG_SWDIO_TMS*%
X680540000Y-209800000D03*
%TO.P,J2,3,Pin_3*%
%TO.N,/JTAG_SWO_TDO*%
X683080000Y-209800000D03*
%TO.P,J2,4,Pin_4*%
%TO.N,/JTAG_TDI*%
X685620000Y-209800000D03*
%TO.P,J2,5,Pin_5*%
%TO.N,/3V3*%
X688160000Y-209800000D03*
%TO.P,J2,6,Pin_6*%
%TO.N,/~{RESET}*%
X690700000Y-209800000D03*
%TO.P,J2,7,Pin_7*%
%TO.N,GND*%
X693240000Y-209800000D03*
%TD*%
D12*
%TO.P,D20,1,K*%
%TO.N,Net-(D20-K)*%
X683058000Y-176079000D03*
%TO.P,D20,2,A*%
%TO.N,/3V3*%
X684808000Y-176079000D03*
%TD*%
D26*
%TO.P,R2,1*%
%TO.N,/VBUS*%
X655400000Y-184190000D03*
%TO.P,R2,2*%
%TO.N,Net-(U1-PB1_USB0VBUS)*%
X655400000Y-185210000D03*
%TD*%
D12*
%TO.P,D71,1,K*%
%TO.N,GND*%
X676525000Y-176100000D03*
%TO.P,D71,2,A*%
%TO.N,Net-(D71-A)*%
X678275000Y-176100000D03*
%TD*%
D27*
%TO.P,SW2,1,A*%
%TO.N,Net-(J5-Pin_1)*%
X656873000Y-176579000D03*
D28*
%TO.P,SW2,2,B*%
%TO.N,/VBAT*%
X659873000Y-176579000D03*
%TO.P,SW2,3,C*%
%TO.N,GND*%
X662873000Y-176579000D03*
D29*
%TO.P,SW2,MH1*%
%TO.N,N/C*%
X654073000Y-176579000D03*
%TO.P,SW2,MH2*%
X665673000Y-176579000D03*
%TD*%
D30*
%TO.P,REF\u002A\u002A,1*%
%TO.N,/VBUS*%
X652900000Y-185700000D03*
%TD*%
D31*
%TO.P,J1,1,VBUS*%
%TO.N,/VBUS*%
X648425000Y-177279000D03*
%TO.P,J1,2,D-*%
%TO.N,Net-(J1-D-)*%
X647775000Y-177279000D03*
%TO.P,J1,3,D+*%
%TO.N,Net-(J1-D+)*%
X647125000Y-177279000D03*
%TO.P,J1,4,ID*%
%TO.N,unconnected-(J1-ID-Pad4)*%
X646475000Y-177279000D03*
%TO.P,J1,5,GND*%
%TO.N,GND*%
X645825000Y-177279000D03*
D32*
%TO.P,J1,6,Shield*%
X650075000Y-176079000D03*
D33*
X649975000Y-177379000D03*
D34*
X649855000Y-175329000D03*
D35*
X649855000Y-174399000D03*
D36*
X649545000Y-177399000D03*
D37*
X648085000Y-174129000D03*
X646165000Y-174129000D03*
D36*
X644705000Y-177399000D03*
D35*
X644395000Y-174399000D03*
D34*
X644375000Y-175329000D03*
D33*
X644225000Y-177399000D03*
D32*
X644125000Y-176079000D03*
%TD*%
D16*
%TO.P,C15,1*%
%TO.N,GND*%
X657400000Y-186262500D03*
%TO.P,C15,2*%
%TO.N,/Switch_OUT*%
X657400000Y-184537500D03*
%TD*%
D38*
%TO.P,C9,1*%
%TO.N,Net-(U1-OSC1)*%
X669000000Y-201675000D03*
%TO.P,C9,2*%
%TO.N,GND*%
X669000000Y-203400000D03*
%TD*%
D39*
%TO.P,J5,1,Pin_1*%
%TO.N,Net-(J5-Pin_1)*%
X670473000Y-174600000D03*
%TD*%
%TO.P,J6,1,Pin_1*%
%TO.N,GND*%
X670473000Y-180500000D03*
%TD*%
D40*
%TO.N,GND*%
X656594136Y-198553088D03*
X665200000Y-188800000D03*
X658953088Y-197294136D03*
X668000000Y-198200000D03*
X686048624Y-183029500D03*
X686039461Y-181668500D03*
%TO.N,/VBAT*%
X654900000Y-181000000D03*
D41*
X658800000Y-180900000D03*
D40*
%TO.N,/3V3*%
X679100000Y-189100000D03*
X656570754Y-204329246D03*
X686500000Y-179000000D03*
X656200702Y-199576491D03*
X677600000Y-179100000D03*
X683274600Y-182400000D03*
X661800000Y-196842400D03*
X667650000Y-188850000D03*
X664400000Y-184200000D03*
X662241861Y-198141861D03*
X662819300Y-199243078D03*
X686500000Y-176000000D03*
X657600000Y-199400000D03*
X663100000Y-205092400D03*
X661146500Y-192813250D03*
X678000000Y-205844800D03*
X663800000Y-200538400D03*
X664356922Y-199243078D03*
X691200000Y-174700000D03*
X659800000Y-197400000D03*
X665300000Y-191500000D03*
%TO.N,Net-(C11-Pad1)*%
X660900000Y-204900000D03*
X660900000Y-196766200D03*
%TO.N,/Switch_OUT*%
X658700000Y-187322700D03*
X658700000Y-185000000D03*
X658700000Y-184174500D03*
D42*
X658710732Y-182725500D03*
D40*
%TO.N,/row0*%
X404000000Y-190800000D03*
X621800000Y-190800000D03*
X481700000Y-192300000D03*
X406000000Y-190800000D03*
X387000000Y-190800000D03*
X464000000Y-191600000D03*
X484100000Y-192300000D03*
X389100000Y-190800000D03*
X443000000Y-191300000D03*
X619100000Y-190800000D03*
X424600000Y-190800000D03*
X664900000Y-192300000D03*
X426800000Y-190800000D03*
X445400000Y-191300000D03*
X635000000Y-190700000D03*
X466300000Y-191600000D03*
%TO.N,/row1*%
X430200000Y-209700000D03*
X392000000Y-209800000D03*
X487900000Y-209800000D03*
X508000000Y-209800000D03*
X545800000Y-209700000D03*
X411600000Y-209800000D03*
X469800000Y-209800000D03*
X526000000Y-209700000D03*
X410000000Y-209800000D03*
X454100000Y-209800000D03*
X639800000Y-209800000D03*
X472500000Y-209800000D03*
X527400000Y-209700000D03*
X390200000Y-209800000D03*
X452000000Y-209800000D03*
X664127015Y-192502269D03*
X509300000Y-209800000D03*
X490200000Y-209800000D03*
X548800000Y-209700000D03*
X432800000Y-209700000D03*
%TO.N,/row2*%
X566100000Y-229500000D03*
X492100000Y-228800000D03*
X454100000Y-229100000D03*
X394700000Y-228800000D03*
X587200000Y-228900000D03*
X605200000Y-227800000D03*
X563800000Y-229400000D03*
X413600000Y-229300000D03*
X616200000Y-228800000D03*
X473000000Y-228900000D03*
X411200000Y-229300000D03*
X509200000Y-228800000D03*
X430400000Y-229200000D03*
X511100000Y-228800000D03*
X452100000Y-229100000D03*
X396700000Y-228800000D03*
X632400000Y-228900000D03*
X432200000Y-229200000D03*
X530000000Y-228900000D03*
X471200000Y-228900000D03*
X528400000Y-228900000D03*
X607100000Y-227800000D03*
X585600000Y-228900000D03*
X490200000Y-228800000D03*
X547400000Y-228800000D03*
X549100000Y-228800000D03*
X618700000Y-228800000D03*
X663198907Y-192601094D03*
%TO.N,/row3*%
X566200000Y-247900000D03*
X608800000Y-248000000D03*
X563500000Y-247900000D03*
X404400000Y-247900000D03*
X641800000Y-247900000D03*
X406400000Y-247900000D03*
X582400000Y-247900000D03*
X394100000Y-245800000D03*
X606200000Y-248000000D03*
X465700000Y-247900000D03*
X543100000Y-247800000D03*
X584500000Y-247900000D03*
X468900000Y-247800000D03*
X392000000Y-243900000D03*
X545800000Y-247800000D03*
X662400000Y-192600000D03*
%TO.N,Net-(D9-K)*%
X689500000Y-177300000D03*
%TO.N,Net-(U1-PB1_USB0VBUS)*%
X655400000Y-186100000D03*
X663800000Y-197300000D03*
X666800000Y-194898845D03*
X663800000Y-203500000D03*
X665500000Y-195600000D03*
%TO.N,/col7*%
X503600000Y-195900000D03*
X503600000Y-193800000D03*
%TO.N,/col13*%
X624400000Y-196600000D03*
X617300000Y-209100000D03*
X624400000Y-194300000D03*
X617338500Y-213200000D03*
%TO.N,/col11*%
X586350500Y-212300000D03*
X581600000Y-196477400D03*
X581600000Y-194100000D03*
X586400000Y-209000000D03*
%TO.N,/col10*%
X567300500Y-211900000D03*
X561600000Y-194100000D03*
X561600000Y-196700000D03*
X567300000Y-209100000D03*
%TO.N,/BLUETOOTH_TX*%
X654100000Y-196100000D03*
X673800000Y-205478200D03*
X688100000Y-185128500D03*
%TO.N,/BLUETOOTH_RX*%
X685462300Y-189300000D03*
X654900000Y-196200000D03*
X683900000Y-205700000D03*
%TO.N,/LCD_clk*%
X651900799Y-193944770D03*
%TO.N,/LCD_fs*%
X652611500Y-192851242D03*
%TO.N,/LCD_MISO*%
X651478821Y-193100593D03*
%TO.N,/LCD_MOSI*%
X652900000Y-191655900D03*
%TO.N,/LCD_DC*%
X653794400Y-191749572D03*
%TO.N,/LCD_Reset*%
X654787960Y-191611400D03*
%TO.N,/LCD_SD_Card*%
X668000000Y-209833800D03*
X668000000Y-207321800D03*
%TO.N,/col12*%
X606200000Y-212700000D03*
X600600000Y-196477400D03*
X606200000Y-208700000D03*
X600600000Y-194200000D03*
%TO.N,/col8*%
X522600000Y-194200000D03*
X522600000Y-196300000D03*
%TO.N,/col9*%
X543000000Y-196700000D03*
X542900000Y-194100000D03*
%TO.N,/BGM_SWCLK*%
X686598000Y-185504000D03*
X690669687Y-180186113D03*
%TO.N,/BGM_SWO*%
X684776000Y-183859574D03*
%TO.N,/EM4_WAKEUP*%
X658500000Y-207889300D03*
%TO.N,/PTI_DOUT*%
X688273000Y-200179000D03*
%TO.N,/PTI_DFRAME*%
X689073000Y-200679000D03*
%TO.N,/BGM220P_DEBUG_RX*%
X679100000Y-191500000D03*
%TO.N,/~{BLUETOOTH_LED}*%
X685873000Y-184579000D03*
X682600000Y-178700000D03*
%TO.N,/TM4C_DEBUG_TX*%
X686700000Y-205800000D03*
X675800000Y-205200000D03*
X657200000Y-193500000D03*
%TO.N,/TM4C_DEBUG_RX*%
X674661617Y-205478200D03*
X691352000Y-206000000D03*
X687299636Y-206399636D03*
X656400000Y-193800000D03*
%TO.N,/~{RESET}*%
X693000000Y-200100000D03*
%TO.N,/~{CAPS_LOCK_LED}*%
X688400000Y-178900000D03*
X657700000Y-207889300D03*
X685066200Y-205511850D03*
X687534578Y-180752313D03*
%TO.N,Net-(U1-OSC0)*%
X668000000Y-200300000D03*
%TO.N,Net-(U1-OSC1)*%
X668000000Y-201200000D03*
%TO.N,/BGM220P_DEBUG_TX*%
X679100000Y-190300000D03*
%TO.N,Net-(J1-D-)*%
X647875000Y-179200000D03*
%TO.N,Net-(J1-D+)*%
X647025000Y-179200000D03*
%TD*%
D43*
%TO.N,GND*%
X660693000Y-174399000D02*
X662873000Y-176579000D01*
X649855000Y-174399000D02*
X660693000Y-174399000D01*
D44*
X655037500Y-182800000D02*
X655537500Y-182300000D01*
X652837500Y-182800000D02*
X655037500Y-182800000D01*
X651837500Y-181800000D02*
X652837500Y-182800000D01*
D43*
%TO.N,/3V3*%
X661613344Y-193280094D02*
X664880158Y-193280094D01*
X666300000Y-191860252D02*
X666300000Y-190200000D01*
X661146500Y-192813250D02*
X661613344Y-193280094D01*
X664880158Y-193280094D02*
X666300000Y-191860252D01*
X659800000Y-197400000D02*
X657800000Y-199400000D01*
X656570754Y-199946543D02*
X656570754Y-202800000D01*
X656200702Y-199576491D02*
X656570754Y-199946543D01*
X656570754Y-202700000D02*
X656570754Y-204329246D01*
X657423509Y-199576491D02*
X657600000Y-199400000D01*
X656200702Y-199576491D02*
X657423509Y-199576491D01*
%TO.N,GND*%
X691540000Y-211500000D02*
X693240000Y-209800000D01*
X681825000Y-216900000D02*
X687225000Y-211500000D01*
X687225000Y-211500000D02*
X691540000Y-211500000D01*
X657853088Y-197294136D02*
X658953088Y-197294136D01*
X688465687Y-181406313D02*
X686301648Y-181406313D01*
X666100000Y-188200000D02*
X666100000Y-186737500D01*
X669000000Y-203400000D02*
X667346000Y-201746000D01*
X656594136Y-198553088D02*
X657853088Y-197294136D01*
X667346000Y-201746000D02*
X667346000Y-198854000D01*
X686301648Y-181406313D02*
X686039461Y-181668500D01*
X684272500Y-183029500D02*
X681073000Y-186229000D01*
X644705000Y-177399000D02*
X644705000Y-174709000D01*
X666100000Y-186737500D02*
X665100000Y-185737500D01*
X645705000Y-177399000D02*
X645825000Y-177279000D01*
X644395000Y-174399000D02*
X649855000Y-174399000D01*
X669000000Y-198275000D02*
X668075000Y-198275000D01*
X667346000Y-198854000D02*
X668000000Y-198200000D01*
X668075000Y-198275000D02*
X668000000Y-198200000D01*
X688793000Y-181079000D02*
X688465687Y-181406313D01*
X665200000Y-188800000D02*
X665500000Y-188800000D01*
X644705000Y-177399000D02*
X645705000Y-177399000D01*
X649855000Y-174399000D02*
X649855000Y-177089000D01*
X665500000Y-188800000D02*
X666100000Y-188200000D01*
X686048624Y-183029500D02*
X684272500Y-183029500D01*
%TO.N,/VBAT*%
X659396000Y-182150000D02*
X660000000Y-182150000D01*
X658800000Y-181554000D02*
X659396000Y-182150000D01*
X654100000Y-181800000D02*
X654900000Y-181000000D01*
X658800000Y-180900000D02*
X658800000Y-181554000D01*
X653562500Y-181800000D02*
X654100000Y-181800000D01*
%TO.N,/3V3*%
X665300000Y-191200000D02*
X665300000Y-191500000D01*
X691200000Y-174700000D02*
X691200000Y-176006000D01*
X686831506Y-181900000D02*
X686382506Y-182349000D01*
X656570754Y-204329246D02*
X658209708Y-205968200D01*
X658209708Y-205968200D02*
X662224200Y-205968200D01*
X663800000Y-200538400D02*
X663800000Y-200223778D01*
X688344000Y-181900000D02*
X686831506Y-181900000D01*
X686500000Y-176000000D02*
X684887000Y-176000000D01*
X663800000Y-200223778D02*
X662819300Y-199243078D01*
X684200000Y-182349000D02*
X686382506Y-182349000D01*
X662224200Y-205968200D02*
X663100000Y-205092400D01*
X677580000Y-179080000D02*
X677580000Y-178000000D01*
X678000000Y-205844800D02*
X675400000Y-208444800D01*
X675400000Y-208444800D02*
X675400000Y-213015000D01*
X679121000Y-189079000D02*
X679100000Y-189100000D01*
X666300000Y-190200000D02*
X667650000Y-188850000D01*
X666300000Y-190200000D02*
X665300000Y-191200000D01*
X662241861Y-197284261D02*
X661800000Y-196842400D01*
X662950000Y-185650000D02*
X664400000Y-184200000D01*
X657800000Y-199400000D02*
X657600000Y-199400000D01*
X683325600Y-182349000D02*
X683274600Y-182400000D01*
X688793000Y-182349000D02*
X688344000Y-181900000D01*
X664356922Y-199243078D02*
X662819300Y-199243078D01*
X675400000Y-213015000D02*
X679285000Y-216900000D01*
X662241861Y-198141861D02*
X662241861Y-197284261D01*
X680973000Y-189079000D02*
X679121000Y-189079000D01*
X677600000Y-179100000D02*
X677580000Y-179080000D01*
X684200000Y-182349000D02*
X683325600Y-182349000D01*
X684200000Y-182349000D02*
X686500000Y-180049000D01*
X686500000Y-180049000D02*
X686500000Y-179000000D01*
D45*
%TO.N,Net-(C11-Pad1)*%
X660900000Y-196766200D02*
X660900000Y-204900000D01*
D43*
%TO.N,/Switch_OUT*%
X660035200Y-187322700D02*
X660262500Y-187550000D01*
X658700000Y-184174500D02*
X658700000Y-185000000D01*
X658787000Y-184174500D02*
X660262500Y-185650000D01*
D45*
X658700000Y-184174500D02*
X658787000Y-184174500D01*
D43*
X658700000Y-187322700D02*
X660035200Y-187322700D01*
X660000000Y-182800000D02*
X658785232Y-182800000D01*
X657763000Y-184174500D02*
X657400000Y-184537500D01*
X658700000Y-184174500D02*
X657763000Y-184174500D01*
D45*
X658785232Y-182800000D02*
X658710732Y-182725500D01*
%TO.N,Net-(U2-NR)*%
X662537500Y-187550000D02*
X665012500Y-187550000D01*
D43*
%TO.N,/VBUS*%
X652000000Y-183601676D02*
X652000000Y-185500000D01*
X652151676Y-183450000D02*
X650400000Y-181698324D01*
X650400000Y-181698324D02*
X650400000Y-180537344D01*
X655400000Y-183950000D02*
X654900000Y-183450000D01*
X654900000Y-183450000D02*
X652151676Y-183450000D01*
X654900000Y-183450000D02*
X660000000Y-183450000D01*
X648425000Y-178562344D02*
X648425000Y-177279000D01*
X655400000Y-184190000D02*
X655400000Y-183950000D01*
D46*
X656200000Y-183450000D02*
X660000000Y-183450000D01*
D43*
X652151676Y-183450000D02*
X652000000Y-183601676D01*
X657262500Y-182387500D02*
X656200000Y-183450000D01*
X650400000Y-180537344D02*
X648425000Y-178562344D01*
D45*
%TO.N,/row0*%
X662100000Y-189500000D02*
X636200000Y-189500000D01*
X426800000Y-190800000D02*
X424600000Y-190800000D01*
X621800000Y-190800000D02*
X619100000Y-190800000D01*
X406000000Y-190800000D02*
X404000000Y-190800000D01*
X484100000Y-192300000D02*
X481700000Y-192300000D01*
X445400000Y-191300000D02*
X443000000Y-191300000D01*
X389100000Y-190800000D02*
X387000000Y-190800000D01*
X664900000Y-192300000D02*
X662100000Y-189500000D01*
X636200000Y-189500000D02*
X635000000Y-190700000D01*
X466300000Y-191600000D02*
X464000000Y-191600000D01*
%TO.N,/row1*%
X651444400Y-189855600D02*
X649500000Y-191800000D01*
X661254141Y-189855600D02*
X651444400Y-189855600D01*
X646499700Y-209800000D02*
X639800000Y-209800000D01*
X664127015Y-192502269D02*
X663900810Y-192502269D01*
X472500000Y-209800000D02*
X469800000Y-209800000D01*
X649500000Y-191800000D02*
X649500000Y-206799700D01*
X411600000Y-209800000D02*
X410000000Y-209800000D01*
X663900810Y-192502269D02*
X661254141Y-189855600D01*
X490200000Y-209800000D02*
X487900000Y-209800000D01*
X454100000Y-209800000D02*
X452000000Y-209800000D01*
X527400000Y-209700000D02*
X526000000Y-209700000D01*
X548800000Y-209700000D02*
X545800000Y-209700000D01*
X432800000Y-209700000D02*
X430200000Y-209700000D01*
X392000000Y-209800000D02*
X390200000Y-209800000D01*
X649500000Y-206799700D02*
X646499700Y-209800000D01*
X509300000Y-209800000D02*
X508000000Y-209800000D01*
%TO.N,/row2*%
X618700000Y-228800000D02*
X616200000Y-228800000D01*
X663198907Y-192303260D02*
X661106847Y-190211200D01*
X511100000Y-228800000D02*
X509200000Y-228800000D01*
X649855600Y-211444400D02*
X632400000Y-228900000D01*
X566100000Y-229500000D02*
X563900000Y-229500000D01*
X549100000Y-228800000D02*
X547400000Y-228800000D01*
X432200000Y-229200000D02*
X430400000Y-229200000D01*
X563900000Y-229500000D02*
X563800000Y-229400000D01*
X649855600Y-191947294D02*
X649855600Y-211444400D01*
X473000000Y-228900000D02*
X471200000Y-228900000D01*
X396700000Y-228800000D02*
X394700000Y-228800000D01*
X492100000Y-228800000D02*
X490200000Y-228800000D01*
X663198907Y-192601094D02*
X663198907Y-192303260D01*
X413600000Y-229300000D02*
X411200000Y-229300000D01*
X651591694Y-190211200D02*
X649855600Y-191947294D01*
X530000000Y-228900000D02*
X528400000Y-228900000D01*
X454100000Y-229100000D02*
X452100000Y-229100000D01*
X661106847Y-190211200D02*
X651591694Y-190211200D01*
X587200000Y-228900000D02*
X585600000Y-228900000D01*
X607100000Y-227800000D02*
X605200000Y-227800000D01*
%TO.N,/row3*%
X468900000Y-247800000D02*
X465800000Y-247800000D01*
X650211200Y-239488800D02*
X641800000Y-247900000D01*
X662400000Y-192600000D02*
X662400000Y-192007247D01*
X584500000Y-247900000D02*
X582400000Y-247900000D01*
X394100000Y-245800000D02*
X392200000Y-243900000D01*
X465800000Y-247800000D02*
X465700000Y-247900000D01*
X650211200Y-192094588D02*
X650211200Y-239488800D01*
X406400000Y-247900000D02*
X404400000Y-247900000D01*
X660959553Y-190566800D02*
X651738988Y-190566800D01*
X566200000Y-247900000D02*
X563500000Y-247900000D01*
X545800000Y-247800000D02*
X543100000Y-247800000D01*
X608800000Y-248000000D02*
X606200000Y-248000000D01*
X651738988Y-190566800D02*
X650211200Y-192094588D01*
X392200000Y-243900000D02*
X392000000Y-243900000D01*
X662400000Y-192007247D02*
X660959553Y-190566800D01*
%TO.N,Net-(D9-K)*%
X689500000Y-177300000D02*
X689500000Y-176102000D01*
%TO.N,Net-(D20-K)*%
X683058000Y-176079000D02*
X683610000Y-176631000D01*
X683610000Y-176631000D02*
X683610000Y-177800000D01*
D44*
%TO.N,Net-(U1-PB1_USB0VBUS)*%
X662200000Y-198900000D02*
X662200000Y-201900000D01*
X666098845Y-195600000D02*
X666800000Y-194898845D01*
X662200000Y-201900000D02*
X663800000Y-203500000D01*
X662490390Y-198741861D02*
X662358139Y-198741861D01*
X662841861Y-198258139D02*
X662841861Y-198390390D01*
X663800000Y-197300000D02*
X662841861Y-198258139D01*
X655400000Y-186100000D02*
X655400000Y-185210000D01*
X662841861Y-198390390D02*
X662490390Y-198741861D01*
X662358139Y-198741861D02*
X662200000Y-198900000D01*
X665500000Y-195600000D02*
X666098845Y-195600000D01*
D43*
%TO.N,Net-(D71-A)*%
X678600000Y-178000000D02*
X678600000Y-176425000D01*
D45*
%TO.N,Net-(IC1-ILIM)*%
X662900000Y-181500000D02*
X664080000Y-181500000D01*
X664080000Y-181500000D02*
X664480000Y-181100000D01*
%TO.N,/col7*%
X503600000Y-195900000D02*
X503600000Y-193800000D01*
%TO.N,/col13*%
X617338500Y-213200000D02*
X617300000Y-213161500D01*
X617300000Y-213161500D02*
X617300000Y-209100000D01*
X624400000Y-196600000D02*
X624400000Y-194300000D01*
%TO.N,/col11*%
X586350500Y-212300000D02*
X586400000Y-212250500D01*
X581600000Y-196477400D02*
X581600000Y-194100000D01*
X586400000Y-212250500D02*
X586400000Y-209000000D01*
%TO.N,/col10*%
X567300500Y-211900000D02*
X567300000Y-211899500D01*
X561600000Y-196700000D02*
X561600000Y-194100000D01*
X567300000Y-211899500D02*
X567300000Y-209100000D01*
%TO.N,/BLUETOOTH_TX*%
X667051447Y-203848553D02*
X667748553Y-203848553D01*
X669588800Y-205688800D02*
X673589400Y-205688800D01*
X689572500Y-185128500D02*
X690673000Y-186229000D01*
X666855600Y-198126654D02*
X666855600Y-203652706D01*
X667748553Y-203848553D02*
X669588800Y-205688800D01*
X664573346Y-195844400D02*
X666855600Y-198126654D01*
X655388900Y-195633300D02*
X655600000Y-195844400D01*
X688100000Y-185128500D02*
X689572500Y-185128500D01*
X654566700Y-195633300D02*
X655388900Y-195633300D01*
X666855600Y-203652706D02*
X667051447Y-203848553D01*
X654100000Y-196100000D02*
X654566700Y-195633300D01*
X673589400Y-205688800D02*
X673800000Y-205478200D01*
X655600000Y-195844400D02*
X664573346Y-195844400D01*
%TO.N,/BLUETOOTH_RX*%
X654900000Y-196200000D02*
X664426052Y-196200000D01*
X667601259Y-204204153D02*
X669441506Y-206044400D01*
X678949400Y-204488800D02*
X680160600Y-205700000D01*
X666904153Y-204204153D02*
X667601259Y-204204153D01*
X669441506Y-206044400D02*
X675757035Y-206044400D01*
X680160600Y-205700000D02*
X683900000Y-205700000D01*
X688002000Y-189300000D02*
X689473000Y-187829000D01*
X666500000Y-203800000D02*
X666904153Y-204204153D01*
X677312635Y-204488800D02*
X678949400Y-204488800D01*
X664426052Y-196200000D02*
X666500000Y-198273948D01*
X666500000Y-198273948D02*
X666500000Y-203800000D01*
X675757035Y-206044400D02*
X677312635Y-204488800D01*
X685462300Y-189300000D02*
X688002000Y-189300000D01*
%TO.N,/LCD_clk*%
X652110900Y-194154871D02*
X652110900Y-205113211D01*
X663225311Y-214125311D02*
X664045000Y-214945000D01*
X652110900Y-205113211D02*
X661123000Y-214125311D01*
X664045000Y-214945000D02*
X664045000Y-216900000D01*
X651900799Y-193944770D02*
X652110900Y-194154871D01*
X661123000Y-214125311D02*
X663225311Y-214125311D01*
%TO.N,/LCD_fs*%
X652822100Y-193061842D02*
X652822100Y-204818623D01*
X663336200Y-211111200D02*
X669125000Y-216900000D01*
X659114677Y-211111200D02*
X663336200Y-211111200D01*
X652611500Y-192851242D02*
X652822100Y-193061842D01*
X652822100Y-204818623D02*
X659114677Y-211111200D01*
%TO.N,/LCD_MISO*%
X651755300Y-205260505D02*
X661505000Y-215010205D01*
X651478821Y-193100593D02*
X651333600Y-193245814D01*
X651755300Y-194600000D02*
X651755300Y-205260505D01*
X651333600Y-194178300D02*
X651755300Y-194600000D01*
X651333600Y-193245814D02*
X651333600Y-194178300D01*
X661505000Y-215010205D02*
X661505000Y-216900000D01*
%TO.N,/LCD_MOSI*%
X652044800Y-193084735D02*
X652460065Y-193500000D01*
X652466500Y-204965917D02*
X658967383Y-211466800D01*
X652044800Y-192511100D02*
X652044800Y-193084735D01*
X661151800Y-211466800D02*
X666585000Y-216900000D01*
X652466500Y-193500000D02*
X652466500Y-204965917D01*
X652900000Y-191655900D02*
X652044800Y-192511100D01*
X658967383Y-211466800D02*
X661151800Y-211466800D01*
X652460065Y-193500000D02*
X652466500Y-193500000D01*
%TO.N,/LCD_DC*%
X653177700Y-192179635D02*
X653177700Y-204671329D01*
X653794400Y-191749572D02*
X653607763Y-191749572D01*
X653177700Y-204671329D02*
X659261971Y-210755600D01*
X659261971Y-210755600D02*
X668060600Y-210755600D01*
X653607763Y-191749572D02*
X653177700Y-192179635D01*
X668060600Y-210755600D02*
X674205000Y-216900000D01*
%TO.N,/LCD_Reset*%
X670245000Y-210400000D02*
X676745000Y-216900000D01*
X653533300Y-192811400D02*
X653533300Y-204524035D01*
X659409265Y-210400000D02*
X670245000Y-210400000D01*
X654733300Y-191611400D02*
X653533300Y-192811400D01*
X653533300Y-204524035D02*
X659409265Y-210400000D01*
X654787960Y-191611400D02*
X654733300Y-191611400D01*
%TO.N,/LCD_SD_Card*%
X668000000Y-209833800D02*
X668000000Y-207321800D01*
%TO.N,/col12*%
X606200000Y-212700000D02*
X606200000Y-208700000D01*
X600600000Y-196477400D02*
X600600000Y-194200000D01*
%TO.N,/col8*%
X522600000Y-196300000D02*
X522600000Y-194200000D01*
%TO.N,/col9*%
X542900000Y-194100000D02*
X542900000Y-196600000D01*
X542900000Y-196600000D02*
X543000000Y-196700000D01*
%TO.N,/BGM_SWCLK*%
X686598000Y-185504000D02*
X685873000Y-186229000D01*
X690669687Y-180186113D02*
X691710113Y-180186113D01*
X691710113Y-180186113D02*
X692603000Y-181079000D01*
%TO.N,/BGM_SWDIO*%
X685552000Y-183900000D02*
X684673000Y-184779000D01*
X691052000Y-183900000D02*
X685552000Y-183900000D01*
X692603000Y-182349000D02*
X691052000Y-183900000D01*
X684673000Y-184779000D02*
X684673000Y-187029000D01*
%TO.N,/BGM_SWO*%
X684776000Y-183859574D02*
X683473000Y-185162574D01*
X683473000Y-185162574D02*
X683473000Y-187029000D01*
%TO.N,/EM4_WAKEUP*%
X678802106Y-204844400D02*
X680224406Y-206266700D01*
X684233300Y-206266700D02*
X684500000Y-206000000D01*
X684500000Y-206000000D02*
X684500000Y-200156000D01*
X684500000Y-200156000D02*
X683473000Y-199129000D01*
X658500000Y-207889300D02*
X659989800Y-206399500D01*
X677459929Y-204844400D02*
X678802106Y-204844400D01*
X675904829Y-206399500D02*
X677459929Y-204844400D01*
X680224406Y-206266700D02*
X684233300Y-206266700D01*
X659989800Y-206399500D02*
X675904829Y-206399500D01*
%TO.N,/PTI_DOUT*%
X688273000Y-200179000D02*
X688273000Y-198329000D01*
%TO.N,/PTI_DFRAME*%
X689473000Y-200279000D02*
X689473000Y-198329000D01*
X689073000Y-200679000D02*
X689473000Y-200279000D01*
D44*
%TO.N,/BGM220P_DEBUG_RX*%
X680973000Y-191479000D02*
X679121000Y-191479000D01*
X679121000Y-191479000D02*
X679100000Y-191500000D01*
D45*
%TO.N,/~{BLUETOOTH_LED}*%
X691873000Y-186229000D02*
X690195200Y-184551200D01*
X685900800Y-184551200D02*
X685873000Y-184579000D01*
X690195200Y-184551200D02*
X685900800Y-184551200D01*
X682590000Y-178690000D02*
X682600000Y-178700000D01*
X682590000Y-177800000D02*
X682590000Y-178690000D01*
%TO.N,/TM4C_DEBUG_TX*%
X674900000Y-197700000D02*
X671177045Y-193977045D01*
X674900000Y-204300000D02*
X674900000Y-197700000D01*
X689167600Y-205644400D02*
X690833000Y-203979000D01*
X671177045Y-193977045D02*
X657677045Y-193977045D01*
X686855600Y-205644400D02*
X689167600Y-205644400D01*
X657677045Y-193977045D02*
X657200000Y-193500000D01*
X686700000Y-205800000D02*
X686855600Y-205644400D01*
X675800000Y-205200000D02*
X674900000Y-204300000D01*
%TO.N,/TM4C_DEBUG_RX*%
X656400000Y-193800000D02*
X656666700Y-194066700D01*
X656965265Y-194066700D02*
X657231210Y-194332645D01*
X687699272Y-206000000D02*
X687299636Y-206399636D01*
X656666700Y-194066700D02*
X656965265Y-194066700D01*
X657231210Y-194332645D02*
X671029751Y-194332645D01*
X671029751Y-194332645D02*
X674544400Y-197847294D01*
X674544400Y-197847294D02*
X674544400Y-205360983D01*
X674544400Y-205360983D02*
X674661617Y-205478200D01*
X691352000Y-206000000D02*
X687699272Y-206000000D01*
D44*
%TO.N,/~{RESET}*%
X693073000Y-198329000D02*
X693073000Y-200027000D01*
X693073000Y-200027000D02*
X693000000Y-200100000D01*
D45*
%TO.N,/~{CAPS_LOCK_LED}*%
X685066200Y-205511850D02*
X685066200Y-205968090D01*
X678654812Y-205200000D02*
X677607223Y-205200000D01*
X658249567Y-208456000D02*
X657700000Y-207906433D01*
X680077112Y-206622300D02*
X678654812Y-205200000D01*
X685066200Y-205968090D02*
X684855600Y-205757490D01*
X677607223Y-205200000D02*
X676052123Y-206755100D01*
X687534578Y-180752313D02*
X687534578Y-179765422D01*
X684855600Y-205757490D02*
X684855600Y-206147294D01*
X657700000Y-207906433D02*
X657700000Y-207889300D01*
X660435635Y-206755100D02*
X658734735Y-208456000D01*
X684855600Y-206147294D02*
X684380594Y-206622300D01*
X687534578Y-179765422D02*
X688400000Y-178900000D01*
X684380594Y-206622300D02*
X680077112Y-206622300D01*
X676052123Y-206755100D02*
X660435635Y-206755100D01*
X658734735Y-208456000D02*
X658249567Y-208456000D01*
%TO.N,Net-(U1-OSC0)*%
X669000000Y-200000000D02*
X670262500Y-198737500D01*
X668000000Y-200300000D02*
X668700000Y-200300000D01*
X670262500Y-198737500D02*
X672500000Y-198737500D01*
%TO.N,Net-(U1-OSC1)*%
X670062500Y-202737500D02*
X672500000Y-202737500D01*
X668525000Y-201200000D02*
X669000000Y-201675000D01*
X668000000Y-201200000D02*
X668525000Y-201200000D01*
X669000000Y-201675000D02*
X670062500Y-202737500D01*
D44*
%TO.N,/BGM220P_DEBUG_TX*%
X680973000Y-190279000D02*
X679121000Y-190279000D01*
X679121000Y-190279000D02*
X679100000Y-190300000D01*
D47*
%TO.N,Net-(J1-D-)*%
X647775000Y-177279000D02*
X647644751Y-177409249D01*
X647644751Y-177409249D02*
X647644751Y-178969751D01*
X647644751Y-178969751D02*
X647875000Y-179200000D01*
%TO.N,Net-(J1-D+)*%
X647125000Y-177279000D02*
X647255249Y-177409249D01*
X647255249Y-177409249D02*
X647255249Y-178969751D01*
X647255249Y-178969751D02*
X647025000Y-179200000D01*
%TD*%
%TA.AperFunction,Conductor*%
%TO.N,GND*%
G36*
X695016039Y-172699185D02*
G01*
X695061794Y-172751989D01*
X695073000Y-172803500D01*
X695073000Y-185454410D01*
X695053315Y-185521449D01*
X695000511Y-185567204D01*
X694931353Y-185577148D01*
X694876114Y-185554728D01*
X694725477Y-185445282D01*
X694552648Y-185368335D01*
X694523000Y-185362032D01*
X694523000Y-188695966D01*
X694552643Y-188689666D01*
X694725479Y-188612714D01*
X694876114Y-188503271D01*
X694941920Y-188479791D01*
X695009974Y-188495616D01*
X695058669Y-188545722D01*
X695073000Y-188603589D01*
X695073000Y-196754410D01*
X695053315Y-196821449D01*
X695000511Y-196867204D01*
X694931353Y-196877148D01*
X694876114Y-196854728D01*
X694725477Y-196745282D01*
X694552648Y-196668335D01*
X694523000Y-196662032D01*
X694523000Y-199995966D01*
X694552643Y-199989666D01*
X694725479Y-199912714D01*
X694876114Y-199803271D01*
X694941920Y-199779791D01*
X695009974Y-199795616D01*
X695058669Y-199845722D01*
X695073000Y-199903589D01*
X695073000Y-212555000D01*
X695053315Y-212622039D01*
X695000511Y-212667794D01*
X694949000Y-212679000D01*
X675851500Y-212679000D01*
X675784461Y-212659315D01*
X675738706Y-212606511D01*
X675727500Y-212555000D01*
X675727500Y-210669752D01*
X676949500Y-210669752D01*
X676961131Y-210728229D01*
X676961132Y-210728230D01*
X677005447Y-210794552D01*
X677071769Y-210838867D01*
X677071770Y-210838868D01*
X677130247Y-210850499D01*
X677130250Y-210850500D01*
X677130252Y-210850500D01*
X678869750Y-210850500D01*
X678869751Y-210850499D01*
X678884568Y-210847552D01*
X678928229Y-210838868D01*
X678928229Y-210838867D01*
X678928231Y-210838867D01*
X678994552Y-210794552D01*
X679038867Y-210728231D01*
X679038867Y-210728229D01*
X679038868Y-210728229D01*
X679048922Y-210677682D01*
X679050500Y-210669748D01*
X679050500Y-209799999D01*
X679484417Y-209799999D01*
X679504699Y-210005932D01*
X679504700Y-210005934D01*
X679564768Y-210203954D01*
X679662315Y-210386450D01*
X679662317Y-210386452D01*
X679793589Y-210546410D01*
X679873923Y-210612337D01*
X679953550Y-210677685D01*
X680136046Y-210775232D01*
X680334066Y-210835300D01*
X680334065Y-210835300D01*
X680354348Y-210837297D01*
X680540000Y-210855583D01*
X680745934Y-210835300D01*
X680943954Y-210775232D01*
X681126450Y-210677685D01*
X681286410Y-210546410D01*
X681417685Y-210386450D01*
X681515232Y-210203954D01*
X681575300Y-210005934D01*
X681595583Y-209800000D01*
X681595583Y-209799999D01*
X682024417Y-209799999D01*
X682044699Y-210005932D01*
X682044700Y-210005934D01*
X682104768Y-210203954D01*
X682202315Y-210386450D01*
X682202317Y-210386452D01*
X682333589Y-210546410D01*
X682413923Y-210612337D01*
X682493550Y-210677685D01*
X682676046Y-210775232D01*
X682874066Y-210835300D01*
X682874065Y-210835300D01*
X682892529Y-210837118D01*
X683080000Y-210855583D01*
X683285934Y-210835300D01*
X683483954Y-210775232D01*
X683666450Y-210677685D01*
X683826410Y-210546410D01*
X683957685Y-210386450D01*
X684055232Y-210203954D01*
X684115300Y-210005934D01*
X684135583Y-209800000D01*
X684135583Y-209799999D01*
X684564417Y-209799999D01*
X684584699Y-210005932D01*
X684584700Y-210005934D01*
X684644768Y-210203954D01*
X684742315Y-210386450D01*
X684742317Y-210386452D01*
X684873589Y-210546410D01*
X684953923Y-210612337D01*
X685033550Y-210677685D01*
X685216046Y-210775232D01*
X685414066Y-210835300D01*
X685414065Y-210835300D01*
X685432529Y-210837118D01*
X685620000Y-210855583D01*
X685825934Y-210835300D01*
X686023954Y-210775232D01*
X686206450Y-210677685D01*
X686366410Y-210546410D01*
X686497685Y-210386450D01*
X686595232Y-210203954D01*
X686655300Y-210005934D01*
X686675583Y-209800000D01*
X687104417Y-209800000D01*
X687124699Y-210005932D01*
X687124700Y-210005934D01*
X687184768Y-210203954D01*
X687282315Y-210386450D01*
X687282317Y-210386452D01*
X687413589Y-210546410D01*
X687493923Y-210612337D01*
X687573550Y-210677685D01*
X687756046Y-210775232D01*
X687954066Y-210835300D01*
X687954065Y-210835300D01*
X687972529Y-210837118D01*
X688160000Y-210855583D01*
X688365934Y-210835300D01*
X688563954Y-210775232D01*
X688746450Y-210677685D01*
X688906410Y-210546410D01*
X689037685Y-210386450D01*
X689135232Y-210203954D01*
X689195300Y-210005934D01*
X689215583Y-209800000D01*
X689644417Y-209800000D01*
X689664699Y-210005932D01*
X689664700Y-210005934D01*
X689724768Y-210203954D01*
X689822315Y-210386450D01*
X689822317Y-210386452D01*
X689953589Y-210546410D01*
X690033923Y-210612337D01*
X690113550Y-210677685D01*
X690296046Y-210775232D01*
X690494066Y-210835300D01*
X690494065Y-210835300D01*
X690512529Y-210837118D01*
X690700000Y-210855583D01*
X690905934Y-210835300D01*
X691103954Y-210775232D01*
X691286450Y-210677685D01*
X691446410Y-210546410D01*
X691577685Y-210386450D01*
X691675232Y-210203954D01*
X691695406Y-210137446D01*
X691733702Y-210079010D01*
X691797514Y-210050553D01*
X691866581Y-210061112D01*
X691918975Y-210107336D01*
X691933841Y-210141349D01*
X691966567Y-210263486D01*
X691966570Y-210263492D01*
X692066399Y-210477578D01*
X692201894Y-210671082D01*
X692368917Y-210838105D01*
X692562421Y-210973600D01*
X692776507Y-211073429D01*
X692776516Y-211073433D01*
X692990000Y-211130634D01*
X692990000Y-210412301D01*
X693009685Y-210345262D01*
X693062489Y-210299507D01*
X693131647Y-210289563D01*
X693204237Y-210300000D01*
X693204238Y-210300000D01*
X693275762Y-210300000D01*
X693275763Y-210300000D01*
X693348352Y-210289563D01*
X693417510Y-210299507D01*
X693470314Y-210345261D01*
X693489999Y-210412301D01*
X693489999Y-211130634D01*
X693703483Y-211073433D01*
X693703492Y-211073429D01*
X693917578Y-210973600D01*
X694111082Y-210838105D01*
X694278105Y-210671082D01*
X694413600Y-210477578D01*
X694513429Y-210263492D01*
X694513432Y-210263486D01*
X694570636Y-210050000D01*
X693853347Y-210050000D01*
X693786308Y-210030315D01*
X693740553Y-209977511D01*
X693730609Y-209908353D01*
X693734369Y-209891067D01*
X693740000Y-209871888D01*
X693740000Y-209728111D01*
X693734369Y-209708933D01*
X693734370Y-209639064D01*
X693772145Y-209580286D01*
X693835701Y-209551262D01*
X693853347Y-209550000D01*
X694570636Y-209550000D01*
X694570635Y-209549999D01*
X694513432Y-209336513D01*
X694513429Y-209336507D01*
X694413600Y-209122422D01*
X694413599Y-209122420D01*
X694278113Y-208928926D01*
X694278108Y-208928920D01*
X694111082Y-208761894D01*
X693917578Y-208626399D01*
X693703492Y-208526570D01*
X693703486Y-208526567D01*
X693490000Y-208469364D01*
X693489999Y-208469364D01*
X693489999Y-209187698D01*
X693470314Y-209254738D01*
X693417510Y-209300492D01*
X693348353Y-209310436D01*
X693275764Y-209300000D01*
X693275763Y-209300000D01*
X693204237Y-209300000D01*
X693204233Y-209300000D01*
X693131645Y-209310436D01*
X693062487Y-209300492D01*
X693009684Y-209254736D01*
X692990000Y-209187698D01*
X692990000Y-208469364D01*
X692989999Y-208469364D01*
X692776513Y-208526567D01*
X692776507Y-208526570D01*
X692562422Y-208626399D01*
X692562420Y-208626400D01*
X692368926Y-208761886D01*
X692368920Y-208761891D01*
X692201891Y-208928920D01*
X692201886Y-208928926D01*
X692066400Y-209122420D01*
X692066399Y-209122422D01*
X691966570Y-209336507D01*
X691966567Y-209336514D01*
X691933841Y-209458650D01*
X691897476Y-209518310D01*
X691834629Y-209548839D01*
X691765253Y-209540544D01*
X691711375Y-209496059D01*
X691695406Y-209462553D01*
X691675232Y-209396046D01*
X691577685Y-209213550D01*
X691502897Y-209122420D01*
X691446410Y-209053589D01*
X691296121Y-208930252D01*
X691286450Y-208922315D01*
X691103954Y-208824768D01*
X690905934Y-208764700D01*
X690905932Y-208764699D01*
X690905934Y-208764699D01*
X690700000Y-208744417D01*
X690494067Y-208764699D01*
X690296043Y-208824769D01*
X690208114Y-208871769D01*
X690113550Y-208922315D01*
X690113548Y-208922316D01*
X690113547Y-208922317D01*
X689953589Y-209053589D01*
X689822317Y-209213547D01*
X689822315Y-209213550D01*
X689783643Y-209285897D01*
X689724769Y-209396043D01*
X689664699Y-209594067D01*
X689644417Y-209800000D01*
X689215583Y-209800000D01*
X689195300Y-209594066D01*
X689135232Y-209396046D01*
X689037685Y-209213550D01*
X688962897Y-209122420D01*
X688906410Y-209053589D01*
X688756121Y-208930252D01*
X688746450Y-208922315D01*
X688563954Y-208824768D01*
X688365934Y-208764700D01*
X688365932Y-208764699D01*
X688365934Y-208764699D01*
X688160000Y-208744417D01*
X687954067Y-208764699D01*
X687756043Y-208824769D01*
X687668114Y-208871769D01*
X687573550Y-208922315D01*
X687573548Y-208922316D01*
X687573547Y-208922317D01*
X687413589Y-209053589D01*
X687282317Y-209213547D01*
X687282315Y-209213550D01*
X687243643Y-209285897D01*
X687184769Y-209396043D01*
X687124699Y-209594067D01*
X687104417Y-209800000D01*
X686675583Y-209800000D01*
X686655300Y-209594066D01*
X686595232Y-209396046D01*
X686497685Y-209213550D01*
X686422897Y-209122420D01*
X686366410Y-209053589D01*
X686216121Y-208930252D01*
X686206450Y-208922315D01*
X686023954Y-208824768D01*
X685825934Y-208764700D01*
X685825932Y-208764699D01*
X685825934Y-208764699D01*
X685638463Y-208746235D01*
X685620000Y-208744417D01*
X685619999Y-208744417D01*
X685414067Y-208764699D01*
X685216043Y-208824769D01*
X685128114Y-208871769D01*
X685033550Y-208922315D01*
X685033548Y-208922316D01*
X685033547Y-208922317D01*
X684873589Y-209053589D01*
X684742317Y-209213547D01*
X684742315Y-209213550D01*
X684703643Y-209285897D01*
X684644769Y-209396043D01*
X684584699Y-209594067D01*
X684564417Y-209799999D01*
X684135583Y-209799999D01*
X684115300Y-209594066D01*
X684055232Y-209396046D01*
X683957685Y-209213550D01*
X683882897Y-209122420D01*
X683826410Y-209053589D01*
X683676121Y-208930252D01*
X683666450Y-208922315D01*
X683483954Y-208824768D01*
X683285934Y-208764700D01*
X683285932Y-208764699D01*
X683285934Y-208764699D01*
X683080000Y-208744417D01*
X682874067Y-208764699D01*
X682676043Y-208824769D01*
X682588114Y-208871769D01*
X682493550Y-208922315D01*
X682493548Y-208922316D01*
X682493547Y-208922317D01*
X682333589Y-209053589D01*
X682202317Y-209213547D01*
X682202315Y-209213550D01*
X682163643Y-209285897D01*
X682104769Y-209396043D01*
X682044699Y-209594067D01*
X682024417Y-209799999D01*
X681595583Y-209799999D01*
X681575300Y-209594066D01*
X681515232Y-209396046D01*
X681417685Y-209213550D01*
X681342897Y-209122420D01*
X681286410Y-209053589D01*
X681136121Y-208930252D01*
X681126450Y-208922315D01*
X680943954Y-208824768D01*
X680745934Y-208764700D01*
X680745932Y-208764699D01*
X680745934Y-208764699D01*
X680540000Y-208744417D01*
X680334067Y-208764699D01*
X680136043Y-208824769D01*
X680048114Y-208871769D01*
X679953550Y-208922315D01*
X679953548Y-208922316D01*
X679953547Y-208922317D01*
X679793589Y-209053589D01*
X679662317Y-209213547D01*
X679662315Y-209213550D01*
X679623643Y-209285897D01*
X679564769Y-209396043D01*
X679504699Y-209594067D01*
X679484417Y-209799999D01*
X679050500Y-209799999D01*
X679050500Y-208930252D01*
X679050500Y-208930251D01*
X679050500Y-208930249D01*
X679050499Y-208930247D01*
X679038868Y-208871770D01*
X679038867Y-208871769D01*
X678994552Y-208805447D01*
X678928230Y-208761132D01*
X678928229Y-208761131D01*
X678869752Y-208749500D01*
X678869748Y-208749500D01*
X677130252Y-208749500D01*
X677130247Y-208749500D01*
X677071770Y-208761131D01*
X677071769Y-208761132D01*
X677005447Y-208805447D01*
X676961132Y-208871769D01*
X676961131Y-208871770D01*
X676949500Y-208930247D01*
X676949500Y-210669752D01*
X675727500Y-210669752D01*
X675727500Y-208631816D01*
X675747185Y-208564777D01*
X675763819Y-208544135D01*
X677926336Y-206381619D01*
X677987659Y-206348134D01*
X678014017Y-206345300D01*
X678071962Y-206345300D01*
X678071962Y-206345299D01*
X678179121Y-206313835D01*
X678210050Y-206304754D01*
X678210050Y-206304753D01*
X678210053Y-206304753D01*
X678331128Y-206226943D01*
X678425377Y-206118173D01*
X678485165Y-205987257D01*
X678505647Y-205844800D01*
X678494069Y-205764275D01*
X678504012Y-205695120D01*
X678549767Y-205642316D01*
X678616806Y-205622631D01*
X678683846Y-205642315D01*
X678704488Y-205658950D01*
X679829571Y-206784032D01*
X679835208Y-206790510D01*
X679842164Y-206799722D01*
X679842165Y-206799723D01*
X679876158Y-206830712D01*
X679878219Y-206832680D01*
X679891438Y-206845899D01*
X679893434Y-206847266D01*
X679900174Y-206852605D01*
X679922124Y-206872615D01*
X679927841Y-206874829D01*
X679953130Y-206888159D01*
X679958192Y-206891627D01*
X679987119Y-206898430D01*
X679995304Y-206900965D01*
X680023014Y-206911700D01*
X680029151Y-206911700D01*
X680057540Y-206914993D01*
X680063515Y-206916399D01*
X680092936Y-206912294D01*
X680101510Y-206911700D01*
X684319912Y-206911700D01*
X684328487Y-206912295D01*
X684339913Y-206913888D01*
X684339918Y-206913890D01*
X684378578Y-206912102D01*
X684385854Y-206911766D01*
X684388718Y-206911700D01*
X684407407Y-206911700D01*
X684407411Y-206911700D01*
X684409792Y-206911254D01*
X684418330Y-206910263D01*
X684448000Y-206908892D01*
X684453610Y-206906414D01*
X684480917Y-206897959D01*
X684486948Y-206896832D01*
X684512208Y-206881191D01*
X684519795Y-206877191D01*
X684546978Y-206865190D01*
X684551312Y-206860855D01*
X684573722Y-206843103D01*
X684578939Y-206839874D01*
X684596847Y-206816158D01*
X684602477Y-206809689D01*
X685017336Y-206394829D01*
X685023809Y-206389198D01*
X685033020Y-206382242D01*
X685033023Y-206382241D01*
X685064022Y-206348235D01*
X685065973Y-206346192D01*
X685079199Y-206332968D01*
X685080568Y-206330967D01*
X685085897Y-206324238D01*
X685105915Y-206302282D01*
X685105916Y-206302279D01*
X685105918Y-206302277D01*
X685111967Y-206292509D01*
X685115497Y-206294694D01*
X685144593Y-206256757D01*
X685157402Y-206248555D01*
X685159760Y-206247241D01*
X685159762Y-206247241D01*
X685199957Y-206224851D01*
X685202422Y-206223551D01*
X685243623Y-206203037D01*
X685243624Y-206203035D01*
X685249030Y-206198953D01*
X685254276Y-206194596D01*
X685254284Y-206194592D01*
X685283680Y-206159189D01*
X685285505Y-206157092D01*
X685316515Y-206123078D01*
X685316516Y-206123075D01*
X685320099Y-206117288D01*
X685323402Y-206111356D01*
X685323406Y-206111352D01*
X685338018Y-206067749D01*
X685338990Y-206065061D01*
X685355599Y-206022190D01*
X685355600Y-206022188D01*
X685355600Y-206022184D01*
X685356846Y-206015517D01*
X685357787Y-206008770D01*
X685357789Y-206008765D01*
X685356986Y-205991416D01*
X685373553Y-205923543D01*
X685392059Y-205901162D01*
X685391520Y-205900695D01*
X685397326Y-205893994D01*
X685397328Y-205893993D01*
X685478774Y-205799999D01*
X686194353Y-205799999D01*
X686214834Y-205942456D01*
X686248985Y-206017235D01*
X686274623Y-206073373D01*
X686368872Y-206182143D01*
X686489947Y-206259953D01*
X686489950Y-206259954D01*
X686489949Y-206259954D01*
X686590157Y-206289377D01*
X686607342Y-206294423D01*
X686628036Y-206300499D01*
X686628038Y-206300500D01*
X686672289Y-206300500D01*
X686739328Y-206320185D01*
X686785083Y-206372989D01*
X686795027Y-206406854D01*
X686814470Y-206542092D01*
X686874258Y-206673007D01*
X686874259Y-206673009D01*
X686968508Y-206781779D01*
X687089583Y-206859589D01*
X687089586Y-206859590D01*
X687089585Y-206859590D01*
X687163167Y-206881195D01*
X687220257Y-206897958D01*
X687227672Y-206900135D01*
X687227674Y-206900136D01*
X687227675Y-206900136D01*
X687371598Y-206900136D01*
X687371598Y-206900135D01*
X687509689Y-206859589D01*
X687630764Y-206781779D01*
X687725013Y-206673009D01*
X687784801Y-206542093D01*
X687805283Y-206399636D01*
X687805282Y-206399635D01*
X687805841Y-206395753D01*
X687834866Y-206332198D01*
X687893644Y-206294423D01*
X687928579Y-206289400D01*
X690883881Y-206289400D01*
X690950920Y-206309085D01*
X690977592Y-206332195D01*
X691020872Y-206382143D01*
X691141947Y-206459953D01*
X691141950Y-206459954D01*
X691141949Y-206459954D01*
X691280036Y-206500499D01*
X691280038Y-206500500D01*
X691280039Y-206500500D01*
X691423962Y-206500500D01*
X691423962Y-206500499D01*
X691562053Y-206459953D01*
X691683128Y-206382143D01*
X691777377Y-206273373D01*
X691837165Y-206142457D01*
X691857647Y-206000000D01*
X691837165Y-205857543D01*
X691777377Y-205726627D01*
X691683128Y-205617857D01*
X691562053Y-205540047D01*
X691562051Y-205540046D01*
X691562049Y-205540045D01*
X691562050Y-205540045D01*
X691423963Y-205499500D01*
X691423961Y-205499500D01*
X691280039Y-205499500D01*
X691280036Y-205499500D01*
X691141949Y-205540045D01*
X691020873Y-205617856D01*
X691020872Y-205617856D01*
X691020872Y-205617857D01*
X690982939Y-205661635D01*
X690977594Y-205667803D01*
X690918816Y-205705577D01*
X690883881Y-205710600D01*
X689810036Y-205710600D01*
X689742997Y-205690915D01*
X689697242Y-205638111D01*
X689687298Y-205568953D01*
X689716323Y-205505397D01*
X689722355Y-205498919D01*
X689853471Y-205367803D01*
X690258444Y-204962828D01*
X690319765Y-204929345D01*
X690389456Y-204934329D01*
X690404577Y-204941153D01*
X690429046Y-204954232D01*
X690627066Y-205014300D01*
X690627065Y-205014300D01*
X690645529Y-205016118D01*
X690833000Y-205034583D01*
X691038934Y-205014300D01*
X691236954Y-204954232D01*
X691419450Y-204856685D01*
X691579410Y-204725410D01*
X691710685Y-204565450D01*
X691808232Y-204382954D01*
X691868300Y-204184934D01*
X691888583Y-203979000D01*
X691888583Y-203978999D01*
X692317417Y-203978999D01*
X692337699Y-204184932D01*
X692360598Y-204260420D01*
X692397768Y-204382954D01*
X692495315Y-204565450D01*
X692495317Y-204565452D01*
X692626589Y-204725410D01*
X692723209Y-204804702D01*
X692786550Y-204856685D01*
X692969046Y-204954232D01*
X693167066Y-205014300D01*
X693167065Y-205014300D01*
X693185529Y-205016118D01*
X693373000Y-205034583D01*
X693578934Y-205014300D01*
X693776954Y-204954232D01*
X693959450Y-204856685D01*
X694119410Y-204725410D01*
X694250685Y-204565450D01*
X694348232Y-204382954D01*
X694408300Y-204184934D01*
X694428583Y-203979000D01*
X694408300Y-203773066D01*
X694348232Y-203575046D01*
X694250685Y-203392550D01*
X694178755Y-203304902D01*
X694119410Y-203232589D01*
X693969121Y-203109252D01*
X693959450Y-203101315D01*
X693776954Y-203003768D01*
X693578934Y-202943700D01*
X693578932Y-202943699D01*
X693578934Y-202943699D01*
X693373000Y-202923417D01*
X693167067Y-202943699D01*
X692969043Y-203003769D01*
X692881114Y-203050769D01*
X692786550Y-203101315D01*
X692786548Y-203101316D01*
X692786547Y-203101317D01*
X692626589Y-203232589D01*
X692495317Y-203392547D01*
X692397769Y-203575043D01*
X692337699Y-203773067D01*
X692317417Y-203978999D01*
X691888583Y-203978999D01*
X691868300Y-203773066D01*
X691808232Y-203575046D01*
X691710685Y-203392550D01*
X691638755Y-203304902D01*
X691579410Y-203232589D01*
X691429121Y-203109252D01*
X691419450Y-203101315D01*
X691236954Y-203003768D01*
X691038934Y-202943700D01*
X691038932Y-202943699D01*
X691038934Y-202943699D01*
X690851463Y-202925235D01*
X690833000Y-202923417D01*
X690832999Y-202923417D01*
X690627067Y-202943699D01*
X690429043Y-203003769D01*
X690341114Y-203050769D01*
X690246550Y-203101315D01*
X690246548Y-203101316D01*
X690246547Y-203101317D01*
X690086589Y-203232589D01*
X689955317Y-203392547D01*
X689857769Y-203575043D01*
X689797699Y-203773067D01*
X689777417Y-203978999D01*
X689797699Y-204184932D01*
X689857769Y-204382957D01*
X689870846Y-204407421D01*
X689885088Y-204475824D01*
X689860088Y-204541068D01*
X689849169Y-204553556D01*
X689657762Y-204744964D01*
X689273020Y-205129707D01*
X689084046Y-205318681D01*
X689022723Y-205352166D01*
X688996365Y-205355000D01*
X686969730Y-205355000D01*
X686919682Y-205340304D01*
X686918118Y-205343730D01*
X686910050Y-205340045D01*
X686771963Y-205299500D01*
X686771961Y-205299500D01*
X686628039Y-205299500D01*
X686628036Y-205299500D01*
X686489949Y-205340045D01*
X686368873Y-205417856D01*
X686274623Y-205526626D01*
X686274622Y-205526628D01*
X686214834Y-205657543D01*
X686194353Y-205799999D01*
X685478774Y-205799999D01*
X685491577Y-205785223D01*
X685551365Y-205654307D01*
X685571847Y-205511850D01*
X685551365Y-205369393D01*
X685491577Y-205238477D01*
X685477735Y-205222502D01*
X685448711Y-205158948D01*
X685458654Y-205089790D01*
X685504409Y-205036986D01*
X685571449Y-205017301D01*
X685583589Y-205017897D01*
X685753000Y-205034583D01*
X685958934Y-205014300D01*
X686156954Y-204954232D01*
X686339450Y-204856685D01*
X686499410Y-204725410D01*
X686630685Y-204565450D01*
X686728232Y-204382954D01*
X686788300Y-204184934D01*
X686808583Y-203979000D01*
X687237417Y-203979000D01*
X687257699Y-204184932D01*
X687280598Y-204260420D01*
X687317768Y-204382954D01*
X687415315Y-204565450D01*
X687415317Y-204565452D01*
X687546589Y-204725410D01*
X687643209Y-204804702D01*
X687706550Y-204856685D01*
X687889046Y-204954232D01*
X688087066Y-205014300D01*
X688087065Y-205014300D01*
X688107348Y-205016297D01*
X688293000Y-205034583D01*
X688498934Y-205014300D01*
X688696954Y-204954232D01*
X688879450Y-204856685D01*
X689039410Y-204725410D01*
X689170685Y-204565450D01*
X689268232Y-204382954D01*
X689328300Y-204184934D01*
X689348583Y-203979000D01*
X689328300Y-203773066D01*
X689268232Y-203575046D01*
X689170685Y-203392550D01*
X689098755Y-203304902D01*
X689039410Y-203232589D01*
X688889121Y-203109252D01*
X688879450Y-203101315D01*
X688696954Y-203003768D01*
X688498934Y-202943700D01*
X688498932Y-202943699D01*
X688498934Y-202943699D01*
X688293000Y-202923417D01*
X688087067Y-202943699D01*
X687889043Y-203003769D01*
X687801114Y-203050769D01*
X687706550Y-203101315D01*
X687706548Y-203101316D01*
X687706547Y-203101317D01*
X687546589Y-203232589D01*
X687415317Y-203392547D01*
X687317769Y-203575043D01*
X687257699Y-203773067D01*
X687237417Y-203979000D01*
X686808583Y-203979000D01*
X686788300Y-203773066D01*
X686728232Y-203575046D01*
X686630685Y-203392550D01*
X686558755Y-203304902D01*
X686499410Y-203232589D01*
X686349121Y-203109252D01*
X686339450Y-203101315D01*
X686156954Y-203003768D01*
X685958934Y-202943700D01*
X685958932Y-202943699D01*
X685958934Y-202943699D01*
X685771463Y-202925235D01*
X685753000Y-202923417D01*
X685752999Y-202923417D01*
X685547067Y-202943699D01*
X685349043Y-203003769D01*
X685261114Y-203050769D01*
X685166550Y-203101315D01*
X685166548Y-203101316D01*
X685166547Y-203101317D01*
X685006586Y-203232592D01*
X685002282Y-203236897D01*
X685000616Y-203235231D01*
X684951491Y-203268684D01*
X684881646Y-203270544D01*
X684821883Y-203234349D01*
X684791176Y-203171588D01*
X684789400Y-203150679D01*
X684789400Y-200216673D01*
X684789995Y-200208096D01*
X684791586Y-200196681D01*
X684791589Y-200196675D01*
X684789466Y-200150751D01*
X684789400Y-200147888D01*
X684789400Y-200129186D01*
X684789400Y-200129185D01*
X684789400Y-200129183D01*
X684788953Y-200126795D01*
X684787963Y-200118259D01*
X684787097Y-200099526D01*
X684786592Y-200088593D01*
X684784113Y-200082980D01*
X684775658Y-200055672D01*
X684775439Y-200054500D01*
X684774532Y-200049646D01*
X684758887Y-200024380D01*
X684754893Y-200016803D01*
X684742890Y-199989616D01*
X684738549Y-199985275D01*
X684720803Y-199962871D01*
X684717574Y-199957655D01*
X684713973Y-199954936D01*
X684701048Y-199945175D01*
X684659412Y-199889065D01*
X684654721Y-199819353D01*
X684688463Y-199758172D01*
X684749927Y-199724945D01*
X684759583Y-199723283D01*
X684829762Y-199714044D01*
X684975841Y-199653536D01*
X685101282Y-199557282D01*
X685174625Y-199461699D01*
X685231052Y-199420497D01*
X685300798Y-199416342D01*
X685361718Y-199450554D01*
X685371372Y-199461695D01*
X685444718Y-199557282D01*
X685570159Y-199653536D01*
X685716238Y-199714044D01*
X685745201Y-199717857D01*
X685872999Y-199734682D01*
X685873000Y-199734682D01*
X685873001Y-199734682D01*
X685946960Y-199724945D01*
X686029762Y-199714044D01*
X686175841Y-199653536D01*
X686301282Y-199557282D01*
X686374625Y-199461699D01*
X686431052Y-199420497D01*
X686500798Y-199416342D01*
X686561718Y-199450554D01*
X686571372Y-199461695D01*
X686644718Y-199557282D01*
X686770159Y-199653536D01*
X686916238Y-199714044D01*
X686945201Y-199717857D01*
X687072999Y-199734682D01*
X687073000Y-199734682D01*
X687073001Y-199734682D01*
X687146960Y-199724945D01*
X687229762Y-199714044D01*
X687375841Y-199653536D01*
X687501282Y-199557282D01*
X687574625Y-199461699D01*
X687631052Y-199420497D01*
X687700798Y-199416342D01*
X687761718Y-199450554D01*
X687771372Y-199461695D01*
X687844718Y-199557282D01*
X687912108Y-199608992D01*
X687923350Y-199617618D01*
X687964553Y-199674046D01*
X687968708Y-199743792D01*
X687941577Y-199797196D01*
X687847625Y-199905622D01*
X687847622Y-199905628D01*
X687787834Y-200036543D01*
X687767353Y-200178999D01*
X687787834Y-200321456D01*
X687836617Y-200428273D01*
X687847623Y-200452373D01*
X687941872Y-200561143D01*
X688062947Y-200638953D01*
X688062950Y-200638954D01*
X688062949Y-200638954D01*
X688170107Y-200670417D01*
X688199336Y-200679000D01*
X688201036Y-200679499D01*
X688201038Y-200679500D01*
X688201039Y-200679500D01*
X688344961Y-200679500D01*
X688421106Y-200657142D01*
X688490976Y-200657142D01*
X688549754Y-200694916D01*
X688578779Y-200758472D01*
X688587834Y-200821456D01*
X688647622Y-200952371D01*
X688647623Y-200952373D01*
X688741872Y-201061143D01*
X688862947Y-201138953D01*
X688862950Y-201138954D01*
X688862949Y-201138954D01*
X689001036Y-201179499D01*
X689001038Y-201179500D01*
X689001039Y-201179500D01*
X689144962Y-201179500D01*
X689144962Y-201179499D01*
X689283053Y-201138953D01*
X689404128Y-201061143D01*
X689498377Y-200952373D01*
X689558165Y-200821457D01*
X689578647Y-200679000D01*
X689575365Y-200656176D01*
X689585308Y-200587022D01*
X689610419Y-200550853D01*
X689634740Y-200526532D01*
X689641213Y-200520901D01*
X689650419Y-200513948D01*
X689650423Y-200513947D01*
X689681423Y-200479940D01*
X689683329Y-200477943D01*
X689696599Y-200464675D01*
X689697971Y-200462670D01*
X689703290Y-200455952D01*
X689723315Y-200433988D01*
X689725531Y-200428266D01*
X689738857Y-200402984D01*
X689742327Y-200397920D01*
X689749129Y-200368995D01*
X689751670Y-200360794D01*
X689762400Y-200333098D01*
X689762400Y-200326961D01*
X689765693Y-200298572D01*
X689767099Y-200292597D01*
X689762994Y-200263175D01*
X689762400Y-200254601D01*
X689762400Y-199724999D01*
X689782085Y-199657960D01*
X689810912Y-199626625D01*
X689901282Y-199557282D01*
X689974626Y-199461697D01*
X690031050Y-199420497D01*
X690100796Y-199416342D01*
X690161717Y-199450554D01*
X690171373Y-199461696D01*
X690244718Y-199557282D01*
X690370159Y-199653536D01*
X690516238Y-199714044D01*
X690545201Y-199717857D01*
X690672999Y-199734682D01*
X690673000Y-199734682D01*
X690673001Y-199734682D01*
X690746960Y-199724945D01*
X690829762Y-199714044D01*
X690975841Y-199653536D01*
X691101282Y-199557282D01*
X691174625Y-199461699D01*
X691231052Y-199420497D01*
X691300798Y-199416342D01*
X691361718Y-199450554D01*
X691371372Y-199461695D01*
X691444718Y-199557282D01*
X691570159Y-199653536D01*
X691716238Y-199714044D01*
X691745201Y-199717857D01*
X691872999Y-199734682D01*
X691873000Y-199734682D01*
X691873001Y-199734682D01*
X691946960Y-199724945D01*
X692029762Y-199714044D01*
X692175841Y-199653536D01*
X692301282Y-199557282D01*
X692374625Y-199461699D01*
X692431052Y-199420497D01*
X692500798Y-199416342D01*
X692561718Y-199450554D01*
X692571372Y-199461695D01*
X692644717Y-199557281D01*
X692644719Y-199557283D01*
X692650465Y-199563029D01*
X692647975Y-199565518D01*
X692679640Y-199608992D01*
X692683712Y-199678743D01*
X692656615Y-199732002D01*
X692574623Y-199826627D01*
X692574622Y-199826628D01*
X692514834Y-199957543D01*
X692494353Y-200100000D01*
X692514834Y-200242456D01*
X692574622Y-200373371D01*
X692574623Y-200373373D01*
X692668872Y-200482143D01*
X692789947Y-200559953D01*
X692789950Y-200559954D01*
X692789949Y-200559954D01*
X692897107Y-200591417D01*
X692908425Y-200594741D01*
X692928036Y-200600499D01*
X692928038Y-200600500D01*
X692928039Y-200600500D01*
X693071962Y-200600500D01*
X693071962Y-200600499D01*
X693179121Y-200569035D01*
X693210050Y-200559954D01*
X693210050Y-200559953D01*
X693210053Y-200559953D01*
X693331128Y-200482143D01*
X693425377Y-200373373D01*
X693485165Y-200242457D01*
X693505647Y-200100000D01*
X693485165Y-199957543D01*
X693483973Y-199954934D01*
X693483565Y-199952095D01*
X693482667Y-199949036D01*
X693483106Y-199948906D01*
X693474027Y-199885778D01*
X693503050Y-199822221D01*
X693561826Y-199784444D01*
X693631696Y-199784441D01*
X693669652Y-199803102D01*
X693820522Y-199912717D01*
X693993356Y-199989666D01*
X694022999Y-199995966D01*
X694023000Y-199995966D01*
X694023000Y-196662032D01*
X693993354Y-196668334D01*
X693820518Y-196745286D01*
X693667464Y-196856487D01*
X693546207Y-196991156D01*
X693486721Y-197027804D01*
X693416864Y-197026473D01*
X693378574Y-197006560D01*
X693375844Y-197004465D01*
X693229762Y-196943956D01*
X693229760Y-196943955D01*
X693073001Y-196923318D01*
X693072999Y-196923318D01*
X692916239Y-196943955D01*
X692916237Y-196943956D01*
X692770160Y-197004463D01*
X692690616Y-197065499D01*
X692644718Y-197100718D01*
X692598528Y-197160915D01*
X692571376Y-197196300D01*
X692514948Y-197237502D01*
X692445202Y-197241657D01*
X692384281Y-197207444D01*
X692374624Y-197196300D01*
X692301282Y-197100718D01*
X692175841Y-197004464D01*
X692029762Y-196943956D01*
X692029760Y-196943955D01*
X691873001Y-196923318D01*
X691872999Y-196923318D01*
X691716239Y-196943955D01*
X691716237Y-196943956D01*
X691570160Y-197004463D01*
X691490616Y-197065499D01*
X691444718Y-197100718D01*
X691398528Y-197160915D01*
X691371376Y-197196300D01*
X691314948Y-197237502D01*
X691245202Y-197241657D01*
X691184281Y-197207444D01*
X691174624Y-197196300D01*
X691101282Y-197100718D01*
X690975841Y-197004464D01*
X690829762Y-196943956D01*
X690829760Y-196943955D01*
X690673001Y-196923318D01*
X690672999Y-196923318D01*
X690516239Y-196943955D01*
X690516237Y-196943956D01*
X690370160Y-197004463D01*
X690290616Y-197065499D01*
X690244718Y-197100718D01*
X690198528Y-197160915D01*
X690171376Y-197196300D01*
X690114948Y-197237502D01*
X690045202Y-197241657D01*
X689984281Y-197207444D01*
X689974624Y-197196300D01*
X689901282Y-197100718D01*
X689775841Y-197004464D01*
X689629762Y-196943956D01*
X689629760Y-196943955D01*
X689473001Y-196923318D01*
X689472999Y-196923318D01*
X689316239Y-196943955D01*
X689316237Y-196943956D01*
X689170160Y-197004463D01*
X689090616Y-197065499D01*
X689044718Y-197100718D01*
X688998528Y-197160915D01*
X688971376Y-197196300D01*
X688914948Y-197237502D01*
X688845202Y-197241657D01*
X688784281Y-197207444D01*
X688774624Y-197196300D01*
X688701282Y-197100718D01*
X688575841Y-197004464D01*
X688429762Y-196943956D01*
X688429760Y-196943955D01*
X688273001Y-196923318D01*
X688272999Y-196923318D01*
X688116239Y-196943955D01*
X688116237Y-196943956D01*
X687970160Y-197004463D01*
X687890616Y-197065499D01*
X687844718Y-197100718D01*
X687798528Y-197160915D01*
X687771376Y-197196300D01*
X687714948Y-197237502D01*
X687645202Y-197241657D01*
X687584281Y-197207444D01*
X687574624Y-197196300D01*
X687501282Y-197100718D01*
X687375841Y-197004464D01*
X687229762Y-196943956D01*
X687229760Y-196943955D01*
X687073001Y-196923318D01*
X687072999Y-196923318D01*
X686916239Y-196943955D01*
X686916237Y-196943956D01*
X686770160Y-197004463D01*
X686690616Y-197065499D01*
X686644718Y-197100718D01*
X686598528Y-197160915D01*
X686571376Y-197196300D01*
X686514948Y-197237502D01*
X686445202Y-197241657D01*
X686384281Y-197207444D01*
X686374624Y-197196300D01*
X686301282Y-197100718D01*
X686175841Y-197004464D01*
X686029762Y-196943956D01*
X686029760Y-196943955D01*
X685873001Y-196923318D01*
X685872999Y-196923318D01*
X685716239Y-196943955D01*
X685716237Y-196943956D01*
X685570160Y-197004463D01*
X685490616Y-197065499D01*
X685444718Y-197100718D01*
X685398528Y-197160915D01*
X685371376Y-197196300D01*
X685314948Y-197237502D01*
X685245202Y-197241657D01*
X685184281Y-197207444D01*
X685174624Y-197196300D01*
X685101282Y-197100718D01*
X684975841Y-197004464D01*
X684829762Y-196943956D01*
X684829760Y-196943955D01*
X684673001Y-196923318D01*
X684672999Y-196923318D01*
X684516239Y-196943955D01*
X684516237Y-196943956D01*
X684370160Y-197004463D01*
X684290616Y-197065499D01*
X684244718Y-197100718D01*
X684198528Y-197160915D01*
X684171376Y-197196300D01*
X684114948Y-197237502D01*
X684045202Y-197241657D01*
X683984281Y-197207444D01*
X683974624Y-197196300D01*
X683901282Y-197100718D01*
X683775841Y-197004464D01*
X683629762Y-196943956D01*
X683629760Y-196943955D01*
X683473001Y-196923318D01*
X683472999Y-196923318D01*
X683316239Y-196943955D01*
X683316237Y-196943956D01*
X683170160Y-197004463D01*
X683090616Y-197065499D01*
X683044718Y-197100718D01*
X682998528Y-197160915D01*
X682971376Y-197196300D01*
X682914948Y-197237502D01*
X682845202Y-197241657D01*
X682784281Y-197207444D01*
X682774624Y-197196300D01*
X682701282Y-197100718D01*
X682575841Y-197004464D01*
X682429762Y-196943956D01*
X682410589Y-196941431D01*
X682268017Y-196922661D01*
X682204121Y-196894394D01*
X682165650Y-196836069D01*
X682164819Y-196766205D01*
X682196526Y-196712037D01*
X682201279Y-196707284D01*
X682201278Y-196707284D01*
X682201282Y-196707282D01*
X682297536Y-196581841D01*
X682358044Y-196435762D01*
X682378682Y-196279000D01*
X682358044Y-196122238D01*
X682297536Y-195976159D01*
X682201282Y-195850718D01*
X682105698Y-195777374D01*
X682064497Y-195720947D01*
X682060342Y-195651200D01*
X682094555Y-195590280D01*
X682105685Y-195580635D01*
X682201282Y-195507282D01*
X682297536Y-195381841D01*
X682358044Y-195235762D01*
X682378682Y-195079000D01*
X682358044Y-194922238D01*
X682297536Y-194776159D01*
X682201282Y-194650718D01*
X682201280Y-194650717D01*
X682201280Y-194650716D01*
X682152500Y-194613286D01*
X682105699Y-194577374D01*
X682064497Y-194520948D01*
X682060342Y-194451202D01*
X682094554Y-194390282D01*
X682105695Y-194380627D01*
X682201282Y-194307282D01*
X682297536Y-194181841D01*
X682358044Y-194035762D01*
X682378682Y-193879000D01*
X682358044Y-193722238D01*
X682297536Y-193576159D01*
X682201282Y-193450718D01*
X682201280Y-193450717D01*
X682201280Y-193450716D01*
X682152500Y-193413286D01*
X682105699Y-193377374D01*
X682064497Y-193320948D01*
X682060342Y-193251202D01*
X682094554Y-193190282D01*
X682105695Y-193180627D01*
X682201282Y-193107282D01*
X682297536Y-192981841D01*
X682358044Y-192835762D01*
X682378682Y-192679000D01*
X682358044Y-192522238D01*
X682297536Y-192376159D01*
X682201282Y-192250718D01*
X682105698Y-192177374D01*
X682064497Y-192120947D01*
X682060342Y-192051200D01*
X682094555Y-191990280D01*
X682105685Y-191980635D01*
X682201282Y-191907282D01*
X682297536Y-191781841D01*
X682358044Y-191635762D01*
X682375917Y-191500000D01*
X682378682Y-191479001D01*
X682378682Y-191478998D01*
X682358044Y-191322239D01*
X682358044Y-191322238D01*
X682297536Y-191176159D01*
X682201282Y-191050718D01*
X682201280Y-191050717D01*
X682201280Y-191050716D01*
X682110688Y-190981203D01*
X682105699Y-190977374D01*
X682064497Y-190920948D01*
X682060342Y-190851202D01*
X682094554Y-190790282D01*
X682105695Y-190780627D01*
X682201282Y-190707282D01*
X682297536Y-190581841D01*
X682358044Y-190435762D01*
X682375917Y-190300000D01*
X682378682Y-190279001D01*
X682378682Y-190278998D01*
X682358044Y-190122239D01*
X682358044Y-190122238D01*
X682297536Y-189976159D01*
X682201282Y-189850718D01*
X682201280Y-189850717D01*
X682201280Y-189850716D01*
X682110688Y-189781203D01*
X682105699Y-189777374D01*
X682064497Y-189720948D01*
X682060342Y-189651202D01*
X682094554Y-189590282D01*
X682105695Y-189580627D01*
X682201282Y-189507282D01*
X682297536Y-189381841D01*
X682358044Y-189235762D01*
X682378682Y-189079000D01*
X682358044Y-188922238D01*
X682297536Y-188776159D01*
X682201282Y-188650718D01*
X682201279Y-188650715D01*
X682201277Y-188650713D01*
X682196522Y-188645958D01*
X682163037Y-188584635D01*
X682168021Y-188514943D01*
X682209893Y-188459010D01*
X682268018Y-188435338D01*
X682315896Y-188429034D01*
X682429762Y-188414044D01*
X682575841Y-188353536D01*
X682701282Y-188257282D01*
X682774625Y-188161699D01*
X682831052Y-188120497D01*
X682900798Y-188116342D01*
X682961718Y-188150554D01*
X682971372Y-188161695D01*
X683044718Y-188257282D01*
X683170159Y-188353536D01*
X683316238Y-188414044D01*
X683387221Y-188423389D01*
X683472999Y-188434682D01*
X683473000Y-188434682D01*
X683473001Y-188434682D01*
X683525253Y-188427802D01*
X683629762Y-188414044D01*
X683775841Y-188353536D01*
X683901282Y-188257282D01*
X683974626Y-188161697D01*
X684031050Y-188120497D01*
X684100796Y-188116342D01*
X684161717Y-188150554D01*
X684171373Y-188161696D01*
X684244718Y-188257282D01*
X684370159Y-188353536D01*
X684516238Y-188414044D01*
X684587221Y-188423389D01*
X684672999Y-188434682D01*
X684673000Y-188434682D01*
X684673001Y-188434682D01*
X684725254Y-188427802D01*
X684829762Y-188414044D01*
X684975841Y-188353536D01*
X685101282Y-188257282D01*
X685174625Y-188161699D01*
X685231052Y-188120497D01*
X685300798Y-188116342D01*
X685361718Y-188150554D01*
X685371372Y-188161695D01*
X685444718Y-188257282D01*
X685570159Y-188353536D01*
X685716238Y-188414044D01*
X685787221Y-188423389D01*
X685872999Y-188434682D01*
X685873000Y-188434682D01*
X685873001Y-188434682D01*
X685925254Y-188427802D01*
X686029762Y-188414044D01*
X686175841Y-188353536D01*
X686301282Y-188257282D01*
X686374625Y-188161699D01*
X686431052Y-188120497D01*
X686500798Y-188116342D01*
X686561718Y-188150554D01*
X686571372Y-188161695D01*
X686644718Y-188257282D01*
X686770159Y-188353536D01*
X686916238Y-188414044D01*
X686987221Y-188423389D01*
X687072999Y-188434682D01*
X687073000Y-188434682D01*
X687073001Y-188434682D01*
X687125253Y-188427802D01*
X687229762Y-188414044D01*
X687375841Y-188353536D01*
X687501282Y-188257282D01*
X687574625Y-188161699D01*
X687631052Y-188120497D01*
X687700798Y-188116342D01*
X687761718Y-188150554D01*
X687771372Y-188161695D01*
X687844718Y-188257282D01*
X687970159Y-188353536D01*
X688116238Y-188414044D01*
X688187221Y-188423389D01*
X688251117Y-188451656D01*
X688289588Y-188509980D01*
X688290419Y-188579845D01*
X688258716Y-188634009D01*
X687918446Y-188974281D01*
X687857123Y-189007766D01*
X687830765Y-189010600D01*
X685930419Y-189010600D01*
X685863380Y-188990915D01*
X685836706Y-188967803D01*
X685827816Y-188957543D01*
X685793428Y-188917857D01*
X685672353Y-188840047D01*
X685672351Y-188840046D01*
X685672349Y-188840045D01*
X685672350Y-188840045D01*
X685534263Y-188799500D01*
X685534261Y-188799500D01*
X685390339Y-188799500D01*
X685390336Y-188799500D01*
X685252249Y-188840045D01*
X685131173Y-188917856D01*
X685036923Y-189026626D01*
X685036922Y-189026628D01*
X684977134Y-189157543D01*
X684956653Y-189300000D01*
X684977134Y-189442456D01*
X685011440Y-189517574D01*
X685036923Y-189573373D01*
X685131172Y-189682143D01*
X685252247Y-189759953D01*
X685252250Y-189759954D01*
X685252249Y-189759954D01*
X685359407Y-189791417D01*
X685386933Y-189799500D01*
X685390336Y-189800499D01*
X685390338Y-189800500D01*
X685390339Y-189800500D01*
X685534262Y-189800500D01*
X685534262Y-189800499D01*
X685672353Y-189759953D01*
X685793428Y-189682143D01*
X685836706Y-189632196D01*
X685895484Y-189594423D01*
X685930419Y-189589400D01*
X687941318Y-189589400D01*
X687949893Y-189589995D01*
X687961319Y-189591588D01*
X687961324Y-189591590D01*
X687999984Y-189589802D01*
X688007260Y-189589466D01*
X688010124Y-189589400D01*
X688028813Y-189589400D01*
X688028817Y-189589400D01*
X688031198Y-189588954D01*
X688039736Y-189587963D01*
X688069406Y-189586592D01*
X688075016Y-189584114D01*
X688102323Y-189575659D01*
X688108354Y-189574532D01*
X688133614Y-189558891D01*
X688141201Y-189554891D01*
X688168384Y-189542890D01*
X688172718Y-189538555D01*
X688195128Y-189520803D01*
X688200345Y-189517574D01*
X688218253Y-189493858D01*
X688223883Y-189487389D01*
X689256202Y-188455069D01*
X689317523Y-188421586D01*
X689360060Y-188419813D01*
X689473000Y-188434682D01*
X689473001Y-188434682D01*
X689525254Y-188427802D01*
X689629762Y-188414044D01*
X689775841Y-188353536D01*
X689901282Y-188257282D01*
X689974625Y-188161699D01*
X690031052Y-188120497D01*
X690100798Y-188116342D01*
X690161718Y-188150554D01*
X690171372Y-188161695D01*
X690244718Y-188257282D01*
X690370159Y-188353536D01*
X690516238Y-188414044D01*
X690587221Y-188423389D01*
X690672999Y-188434682D01*
X690673000Y-188434682D01*
X690673001Y-188434682D01*
X690725254Y-188427802D01*
X690829762Y-188414044D01*
X690975841Y-188353536D01*
X691101282Y-188257282D01*
X691174625Y-188161699D01*
X691231052Y-188120497D01*
X691300798Y-188116342D01*
X691361718Y-188150554D01*
X691371372Y-188161695D01*
X691444718Y-188257282D01*
X691570159Y-188353536D01*
X691716238Y-188414044D01*
X691787221Y-188423389D01*
X691872999Y-188434682D01*
X691873000Y-188434682D01*
X691873001Y-188434682D01*
X691925253Y-188427802D01*
X692029762Y-188414044D01*
X692175841Y-188353536D01*
X692301282Y-188257282D01*
X692374625Y-188161699D01*
X692431052Y-188120497D01*
X692500798Y-188116342D01*
X692561718Y-188150554D01*
X692571372Y-188161695D01*
X692644718Y-188257282D01*
X692770159Y-188353536D01*
X692916238Y-188414044D01*
X692987221Y-188423389D01*
X693072999Y-188434682D01*
X693073000Y-188434682D01*
X693073001Y-188434682D01*
X693125253Y-188427802D01*
X693229762Y-188414044D01*
X693375841Y-188353536D01*
X693378569Y-188351442D01*
X693381285Y-188350392D01*
X693382876Y-188349474D01*
X693383019Y-188349721D01*
X693443737Y-188326246D01*
X693512182Y-188340282D01*
X693546208Y-188366844D01*
X693667460Y-188501509D01*
X693667463Y-188501511D01*
X693820522Y-188612717D01*
X693993356Y-188689666D01*
X694022999Y-188695966D01*
X694023000Y-188695966D01*
X694023000Y-185362032D01*
X693993354Y-185368334D01*
X693820518Y-185445286D01*
X693667464Y-185556487D01*
X693546207Y-185691156D01*
X693486721Y-185727804D01*
X693416864Y-185726473D01*
X693378574Y-185706560D01*
X693375844Y-185704465D01*
X693229762Y-185643956D01*
X693229760Y-185643955D01*
X693073001Y-185623318D01*
X693072999Y-185623318D01*
X692916239Y-185643955D01*
X692916237Y-185643956D01*
X692770160Y-185704463D01*
X692734594Y-185731754D01*
X692644718Y-185800718D01*
X692571377Y-185896299D01*
X692571376Y-185896300D01*
X692514948Y-185937502D01*
X692445202Y-185941657D01*
X692384281Y-185907444D01*
X692374624Y-185896300D01*
X692301282Y-185800718D01*
X692175841Y-185704464D01*
X692165158Y-185700039D01*
X692029762Y-185643956D01*
X692029760Y-185643955D01*
X691873001Y-185623318D01*
X691872997Y-185623318D01*
X691760065Y-185638185D01*
X691691030Y-185627419D01*
X691656200Y-185602927D01*
X690454354Y-184401081D01*
X690420869Y-184339758D01*
X690425853Y-184270066D01*
X690467725Y-184214133D01*
X690533189Y-184189716D01*
X690542035Y-184189400D01*
X690991318Y-184189400D01*
X690999893Y-184189995D01*
X691011319Y-184191588D01*
X691011324Y-184191590D01*
X691049984Y-184189802D01*
X691057260Y-184189466D01*
X691060124Y-184189400D01*
X691078813Y-184189400D01*
X691078817Y-184189400D01*
X691081198Y-184188954D01*
X691089736Y-184187963D01*
X691119406Y-184186592D01*
X691125016Y-184184114D01*
X691152323Y-184175659D01*
X691158354Y-184174532D01*
X691183614Y-184158891D01*
X691191201Y-184154891D01*
X691218384Y-184142890D01*
X691222718Y-184138555D01*
X691245128Y-184120803D01*
X691250345Y-184117574D01*
X691268253Y-184093858D01*
X691273883Y-184087389D01*
X692303089Y-183058182D01*
X692364410Y-183024699D01*
X692420441Y-183025467D01*
X692517944Y-183049500D01*
X692688056Y-183049500D01*
X692853225Y-183008790D01*
X692971639Y-182946641D01*
X693003849Y-182929736D01*
X693003850Y-182929734D01*
X693003852Y-182929734D01*
X693131183Y-182816929D01*
X693135950Y-182810021D01*
X693190230Y-182766033D01*
X693259678Y-182758372D01*
X693322244Y-182789473D01*
X693340046Y-182810017D01*
X693344817Y-182816929D01*
X693430827Y-182893127D01*
X693472150Y-182929736D01*
X693622773Y-183008789D01*
X693622775Y-183008790D01*
X693787944Y-183049500D01*
X693958056Y-183049500D01*
X694123225Y-183008790D01*
X694241639Y-182946641D01*
X694273849Y-182929736D01*
X694273850Y-182929734D01*
X694273852Y-182929734D01*
X694401183Y-182816929D01*
X694497818Y-182676930D01*
X694558140Y-182517872D01*
X694578645Y-182349000D01*
X694558140Y-182180128D01*
X694497818Y-182021070D01*
X694495600Y-182017857D01*
X694448079Y-181949011D01*
X694401183Y-181881071D01*
X694317363Y-181806813D01*
X694280238Y-181747626D01*
X694281006Y-181677761D01*
X694317363Y-181621186D01*
X694401183Y-181546929D01*
X694497818Y-181406930D01*
X694558140Y-181247872D01*
X694578645Y-181079000D01*
X694558140Y-180910128D01*
X694497818Y-180751070D01*
X694401183Y-180611071D01*
X694273852Y-180498266D01*
X694273849Y-180498263D01*
X694123226Y-180419210D01*
X693958056Y-180378500D01*
X693787944Y-180378500D01*
X693622773Y-180419210D01*
X693472150Y-180498263D01*
X693344815Y-180611072D01*
X693340049Y-180617978D01*
X693285766Y-180661968D01*
X693216317Y-180669627D01*
X693153753Y-180638523D01*
X693135951Y-180617978D01*
X693131184Y-180611072D01*
X693129811Y-180609856D01*
X693003852Y-180498266D01*
X693003849Y-180498263D01*
X692853226Y-180419210D01*
X692688056Y-180378500D01*
X692517944Y-180378500D01*
X692517942Y-180378500D01*
X692420443Y-180402531D01*
X692350641Y-180399462D01*
X692303088Y-180369815D01*
X691957660Y-180024387D01*
X691952017Y-180017903D01*
X691945061Y-180008692D01*
X691945060Y-180008691D01*
X691945060Y-180008690D01*
X691911066Y-179977700D01*
X691909025Y-179975752D01*
X691895787Y-179962514D01*
X691895786Y-179962513D01*
X691895785Y-179962512D01*
X691895781Y-179962509D01*
X691893791Y-179961146D01*
X691887053Y-179955809D01*
X691865102Y-179935799D01*
X691865101Y-179935798D01*
X691865099Y-179935797D01*
X691859378Y-179933581D01*
X691834098Y-179920255D01*
X691829036Y-179916787D01*
X691829028Y-179916784D01*
X691800111Y-179909982D01*
X691791902Y-179907440D01*
X691764211Y-179896713D01*
X691758074Y-179896713D01*
X691729684Y-179893419D01*
X691723710Y-179892014D01*
X691694288Y-179896118D01*
X691685715Y-179896713D01*
X691137806Y-179896713D01*
X691070767Y-179877028D01*
X691044093Y-179853916D01*
X691000815Y-179803970D01*
X690879740Y-179726160D01*
X690879738Y-179726159D01*
X690879736Y-179726158D01*
X690879737Y-179726158D01*
X690741650Y-179685613D01*
X690741648Y-179685613D01*
X690597726Y-179685613D01*
X690597723Y-179685613D01*
X690459636Y-179726158D01*
X690338560Y-179803969D01*
X690244310Y-179912739D01*
X690244309Y-179912741D01*
X690184521Y-180043656D01*
X690164040Y-180186113D01*
X690171335Y-180236854D01*
X690161391Y-180306012D01*
X690115636Y-180358816D01*
X690048597Y-180378500D01*
X689977944Y-180378500D01*
X689812773Y-180419210D01*
X689715149Y-180470448D01*
X689646641Y-180484174D01*
X689581587Y-180458682D01*
X689561670Y-180439317D01*
X689503528Y-180368471D01*
X689351260Y-180243507D01*
X689351253Y-180243503D01*
X689177541Y-180150652D01*
X689043000Y-180109839D01*
X689043000Y-180645290D01*
X689023315Y-180712329D01*
X688970511Y-180758084D01*
X688901353Y-180768028D01*
X688897469Y-180767406D01*
X688821440Y-180754000D01*
X688821436Y-180754000D01*
X688764564Y-180754000D01*
X688764559Y-180754000D01*
X688688531Y-180767406D01*
X688619092Y-180759662D01*
X688564864Y-180715605D01*
X688543062Y-180649223D01*
X688543000Y-180645290D01*
X688543000Y-180109839D01*
X688542999Y-180109839D01*
X688408458Y-180150652D01*
X688234746Y-180243503D01*
X688234739Y-180243507D01*
X688082475Y-180368468D01*
X688069593Y-180384165D01*
X688011846Y-180423497D01*
X687942001Y-180425366D01*
X687882234Y-180389177D01*
X687880030Y-180386701D01*
X687859899Y-180363469D01*
X687861165Y-180362371D01*
X687828997Y-180312306D01*
X687823978Y-180277383D01*
X687823978Y-179936657D01*
X687843663Y-179869618D01*
X687860293Y-179848980D01*
X688272454Y-179436818D01*
X688333777Y-179403334D01*
X688360135Y-179400500D01*
X688471962Y-179400500D01*
X688471962Y-179400499D01*
X688610053Y-179359953D01*
X688731128Y-179282143D01*
X688825377Y-179173373D01*
X688885165Y-179042457D01*
X688905647Y-178900000D01*
X688885165Y-178757543D01*
X688825377Y-178626627D01*
X688731128Y-178517857D01*
X688610053Y-178440047D01*
X688610051Y-178440046D01*
X688610049Y-178440045D01*
X688610050Y-178440045D01*
X688471963Y-178399500D01*
X688471961Y-178399500D01*
X688328039Y-178399500D01*
X688328036Y-178399500D01*
X688189949Y-178440045D01*
X688068873Y-178517856D01*
X687974623Y-178626626D01*
X687974622Y-178626628D01*
X687914834Y-178757543D01*
X687894353Y-178900000D01*
X687897634Y-178922821D01*
X687887690Y-178991979D01*
X687862577Y-179028148D01*
X687372851Y-179517875D01*
X687366370Y-179523515D01*
X687357156Y-179530473D01*
X687326175Y-179564457D01*
X687324200Y-179566525D01*
X687310979Y-179579747D01*
X687310972Y-179579756D01*
X687309597Y-179581763D01*
X687304270Y-179588486D01*
X687284263Y-179610433D01*
X687282043Y-179616163D01*
X687268724Y-179641430D01*
X687265251Y-179646499D01*
X687265250Y-179646502D01*
X687258450Y-179675414D01*
X687255908Y-179683620D01*
X687245178Y-179711322D01*
X687245178Y-179717460D01*
X687241884Y-179745850D01*
X687240479Y-179751821D01*
X687240479Y-179751824D01*
X687244583Y-179781243D01*
X687245178Y-179789819D01*
X687245178Y-180277383D01*
X687225493Y-180344422D01*
X687209105Y-180363336D01*
X687209258Y-180363468D01*
X687203451Y-180370169D01*
X687203450Y-180370170D01*
X687181969Y-180394961D01*
X687109201Y-180478939D01*
X687109200Y-180478941D01*
X687049412Y-180609856D01*
X687028931Y-180752312D01*
X687049412Y-180894769D01*
X687107378Y-181021694D01*
X687109201Y-181025686D01*
X687203450Y-181134456D01*
X687324525Y-181212266D01*
X687324528Y-181212267D01*
X687324527Y-181212267D01*
X687462614Y-181252812D01*
X687462616Y-181252813D01*
X687462617Y-181252813D01*
X687606539Y-181252813D01*
X687666926Y-181235082D01*
X687736796Y-181235082D01*
X687795574Y-181272856D01*
X687820521Y-181318063D01*
X687849170Y-181412504D01*
X687849794Y-181482371D01*
X687812546Y-181541484D01*
X687749253Y-181571075D01*
X687730510Y-181572500D01*
X686848511Y-181572500D01*
X686843107Y-181572264D01*
X686837595Y-181571781D01*
X686802522Y-181568712D01*
X686763168Y-181579256D01*
X686757889Y-181580427D01*
X686717770Y-181587502D01*
X686713035Y-181589225D01*
X686695527Y-181596476D01*
X686690963Y-181598605D01*
X686657586Y-181621974D01*
X686653026Y-181624879D01*
X686617746Y-181645249D01*
X686617745Y-181645250D01*
X686591560Y-181676456D01*
X686587904Y-181680445D01*
X686283169Y-181985182D01*
X686221849Y-182018666D01*
X686195490Y-182021500D01*
X685290016Y-182021500D01*
X685222977Y-182001815D01*
X685177222Y-181949011D01*
X685167278Y-181879853D01*
X685196303Y-181816297D01*
X685202335Y-181809819D01*
X685529783Y-181482371D01*
X686719572Y-180292581D01*
X686723523Y-180288961D01*
X686754750Y-180262760D01*
X686775125Y-180227466D01*
X686778026Y-180222913D01*
X686801394Y-180189543D01*
X686801395Y-180189537D01*
X686803550Y-180184917D01*
X686810758Y-180167517D01*
X686812496Y-180162740D01*
X686812497Y-180162739D01*
X686819574Y-180122596D01*
X686820737Y-180117349D01*
X686831286Y-180077984D01*
X686827735Y-180037404D01*
X686827500Y-180032003D01*
X686827500Y-179432579D01*
X686847185Y-179365540D01*
X686857783Y-179351380D01*
X686925377Y-179273373D01*
X686985165Y-179142457D01*
X687005647Y-179000000D01*
X686985165Y-178857543D01*
X686925377Y-178726627D01*
X686831128Y-178617857D01*
X686710053Y-178540047D01*
X686710051Y-178540046D01*
X686710049Y-178540045D01*
X686710050Y-178540045D01*
X686571963Y-178499500D01*
X686571961Y-178499500D01*
X686428039Y-178499500D01*
X686428036Y-178499500D01*
X686289949Y-178540045D01*
X686168873Y-178617856D01*
X686074623Y-178726626D01*
X686074622Y-178726628D01*
X686014834Y-178857543D01*
X685994353Y-178999999D01*
X686014834Y-179142456D01*
X686060504Y-179242457D01*
X686074623Y-179273373D01*
X686142213Y-179351377D01*
X686171238Y-179414932D01*
X686172500Y-179432579D01*
X686172500Y-179861983D01*
X686152815Y-179929022D01*
X686136181Y-179949664D01*
X684100665Y-181985181D01*
X684039342Y-182018666D01*
X684012984Y-182021500D01*
X683647807Y-182021500D01*
X683580768Y-182001816D01*
X683498601Y-181949011D01*
X683484653Y-181940047D01*
X683484651Y-181940046D01*
X683484649Y-181940045D01*
X683484650Y-181940045D01*
X683346563Y-181899500D01*
X683346561Y-181899500D01*
X683202639Y-181899500D01*
X683202636Y-181899500D01*
X683064549Y-181940045D01*
X682943473Y-182017856D01*
X682849223Y-182126626D01*
X682849222Y-182126628D01*
X682789434Y-182257543D01*
X682768953Y-182400000D01*
X682789434Y-182542456D01*
X682838586Y-182650081D01*
X682849223Y-182673373D01*
X682943472Y-182782143D01*
X683064547Y-182859953D01*
X683064550Y-182859954D01*
X683064549Y-182859954D01*
X683202636Y-182900499D01*
X683202638Y-182900500D01*
X683202639Y-182900500D01*
X683346562Y-182900500D01*
X683346562Y-182900499D01*
X683484653Y-182859953D01*
X683605728Y-182782143D01*
X683626326Y-182758372D01*
X683660182Y-182719299D01*
X683718960Y-182681523D01*
X683753896Y-182676500D01*
X684171348Y-182676500D01*
X684182995Y-182676500D01*
X684188398Y-182676735D01*
X684228984Y-182680287D01*
X684228984Y-182680286D01*
X684228986Y-182680287D01*
X684234020Y-182679847D01*
X684259444Y-182676500D01*
X686365501Y-182676500D01*
X686370904Y-182676735D01*
X686411490Y-182680287D01*
X686450874Y-182669732D01*
X686456092Y-182668576D01*
X686496245Y-182661497D01*
X686496250Y-182661493D01*
X686501037Y-182659752D01*
X686518425Y-182652549D01*
X686523043Y-182650395D01*
X686523049Y-182650394D01*
X686556443Y-182627009D01*
X686560957Y-182624134D01*
X686596266Y-182603750D01*
X686622473Y-182572516D01*
X686626090Y-182568568D01*
X686930843Y-182263817D01*
X686992166Y-182230334D01*
X687018523Y-182227500D01*
X687968500Y-182227500D01*
X688035539Y-182247185D01*
X688081294Y-182299989D01*
X688092500Y-182351500D01*
X688092500Y-182868752D01*
X688104131Y-182927229D01*
X688104132Y-182927230D01*
X688148447Y-182993552D01*
X688214769Y-183037867D01*
X688214770Y-183037868D01*
X688273247Y-183049499D01*
X688273250Y-183049500D01*
X688273252Y-183049500D01*
X689312750Y-183049500D01*
X689312751Y-183049499D01*
X689327568Y-183046552D01*
X689371229Y-183037868D01*
X689371229Y-183037867D01*
X689371231Y-183037867D01*
X689437552Y-182993552D01*
X689468899Y-182946638D01*
X689522508Y-182901836D01*
X689591833Y-182893127D01*
X689654225Y-182922715D01*
X689662148Y-182929734D01*
X689662150Y-182929735D01*
X689812582Y-183008689D01*
X689812775Y-183008790D01*
X689977944Y-183049500D01*
X690148056Y-183049500D01*
X690313225Y-183008790D01*
X690431639Y-182946641D01*
X690463849Y-182929736D01*
X690463850Y-182929734D01*
X690463852Y-182929734D01*
X690591183Y-182816929D01*
X690595950Y-182810021D01*
X690650230Y-182766033D01*
X690719678Y-182758372D01*
X690782244Y-182789473D01*
X690800046Y-182810017D01*
X690804817Y-182816929D01*
X690890827Y-182893127D01*
X690932150Y-182929736D01*
X691082774Y-183008790D01*
X691082773Y-183008790D01*
X691147321Y-183024699D01*
X691231254Y-183045386D01*
X691291635Y-183080542D01*
X691323424Y-183142761D01*
X691316528Y-183212290D01*
X691289262Y-183253464D01*
X690968444Y-183574282D01*
X690907123Y-183607766D01*
X690880765Y-183610600D01*
X685612682Y-183610600D01*
X685604106Y-183610005D01*
X685592676Y-183608410D01*
X685592675Y-183608410D01*
X685546732Y-183610534D01*
X685543869Y-183610600D01*
X685525183Y-183610600D01*
X685525178Y-183610600D01*
X685525176Y-183610601D01*
X685522799Y-183611045D01*
X685514269Y-183612034D01*
X685484594Y-183613407D01*
X685484588Y-183613408D01*
X685478977Y-183615886D01*
X685451686Y-183624338D01*
X685445648Y-183625466D01*
X685445643Y-183625469D01*
X685420390Y-183641104D01*
X685412791Y-183645109D01*
X685375111Y-183661749D01*
X685373817Y-183658820D01*
X685325102Y-183674677D01*
X685257519Y-183656950D01*
X685210247Y-183605499D01*
X685208701Y-183602239D01*
X685201377Y-183586201D01*
X685201376Y-183586200D01*
X685191048Y-183574281D01*
X685107128Y-183477431D01*
X684986053Y-183399621D01*
X684986051Y-183399620D01*
X684986049Y-183399619D01*
X684986050Y-183399619D01*
X684847963Y-183359074D01*
X684847961Y-183359074D01*
X684704039Y-183359074D01*
X684704036Y-183359074D01*
X684565949Y-183399619D01*
X684444873Y-183477430D01*
X684350623Y-183586200D01*
X684350622Y-183586202D01*
X684290834Y-183717117D01*
X684270353Y-183859573D01*
X684273634Y-183882393D01*
X684263690Y-183951552D01*
X684238577Y-183987721D01*
X683311273Y-184915027D01*
X683304792Y-184920667D01*
X683295578Y-184927625D01*
X683264597Y-184961609D01*
X683262622Y-184963677D01*
X683249401Y-184976899D01*
X683249394Y-184976908D01*
X683248019Y-184978915D01*
X683242692Y-184985638D01*
X683222685Y-185007585D01*
X683220465Y-185013315D01*
X683207146Y-185038582D01*
X683203673Y-185043651D01*
X683203672Y-185043654D01*
X683196872Y-185072566D01*
X683194330Y-185080772D01*
X683183600Y-185108474D01*
X683183600Y-185114612D01*
X683180306Y-185143002D01*
X683178901Y-185148973D01*
X683178901Y-185148976D01*
X683183005Y-185178395D01*
X683183600Y-185186971D01*
X683183600Y-185633000D01*
X683163915Y-185700039D01*
X683135088Y-185731374D01*
X683044718Y-185800718D01*
X682971377Y-185896299D01*
X682971376Y-185896300D01*
X682914948Y-185937502D01*
X682845202Y-185941657D01*
X682784281Y-185907444D01*
X682774624Y-185896300D01*
X682701282Y-185800718D01*
X682575841Y-185704464D01*
X682565158Y-185700039D01*
X682429762Y-185643956D01*
X682429760Y-185643955D01*
X682273001Y-185623318D01*
X682272999Y-185623318D01*
X682116239Y-185643955D01*
X682116237Y-185643956D01*
X681970156Y-185704465D01*
X681970153Y-185704466D01*
X681967420Y-185706564D01*
X681964699Y-185707615D01*
X681963119Y-185708528D01*
X681962976Y-185708281D01*
X681902249Y-185731754D01*
X681833805Y-185717710D01*
X681799791Y-185691155D01*
X681678539Y-185556490D01*
X681678536Y-185556488D01*
X681525477Y-185445282D01*
X681352648Y-185368335D01*
X681323000Y-185362032D01*
X681323000Y-187155000D01*
X681303315Y-187222039D01*
X681250511Y-187267794D01*
X681199000Y-187279000D01*
X680173000Y-187279000D01*
X680173000Y-187876159D01*
X680187819Y-188017154D01*
X680246278Y-188197072D01*
X680246283Y-188197084D01*
X680301372Y-188292501D01*
X680317845Y-188360401D01*
X680294992Y-188426428D01*
X680240071Y-188469618D01*
X680193985Y-188478500D01*
X680133639Y-188478500D01*
X680133633Y-188478500D01*
X680133629Y-188478501D01*
X680016239Y-188493955D01*
X680016237Y-188493956D01*
X679870160Y-188554463D01*
X679870158Y-188554464D01*
X679870159Y-188554464D01*
X679744718Y-188650718D01*
X679744717Y-188650719D01*
X679744716Y-188650720D01*
X679704610Y-188702987D01*
X679648182Y-188744189D01*
X679606235Y-188751500D01*
X679516203Y-188751500D01*
X679449164Y-188731815D01*
X679434997Y-188721210D01*
X679431127Y-188717856D01*
X679384502Y-188687892D01*
X679310053Y-188640047D01*
X679310051Y-188640046D01*
X679310049Y-188640045D01*
X679310050Y-188640045D01*
X679171963Y-188599500D01*
X679171961Y-188599500D01*
X679028039Y-188599500D01*
X679028036Y-188599500D01*
X678889949Y-188640045D01*
X678768873Y-188717856D01*
X678674623Y-188826626D01*
X678674622Y-188826628D01*
X678614834Y-188957543D01*
X678594353Y-189100000D01*
X678614834Y-189242456D01*
X678641114Y-189300000D01*
X678674623Y-189373373D01*
X678768872Y-189482143D01*
X678824004Y-189517574D01*
X678889948Y-189559954D01*
X678961704Y-189581023D01*
X679020482Y-189618797D01*
X679049507Y-189682353D01*
X679039563Y-189751511D01*
X678993809Y-189804315D01*
X678961704Y-189818977D01*
X678889948Y-189840045D01*
X678768873Y-189917856D01*
X678674623Y-190026626D01*
X678674622Y-190026628D01*
X678614834Y-190157543D01*
X678594353Y-190299999D01*
X678614834Y-190442456D01*
X678674622Y-190573371D01*
X678674623Y-190573373D01*
X678768872Y-190682143D01*
X678807991Y-190707283D01*
X678889948Y-190759954D01*
X678961704Y-190781023D01*
X679020482Y-190818797D01*
X679049507Y-190882353D01*
X679039563Y-190951511D01*
X678993809Y-191004315D01*
X678961704Y-191018977D01*
X678889948Y-191040045D01*
X678768873Y-191117856D01*
X678674623Y-191226626D01*
X678674622Y-191226628D01*
X678614834Y-191357543D01*
X678594353Y-191499999D01*
X678614834Y-191642456D01*
X678674622Y-191773371D01*
X678674623Y-191773373D01*
X678768872Y-191882143D01*
X678889947Y-191959953D01*
X678889950Y-191959954D01*
X678889949Y-191959954D01*
X679028036Y-192000499D01*
X679028038Y-192000500D01*
X679028039Y-192000500D01*
X679171962Y-192000500D01*
X679171962Y-192000499D01*
X679310053Y-191959953D01*
X679431128Y-191882143D01*
X679482985Y-191822296D01*
X679541762Y-191784523D01*
X679576697Y-191779500D01*
X679585518Y-191779500D01*
X679652557Y-191799185D01*
X679683892Y-191828013D01*
X679744718Y-191907282D01*
X679840300Y-191980625D01*
X679881502Y-192037052D01*
X679885657Y-192106798D01*
X679851444Y-192167719D01*
X679840304Y-192177372D01*
X679744718Y-192250718D01*
X679648463Y-192376160D01*
X679587956Y-192522237D01*
X679587955Y-192522239D01*
X679567318Y-192678998D01*
X679567318Y-192679001D01*
X679587955Y-192835760D01*
X679587956Y-192835762D01*
X679648464Y-192981841D01*
X679744718Y-193107282D01*
X679840300Y-193180624D01*
X679881502Y-193237051D01*
X679885657Y-193306797D01*
X679851445Y-193367717D01*
X679840300Y-193377374D01*
X679744720Y-193450715D01*
X679648463Y-193576160D01*
X679587956Y-193722237D01*
X679587955Y-193722239D01*
X679567318Y-193878998D01*
X679567318Y-193879001D01*
X679587955Y-194035760D01*
X679587956Y-194035762D01*
X679648464Y-194181841D01*
X679744718Y-194307282D01*
X679840300Y-194380625D01*
X679881502Y-194437052D01*
X679885657Y-194506798D01*
X679851444Y-194567719D01*
X679840304Y-194577372D01*
X679744721Y-194650716D01*
X679744718Y-194650718D01*
X679648463Y-194776160D01*
X679587956Y-194922237D01*
X679587955Y-194922239D01*
X679567318Y-195078998D01*
X679567318Y-195079001D01*
X679587955Y-195235760D01*
X679587956Y-195235762D01*
X679648464Y-195381841D01*
X679744718Y-195507282D01*
X679840300Y-195580625D01*
X679881502Y-195637052D01*
X679885657Y-195706798D01*
X679851444Y-195767719D01*
X679840304Y-195777372D01*
X679744718Y-195850718D01*
X679648463Y-195976160D01*
X679587956Y-196122237D01*
X679587955Y-196122239D01*
X679567318Y-196278998D01*
X679567318Y-196279001D01*
X679587955Y-196435760D01*
X679587956Y-196435762D01*
X679648464Y-196581841D01*
X679744718Y-196707282D01*
X679870159Y-196803536D01*
X680016238Y-196864044D01*
X680133639Y-196879500D01*
X680133646Y-196879500D01*
X680193985Y-196879500D01*
X680261024Y-196899185D01*
X680306779Y-196951989D01*
X680316723Y-197021147D01*
X680301372Y-197065499D01*
X680246283Y-197160915D01*
X680246278Y-197160927D01*
X680187819Y-197340845D01*
X680173000Y-197481840D01*
X680173000Y-198079000D01*
X681199000Y-198079000D01*
X681266039Y-198098685D01*
X681311794Y-198151489D01*
X681323000Y-198203000D01*
X681323000Y-199995966D01*
X681352643Y-199989666D01*
X681525479Y-199912714D01*
X681678535Y-199801512D01*
X681799791Y-199666844D01*
X681859278Y-199630195D01*
X681929135Y-199631526D01*
X681967427Y-199651440D01*
X681970157Y-199653535D01*
X681970158Y-199653535D01*
X681970159Y-199653536D01*
X682116238Y-199714044D01*
X682145201Y-199717857D01*
X682272999Y-199734682D01*
X682273000Y-199734682D01*
X682273001Y-199734682D01*
X682346960Y-199724945D01*
X682429762Y-199714044D01*
X682575841Y-199653536D01*
X682701282Y-199557282D01*
X682774625Y-199461699D01*
X682831052Y-199420497D01*
X682900798Y-199416342D01*
X682961718Y-199450554D01*
X682971372Y-199461695D01*
X683044718Y-199557282D01*
X683170159Y-199653536D01*
X683316238Y-199714044D01*
X683345201Y-199717857D01*
X683472999Y-199734682D01*
X683473000Y-199734682D01*
X683585932Y-199719814D01*
X683654967Y-199730579D01*
X683689798Y-199755072D01*
X684174281Y-200239554D01*
X684207766Y-200300877D01*
X684210600Y-200327235D01*
X684210600Y-203192108D01*
X684190915Y-203259147D01*
X684138111Y-203304902D01*
X684068953Y-203314846D01*
X684005397Y-203285821D01*
X683990747Y-203270773D01*
X683959410Y-203232590D01*
X683885078Y-203171588D01*
X683799450Y-203101315D01*
X683616954Y-203003768D01*
X683418934Y-202943700D01*
X683418932Y-202943699D01*
X683418934Y-202943699D01*
X683213000Y-202923417D01*
X683007067Y-202943699D01*
X682809043Y-203003769D01*
X682721114Y-203050769D01*
X682626550Y-203101315D01*
X682626548Y-203101316D01*
X682626547Y-203101317D01*
X682466589Y-203232589D01*
X682335317Y-203392547D01*
X682237769Y-203575043D01*
X682177699Y-203773067D01*
X682157417Y-203978999D01*
X682177699Y-204184932D01*
X682200598Y-204260420D01*
X682237768Y-204382954D01*
X682335315Y-204565450D01*
X682335317Y-204565452D01*
X682466589Y-204725410D01*
X682563209Y-204804702D01*
X682626550Y-204856685D01*
X682809046Y-204954232D01*
X683007066Y-205014300D01*
X683007065Y-205014300D01*
X683025529Y-205016118D01*
X683213000Y-205034583D01*
X683418934Y-205014300D01*
X683616954Y-204954232D01*
X683799450Y-204856685D01*
X683959410Y-204725410D01*
X683990745Y-204687227D01*
X684048492Y-204647892D01*
X684118336Y-204646021D01*
X684178105Y-204682208D01*
X684208821Y-204744964D01*
X684210600Y-204765891D01*
X684210600Y-205103925D01*
X684190915Y-205170964D01*
X684138111Y-205216719D01*
X684068953Y-205226663D01*
X684051666Y-205222902D01*
X683971964Y-205199500D01*
X683971961Y-205199500D01*
X683828039Y-205199500D01*
X683828036Y-205199500D01*
X683689949Y-205240045D01*
X683568873Y-205317856D01*
X683568872Y-205317856D01*
X683568872Y-205317857D01*
X683549645Y-205340047D01*
X683525594Y-205367803D01*
X683466816Y-205405577D01*
X683431881Y-205410600D01*
X680331835Y-205410600D01*
X680264796Y-205390915D01*
X680244154Y-205374281D01*
X680111054Y-205241181D01*
X680077569Y-205179858D01*
X680082553Y-205110166D01*
X680124425Y-205054233D01*
X680189889Y-205029816D01*
X680198735Y-205029500D01*
X681542750Y-205029500D01*
X681542751Y-205029499D01*
X681557568Y-205026552D01*
X681601229Y-205017868D01*
X681601229Y-205017867D01*
X681601231Y-205017867D01*
X681667552Y-204973552D01*
X681711867Y-204907231D01*
X681711867Y-204907229D01*
X681711868Y-204907229D01*
X681723499Y-204848752D01*
X681723500Y-204848750D01*
X681723500Y-203109249D01*
X681723499Y-203109247D01*
X681711868Y-203050770D01*
X681711867Y-203050769D01*
X681667552Y-202984447D01*
X681601230Y-202940132D01*
X681601229Y-202940131D01*
X681542752Y-202928500D01*
X681542748Y-202928500D01*
X679803252Y-202928500D01*
X679803247Y-202928500D01*
X679744770Y-202940131D01*
X679744769Y-202940132D01*
X679678447Y-202984447D01*
X679634132Y-203050769D01*
X679634131Y-203050770D01*
X679622500Y-203109247D01*
X679622500Y-204453265D01*
X679602815Y-204520304D01*
X679550011Y-204566059D01*
X679480853Y-204576003D01*
X679417297Y-204546978D01*
X679410819Y-204540946D01*
X679196947Y-204327074D01*
X679191304Y-204320590D01*
X679184348Y-204311379D01*
X679184347Y-204311378D01*
X679184347Y-204311377D01*
X679150353Y-204280387D01*
X679148312Y-204278439D01*
X679135074Y-204265201D01*
X679135073Y-204265200D01*
X679135072Y-204265199D01*
X679135068Y-204265196D01*
X679133078Y-204263833D01*
X679126340Y-204258496D01*
X679104389Y-204238486D01*
X679104388Y-204238485D01*
X679104386Y-204238484D01*
X679098665Y-204236268D01*
X679073385Y-204222942D01*
X679068323Y-204219474D01*
X679068315Y-204219471D01*
X679039398Y-204212669D01*
X679031189Y-204210127D01*
X679003498Y-204199400D01*
X678997361Y-204199400D01*
X678968971Y-204196106D01*
X678962997Y-204194701D01*
X678933575Y-204198805D01*
X678925002Y-204199400D01*
X677373317Y-204199400D01*
X677364741Y-204198805D01*
X677353311Y-204197210D01*
X677353310Y-204197210D01*
X677307367Y-204199334D01*
X677304504Y-204199400D01*
X677285818Y-204199400D01*
X677285813Y-204199400D01*
X677285811Y-204199401D01*
X677283434Y-204199845D01*
X677274904Y-204200834D01*
X677245229Y-204202207D01*
X677245223Y-204202208D01*
X677239612Y-204204686D01*
X677212321Y-204213138D01*
X677206283Y-204214266D01*
X677206278Y-204214269D01*
X677181025Y-204229904D01*
X677173426Y-204233909D01*
X677146253Y-204245908D01*
X677141911Y-204250251D01*
X677119517Y-204267989D01*
X677114289Y-204271226D01*
X677114288Y-204271226D01*
X677096381Y-204294938D01*
X677090740Y-204301421D01*
X676426953Y-204965207D01*
X676365630Y-204998692D01*
X676295938Y-204993708D01*
X676240005Y-204951836D01*
X676226477Y-204929036D01*
X676225377Y-204926627D01*
X676225376Y-204926626D01*
X676208570Y-204907231D01*
X676131128Y-204817857D01*
X676010053Y-204740047D01*
X676010051Y-204740046D01*
X676010049Y-204740045D01*
X676010050Y-204740045D01*
X675871963Y-204699500D01*
X675871961Y-204699500D01*
X675760136Y-204699500D01*
X675693097Y-204679815D01*
X675672455Y-204663181D01*
X675225719Y-204216445D01*
X675192234Y-204155122D01*
X675189400Y-204128764D01*
X675189400Y-198579000D01*
X680173000Y-198579000D01*
X680173000Y-199176159D01*
X680187819Y-199317154D01*
X680246278Y-199497072D01*
X680246283Y-199497084D01*
X680340870Y-199660915D01*
X680340872Y-199660918D01*
X680467460Y-199801509D01*
X680467463Y-199801511D01*
X680620522Y-199912717D01*
X680793356Y-199989666D01*
X680822999Y-199995966D01*
X680823000Y-199995966D01*
X680823000Y-198579000D01*
X680173000Y-198579000D01*
X675189400Y-198579000D01*
X675189400Y-197760673D01*
X675189995Y-197752096D01*
X675191586Y-197740681D01*
X675191589Y-197740675D01*
X675189466Y-197694751D01*
X675189400Y-197691888D01*
X675189400Y-197673186D01*
X675189400Y-197673185D01*
X675189400Y-197673183D01*
X675188953Y-197670795D01*
X675187963Y-197662259D01*
X675187825Y-197659269D01*
X675186592Y-197632593D01*
X675184114Y-197626981D01*
X675175659Y-197599677D01*
X675174532Y-197593646D01*
X675158889Y-197568382D01*
X675154889Y-197560793D01*
X675142889Y-197533616D01*
X675138551Y-197529278D01*
X675120804Y-197506872D01*
X675117575Y-197501657D01*
X675117574Y-197501655D01*
X675093863Y-197483749D01*
X675087380Y-197478107D01*
X674109319Y-196500046D01*
X674075834Y-196438723D01*
X674073000Y-196412365D01*
X674073000Y-189300000D01*
X674500000Y-189300000D01*
X674500000Y-186779000D01*
X680173000Y-186779000D01*
X680823000Y-186779000D01*
X680823000Y-185362032D01*
X680793354Y-185368334D01*
X680620518Y-185445286D01*
X680467464Y-185556487D01*
X680340872Y-185697081D01*
X680340870Y-185697084D01*
X680246283Y-185860915D01*
X680246278Y-185860927D01*
X680187819Y-186040845D01*
X680173000Y-186181840D01*
X680173000Y-186779000D01*
X674500000Y-186779000D01*
X674500000Y-176350000D01*
X675500001Y-176350000D01*
X675500001Y-176386654D01*
X675510319Y-176487652D01*
X675564546Y-176651300D01*
X675564551Y-176651311D01*
X675655052Y-176798034D01*
X675655055Y-176798038D01*
X675776961Y-176919944D01*
X675776965Y-176919947D01*
X675923688Y-177010448D01*
X675923699Y-177010453D01*
X676087347Y-177064680D01*
X676188351Y-177074999D01*
X676275000Y-177074998D01*
X676275000Y-176350000D01*
X675500001Y-176350000D01*
X674500000Y-176350000D01*
X674500000Y-175850000D01*
X675500000Y-175850000D01*
X676275000Y-175850000D01*
X676275000Y-175125000D01*
X676775000Y-175125000D01*
X676775000Y-177074999D01*
X676861640Y-177074999D01*
X676861654Y-177074998D01*
X676962652Y-177064680D01*
X677126300Y-177010453D01*
X677126311Y-177010448D01*
X677273034Y-176919947D01*
X677273038Y-176919944D01*
X677394944Y-176798038D01*
X677394947Y-176798034D01*
X677475391Y-176667616D01*
X677527339Y-176620891D01*
X677596301Y-176609670D01*
X677660383Y-176637513D01*
X677668610Y-176645032D01*
X677674289Y-176650711D01*
X677780523Y-176729115D01*
X677780524Y-176729115D01*
X677780525Y-176729116D01*
X677905151Y-176772725D01*
X677905150Y-176772725D01*
X677934740Y-176775500D01*
X677934744Y-176775500D01*
X678148500Y-176775500D01*
X678215539Y-176795185D01*
X678261294Y-176847989D01*
X678272500Y-176899500D01*
X678272500Y-177481668D01*
X678252815Y-177548707D01*
X678236182Y-177569348D01*
X678178265Y-177627266D01*
X678175441Y-177624442D01*
X678136958Y-177655183D01*
X678067458Y-177662352D01*
X678005114Y-177630808D01*
X678001901Y-177627101D01*
X678001736Y-177627267D01*
X677910404Y-177535935D01*
X677850551Y-177508025D01*
X677803173Y-177485932D01*
X677803171Y-177485931D01*
X677803172Y-177485931D01*
X677754317Y-177479500D01*
X677754316Y-177479500D01*
X677405684Y-177479500D01*
X677405683Y-177479500D01*
X677356828Y-177485931D01*
X677249595Y-177535935D01*
X677165935Y-177619595D01*
X677115931Y-177726828D01*
X677109500Y-177775683D01*
X677109500Y-178224316D01*
X677115931Y-178273171D01*
X677115932Y-178273173D01*
X677165935Y-178380404D01*
X677216181Y-178430650D01*
X677249666Y-178491971D01*
X677252500Y-178518330D01*
X677252500Y-178690502D01*
X677232815Y-178757541D01*
X677222213Y-178771704D01*
X677174625Y-178826622D01*
X677174622Y-178826628D01*
X677114834Y-178957543D01*
X677094353Y-179099999D01*
X677114834Y-179242456D01*
X677128953Y-179273371D01*
X677174623Y-179373373D01*
X677268872Y-179482143D01*
X677389947Y-179559953D01*
X677389950Y-179559954D01*
X677389949Y-179559954D01*
X677528036Y-179600499D01*
X677528038Y-179600500D01*
X677528039Y-179600500D01*
X677671962Y-179600500D01*
X677671962Y-179600499D01*
X677787671Y-179566525D01*
X677810050Y-179559954D01*
X677810050Y-179559953D01*
X677810053Y-179559953D01*
X677931128Y-179482143D01*
X678025377Y-179373373D01*
X678085165Y-179242457D01*
X678105647Y-179100000D01*
X678085165Y-178957543D01*
X678025377Y-178826627D01*
X677947500Y-178736751D01*
X677937786Y-178725540D01*
X677926123Y-178700000D01*
X682094353Y-178700000D01*
X682114834Y-178842456D01*
X682174622Y-178973371D01*
X682174623Y-178973373D01*
X682268872Y-179082143D01*
X682389947Y-179159953D01*
X682389950Y-179159954D01*
X682389949Y-179159954D01*
X682528036Y-179200499D01*
X682528038Y-179200500D01*
X682528039Y-179200500D01*
X682671962Y-179200500D01*
X682671962Y-179200499D01*
X682810053Y-179159953D01*
X682931128Y-179082143D01*
X683025377Y-178973373D01*
X683085165Y-178842457D01*
X683105647Y-178700000D01*
X683085165Y-178557543D01*
X683025377Y-178426627D01*
X682976778Y-178370540D01*
X682947754Y-178306984D01*
X682957698Y-178237826D01*
X682982807Y-178201661D01*
X683004065Y-178180404D01*
X683004066Y-178180401D01*
X683011737Y-178172731D01*
X683014566Y-178175560D01*
X683052977Y-178144843D01*
X683122474Y-178137635D01*
X683184835Y-178169143D01*
X683188093Y-178172903D01*
X683188264Y-178172733D01*
X683195935Y-178180403D01*
X683195935Y-178180404D01*
X683279596Y-178264065D01*
X683386827Y-178314068D01*
X683435683Y-178320500D01*
X683435684Y-178320500D01*
X683784317Y-178320500D01*
X683804392Y-178317857D01*
X683833173Y-178314068D01*
X683940404Y-178264065D01*
X684024065Y-178180404D01*
X684074068Y-178073173D01*
X684080500Y-178024316D01*
X684080500Y-177575684D01*
X684080195Y-177573371D01*
X684074068Y-177526828D01*
X684054998Y-177485932D01*
X684024065Y-177419596D01*
X683940404Y-177335935D01*
X683935719Y-177331250D01*
X683902234Y-177269927D01*
X683899400Y-177243569D01*
X683899400Y-176691681D01*
X683899995Y-176683104D01*
X683901587Y-176671682D01*
X683901590Y-176671676D01*
X683899466Y-176625730D01*
X683899400Y-176622867D01*
X683899400Y-176604180D01*
X683898897Y-176598757D01*
X683912307Y-176530187D01*
X683925230Y-176516706D01*
X683889040Y-176504111D01*
X683859346Y-176473819D01*
X684058263Y-176473819D01*
X684094569Y-176486496D01*
X684121519Y-176517362D01*
X684123366Y-176515999D01*
X684207288Y-176629710D01*
X684207289Y-176629711D01*
X684313523Y-176708115D01*
X684313524Y-176708115D01*
X684313525Y-176708116D01*
X684438151Y-176751725D01*
X684438150Y-176751725D01*
X684467740Y-176754500D01*
X684467744Y-176754500D01*
X685148260Y-176754500D01*
X685177849Y-176751725D01*
X685192321Y-176746661D01*
X685302475Y-176708116D01*
X685408711Y-176629711D01*
X685487116Y-176523475D01*
X685493892Y-176504111D01*
X685526633Y-176410545D01*
X685567355Y-176353769D01*
X685632308Y-176328022D01*
X685643674Y-176327500D01*
X686064895Y-176327500D01*
X686131934Y-176347185D01*
X686158605Y-176370295D01*
X686168872Y-176382143D01*
X686289947Y-176459953D01*
X686289950Y-176459954D01*
X686289949Y-176459954D01*
X686428036Y-176500499D01*
X686428038Y-176500500D01*
X686428039Y-176500500D01*
X686571962Y-176500500D01*
X686571962Y-176500499D01*
X686708950Y-176460277D01*
X686710050Y-176459954D01*
X686710050Y-176459953D01*
X686710053Y-176459953D01*
X686831128Y-176382143D01*
X686842291Y-176369260D01*
X688797500Y-176369260D01*
X688800274Y-176398849D01*
X688843884Y-176523476D01*
X688919351Y-176625730D01*
X688922289Y-176629711D01*
X689028525Y-176708116D01*
X689088126Y-176728971D01*
X689103379Y-176734309D01*
X689160155Y-176775030D01*
X689185902Y-176839983D01*
X689172446Y-176908545D01*
X689156138Y-176932552D01*
X689074623Y-177026627D01*
X689074622Y-177026628D01*
X689014834Y-177157543D01*
X688994353Y-177299999D01*
X689014834Y-177442456D01*
X689057525Y-177535935D01*
X689074623Y-177573373D01*
X689168872Y-177682143D01*
X689289947Y-177759953D01*
X689289950Y-177759954D01*
X689289949Y-177759954D01*
X689428036Y-177800499D01*
X689428038Y-177800500D01*
X689428039Y-177800500D01*
X689571962Y-177800500D01*
X689571962Y-177800499D01*
X689710053Y-177759953D01*
X689831128Y-177682143D01*
X689925377Y-177573373D01*
X689985165Y-177442457D01*
X690005647Y-177300000D01*
X689985165Y-177157543D01*
X689925377Y-177026627D01*
X689854562Y-176944902D01*
X689825539Y-176881349D01*
X689835483Y-176812191D01*
X689881237Y-176759387D01*
X689907322Y-176746661D01*
X689937484Y-176736106D01*
X690017475Y-176708116D01*
X690123711Y-176629711D01*
X690202116Y-176523475D01*
X690245725Y-176398849D01*
X690246400Y-176391654D01*
X690248500Y-176369260D01*
X690547500Y-176369260D01*
X690550274Y-176398849D01*
X690593884Y-176523476D01*
X690672288Y-176629710D01*
X690672289Y-176629711D01*
X690778523Y-176708115D01*
X690778524Y-176708115D01*
X690778525Y-176708116D01*
X690903151Y-176751725D01*
X690903150Y-176751725D01*
X690932740Y-176754500D01*
X690932744Y-176754500D01*
X691613260Y-176754500D01*
X691642849Y-176751725D01*
X691657321Y-176746661D01*
X691767475Y-176708116D01*
X691873711Y-176629711D01*
X691952116Y-176523475D01*
X691995725Y-176398849D01*
X691996400Y-176391654D01*
X691998500Y-176369260D01*
X691998500Y-175788739D01*
X691995725Y-175759150D01*
X691965404Y-175672500D01*
X691952116Y-175634525D01*
X691948557Y-175629703D01*
X691873711Y-175528289D01*
X691873710Y-175528288D01*
X691767476Y-175449884D01*
X691642848Y-175406274D01*
X691642849Y-175406274D01*
X691639922Y-175406000D01*
X691637894Y-175405192D01*
X691635480Y-175404665D01*
X691635567Y-175404265D01*
X691575013Y-175380142D01*
X691534389Y-175323296D01*
X691527500Y-175282542D01*
X691527500Y-175132579D01*
X691547185Y-175065540D01*
X691557783Y-175051380D01*
X691625377Y-174973373D01*
X691685165Y-174842457D01*
X691705647Y-174700000D01*
X691685165Y-174557543D01*
X691625377Y-174426627D01*
X691531128Y-174317857D01*
X691410053Y-174240047D01*
X691410051Y-174240046D01*
X691410049Y-174240045D01*
X691410050Y-174240045D01*
X691271963Y-174199500D01*
X691271961Y-174199500D01*
X691128039Y-174199500D01*
X691128036Y-174199500D01*
X690989949Y-174240045D01*
X690868873Y-174317856D01*
X690774623Y-174426626D01*
X690774622Y-174426628D01*
X690714834Y-174557543D01*
X690694353Y-174700000D01*
X690714834Y-174842456D01*
X690774622Y-174973371D01*
X690774623Y-174973373D01*
X690842213Y-175051377D01*
X690871238Y-175114932D01*
X690872500Y-175132579D01*
X690872500Y-175329018D01*
X690852815Y-175396057D01*
X690800011Y-175441812D01*
X690789456Y-175446059D01*
X690778523Y-175449884D01*
X690672289Y-175528288D01*
X690672288Y-175528289D01*
X690593884Y-175634523D01*
X690550274Y-175759150D01*
X690547500Y-175788739D01*
X690547500Y-176369260D01*
X690248500Y-176369260D01*
X690248500Y-175788739D01*
X690245725Y-175759150D01*
X690215404Y-175672500D01*
X690202116Y-175634525D01*
X690198557Y-175629703D01*
X690123711Y-175528289D01*
X690123710Y-175528288D01*
X690017476Y-175449884D01*
X689892848Y-175406274D01*
X689892849Y-175406274D01*
X689863260Y-175403500D01*
X689863256Y-175403500D01*
X689182744Y-175403500D01*
X689182740Y-175403500D01*
X689153150Y-175406274D01*
X689028523Y-175449884D01*
X688922289Y-175528288D01*
X688922288Y-175528289D01*
X688843884Y-175634523D01*
X688800274Y-175759150D01*
X688797500Y-175788739D01*
X688797500Y-176369260D01*
X686842291Y-176369260D01*
X686925377Y-176273373D01*
X686985165Y-176142457D01*
X687005647Y-176000000D01*
X686985165Y-175857543D01*
X686925377Y-175726627D01*
X686831128Y-175617857D01*
X686710053Y-175540047D01*
X686710051Y-175540046D01*
X686710049Y-175540045D01*
X686710050Y-175540045D01*
X686571963Y-175499500D01*
X686571961Y-175499500D01*
X686428039Y-175499500D01*
X686428036Y-175499500D01*
X686289949Y-175540045D01*
X686168873Y-175617856D01*
X686168872Y-175617856D01*
X686168872Y-175617857D01*
X686158606Y-175629703D01*
X686099830Y-175667477D01*
X686064895Y-175672500D01*
X685577741Y-175672500D01*
X685510702Y-175652815D01*
X685477971Y-175622134D01*
X685408711Y-175528289D01*
X685408709Y-175528288D01*
X685408709Y-175528287D01*
X685302476Y-175449884D01*
X685177848Y-175406274D01*
X685177849Y-175406274D01*
X685148260Y-175403500D01*
X685148256Y-175403500D01*
X684467744Y-175403500D01*
X684467740Y-175403500D01*
X684438150Y-175406274D01*
X684313523Y-175449884D01*
X684207289Y-175528288D01*
X684207288Y-175528289D01*
X684128884Y-175634523D01*
X684085274Y-175759150D01*
X684082500Y-175788739D01*
X684082500Y-175788744D01*
X684082500Y-176369256D01*
X684082598Y-176370297D01*
X684084600Y-176391654D01*
X684071258Y-176460238D01*
X684058263Y-176473819D01*
X683859346Y-176473819D01*
X683858840Y-176473303D01*
X683852891Y-176464618D01*
X683852890Y-176464616D01*
X683848551Y-176460277D01*
X683830805Y-176437873D01*
X683827574Y-176432655D01*
X683827573Y-176432654D01*
X683827571Y-176432651D01*
X683819834Y-176424164D01*
X683822055Y-176422138D01*
X683791136Y-176380468D01*
X683783500Y-176337627D01*
X683783500Y-175788739D01*
X683780725Y-175759150D01*
X683750404Y-175672500D01*
X683737116Y-175634525D01*
X683733557Y-175629703D01*
X683658711Y-175528289D01*
X683658710Y-175528288D01*
X683552476Y-175449884D01*
X683427848Y-175406274D01*
X683427849Y-175406274D01*
X683398260Y-175403500D01*
X683398256Y-175403500D01*
X682717744Y-175403500D01*
X682717740Y-175403500D01*
X682688150Y-175406274D01*
X682563523Y-175449884D01*
X682457289Y-175528288D01*
X682457288Y-175528289D01*
X682378884Y-175634523D01*
X682335274Y-175759150D01*
X682332500Y-175788739D01*
X682332500Y-176369260D01*
X682335274Y-176398849D01*
X682378884Y-176523476D01*
X682457288Y-176629710D01*
X682457289Y-176629711D01*
X682563523Y-176708115D01*
X682563524Y-176708115D01*
X682563525Y-176708116D01*
X682688151Y-176751725D01*
X682688150Y-176751725D01*
X682717740Y-176754500D01*
X682717744Y-176754500D01*
X683196600Y-176754500D01*
X683263639Y-176774185D01*
X683309394Y-176826989D01*
X683320600Y-176878500D01*
X683320600Y-177243568D01*
X683300915Y-177310607D01*
X683284282Y-177331249D01*
X683279596Y-177335934D01*
X683279596Y-177335935D01*
X683195935Y-177419596D01*
X683195934Y-177419597D01*
X683188265Y-177427267D01*
X683185441Y-177424443D01*
X683146958Y-177455183D01*
X683077458Y-177462352D01*
X683015114Y-177430808D01*
X683011901Y-177427101D01*
X683011736Y-177427267D01*
X682920404Y-177335935D01*
X682866088Y-177310607D01*
X682813173Y-177285932D01*
X682813171Y-177285931D01*
X682813172Y-177285931D01*
X682764317Y-177279500D01*
X682764316Y-177279500D01*
X682415684Y-177279500D01*
X682415683Y-177279500D01*
X682366828Y-177285931D01*
X682259595Y-177335935D01*
X682175935Y-177419595D01*
X682125931Y-177526828D01*
X682119500Y-177575683D01*
X682119500Y-178024316D01*
X682125931Y-178073171D01*
X682175935Y-178180404D01*
X682207904Y-178212374D01*
X682241389Y-178273697D01*
X682236403Y-178343389D01*
X682213936Y-178381255D01*
X682174625Y-178426622D01*
X682174622Y-178426628D01*
X682114834Y-178557543D01*
X682094353Y-178700000D01*
X677926123Y-178700000D01*
X677908762Y-178661984D01*
X677907500Y-178644338D01*
X677907500Y-178518330D01*
X677927185Y-178451291D01*
X677943815Y-178430653D01*
X677994065Y-178380404D01*
X677994065Y-178380403D01*
X678001737Y-178372732D01*
X678004572Y-178375567D01*
X678042883Y-178344881D01*
X678112374Y-178337616D01*
X678174761Y-178369075D01*
X678178088Y-178372908D01*
X678178264Y-178372733D01*
X678185935Y-178380404D01*
X678269596Y-178464065D01*
X678376827Y-178514068D01*
X678425683Y-178520500D01*
X678425684Y-178520500D01*
X678774317Y-178520500D01*
X678794392Y-178517857D01*
X678823173Y-178514068D01*
X678930404Y-178464065D01*
X679014065Y-178380404D01*
X679064068Y-178273173D01*
X679070500Y-178224316D01*
X679070500Y-177775684D01*
X679064068Y-177726827D01*
X679014065Y-177619596D01*
X679014064Y-177619594D01*
X678963818Y-177569348D01*
X678930334Y-177508025D01*
X678927500Y-177481668D01*
X678927500Y-176621341D01*
X678947185Y-176554302D01*
X678951732Y-176547705D01*
X678954116Y-176544475D01*
X678997725Y-176419849D01*
X678998446Y-176412159D01*
X679000500Y-176390260D01*
X679000500Y-175809739D01*
X678997725Y-175780150D01*
X678954115Y-175655523D01*
X678875711Y-175549289D01*
X678875710Y-175549288D01*
X678769476Y-175470884D01*
X678644848Y-175427274D01*
X678644849Y-175427274D01*
X678615260Y-175424500D01*
X678615256Y-175424500D01*
X677934744Y-175424500D01*
X677934740Y-175424500D01*
X677905150Y-175427274D01*
X677780523Y-175470884D01*
X677674291Y-175549286D01*
X677668607Y-175554971D01*
X677607282Y-175588453D01*
X677537591Y-175583466D01*
X677481659Y-175541592D01*
X677475391Y-175532383D01*
X677394947Y-175401965D01*
X677394944Y-175401961D01*
X677273038Y-175280055D01*
X677273034Y-175280052D01*
X677126311Y-175189551D01*
X677126300Y-175189546D01*
X676962652Y-175135319D01*
X676861654Y-175125000D01*
X676775000Y-175125000D01*
X676275000Y-175125000D01*
X676274999Y-175124999D01*
X676188360Y-175125000D01*
X676188343Y-175125001D01*
X676087347Y-175135319D01*
X675923699Y-175189546D01*
X675923688Y-175189551D01*
X675776965Y-175280052D01*
X675776961Y-175280055D01*
X675655055Y-175401961D01*
X675655052Y-175401965D01*
X675564551Y-175548688D01*
X675564546Y-175548699D01*
X675510319Y-175712347D01*
X675500000Y-175813345D01*
X675500000Y-175850000D01*
X674500000Y-175850000D01*
X674500000Y-172700000D01*
X674086151Y-172700000D01*
X674118504Y-172682334D01*
X674144862Y-172679500D01*
X694949000Y-172679500D01*
X695016039Y-172699185D01*
G37*
%TD.AperFunction*%
%TD*%
%TA.AperFunction,Conductor*%
%TO.N,GND*%
G36*
X674500000Y-189300000D02*
G01*
X668187662Y-189300000D01*
X668120623Y-189280315D01*
X668074868Y-189227511D01*
X668064924Y-189158353D01*
X668074868Y-189124488D01*
X668135165Y-188992456D01*
X668145247Y-188922331D01*
X668155647Y-188850000D01*
X668135165Y-188707543D01*
X668075377Y-188576627D01*
X667981128Y-188467857D01*
X667860053Y-188390047D01*
X667860051Y-188390046D01*
X667860049Y-188390045D01*
X667860050Y-188390045D01*
X667721963Y-188349500D01*
X667721961Y-188349500D01*
X667578039Y-188349500D01*
X667578036Y-188349500D01*
X667439949Y-188390045D01*
X667318873Y-188467856D01*
X667224623Y-188576626D01*
X667224622Y-188576628D01*
X667164834Y-188707543D01*
X667143091Y-188858775D01*
X667114066Y-188922331D01*
X667108035Y-188928809D01*
X666773162Y-189263682D01*
X666711841Y-189297166D01*
X666685483Y-189300000D01*
X662358523Y-189300000D01*
X662291484Y-189280315D01*
X662288451Y-189278303D01*
X662283682Y-189275036D01*
X662276941Y-189269697D01*
X662254989Y-189249686D01*
X662254988Y-189249685D01*
X662254986Y-189249684D01*
X662249265Y-189247468D01*
X662223985Y-189234142D01*
X662218923Y-189230674D01*
X662218915Y-189230671D01*
X662189998Y-189223869D01*
X662181789Y-189221327D01*
X662154098Y-189210600D01*
X662147961Y-189210600D01*
X662119571Y-189207306D01*
X662113597Y-189205901D01*
X662084175Y-189210005D01*
X662075602Y-189210600D01*
X653624000Y-189210600D01*
X653556961Y-189190915D01*
X653511206Y-189138111D01*
X653500000Y-189086600D01*
X653500000Y-186809554D01*
X653519685Y-186742515D01*
X653558717Y-186704131D01*
X653626562Y-186662124D01*
X653768022Y-186533166D01*
X653790979Y-186512238D01*
X653801703Y-186498038D01*
X653925058Y-186334689D01*
X654024229Y-186135528D01*
X654085115Y-185921536D01*
X654105643Y-185700000D01*
X654102182Y-185662654D01*
X654085115Y-185478464D01*
X654085114Y-185478462D01*
X654084200Y-185475251D01*
X654024229Y-185264472D01*
X654016435Y-185248819D01*
X653925061Y-185065316D01*
X653925056Y-185065308D01*
X653790979Y-184887761D01*
X653626563Y-184737877D01*
X653626562Y-184737876D01*
X653594314Y-184717909D01*
X653558722Y-184695871D01*
X653512087Y-184643843D01*
X653500000Y-184590444D01*
X653500000Y-183901500D01*
X653519685Y-183834461D01*
X653572489Y-183788706D01*
X653624000Y-183777500D01*
X654712983Y-183777500D01*
X654780022Y-183797185D01*
X654800665Y-183813820D01*
X654850573Y-183863729D01*
X654884057Y-183925052D01*
X654885830Y-183967592D01*
X654879500Y-184015680D01*
X654879500Y-184364316D01*
X654885931Y-184413171D01*
X654935935Y-184520404D01*
X655027267Y-184611736D01*
X655024443Y-184614559D01*
X655055183Y-184653042D01*
X655062352Y-184722542D01*
X655030808Y-184784886D01*
X655027101Y-184788098D01*
X655027267Y-184788264D01*
X654935935Y-184879595D01*
X654885931Y-184986828D01*
X654879500Y-185035683D01*
X654879500Y-185384316D01*
X654885931Y-185433171D01*
X654935935Y-185540404D01*
X655007903Y-185612372D01*
X655041388Y-185673695D01*
X655036404Y-185743387D01*
X655013937Y-185781253D01*
X654974625Y-185826622D01*
X654974622Y-185826628D01*
X654914834Y-185957543D01*
X654894353Y-186100000D01*
X654914834Y-186242456D01*
X654973136Y-186370118D01*
X654974623Y-186373373D01*
X655068872Y-186482143D01*
X655189947Y-186559953D01*
X655189950Y-186559954D01*
X655189949Y-186559954D01*
X655328036Y-186600499D01*
X655328038Y-186600500D01*
X655328039Y-186600500D01*
X655471962Y-186600500D01*
X655471962Y-186600499D01*
X655610053Y-186559953D01*
X655683891Y-186512500D01*
X656425001Y-186512500D01*
X656425001Y-186611654D01*
X656435319Y-186712652D01*
X656489546Y-186876300D01*
X656489551Y-186876311D01*
X656580052Y-187023034D01*
X656580055Y-187023038D01*
X656701961Y-187144944D01*
X656701965Y-187144947D01*
X656848688Y-187235448D01*
X656848699Y-187235453D01*
X657012347Y-187289680D01*
X657113352Y-187299999D01*
X657150000Y-187299999D01*
X657150000Y-186512500D01*
X657650000Y-186512500D01*
X657650000Y-187299999D01*
X657686640Y-187299999D01*
X657686654Y-187299998D01*
X657787652Y-187289680D01*
X657951300Y-187235453D01*
X657951307Y-187235450D01*
X658006220Y-187201579D01*
X658073612Y-187183138D01*
X658140276Y-187204060D01*
X658185046Y-187257701D01*
X658192589Y-187313831D01*
X658194353Y-187313831D01*
X658194353Y-187322699D01*
X658214834Y-187465156D01*
X658259773Y-187563556D01*
X658274623Y-187596073D01*
X658368872Y-187704843D01*
X658489947Y-187782653D01*
X658489950Y-187782654D01*
X658489949Y-187782654D01*
X658628036Y-187823199D01*
X658628038Y-187823200D01*
X658628039Y-187823200D01*
X658771962Y-187823200D01*
X658771962Y-187823199D01*
X658910053Y-187782653D01*
X659031128Y-187704843D01*
X659041393Y-187692996D01*
X659100170Y-187655223D01*
X659135105Y-187650200D01*
X659280156Y-187650200D01*
X659347195Y-187669885D01*
X659392950Y-187722689D01*
X659402860Y-187756322D01*
X659409426Y-187801391D01*
X659460803Y-187906485D01*
X659543514Y-187989196D01*
X659543515Y-187989196D01*
X659543517Y-187989198D01*
X659648607Y-188040573D01*
X659682673Y-188045536D01*
X659716739Y-188050500D01*
X659716740Y-188050500D01*
X660808261Y-188050500D01*
X660830971Y-188047190D01*
X660876393Y-188040573D01*
X660981483Y-187989198D01*
X661064198Y-187906483D01*
X661115573Y-187801393D01*
X661125500Y-187733260D01*
X661674500Y-187733260D01*
X661684426Y-187801391D01*
X661735803Y-187906485D01*
X661818514Y-187989196D01*
X661818515Y-187989196D01*
X661818517Y-187989198D01*
X661923607Y-188040573D01*
X661957673Y-188045536D01*
X661991739Y-188050500D01*
X661991740Y-188050500D01*
X663083261Y-188050500D01*
X663105971Y-188047190D01*
X663151393Y-188040573D01*
X663256483Y-187989198D01*
X663339198Y-187906483D01*
X663339198Y-187906481D01*
X663345168Y-187898122D01*
X663346808Y-187899293D01*
X663385130Y-187857354D01*
X663449398Y-187839400D01*
X664337386Y-187839400D01*
X664404425Y-187859085D01*
X664450180Y-187911889D01*
X664454427Y-187922445D01*
X664470884Y-187969475D01*
X664470884Y-187969476D01*
X664549288Y-188075710D01*
X664549289Y-188075711D01*
X664655523Y-188154115D01*
X664655524Y-188154115D01*
X664655525Y-188154116D01*
X664780151Y-188197725D01*
X664780150Y-188197725D01*
X664809740Y-188200500D01*
X664809744Y-188200500D01*
X665390260Y-188200500D01*
X665419849Y-188197725D01*
X665544475Y-188154116D01*
X665650711Y-188075711D01*
X665729116Y-187969475D01*
X665772725Y-187844849D01*
X665775500Y-187815256D01*
X665775500Y-187109744D01*
X665773900Y-187092686D01*
X665772725Y-187080150D01*
X665729116Y-186955525D01*
X665703030Y-186920180D01*
X665660504Y-186862559D01*
X665636535Y-186796931D01*
X665651851Y-186728761D01*
X665695180Y-186683388D01*
X665798037Y-186619945D01*
X665919944Y-186498038D01*
X665919947Y-186498034D01*
X666010448Y-186351311D01*
X666010453Y-186351300D01*
X666064680Y-186187652D01*
X666074999Y-186086654D01*
X666075000Y-186086641D01*
X666075000Y-185987500D01*
X664125001Y-185987500D01*
X664125001Y-186086654D01*
X664135319Y-186187652D01*
X664189546Y-186351300D01*
X664189551Y-186351311D01*
X664280052Y-186498034D01*
X664280055Y-186498038D01*
X664401960Y-186619943D01*
X664504820Y-186683388D01*
X664551544Y-186735336D01*
X664562767Y-186804299D01*
X664539494Y-186862560D01*
X664470883Y-186955525D01*
X664427274Y-187080150D01*
X664424499Y-187109739D01*
X664424500Y-187136600D01*
X664404815Y-187203639D01*
X664352011Y-187249394D01*
X664300500Y-187260600D01*
X663449398Y-187260600D01*
X663382359Y-187240915D01*
X663346668Y-187200806D01*
X663345168Y-187201878D01*
X663339197Y-187193515D01*
X663256485Y-187110803D01*
X663151391Y-187059426D01*
X663083261Y-187049500D01*
X663083260Y-187049500D01*
X661991740Y-187049500D01*
X661991739Y-187049500D01*
X661923608Y-187059426D01*
X661818514Y-187110803D01*
X661735803Y-187193514D01*
X661684426Y-187298608D01*
X661674500Y-187366739D01*
X661674500Y-187733260D01*
X661125500Y-187733260D01*
X661125500Y-187368031D01*
X661145185Y-187300993D01*
X661173510Y-187270045D01*
X661176561Y-187267678D01*
X661292678Y-187151561D01*
X661292685Y-187151552D01*
X661376281Y-187010198D01*
X661422100Y-186852486D01*
X661422295Y-186850001D01*
X661422295Y-186850000D01*
X659102703Y-186850000D01*
X659094113Y-186859292D01*
X659034151Y-186895158D01*
X658964318Y-186892912D01*
X658936020Y-186879435D01*
X658927697Y-186874086D01*
X658910053Y-186862747D01*
X658910051Y-186862746D01*
X658910049Y-186862745D01*
X658910050Y-186862745D01*
X658771963Y-186822200D01*
X658771961Y-186822200D01*
X658628039Y-186822200D01*
X658628035Y-186822200D01*
X658521763Y-186853404D01*
X658451893Y-186853404D01*
X658393115Y-186815629D01*
X658364091Y-186752073D01*
X658365200Y-186719509D01*
X658363993Y-186719386D01*
X658374999Y-186611654D01*
X658375000Y-186611641D01*
X658375000Y-186512500D01*
X657650000Y-186512500D01*
X657150000Y-186512500D01*
X656425001Y-186512500D01*
X655683891Y-186512500D01*
X655731128Y-186482143D01*
X655825377Y-186373373D01*
X655885165Y-186242457D01*
X655905647Y-186100000D01*
X655885165Y-185957543D01*
X655825377Y-185826627D01*
X655825375Y-185826625D01*
X655825374Y-185826622D01*
X655786063Y-185781254D01*
X655757039Y-185717698D01*
X655766983Y-185648540D01*
X655792091Y-185612377D01*
X655864065Y-185540404D01*
X655914068Y-185433173D01*
X655920500Y-185384316D01*
X655920500Y-185035684D01*
X655914068Y-184986827D01*
X655864065Y-184879596D01*
X655780404Y-184795935D01*
X655780403Y-184795935D01*
X655772733Y-184788264D01*
X655775561Y-184785435D01*
X655744843Y-184747023D01*
X655737635Y-184677526D01*
X655769143Y-184615165D01*
X655772903Y-184611906D01*
X655772733Y-184611736D01*
X655802326Y-184582143D01*
X655864065Y-184520404D01*
X655914068Y-184413173D01*
X655920500Y-184364316D01*
X655920500Y-184015684D01*
X655920499Y-184015680D01*
X655914068Y-183966828D01*
X655910433Y-183959033D01*
X655908041Y-183953903D01*
X655897550Y-183884828D01*
X655926070Y-183821043D01*
X655984546Y-183782804D01*
X656020424Y-183777500D01*
X656182995Y-183777500D01*
X656188398Y-183777735D01*
X656228984Y-183781287D01*
X656228984Y-183781286D01*
X656228986Y-183781287D01*
X656234020Y-183780847D01*
X656259444Y-183777500D01*
X656711994Y-183777500D01*
X656779033Y-183797185D01*
X656824788Y-183849989D01*
X656834732Y-183919147D01*
X656811765Y-183975133D01*
X656770883Y-184030525D01*
X656727274Y-184155150D01*
X656724500Y-184184739D01*
X656724500Y-184890260D01*
X656727274Y-184919849D01*
X656770883Y-185044474D01*
X656839494Y-185137439D01*
X656863464Y-185203068D01*
X656848148Y-185271238D01*
X656804821Y-185316610D01*
X656701962Y-185380054D01*
X656580055Y-185501961D01*
X656580052Y-185501965D01*
X656489551Y-185648688D01*
X656489546Y-185648699D01*
X656435319Y-185812347D01*
X656425002Y-185913328D01*
X656425000Y-185913358D01*
X656425000Y-186012500D01*
X658374999Y-186012500D01*
X658374999Y-185913360D01*
X658374998Y-185913345D01*
X658364680Y-185812347D01*
X658310453Y-185648699D01*
X658310450Y-185648693D01*
X658286156Y-185609307D01*
X658267715Y-185541915D01*
X658288637Y-185475251D01*
X658342278Y-185430481D01*
X658411608Y-185421819D01*
X658458733Y-185439893D01*
X658489949Y-185459954D01*
X658628036Y-185500499D01*
X658628038Y-185500500D01*
X658628039Y-185500500D01*
X658771962Y-185500500D01*
X658771962Y-185500499D01*
X658910053Y-185459953D01*
X659031128Y-185382143D01*
X659125377Y-185273373D01*
X659144406Y-185231703D01*
X659190160Y-185178902D01*
X659257200Y-185159217D01*
X659324239Y-185178901D01*
X659344881Y-185195536D01*
X659392308Y-185242963D01*
X659425793Y-185304286D01*
X659420809Y-185373978D01*
X659416029Y-185385101D01*
X659409428Y-185398603D01*
X659409425Y-185398611D01*
X659399500Y-185466739D01*
X659399500Y-185831967D01*
X659379815Y-185899006D01*
X659351504Y-185929944D01*
X659348445Y-185932316D01*
X659232318Y-186048442D01*
X659232314Y-186048447D01*
X659148718Y-186189801D01*
X659102899Y-186347513D01*
X659102704Y-186349998D01*
X659102705Y-186350000D01*
X661422295Y-186350000D01*
X661422295Y-186349998D01*
X661422100Y-186347513D01*
X661376281Y-186189801D01*
X661292685Y-186048447D01*
X661292678Y-186048438D01*
X661176559Y-185932319D01*
X661173496Y-185929943D01*
X661171710Y-185927470D01*
X661171040Y-185926800D01*
X661171148Y-185926691D01*
X661132591Y-185873299D01*
X661125722Y-185833260D01*
X661674500Y-185833260D01*
X661684426Y-185901391D01*
X661735803Y-186006485D01*
X661818514Y-186089196D01*
X661818515Y-186089196D01*
X661818517Y-186089198D01*
X661923607Y-186140573D01*
X661957673Y-186145536D01*
X661991739Y-186150500D01*
X661991740Y-186150500D01*
X663083261Y-186150500D01*
X663105970Y-186147190D01*
X663151393Y-186140573D01*
X663256483Y-186089198D01*
X663339198Y-186006483D01*
X663390573Y-185901393D01*
X663400500Y-185833260D01*
X663400500Y-185714015D01*
X663404615Y-185700000D01*
X668694390Y-185700000D01*
X668701745Y-185802844D01*
X668702390Y-185811853D01*
X668702548Y-185816277D01*
X668702548Y-185842861D01*
X668706331Y-185869172D01*
X668706804Y-185873574D01*
X668714804Y-185985428D01*
X668714805Y-185985435D01*
X668738637Y-186094988D01*
X668739423Y-186099346D01*
X668743206Y-186125666D01*
X668750698Y-186151181D01*
X668751793Y-186155471D01*
X668775630Y-186265046D01*
X668775631Y-186265048D01*
X668814819Y-186370118D01*
X668816217Y-186374317D01*
X668823705Y-186399816D01*
X668834746Y-186423994D01*
X668836440Y-186428084D01*
X668875632Y-186533159D01*
X668875635Y-186533166D01*
X668929363Y-186631561D01*
X668931345Y-186635521D01*
X668942394Y-186659717D01*
X668956772Y-186682088D01*
X668959031Y-186685895D01*
X668986029Y-186735336D01*
X669012774Y-186784315D01*
X669071487Y-186862747D01*
X669079976Y-186874086D01*
X669082498Y-186877719D01*
X669096873Y-186900086D01*
X669107493Y-186912343D01*
X669114284Y-186920180D01*
X669117055Y-186923619D01*
X669184261Y-187013395D01*
X669263552Y-187092686D01*
X669266562Y-187095919D01*
X669283978Y-187116018D01*
X669304078Y-187133435D01*
X669307304Y-187136438D01*
X669386605Y-187215739D01*
X669476404Y-187282961D01*
X669479815Y-187285711D01*
X669499911Y-187303126D01*
X669522276Y-187317498D01*
X669525907Y-187320019D01*
X669577096Y-187358339D01*
X669615682Y-187387224D01*
X669615690Y-187387229D01*
X669714102Y-187440966D01*
X669717910Y-187443225D01*
X669740286Y-187457606D01*
X669764479Y-187468654D01*
X669768431Y-187470632D01*
X669866839Y-187524367D01*
X669971914Y-187563558D01*
X669975993Y-187565247D01*
X670000179Y-187576293D01*
X670025691Y-187583784D01*
X670029872Y-187585175D01*
X670134954Y-187624369D01*
X670244554Y-187648211D01*
X670248788Y-187649291D01*
X670274326Y-187656790D01*
X670274331Y-187656790D01*
X670274339Y-187656793D01*
X670300655Y-187660576D01*
X670304982Y-187661356D01*
X670414572Y-187685196D01*
X670526450Y-187693197D01*
X670530795Y-187693664D01*
X670557139Y-187697452D01*
X670557146Y-187697452D01*
X670583721Y-187697452D01*
X670588143Y-187697609D01*
X670637344Y-187701128D01*
X670699999Y-187705610D01*
X670700000Y-187705610D01*
X670700001Y-187705610D01*
X670762655Y-187701128D01*
X670811856Y-187697609D01*
X670816279Y-187697452D01*
X670842854Y-187697452D01*
X670842861Y-187697452D01*
X670869219Y-187693662D01*
X670873516Y-187693200D01*
X670985428Y-187685196D01*
X671095012Y-187661357D01*
X671099345Y-187660576D01*
X671125671Y-187656791D01*
X671151189Y-187649298D01*
X671155438Y-187648212D01*
X671265046Y-187624369D01*
X671370124Y-187585177D01*
X671374291Y-187583789D01*
X671399821Y-187576293D01*
X671424020Y-187565241D01*
X671428056Y-187563569D01*
X671533161Y-187524367D01*
X671631568Y-187470632D01*
X671635514Y-187468657D01*
X671659708Y-187457608D01*
X671659716Y-187457602D01*
X671659722Y-187457600D01*
X671682104Y-187443215D01*
X671685872Y-187440979D01*
X671784315Y-187387226D01*
X671874125Y-187319994D01*
X671877704Y-187317510D01*
X671900086Y-187303127D01*
X671920208Y-187285690D01*
X671923591Y-187282965D01*
X672013395Y-187215739D01*
X672092689Y-187136443D01*
X672095913Y-187133442D01*
X672116020Y-187116020D01*
X672133445Y-187095909D01*
X672136433Y-187092700D01*
X672215739Y-187013395D01*
X672282965Y-186923591D01*
X672285690Y-186920208D01*
X672303127Y-186900086D01*
X672317507Y-186877709D01*
X672320008Y-186874107D01*
X672387226Y-186784315D01*
X672440979Y-186685872D01*
X672443215Y-186682104D01*
X672457600Y-186659722D01*
X672457602Y-186659716D01*
X672457608Y-186659708D01*
X672468657Y-186635514D01*
X672470636Y-186631561D01*
X672524367Y-186533161D01*
X672563569Y-186428056D01*
X672565241Y-186424020D01*
X672576293Y-186399821D01*
X672583789Y-186374291D01*
X672585177Y-186370124D01*
X672593610Y-186347513D01*
X672624369Y-186265046D01*
X672648212Y-186155438D01*
X672649298Y-186151189D01*
X672656791Y-186125671D01*
X672660576Y-186099345D01*
X672661357Y-186095012D01*
X672685196Y-185985428D01*
X672693198Y-185873540D01*
X672693666Y-185869192D01*
X672697452Y-185842861D01*
X672698107Y-185806105D01*
X672698250Y-185802901D01*
X672705610Y-185700000D01*
X672698250Y-185597102D01*
X672698107Y-185593890D01*
X672697452Y-185557139D01*
X672693663Y-185530789D01*
X672693197Y-185526450D01*
X672685196Y-185414572D01*
X672661356Y-185304982D01*
X672660576Y-185300655D01*
X672656793Y-185274339D01*
X672656790Y-185274331D01*
X672656790Y-185274326D01*
X672649291Y-185248788D01*
X672648211Y-185244554D01*
X672624369Y-185134954D01*
X672585175Y-185029872D01*
X672583782Y-185025684D01*
X672576293Y-185000179D01*
X672565246Y-184975989D01*
X672563558Y-184971914D01*
X672563553Y-184971901D01*
X672524367Y-184866839D01*
X672470632Y-184768431D01*
X672468654Y-184764479D01*
X672457606Y-184740286D01*
X672443225Y-184717910D01*
X672440966Y-184714102D01*
X672387229Y-184615690D01*
X672387224Y-184615682D01*
X672320024Y-184525914D01*
X672317498Y-184522276D01*
X672303126Y-184499911D01*
X672285711Y-184479815D01*
X672282961Y-184476404D01*
X672215739Y-184386605D01*
X672136438Y-184307304D01*
X672133435Y-184304078D01*
X672131534Y-184301884D01*
X672116020Y-184283980D01*
X672116017Y-184283978D01*
X672116016Y-184283976D01*
X672106299Y-184275557D01*
X672095917Y-184266560D01*
X672092678Y-184263544D01*
X672013397Y-184184263D01*
X672013387Y-184184255D01*
X672011083Y-184182530D01*
X671923619Y-184117055D01*
X671920180Y-184114284D01*
X671912343Y-184107493D01*
X671900086Y-184096873D01*
X671877719Y-184082498D01*
X671874086Y-184079976D01*
X671784318Y-184012776D01*
X671784316Y-184012775D01*
X671784315Y-184012774D01*
X671764129Y-184001751D01*
X671685895Y-183959031D01*
X671682088Y-183956772D01*
X671659717Y-183942394D01*
X671635521Y-183931345D01*
X671631561Y-183929363D01*
X671533166Y-183875635D01*
X671533159Y-183875632D01*
X671428084Y-183836440D01*
X671423994Y-183834746D01*
X671403745Y-183825499D01*
X671399821Y-183823707D01*
X671399819Y-183823706D01*
X671399816Y-183823705D01*
X671374317Y-183816217D01*
X671370118Y-183814819D01*
X671265048Y-183775631D01*
X671265046Y-183775630D01*
X671155471Y-183751793D01*
X671151180Y-183750698D01*
X671144402Y-183748708D01*
X671125669Y-183743207D01*
X671099346Y-183739423D01*
X671094988Y-183738637D01*
X670985435Y-183714805D01*
X670985428Y-183714804D01*
X670873574Y-183706804D01*
X670869177Y-183706331D01*
X670842861Y-183702548D01*
X670816279Y-183702548D01*
X670811856Y-183702390D01*
X670762655Y-183698871D01*
X670700001Y-183694390D01*
X670699999Y-183694390D01*
X670637344Y-183698871D01*
X670588143Y-183702390D01*
X670583721Y-183702548D01*
X670557137Y-183702548D01*
X670530826Y-183706331D01*
X670526424Y-183706804D01*
X670414571Y-183714804D01*
X670414561Y-183714805D01*
X670305013Y-183738636D01*
X670300657Y-183739422D01*
X670274325Y-183743207D01*
X670248819Y-183750698D01*
X670244528Y-183751793D01*
X670134953Y-183775630D01*
X670134947Y-183775632D01*
X670029883Y-183814819D01*
X670025684Y-183816216D01*
X670000177Y-183823706D01*
X669975989Y-183834753D01*
X669971901Y-183836446D01*
X669866844Y-183875630D01*
X669866831Y-183875636D01*
X669768436Y-183929363D01*
X669764478Y-183931344D01*
X669740291Y-183942389D01*
X669717909Y-183956773D01*
X669714102Y-183959033D01*
X669615688Y-184012771D01*
X669525903Y-184079981D01*
X669522271Y-184082503D01*
X669499915Y-184096871D01*
X669499497Y-184097234D01*
X669479821Y-184114282D01*
X669476376Y-184117058D01*
X669386619Y-184184249D01*
X669386604Y-184184262D01*
X669307310Y-184263553D01*
X669304071Y-184266569D01*
X669283979Y-184283979D01*
X669266569Y-184304071D01*
X669263553Y-184307310D01*
X669184262Y-184386604D01*
X669184249Y-184386619D01*
X669117059Y-184476375D01*
X669114285Y-184479817D01*
X669109762Y-184485038D01*
X669096866Y-184499920D01*
X669082505Y-184522267D01*
X669079982Y-184525902D01*
X669012771Y-184615688D01*
X668959033Y-184714102D01*
X668956773Y-184717909D01*
X668942389Y-184740291D01*
X668931344Y-184764478D01*
X668929363Y-184768436D01*
X668875636Y-184866831D01*
X668875630Y-184866844D01*
X668836446Y-184971901D01*
X668834753Y-184975989D01*
X668823706Y-185000177D01*
X668816216Y-185025684D01*
X668814819Y-185029883D01*
X668775632Y-185134947D01*
X668775630Y-185134953D01*
X668751793Y-185244528D01*
X668750698Y-185248819D01*
X668743207Y-185274325D01*
X668739422Y-185300657D01*
X668738636Y-185305013D01*
X668714805Y-185414561D01*
X668714804Y-185414571D01*
X668706804Y-185526424D01*
X668706331Y-185530826D01*
X668702548Y-185557136D01*
X668702548Y-185583721D01*
X668702390Y-185588145D01*
X668698060Y-185648693D01*
X668694390Y-185700000D01*
X663404615Y-185700000D01*
X663420185Y-185646977D01*
X663436819Y-185626335D01*
X663867618Y-185195536D01*
X663943532Y-185119622D01*
X664004854Y-185086138D01*
X664074546Y-185091122D01*
X664130479Y-185132994D01*
X664154896Y-185198458D01*
X664148918Y-185246307D01*
X664135319Y-185287345D01*
X664135319Y-185287346D01*
X664125000Y-185388345D01*
X664125000Y-185487500D01*
X664850000Y-185487500D01*
X664850000Y-184700000D01*
X665350000Y-184700000D01*
X665350000Y-185487500D01*
X666074999Y-185487500D01*
X666074999Y-185388360D01*
X666074998Y-185388345D01*
X666064680Y-185287347D01*
X666010453Y-185123699D01*
X666010448Y-185123688D01*
X665919947Y-184976965D01*
X665919944Y-184976961D01*
X665798038Y-184855055D01*
X665798034Y-184855052D01*
X665651311Y-184764551D01*
X665651300Y-184764546D01*
X665487652Y-184710319D01*
X665386654Y-184700000D01*
X665350000Y-184700000D01*
X664850000Y-184700000D01*
X664850000Y-184699999D01*
X664813680Y-184663681D01*
X664816570Y-184660790D01*
X664787732Y-184627510D01*
X664777788Y-184558352D01*
X664806811Y-184494798D01*
X664825377Y-184473373D01*
X664885165Y-184342457D01*
X664905647Y-184200000D01*
X664885165Y-184057543D01*
X664825377Y-183926627D01*
X664731128Y-183817857D01*
X664610053Y-183740047D01*
X664610051Y-183740046D01*
X664610049Y-183740045D01*
X664610050Y-183740045D01*
X664471963Y-183699500D01*
X664471961Y-183699500D01*
X664328039Y-183699500D01*
X664328036Y-183699500D01*
X664189949Y-183740045D01*
X664068873Y-183817856D01*
X663974623Y-183926626D01*
X663974622Y-183926628D01*
X663914834Y-184057543D01*
X663893091Y-184208775D01*
X663864066Y-184272331D01*
X663858034Y-184278809D01*
X663023665Y-185113181D01*
X662962342Y-185146666D01*
X662935984Y-185149500D01*
X661991739Y-185149500D01*
X661923608Y-185159426D01*
X661818514Y-185210803D01*
X661735803Y-185293514D01*
X661684426Y-185398608D01*
X661674500Y-185466739D01*
X661674500Y-185833260D01*
X661125722Y-185833260D01*
X661125500Y-185831966D01*
X661125500Y-185466739D01*
X661117899Y-185414570D01*
X661115573Y-185398607D01*
X661064198Y-185293517D01*
X661064196Y-185293515D01*
X661064196Y-185293514D01*
X660981485Y-185210803D01*
X660876391Y-185159426D01*
X660808261Y-185149500D01*
X660808260Y-185149500D01*
X660276517Y-185149500D01*
X660209478Y-185129815D01*
X660188836Y-185113181D01*
X659227356Y-184151702D01*
X659193871Y-184090379D01*
X659192299Y-184081666D01*
X659185166Y-184032048D01*
X659185165Y-184032046D01*
X659185165Y-184032043D01*
X659149071Y-183953010D01*
X659139128Y-183883853D01*
X659168153Y-183820297D01*
X659226931Y-183782523D01*
X659261866Y-183777500D01*
X659404727Y-183777500D01*
X659471766Y-183797185D01*
X659473618Y-183798398D01*
X659496769Y-183813867D01*
X659496770Y-183813868D01*
X659555247Y-183825499D01*
X659555250Y-183825500D01*
X660027067Y-183825500D01*
X660094106Y-183845185D01*
X660139861Y-183897989D01*
X660143249Y-183906168D01*
X660156644Y-183942084D01*
X660156649Y-183942093D01*
X660242809Y-184057187D01*
X660242812Y-184057190D01*
X660357906Y-184143350D01*
X660357913Y-184143354D01*
X660492620Y-184193596D01*
X660492627Y-184193598D01*
X660552155Y-184199999D01*
X660552172Y-184200000D01*
X661200000Y-184200000D01*
X661700000Y-184200000D01*
X662347828Y-184200000D01*
X662347844Y-184199999D01*
X662407372Y-184193598D01*
X662407379Y-184193596D01*
X662542086Y-184143354D01*
X662542093Y-184143350D01*
X662657187Y-184057190D01*
X662657190Y-184057187D01*
X662743350Y-183942093D01*
X662743355Y-183942084D01*
X662756751Y-183906168D01*
X662798621Y-183850234D01*
X662864085Y-183825816D01*
X662872933Y-183825500D01*
X663344750Y-183825500D01*
X663344751Y-183825499D01*
X663367155Y-183821043D01*
X663403229Y-183813868D01*
X663403229Y-183813867D01*
X663403231Y-183813867D01*
X663469552Y-183769552D01*
X663513867Y-183703231D01*
X663513867Y-183703229D01*
X663513868Y-183703229D01*
X663525499Y-183644752D01*
X663525500Y-183644750D01*
X663525500Y-183511556D01*
X663545185Y-183444517D01*
X663575189Y-183412290D01*
X663682187Y-183332190D01*
X663682190Y-183332187D01*
X663768350Y-183217093D01*
X663768354Y-183217086D01*
X663818596Y-183082379D01*
X663818598Y-183082372D01*
X663824999Y-183022844D01*
X663825000Y-183022827D01*
X663825000Y-182975000D01*
X662849000Y-182975000D01*
X662781961Y-182955315D01*
X662736206Y-182902511D01*
X662725000Y-182851000D01*
X662725000Y-182325000D01*
X663075000Y-182325000D01*
X663075000Y-182625000D01*
X663825000Y-182625000D01*
X663825000Y-182577172D01*
X663824999Y-182577155D01*
X663818597Y-182517622D01*
X663816813Y-182510067D01*
X663818250Y-182509727D01*
X663813874Y-182448658D01*
X663818364Y-182433366D01*
X663818597Y-182432377D01*
X663824999Y-182372844D01*
X663825000Y-182372827D01*
X663825000Y-182325000D01*
X663075000Y-182325000D01*
X662725000Y-182325000D01*
X662725000Y-182099000D01*
X662744685Y-182031961D01*
X662797489Y-181986206D01*
X662849000Y-181975000D01*
X663825000Y-181975000D01*
X663825000Y-181927172D01*
X663824999Y-181927167D01*
X663824946Y-181926668D01*
X663824966Y-181926552D01*
X663824822Y-181923847D01*
X663825460Y-181923812D01*
X663837344Y-181857907D01*
X663884949Y-181806765D01*
X663948234Y-181789400D01*
X664019318Y-181789400D01*
X664027893Y-181789995D01*
X664039319Y-181791588D01*
X664039324Y-181791590D01*
X664077984Y-181789802D01*
X664085260Y-181789466D01*
X664088124Y-181789400D01*
X664106813Y-181789400D01*
X664106817Y-181789400D01*
X664109198Y-181788954D01*
X664117736Y-181787963D01*
X664147406Y-181786592D01*
X664153016Y-181784114D01*
X664180323Y-181775659D01*
X664186354Y-181774532D01*
X664211614Y-181758891D01*
X664219201Y-181754891D01*
X664246384Y-181742890D01*
X664250718Y-181738555D01*
X664273128Y-181720803D01*
X664278345Y-181717574D01*
X664296243Y-181693871D01*
X664301888Y-181687385D01*
X664332456Y-181656817D01*
X664393780Y-181623333D01*
X664420136Y-181620500D01*
X664654317Y-181620500D01*
X664662458Y-181619428D01*
X664703173Y-181614068D01*
X664703181Y-181614064D01*
X664711986Y-181611498D01*
X664781856Y-181611631D01*
X664840562Y-181649517D01*
X664853426Y-181667419D01*
X664859259Y-181677283D01*
X664859268Y-181677294D01*
X664972705Y-181790731D01*
X664972714Y-181790738D01*
X665110805Y-181872404D01*
X665250000Y-181912844D01*
X665250000Y-181350000D01*
X665750000Y-181350000D01*
X665750000Y-181912843D01*
X665889194Y-181872404D01*
X666027285Y-181790738D01*
X666027294Y-181790731D01*
X666140731Y-181677294D01*
X666140738Y-181677285D01*
X666222406Y-181539191D01*
X666222407Y-181539188D01*
X666267166Y-181385128D01*
X666267167Y-181385122D01*
X666269931Y-181350000D01*
X665750000Y-181350000D01*
X665250000Y-181350000D01*
X665250000Y-180850000D01*
X665750000Y-180850000D01*
X666269931Y-180850000D01*
X666267167Y-180814877D01*
X666267166Y-180814871D01*
X666222407Y-180660811D01*
X666222406Y-180660808D01*
X666140738Y-180522714D01*
X666140731Y-180522705D01*
X666118031Y-180500005D01*
X668967859Y-180500005D01*
X668988385Y-180747729D01*
X668988387Y-180747738D01*
X669049412Y-180988717D01*
X669149266Y-181216364D01*
X669249564Y-181369882D01*
X669864050Y-180755395D01*
X669925373Y-180721910D01*
X669995064Y-180726894D01*
X670050998Y-180768765D01*
X670056039Y-180776025D01*
X670091239Y-180830798D01*
X670171103Y-180900000D01*
X670206602Y-180930759D01*
X670204293Y-180933422D01*
X670239006Y-180973499D01*
X670248935Y-181042660D01*
X670219898Y-181106210D01*
X670213882Y-181112669D01*
X669602942Y-181723609D01*
X669649768Y-181760055D01*
X669649770Y-181760056D01*
X669868385Y-181878364D01*
X669868396Y-181878369D01*
X670103506Y-181959083D01*
X670348707Y-182000000D01*
X670597293Y-182000000D01*
X670842493Y-181959083D01*
X671077603Y-181878369D01*
X671077614Y-181878364D01*
X671296228Y-181760057D01*
X671296231Y-181760055D01*
X671343056Y-181723609D01*
X670732116Y-181112669D01*
X670698631Y-181051346D01*
X670703615Y-180981654D01*
X670740641Y-180932193D01*
X670739398Y-180930759D01*
X670746100Y-180924952D01*
X670854761Y-180830798D01*
X670889954Y-180776037D01*
X670942755Y-180730283D01*
X671011914Y-180720339D01*
X671075470Y-180749363D01*
X671081949Y-180755396D01*
X671696434Y-181369882D01*
X671796731Y-181216369D01*
X671896587Y-180988717D01*
X671957612Y-180747738D01*
X671957614Y-180747729D01*
X671978141Y-180500005D01*
X671978141Y-180499994D01*
X671957614Y-180252270D01*
X671957612Y-180252261D01*
X671896587Y-180011282D01*
X671796731Y-179783630D01*
X671696434Y-179630116D01*
X671081949Y-180244602D01*
X671020626Y-180278087D01*
X670950934Y-180273103D01*
X670895001Y-180231231D01*
X670889953Y-180223961D01*
X670854761Y-180169202D01*
X670739398Y-180069241D01*
X670741698Y-180066585D01*
X670706960Y-180026428D01*
X670697074Y-179957261D01*
X670726152Y-179893729D01*
X670732116Y-179887329D01*
X671343056Y-179276389D01*
X671296229Y-179239943D01*
X671077614Y-179121635D01*
X671077603Y-179121630D01*
X670842493Y-179040916D01*
X670597293Y-179000000D01*
X670348707Y-179000000D01*
X670103506Y-179040916D01*
X669868396Y-179121630D01*
X669868390Y-179121632D01*
X669649761Y-179239949D01*
X669602942Y-179276388D01*
X669602942Y-179276390D01*
X670213883Y-179887330D01*
X670247368Y-179948653D01*
X670242384Y-180018344D01*
X670205358Y-180067805D01*
X670206602Y-180069241D01*
X670091238Y-180169202D01*
X670056046Y-180223962D01*
X670003242Y-180269717D01*
X669934083Y-180279660D01*
X669870528Y-180250634D01*
X669864050Y-180244603D01*
X669249564Y-179630116D01*
X669149267Y-179783632D01*
X669049412Y-180011282D01*
X668988387Y-180252261D01*
X668988385Y-180252270D01*
X668967859Y-180499994D01*
X668967859Y-180500005D01*
X666118031Y-180500005D01*
X666027294Y-180409268D01*
X666027285Y-180409261D01*
X665889191Y-180327593D01*
X665889188Y-180327591D01*
X665750001Y-180287153D01*
X665750000Y-180287154D01*
X665750000Y-180850000D01*
X665250000Y-180850000D01*
X665250000Y-180287154D01*
X665249998Y-180287153D01*
X665110811Y-180327591D01*
X665110808Y-180327593D01*
X664972714Y-180409261D01*
X664972705Y-180409268D01*
X664859266Y-180522708D01*
X664859265Y-180522708D01*
X664853426Y-180532582D01*
X664802355Y-180580264D01*
X664733612Y-180592765D01*
X664712003Y-180588505D01*
X664703173Y-180585931D01*
X664654317Y-180579500D01*
X664654316Y-180579500D01*
X664305684Y-180579500D01*
X664305683Y-180579500D01*
X664256828Y-180585931D01*
X664149595Y-180635935D01*
X664065935Y-180719595D01*
X664015931Y-180826828D01*
X664009500Y-180875683D01*
X664009500Y-181086600D01*
X663989815Y-181153639D01*
X663937011Y-181199394D01*
X663885500Y-181210600D01*
X663551067Y-181210600D01*
X663484028Y-181190915D01*
X663478254Y-181186262D01*
X663403230Y-181136132D01*
X663403229Y-181136131D01*
X663344752Y-181124500D01*
X663344748Y-181124500D01*
X662872933Y-181124500D01*
X662805894Y-181104815D01*
X662760139Y-181052011D01*
X662756751Y-181043832D01*
X662743355Y-181007915D01*
X662743350Y-181007906D01*
X662657190Y-180892812D01*
X662657187Y-180892809D01*
X662542093Y-180806649D01*
X662542086Y-180806645D01*
X662407379Y-180756403D01*
X662407372Y-180756401D01*
X662347844Y-180750000D01*
X661700000Y-180750000D01*
X661700000Y-184200000D01*
X661200000Y-184200000D01*
X661200000Y-180750000D01*
X660552155Y-180750000D01*
X660492627Y-180756401D01*
X660492623Y-180756402D01*
X660357908Y-180806648D01*
X660352075Y-180809834D01*
X660292651Y-180825000D01*
X660175000Y-180825000D01*
X660175000Y-181551000D01*
X660155315Y-181618039D01*
X660102511Y-181663794D01*
X660051000Y-181675000D01*
X659949000Y-181675000D01*
X659881961Y-181655315D01*
X659836206Y-181602511D01*
X659825000Y-181551000D01*
X659825000Y-180825000D01*
X659605425Y-180825000D01*
X659538386Y-180805315D01*
X659492631Y-180752511D01*
X659485699Y-180732602D01*
X659463094Y-180672998D01*
X659424818Y-180572070D01*
X659328183Y-180432071D01*
X659233316Y-180348026D01*
X659200849Y-180319263D01*
X659050226Y-180240210D01*
X658885056Y-180199500D01*
X658714944Y-180199500D01*
X658549773Y-180240210D01*
X658399150Y-180319263D01*
X658271816Y-180432072D01*
X658175182Y-180572068D01*
X658114860Y-180731125D01*
X658114859Y-180731130D01*
X658094355Y-180899999D01*
X658114859Y-181068869D01*
X658114860Y-181068874D01*
X658175182Y-181227931D01*
X658206549Y-181273373D01*
X658271817Y-181367929D01*
X658399148Y-181480734D01*
X658402274Y-181482374D01*
X658402688Y-181482592D01*
X658404800Y-181484635D01*
X658405322Y-181484996D01*
X658405262Y-181485082D01*
X658452900Y-181531177D01*
X658465775Y-181572538D01*
X658465905Y-181572504D01*
X658466771Y-181575736D01*
X658468588Y-181581573D01*
X658468710Y-181582975D01*
X658479257Y-181622335D01*
X658480428Y-181627618D01*
X658487503Y-181667740D01*
X658489232Y-181672491D01*
X658496468Y-181689959D01*
X658498606Y-181694544D01*
X658521972Y-181727914D01*
X658524879Y-181732478D01*
X658545247Y-181767757D01*
X658545251Y-181767761D01*
X658576463Y-181793951D01*
X658580442Y-181797596D01*
X658613294Y-181830448D01*
X658637017Y-181854171D01*
X658670502Y-181915494D01*
X658665518Y-181985186D01*
X658623646Y-182041119D01*
X658579012Y-182062248D01*
X658469443Y-182089255D01*
X658469437Y-182089257D01*
X658469437Y-182089258D01*
X658450875Y-182099000D01*
X658324183Y-182165493D01*
X658206727Y-182269551D01*
X658143494Y-182299273D01*
X658074231Y-182290089D01*
X658020927Y-182244917D01*
X658000507Y-182178098D01*
X658000500Y-182176736D01*
X658000500Y-182009739D01*
X657997725Y-181980150D01*
X657968548Y-181896769D01*
X657954116Y-181855525D01*
X657906301Y-181790738D01*
X657875711Y-181749289D01*
X657875710Y-181749288D01*
X657769476Y-181670884D01*
X657644848Y-181627274D01*
X657644849Y-181627274D01*
X657615260Y-181624500D01*
X657615256Y-181624500D01*
X656909744Y-181624500D01*
X656909740Y-181624500D01*
X656880150Y-181627274D01*
X656755525Y-181670883D01*
X656662560Y-181739494D01*
X656596930Y-181763464D01*
X656528760Y-181748148D01*
X656483388Y-181704820D01*
X656419943Y-181601960D01*
X656298038Y-181480055D01*
X656298034Y-181480052D01*
X656151311Y-181389551D01*
X656151300Y-181389546D01*
X655987652Y-181335319D01*
X655886654Y-181325000D01*
X655787500Y-181325000D01*
X655787500Y-182426000D01*
X655767815Y-182493039D01*
X655715011Y-182538794D01*
X655663500Y-182550000D01*
X654500001Y-182550000D01*
X654500001Y-182586654D01*
X654510319Y-182687652D01*
X654564546Y-182851300D01*
X654564551Y-182851311D01*
X654615187Y-182933403D01*
X654633628Y-183000795D01*
X654612706Y-183067458D01*
X654559064Y-183112228D01*
X654509649Y-183122500D01*
X653624000Y-183122500D01*
X653556961Y-183102815D01*
X653511206Y-183050011D01*
X653500000Y-182998500D01*
X653500000Y-182599500D01*
X653519685Y-182532461D01*
X653572489Y-182486706D01*
X653624000Y-182475500D01*
X653915260Y-182475500D01*
X653944849Y-182472725D01*
X653953917Y-182469552D01*
X654069475Y-182429116D01*
X654175711Y-182350711D01*
X654254116Y-182244475D01*
X654297725Y-182119849D01*
X654297725Y-182119838D01*
X654298094Y-182118156D01*
X654298715Y-182117019D01*
X654300218Y-182112726D01*
X654300928Y-182112974D01*
X654331624Y-182056857D01*
X654392972Y-182023417D01*
X654462660Y-182028453D01*
X654496160Y-182050000D01*
X655287500Y-182050000D01*
X655287500Y-181363334D01*
X655307185Y-181296295D01*
X655317784Y-181282134D01*
X655325377Y-181273373D01*
X655385165Y-181142457D01*
X655405647Y-181000000D01*
X655385165Y-180857543D01*
X655325377Y-180726627D01*
X655231128Y-180617857D01*
X655110053Y-180540047D01*
X655110051Y-180540046D01*
X655110049Y-180540045D01*
X655110050Y-180540045D01*
X654971963Y-180499500D01*
X654971961Y-180499500D01*
X654828039Y-180499500D01*
X654828036Y-180499500D01*
X654689949Y-180540045D01*
X654568873Y-180617856D01*
X654474623Y-180726626D01*
X654474622Y-180726628D01*
X654414834Y-180857543D01*
X654393091Y-181008775D01*
X654364066Y-181072331D01*
X654358035Y-181078809D01*
X654294388Y-181142457D01*
X654257982Y-181178863D01*
X654196659Y-181212348D01*
X654126967Y-181207364D01*
X654096667Y-181190952D01*
X654069476Y-181170884D01*
X653944848Y-181127274D01*
X653944849Y-181127274D01*
X653915260Y-181124500D01*
X653915256Y-181124500D01*
X653624000Y-181124500D01*
X653556961Y-181104815D01*
X653511206Y-181052011D01*
X653500000Y-181000500D01*
X653500000Y-178028761D01*
X653519685Y-177961722D01*
X653572489Y-177915967D01*
X653641647Y-177906023D01*
X653664258Y-177911478D01*
X653700732Y-177924000D01*
X653729866Y-177934002D01*
X653843720Y-177953001D01*
X653957573Y-177972000D01*
X653957574Y-177972000D01*
X654188426Y-177972000D01*
X654188427Y-177972000D01*
X654416133Y-177934002D01*
X654634479Y-177859044D01*
X654837510Y-177749170D01*
X655019687Y-177607376D01*
X655176040Y-177437531D01*
X655229144Y-177356250D01*
X655914999Y-177356250D01*
X655915000Y-177356252D01*
X655926631Y-177414729D01*
X655926632Y-177414730D01*
X655970947Y-177481052D01*
X656037269Y-177525367D01*
X656037270Y-177525368D01*
X656095747Y-177536999D01*
X656095750Y-177537000D01*
X656095752Y-177537000D01*
X657650250Y-177537000D01*
X657650251Y-177536999D01*
X657665068Y-177534052D01*
X657708729Y-177525368D01*
X657708729Y-177525367D01*
X657708731Y-177525367D01*
X657775052Y-177481052D01*
X657819367Y-177414731D01*
X657819367Y-177414729D01*
X657819368Y-177414729D01*
X657830999Y-177356252D01*
X657831000Y-177356248D01*
X657831000Y-176579000D01*
X658910365Y-176579000D01*
X658912385Y-176599516D01*
X658928861Y-176766799D01*
X658983642Y-176947388D01*
X659072594Y-177113805D01*
X659072599Y-177113812D01*
X659192313Y-177259686D01*
X659293824Y-177342993D01*
X659338189Y-177379402D01*
X659338192Y-177379403D01*
X659338194Y-177379405D01*
X659504611Y-177468357D01*
X659504613Y-177468357D01*
X659504616Y-177468359D01*
X659685199Y-177523138D01*
X659685198Y-177523138D01*
X659702036Y-177524796D01*
X659873000Y-177541635D01*
X660060801Y-177523138D01*
X660241384Y-177468359D01*
X660407811Y-177379402D01*
X660553686Y-177259686D01*
X660673402Y-177113811D01*
X660762359Y-176947384D01*
X660817138Y-176766801D01*
X660835635Y-176579001D01*
X661610697Y-176579001D01*
X661629873Y-176798191D01*
X661629875Y-176798202D01*
X661686820Y-177010725D01*
X661686824Y-177010734D01*
X661779813Y-177210151D01*
X661824490Y-177273956D01*
X662260432Y-176838013D01*
X662321755Y-176804528D01*
X662391446Y-176809512D01*
X662447380Y-176851383D01*
X662452428Y-176858654D01*
X662487420Y-176913103D01*
X662487421Y-176913104D01*
X662487422Y-176913105D01*
X662597169Y-177008202D01*
X662597170Y-177008202D01*
X662603764Y-177013916D01*
X662641538Y-177072695D01*
X662641538Y-177142564D01*
X662610242Y-177195310D01*
X662178042Y-177627508D01*
X662241850Y-177672187D01*
X662441265Y-177765175D01*
X662441274Y-177765179D01*
X662653797Y-177822124D01*
X662653808Y-177822126D01*
X662872998Y-177841303D01*
X662873002Y-177841303D01*
X663092191Y-177822126D01*
X663092202Y-177822124D01*
X663304725Y-177765179D01*
X663304734Y-177765175D01*
X663504150Y-177672186D01*
X663567955Y-177627508D01*
X663135757Y-177195310D01*
X663102272Y-177133987D01*
X663107256Y-177064295D01*
X663142235Y-177013916D01*
X663148827Y-177008203D01*
X663148831Y-177008202D01*
X663258578Y-176913105D01*
X663293572Y-176858652D01*
X663346374Y-176812900D01*
X663415532Y-176802956D01*
X663479088Y-176831980D01*
X663485567Y-176838013D01*
X663921508Y-177273955D01*
X663966186Y-177210150D01*
X664059175Y-177010734D01*
X664059180Y-177010723D01*
X664083144Y-176921285D01*
X664119508Y-176861624D01*
X664182355Y-176831094D01*
X664251730Y-176839388D01*
X664305609Y-176883873D01*
X664323124Y-176922936D01*
X664350957Y-177032845D01*
X664350960Y-177032853D01*
X664350961Y-177032856D01*
X664366608Y-177068527D01*
X664443694Y-177244268D01*
X664531981Y-177379400D01*
X664569960Y-177437531D01*
X664726313Y-177607376D01*
X664726316Y-177607378D01*
X664726319Y-177607381D01*
X664908481Y-177749164D01*
X664908488Y-177749168D01*
X664908490Y-177749170D01*
X665111521Y-177859044D01*
X665329867Y-177934002D01*
X665557573Y-177972000D01*
X665557574Y-177972000D01*
X665788426Y-177972000D01*
X665788427Y-177972000D01*
X666016133Y-177934002D01*
X666234479Y-177859044D01*
X666437510Y-177749170D01*
X666619687Y-177607376D01*
X666776040Y-177437531D01*
X666902306Y-177244267D01*
X666995039Y-177032856D01*
X667051710Y-176809066D01*
X667060182Y-176706814D01*
X667070774Y-176579005D01*
X667070774Y-176578994D01*
X667055212Y-176391199D01*
X667051710Y-176348934D01*
X666995039Y-176125144D01*
X666902306Y-175913733D01*
X666776040Y-175720469D01*
X666619687Y-175550624D01*
X666619682Y-175550620D01*
X666619680Y-175550618D01*
X666437518Y-175408835D01*
X666437507Y-175408828D01*
X666234485Y-175298959D01*
X666234482Y-175298957D01*
X666234479Y-175298956D01*
X666234476Y-175298955D01*
X666234474Y-175298954D01*
X666016135Y-175223998D01*
X665864329Y-175198666D01*
X665788427Y-175186000D01*
X665557573Y-175186000D01*
X665500646Y-175195499D01*
X665329864Y-175223998D01*
X665111525Y-175298954D01*
X665111514Y-175298959D01*
X664908492Y-175408828D01*
X664908481Y-175408835D01*
X664726319Y-175550618D01*
X664726316Y-175550621D01*
X664726313Y-175550623D01*
X664726313Y-175550624D01*
X664715727Y-175562124D01*
X664569961Y-175720467D01*
X664569958Y-175720471D01*
X664443694Y-175913731D01*
X664350960Y-176125146D01*
X664350957Y-176125154D01*
X664323124Y-176235063D01*
X664287585Y-176295219D01*
X664225164Y-176326610D01*
X664155681Y-176319272D01*
X664101195Y-176275533D01*
X664083144Y-176236715D01*
X664059179Y-176147274D01*
X664059175Y-176147265D01*
X663966187Y-175947851D01*
X663921508Y-175884043D01*
X663485567Y-176319985D01*
X663424244Y-176353470D01*
X663354552Y-176348486D01*
X663298619Y-176306614D01*
X663293571Y-176299344D01*
X663258579Y-176244897D01*
X663258579Y-176244896D01*
X663258578Y-176244895D01*
X663148831Y-176149798D01*
X663148830Y-176149797D01*
X663142234Y-176144082D01*
X663104460Y-176085303D01*
X663104460Y-176015434D01*
X663135756Y-175962687D01*
X663567955Y-175530490D01*
X663504151Y-175485813D01*
X663304734Y-175392824D01*
X663304725Y-175392820D01*
X663092202Y-175335875D01*
X663092191Y-175335873D01*
X662873002Y-175316697D01*
X662872998Y-175316697D01*
X662653808Y-175335873D01*
X662653797Y-175335875D01*
X662441274Y-175392820D01*
X662441265Y-175392823D01*
X662241850Y-175485813D01*
X662241848Y-175485814D01*
X662178044Y-175530490D01*
X662178043Y-175530490D01*
X662610242Y-175962689D01*
X662643727Y-176024012D01*
X662638743Y-176093704D01*
X662603764Y-176144082D01*
X662487424Y-176244892D01*
X662487420Y-176244897D01*
X662452428Y-176299345D01*
X662399623Y-176345100D01*
X662330465Y-176355043D01*
X662266909Y-176326017D01*
X662260432Y-176319986D01*
X661824490Y-175884043D01*
X661824490Y-175884044D01*
X661779814Y-175947848D01*
X661779813Y-175947850D01*
X661686823Y-176147265D01*
X661686820Y-176147274D01*
X661629875Y-176359797D01*
X661629873Y-176359808D01*
X661610697Y-176578998D01*
X661610697Y-176579001D01*
X660835635Y-176579001D01*
X660835635Y-176579000D01*
X660817138Y-176391199D01*
X660762359Y-176210616D01*
X660762357Y-176210613D01*
X660762357Y-176210611D01*
X660673405Y-176044194D01*
X660673403Y-176044192D01*
X660673402Y-176044189D01*
X660606517Y-175962689D01*
X660553686Y-175898313D01*
X660407812Y-175778599D01*
X660407805Y-175778594D01*
X660241388Y-175689642D01*
X660151092Y-175662251D01*
X660060801Y-175634862D01*
X660060799Y-175634861D01*
X660060801Y-175634861D01*
X659873000Y-175616365D01*
X659685200Y-175634861D01*
X659504611Y-175689642D01*
X659338194Y-175778594D01*
X659338187Y-175778599D01*
X659192313Y-175898313D01*
X659072599Y-176044187D01*
X659072594Y-176044194D01*
X658983642Y-176210611D01*
X658928861Y-176391200D01*
X658910365Y-176578998D01*
X658910365Y-176579000D01*
X657831000Y-176579000D01*
X657831000Y-175801752D01*
X657826395Y-175778599D01*
X657819368Y-175743270D01*
X657819367Y-175743269D01*
X657775052Y-175676947D01*
X657708730Y-175632632D01*
X657708729Y-175632631D01*
X657650252Y-175621000D01*
X657650248Y-175621000D01*
X656095752Y-175621000D01*
X656095747Y-175621000D01*
X656037270Y-175632631D01*
X656037269Y-175632632D01*
X655970947Y-175676947D01*
X655926632Y-175743269D01*
X655926631Y-175743270D01*
X655915000Y-175801747D01*
X655914999Y-175801749D01*
X655914999Y-177356250D01*
X655229144Y-177356250D01*
X655302306Y-177244267D01*
X655395039Y-177032856D01*
X655451710Y-176809066D01*
X655460182Y-176706814D01*
X655470774Y-176579005D01*
X655470774Y-176578994D01*
X655455212Y-176391199D01*
X655451710Y-176348934D01*
X655395039Y-176125144D01*
X655302306Y-175913733D01*
X655176040Y-175720469D01*
X655019687Y-175550624D01*
X655019682Y-175550620D01*
X655019680Y-175550618D01*
X654837518Y-175408835D01*
X654837507Y-175408828D01*
X654634485Y-175298959D01*
X654634482Y-175298957D01*
X654634479Y-175298956D01*
X654634476Y-175298955D01*
X654634474Y-175298954D01*
X654416135Y-175223998D01*
X654264329Y-175198666D01*
X654188427Y-175186000D01*
X653957573Y-175186000D01*
X653919622Y-175192332D01*
X653729862Y-175223998D01*
X653664262Y-175246519D01*
X653594464Y-175249669D01*
X653534043Y-175214582D01*
X653502182Y-175152400D01*
X653500000Y-175129238D01*
X653500000Y-174600000D01*
X669267357Y-174600000D01*
X669287884Y-174821535D01*
X669287885Y-174821537D01*
X669348769Y-175035523D01*
X669348775Y-175035538D01*
X669447938Y-175234683D01*
X669447943Y-175234691D01*
X669582020Y-175412238D01*
X669746437Y-175562123D01*
X669746439Y-175562125D01*
X669935595Y-175679245D01*
X669935596Y-175679245D01*
X669935599Y-175679247D01*
X670143060Y-175759618D01*
X670361757Y-175800500D01*
X670361759Y-175800500D01*
X670584241Y-175800500D01*
X670584243Y-175800500D01*
X670802940Y-175759618D01*
X671010401Y-175679247D01*
X671199562Y-175562124D01*
X671363981Y-175412236D01*
X671498058Y-175234689D01*
X671597229Y-175035528D01*
X671658115Y-174821536D01*
X671678643Y-174600000D01*
X671658115Y-174378464D01*
X671597229Y-174164472D01*
X671575082Y-174119995D01*
X671498061Y-173965316D01*
X671498056Y-173965308D01*
X671363979Y-173787761D01*
X671199562Y-173637876D01*
X671199560Y-173637874D01*
X671010404Y-173520754D01*
X671010398Y-173520752D01*
X670802940Y-173440382D01*
X670584243Y-173399500D01*
X670361757Y-173399500D01*
X670143060Y-173440382D01*
X670011864Y-173491207D01*
X669935601Y-173520752D01*
X669935595Y-173520754D01*
X669746439Y-173637874D01*
X669746437Y-173637876D01*
X669582020Y-173787761D01*
X669447943Y-173965308D01*
X669447938Y-173965316D01*
X669348775Y-174164461D01*
X669348769Y-174164476D01*
X669287885Y-174378462D01*
X669287884Y-174378464D01*
X669267357Y-174599999D01*
X669267357Y-174600000D01*
X653500000Y-174600000D01*
X653500000Y-172824000D01*
X653519685Y-172756961D01*
X653572489Y-172711206D01*
X653624000Y-172700000D01*
X674086151Y-172700000D01*
X674500000Y-172700000D01*
X674500000Y-189300000D01*
G37*
%TD.AperFunction*%
%TD*%
M02*
