%TF.GenerationSoftware,KiCad,Pcbnew,7.0.7*%
%TF.CreationDate,2023-10-31T18:53:21-05:00*%
%TF.ProjectId,KeyboardPCB,4b657962-6f61-4726-9450-43422e6b6963,rev?*%
%TF.SameCoordinates,Original*%
%TF.FileFunction,Legend,Bot*%
%TF.FilePolarity,Positive*%
%FSLAX46Y46*%
G04 Gerber Fmt 4.6, Leading zero omitted, Abs format (unit mm)*
G04 Created by KiCad (PCBNEW 7.0.7) date 2023-10-31 18:53:21*
%MOMM*%
%LPD*%
G01*
G04 APERTURE LIST*
G04 Aperture macros list*
%AMRoundRect*
0 Rectangle with rounded corners*
0 $1 Rounding radius*
0 $2 $3 $4 $5 $6 $7 $8 $9 X,Y pos of 4 corners*
0 Add a 4 corners polygon primitive as box body*
4,1,4,$2,$3,$4,$5,$6,$7,$8,$9,$2,$3,0*
0 Add four circle primitives for the rounded corners*
1,1,$1+$1,$2,$3*
1,1,$1+$1,$4,$5*
1,1,$1+$1,$6,$7*
1,1,$1+$1,$8,$9*
0 Add four rect primitives between the rounded corners*
20,1,$1+$1,$2,$3,$4,$5,0*
20,1,$1+$1,$4,$5,$6,$7,0*
20,1,$1+$1,$6,$7,$8,$9,0*
20,1,$1+$1,$8,$9,$2,$3,0*%
G04 Aperture macros list end*
%ADD10C,0.150000*%
%ADD11C,0.254000*%
%ADD12C,0.120000*%
%ADD13C,0.200000*%
%ADD14C,0.250000*%
%ADD15C,2.200000*%
%ADD16RoundRect,0.102000X-0.889000X0.889000X-0.889000X-0.889000X0.889000X-0.889000X0.889000X0.889000X0*%
%ADD17C,1.982000*%
%ADD18C,1.701800*%
%ADD19C,3.000000*%
%ADD20C,3.987800*%
%ADD21RoundRect,0.200000X-1.340000X-1.050000X1.340000X-1.050000X1.340000X1.050000X-1.340000X1.050000X0*%
%ADD22RoundRect,0.200000X-1.326500X-1.050000X1.326500X-1.050000X1.326500X1.050000X-1.326500X1.050000X0*%
%ADD23RoundRect,0.201600X-1.338400X-1.058400X1.338400X-1.058400X1.338400X1.058400X-1.338400X1.058400X0*%
%ADD24C,3.048000*%
%ADD25RoundRect,0.201600X-1.324900X-1.058400X1.324900X-1.058400X1.324900X1.058400X-1.324900X1.058400X0*%
%ADD26R,1.700000X1.700000*%
%ADD27O,1.700000X1.700000*%
%ADD28R,1.000000X1.000000*%
%ADD29O,1.000000X1.000000*%
%ADD30R,1.515000X1.515000*%
%ADD31C,1.515000*%
%ADD32C,2.385000*%
%ADD33O,1.350000X1.700000*%
%ADD34O,1.100000X1.500000*%
%ADD35RoundRect,0.225000X-0.375000X0.225000X-0.375000X-0.225000X0.375000X-0.225000X0.375000X0.225000X0*%
%ADD36R,1.475000X0.300000*%
%ADD37R,0.300000X1.475000*%
%ADD38RoundRect,0.135000X-0.135000X-0.185000X0.135000X-0.185000X0.135000X0.185000X-0.135000X0.185000X0*%
%ADD39RoundRect,0.237500X-0.237500X0.300000X-0.237500X-0.300000X0.237500X-0.300000X0.237500X0.300000X0*%
%ADD40RoundRect,0.237500X0.237500X-0.300000X0.237500X0.300000X-0.237500X0.300000X-0.237500X-0.300000X0*%
%ADD41RoundRect,0.135000X0.135000X0.185000X-0.135000X0.185000X-0.135000X-0.185000X0.135000X-0.185000X0*%
%ADD42RoundRect,0.237500X-0.300000X-0.237500X0.300000X-0.237500X0.300000X0.237500X-0.300000X0.237500X0*%
%ADD43RoundRect,0.135000X0.185000X-0.135000X0.185000X0.135000X-0.185000X0.135000X-0.185000X-0.135000X0*%
%ADD44C,2.000000*%
%ADD45RoundRect,0.237500X0.300000X0.237500X-0.300000X0.237500X-0.300000X-0.237500X0.300000X-0.237500X0*%
G04 APERTURE END LIST*
D10*
X407254819Y-226361905D02*
X406254819Y-226361905D01*
X406254819Y-226361905D02*
X406254819Y-226600000D01*
X406254819Y-226600000D02*
X406302438Y-226742857D01*
X406302438Y-226742857D02*
X406397676Y-226838095D01*
X406397676Y-226838095D02*
X406492914Y-226885714D01*
X406492914Y-226885714D02*
X406683390Y-226933333D01*
X406683390Y-226933333D02*
X406826247Y-226933333D01*
X406826247Y-226933333D02*
X407016723Y-226885714D01*
X407016723Y-226885714D02*
X407111961Y-226838095D01*
X407111961Y-226838095D02*
X407207200Y-226742857D01*
X407207200Y-226742857D02*
X407254819Y-226600000D01*
X407254819Y-226600000D02*
X407254819Y-226361905D01*
X406683390Y-227504762D02*
X406635771Y-227409524D01*
X406635771Y-227409524D02*
X406588152Y-227361905D01*
X406588152Y-227361905D02*
X406492914Y-227314286D01*
X406492914Y-227314286D02*
X406445295Y-227314286D01*
X406445295Y-227314286D02*
X406350057Y-227361905D01*
X406350057Y-227361905D02*
X406302438Y-227409524D01*
X406302438Y-227409524D02*
X406254819Y-227504762D01*
X406254819Y-227504762D02*
X406254819Y-227695238D01*
X406254819Y-227695238D02*
X406302438Y-227790476D01*
X406302438Y-227790476D02*
X406350057Y-227838095D01*
X406350057Y-227838095D02*
X406445295Y-227885714D01*
X406445295Y-227885714D02*
X406492914Y-227885714D01*
X406492914Y-227885714D02*
X406588152Y-227838095D01*
X406588152Y-227838095D02*
X406635771Y-227790476D01*
X406635771Y-227790476D02*
X406683390Y-227695238D01*
X406683390Y-227695238D02*
X406683390Y-227504762D01*
X406683390Y-227504762D02*
X406731009Y-227409524D01*
X406731009Y-227409524D02*
X406778628Y-227361905D01*
X406778628Y-227361905D02*
X406873866Y-227314286D01*
X406873866Y-227314286D02*
X407064342Y-227314286D01*
X407064342Y-227314286D02*
X407159580Y-227361905D01*
X407159580Y-227361905D02*
X407207200Y-227409524D01*
X407207200Y-227409524D02*
X407254819Y-227504762D01*
X407254819Y-227504762D02*
X407254819Y-227695238D01*
X407254819Y-227695238D02*
X407207200Y-227790476D01*
X407207200Y-227790476D02*
X407159580Y-227838095D01*
X407159580Y-227838095D02*
X407064342Y-227885714D01*
X407064342Y-227885714D02*
X406873866Y-227885714D01*
X406873866Y-227885714D02*
X406778628Y-227838095D01*
X406778628Y-227838095D02*
X406731009Y-227790476D01*
X406731009Y-227790476D02*
X406683390Y-227695238D01*
D11*
X661567619Y-200004318D02*
X661567619Y-201032413D01*
X661567619Y-201032413D02*
X661507142Y-201153365D01*
X661507142Y-201153365D02*
X661446666Y-201213842D01*
X661446666Y-201213842D02*
X661325714Y-201274318D01*
X661325714Y-201274318D02*
X661083809Y-201274318D01*
X661083809Y-201274318D02*
X660962857Y-201213842D01*
X660962857Y-201213842D02*
X660902380Y-201153365D01*
X660902380Y-201153365D02*
X660841904Y-201032413D01*
X660841904Y-201032413D02*
X660841904Y-200004318D01*
X659571904Y-201274318D02*
X660297619Y-201274318D01*
X659934762Y-201274318D02*
X659934762Y-200004318D01*
X659934762Y-200004318D02*
X660055714Y-200185746D01*
X660055714Y-200185746D02*
X660176666Y-200306699D01*
X660176666Y-200306699D02*
X660297619Y-200367175D01*
D10*
X495354819Y-264085714D02*
X494354819Y-264085714D01*
X494354819Y-264085714D02*
X494354819Y-264323809D01*
X494354819Y-264323809D02*
X494402438Y-264466666D01*
X494402438Y-264466666D02*
X494497676Y-264561904D01*
X494497676Y-264561904D02*
X494592914Y-264609523D01*
X494592914Y-264609523D02*
X494783390Y-264657142D01*
X494783390Y-264657142D02*
X494926247Y-264657142D01*
X494926247Y-264657142D02*
X495116723Y-264609523D01*
X495116723Y-264609523D02*
X495211961Y-264561904D01*
X495211961Y-264561904D02*
X495307200Y-264466666D01*
X495307200Y-264466666D02*
X495354819Y-264323809D01*
X495354819Y-264323809D02*
X495354819Y-264085714D01*
X494354819Y-264990476D02*
X494354819Y-265609523D01*
X494354819Y-265609523D02*
X494735771Y-265276190D01*
X494735771Y-265276190D02*
X494735771Y-265419047D01*
X494735771Y-265419047D02*
X494783390Y-265514285D01*
X494783390Y-265514285D02*
X494831009Y-265561904D01*
X494831009Y-265561904D02*
X494926247Y-265609523D01*
X494926247Y-265609523D02*
X495164342Y-265609523D01*
X495164342Y-265609523D02*
X495259580Y-265561904D01*
X495259580Y-265561904D02*
X495307200Y-265514285D01*
X495307200Y-265514285D02*
X495354819Y-265419047D01*
X495354819Y-265419047D02*
X495354819Y-265133333D01*
X495354819Y-265133333D02*
X495307200Y-265038095D01*
X495307200Y-265038095D02*
X495259580Y-264990476D01*
X494354819Y-266228571D02*
X494354819Y-266323809D01*
X494354819Y-266323809D02*
X494402438Y-266419047D01*
X494402438Y-266419047D02*
X494450057Y-266466666D01*
X494450057Y-266466666D02*
X494545295Y-266514285D01*
X494545295Y-266514285D02*
X494735771Y-266561904D01*
X494735771Y-266561904D02*
X494973866Y-266561904D01*
X494973866Y-266561904D02*
X495164342Y-266514285D01*
X495164342Y-266514285D02*
X495259580Y-266466666D01*
X495259580Y-266466666D02*
X495307200Y-266419047D01*
X495307200Y-266419047D02*
X495354819Y-266323809D01*
X495354819Y-266323809D02*
X495354819Y-266228571D01*
X495354819Y-266228571D02*
X495307200Y-266133333D01*
X495307200Y-266133333D02*
X495259580Y-266085714D01*
X495259580Y-266085714D02*
X495164342Y-266038095D01*
X495164342Y-266038095D02*
X494973866Y-265990476D01*
X494973866Y-265990476D02*
X494735771Y-265990476D01*
X494735771Y-265990476D02*
X494545295Y-266038095D01*
X494545295Y-266038095D02*
X494450057Y-266085714D01*
X494450057Y-266085714D02*
X494402438Y-266133333D01*
X494402438Y-266133333D02*
X494354819Y-266228571D01*
X431054819Y-187785714D02*
X430054819Y-187785714D01*
X430054819Y-187785714D02*
X430054819Y-188023809D01*
X430054819Y-188023809D02*
X430102438Y-188166666D01*
X430102438Y-188166666D02*
X430197676Y-188261904D01*
X430197676Y-188261904D02*
X430292914Y-188309523D01*
X430292914Y-188309523D02*
X430483390Y-188357142D01*
X430483390Y-188357142D02*
X430626247Y-188357142D01*
X430626247Y-188357142D02*
X430816723Y-188309523D01*
X430816723Y-188309523D02*
X430911961Y-188261904D01*
X430911961Y-188261904D02*
X431007200Y-188166666D01*
X431007200Y-188166666D02*
X431054819Y-188023809D01*
X431054819Y-188023809D02*
X431054819Y-187785714D01*
X431054819Y-189309523D02*
X431054819Y-188738095D01*
X431054819Y-189023809D02*
X430054819Y-189023809D01*
X430054819Y-189023809D02*
X430197676Y-188928571D01*
X430197676Y-188928571D02*
X430292914Y-188833333D01*
X430292914Y-188833333D02*
X430340533Y-188738095D01*
X430054819Y-190166666D02*
X430054819Y-189976190D01*
X430054819Y-189976190D02*
X430102438Y-189880952D01*
X430102438Y-189880952D02*
X430150057Y-189833333D01*
X430150057Y-189833333D02*
X430292914Y-189738095D01*
X430292914Y-189738095D02*
X430483390Y-189690476D01*
X430483390Y-189690476D02*
X430864342Y-189690476D01*
X430864342Y-189690476D02*
X430959580Y-189738095D01*
X430959580Y-189738095D02*
X431007200Y-189785714D01*
X431007200Y-189785714D02*
X431054819Y-189880952D01*
X431054819Y-189880952D02*
X431054819Y-190071428D01*
X431054819Y-190071428D02*
X431007200Y-190166666D01*
X431007200Y-190166666D02*
X430959580Y-190214285D01*
X430959580Y-190214285D02*
X430864342Y-190261904D01*
X430864342Y-190261904D02*
X430626247Y-190261904D01*
X430626247Y-190261904D02*
X430531009Y-190214285D01*
X430531009Y-190214285D02*
X430483390Y-190166666D01*
X430483390Y-190166666D02*
X430435771Y-190071428D01*
X430435771Y-190071428D02*
X430435771Y-189880952D01*
X430435771Y-189880952D02*
X430483390Y-189785714D01*
X430483390Y-189785714D02*
X430531009Y-189738095D01*
X430531009Y-189738095D02*
X430626247Y-189690476D01*
X450154819Y-187885714D02*
X449154819Y-187885714D01*
X449154819Y-187885714D02*
X449154819Y-188123809D01*
X449154819Y-188123809D02*
X449202438Y-188266666D01*
X449202438Y-188266666D02*
X449297676Y-188361904D01*
X449297676Y-188361904D02*
X449392914Y-188409523D01*
X449392914Y-188409523D02*
X449583390Y-188457142D01*
X449583390Y-188457142D02*
X449726247Y-188457142D01*
X449726247Y-188457142D02*
X449916723Y-188409523D01*
X449916723Y-188409523D02*
X450011961Y-188361904D01*
X450011961Y-188361904D02*
X450107200Y-188266666D01*
X450107200Y-188266666D02*
X450154819Y-188123809D01*
X450154819Y-188123809D02*
X450154819Y-187885714D01*
X449250057Y-188838095D02*
X449202438Y-188885714D01*
X449202438Y-188885714D02*
X449154819Y-188980952D01*
X449154819Y-188980952D02*
X449154819Y-189219047D01*
X449154819Y-189219047D02*
X449202438Y-189314285D01*
X449202438Y-189314285D02*
X449250057Y-189361904D01*
X449250057Y-189361904D02*
X449345295Y-189409523D01*
X449345295Y-189409523D02*
X449440533Y-189409523D01*
X449440533Y-189409523D02*
X449583390Y-189361904D01*
X449583390Y-189361904D02*
X450154819Y-188790476D01*
X450154819Y-188790476D02*
X450154819Y-189409523D01*
X450154819Y-190361904D02*
X450154819Y-189790476D01*
X450154819Y-190076190D02*
X449154819Y-190076190D01*
X449154819Y-190076190D02*
X449297676Y-189980952D01*
X449297676Y-189980952D02*
X449392914Y-189885714D01*
X449392914Y-189885714D02*
X449440533Y-189790476D01*
X531154819Y-245085714D02*
X530154819Y-245085714D01*
X530154819Y-245085714D02*
X530154819Y-245323809D01*
X530154819Y-245323809D02*
X530202438Y-245466666D01*
X530202438Y-245466666D02*
X530297676Y-245561904D01*
X530297676Y-245561904D02*
X530392914Y-245609523D01*
X530392914Y-245609523D02*
X530583390Y-245657142D01*
X530583390Y-245657142D02*
X530726247Y-245657142D01*
X530726247Y-245657142D02*
X530916723Y-245609523D01*
X530916723Y-245609523D02*
X531011961Y-245561904D01*
X531011961Y-245561904D02*
X531107200Y-245466666D01*
X531107200Y-245466666D02*
X531154819Y-245323809D01*
X531154819Y-245323809D02*
X531154819Y-245085714D01*
X530488152Y-246514285D02*
X531154819Y-246514285D01*
X530107200Y-246276190D02*
X530821485Y-246038095D01*
X530821485Y-246038095D02*
X530821485Y-246657142D01*
X530488152Y-247466666D02*
X531154819Y-247466666D01*
X530107200Y-247228571D02*
X530821485Y-246990476D01*
X530821485Y-246990476D02*
X530821485Y-247609523D01*
X602554819Y-187885714D02*
X601554819Y-187885714D01*
X601554819Y-187885714D02*
X601554819Y-188123809D01*
X601554819Y-188123809D02*
X601602438Y-188266666D01*
X601602438Y-188266666D02*
X601697676Y-188361904D01*
X601697676Y-188361904D02*
X601792914Y-188409523D01*
X601792914Y-188409523D02*
X601983390Y-188457142D01*
X601983390Y-188457142D02*
X602126247Y-188457142D01*
X602126247Y-188457142D02*
X602316723Y-188409523D01*
X602316723Y-188409523D02*
X602411961Y-188361904D01*
X602411961Y-188361904D02*
X602507200Y-188266666D01*
X602507200Y-188266666D02*
X602554819Y-188123809D01*
X602554819Y-188123809D02*
X602554819Y-187885714D01*
X601554819Y-189314285D02*
X601554819Y-189123809D01*
X601554819Y-189123809D02*
X601602438Y-189028571D01*
X601602438Y-189028571D02*
X601650057Y-188980952D01*
X601650057Y-188980952D02*
X601792914Y-188885714D01*
X601792914Y-188885714D02*
X601983390Y-188838095D01*
X601983390Y-188838095D02*
X602364342Y-188838095D01*
X602364342Y-188838095D02*
X602459580Y-188885714D01*
X602459580Y-188885714D02*
X602507200Y-188933333D01*
X602507200Y-188933333D02*
X602554819Y-189028571D01*
X602554819Y-189028571D02*
X602554819Y-189219047D01*
X602554819Y-189219047D02*
X602507200Y-189314285D01*
X602507200Y-189314285D02*
X602459580Y-189361904D01*
X602459580Y-189361904D02*
X602364342Y-189409523D01*
X602364342Y-189409523D02*
X602126247Y-189409523D01*
X602126247Y-189409523D02*
X602031009Y-189361904D01*
X602031009Y-189361904D02*
X601983390Y-189314285D01*
X601983390Y-189314285D02*
X601935771Y-189219047D01*
X601935771Y-189219047D02*
X601935771Y-189028571D01*
X601935771Y-189028571D02*
X601983390Y-188933333D01*
X601983390Y-188933333D02*
X602031009Y-188885714D01*
X602031009Y-188885714D02*
X602126247Y-188838095D01*
X602554819Y-190361904D02*
X602554819Y-189790476D01*
X602554819Y-190076190D02*
X601554819Y-190076190D01*
X601554819Y-190076190D02*
X601697676Y-189980952D01*
X601697676Y-189980952D02*
X601792914Y-189885714D01*
X601792914Y-189885714D02*
X601840533Y-189790476D01*
X690139666Y-179903819D02*
X690472999Y-179427628D01*
X690711094Y-179903819D02*
X690711094Y-178903819D01*
X690711094Y-178903819D02*
X690330142Y-178903819D01*
X690330142Y-178903819D02*
X690234904Y-178951438D01*
X690234904Y-178951438D02*
X690187285Y-178999057D01*
X690187285Y-178999057D02*
X690139666Y-179094295D01*
X690139666Y-179094295D02*
X690139666Y-179237152D01*
X690139666Y-179237152D02*
X690187285Y-179332390D01*
X690187285Y-179332390D02*
X690234904Y-179380009D01*
X690234904Y-179380009D02*
X690330142Y-179427628D01*
X690330142Y-179427628D02*
X690711094Y-179427628D01*
X689663475Y-179903819D02*
X689472999Y-179903819D01*
X689472999Y-179903819D02*
X689377761Y-179856200D01*
X689377761Y-179856200D02*
X689330142Y-179808580D01*
X689330142Y-179808580D02*
X689234904Y-179665723D01*
X689234904Y-179665723D02*
X689187285Y-179475247D01*
X689187285Y-179475247D02*
X689187285Y-179094295D01*
X689187285Y-179094295D02*
X689234904Y-178999057D01*
X689234904Y-178999057D02*
X689282523Y-178951438D01*
X689282523Y-178951438D02*
X689377761Y-178903819D01*
X689377761Y-178903819D02*
X689568237Y-178903819D01*
X689568237Y-178903819D02*
X689663475Y-178951438D01*
X689663475Y-178951438D02*
X689711094Y-178999057D01*
X689711094Y-178999057D02*
X689758713Y-179094295D01*
X689758713Y-179094295D02*
X689758713Y-179332390D01*
X689758713Y-179332390D02*
X689711094Y-179427628D01*
X689711094Y-179427628D02*
X689663475Y-179475247D01*
X689663475Y-179475247D02*
X689568237Y-179522866D01*
X689568237Y-179522866D02*
X689377761Y-179522866D01*
X689377761Y-179522866D02*
X689282523Y-179475247D01*
X689282523Y-179475247D02*
X689234904Y-179427628D01*
X689234904Y-179427628D02*
X689187285Y-179332390D01*
X412054819Y-187885714D02*
X411054819Y-187885714D01*
X411054819Y-187885714D02*
X411054819Y-188123809D01*
X411054819Y-188123809D02*
X411102438Y-188266666D01*
X411102438Y-188266666D02*
X411197676Y-188361904D01*
X411197676Y-188361904D02*
X411292914Y-188409523D01*
X411292914Y-188409523D02*
X411483390Y-188457142D01*
X411483390Y-188457142D02*
X411626247Y-188457142D01*
X411626247Y-188457142D02*
X411816723Y-188409523D01*
X411816723Y-188409523D02*
X411911961Y-188361904D01*
X411911961Y-188361904D02*
X412007200Y-188266666D01*
X412007200Y-188266666D02*
X412054819Y-188123809D01*
X412054819Y-188123809D02*
X412054819Y-187885714D01*
X412054819Y-189409523D02*
X412054819Y-188838095D01*
X412054819Y-189123809D02*
X411054819Y-189123809D01*
X411054819Y-189123809D02*
X411197676Y-189028571D01*
X411197676Y-189028571D02*
X411292914Y-188933333D01*
X411292914Y-188933333D02*
X411340533Y-188838095D01*
X412054819Y-190361904D02*
X412054819Y-189790476D01*
X412054819Y-190076190D02*
X411054819Y-190076190D01*
X411054819Y-190076190D02*
X411197676Y-189980952D01*
X411197676Y-189980952D02*
X411292914Y-189885714D01*
X411292914Y-189885714D02*
X411340533Y-189790476D01*
X655729580Y-211257142D02*
X655777200Y-211209523D01*
X655777200Y-211209523D02*
X655824819Y-211066666D01*
X655824819Y-211066666D02*
X655824819Y-210971428D01*
X655824819Y-210971428D02*
X655777200Y-210828571D01*
X655777200Y-210828571D02*
X655681961Y-210733333D01*
X655681961Y-210733333D02*
X655586723Y-210685714D01*
X655586723Y-210685714D02*
X655396247Y-210638095D01*
X655396247Y-210638095D02*
X655253390Y-210638095D01*
X655253390Y-210638095D02*
X655062914Y-210685714D01*
X655062914Y-210685714D02*
X654967676Y-210733333D01*
X654967676Y-210733333D02*
X654872438Y-210828571D01*
X654872438Y-210828571D02*
X654824819Y-210971428D01*
X654824819Y-210971428D02*
X654824819Y-211066666D01*
X654824819Y-211066666D02*
X654872438Y-211209523D01*
X654872438Y-211209523D02*
X654920057Y-211257142D01*
X655824819Y-212209523D02*
X655824819Y-211638095D01*
X655824819Y-211923809D02*
X654824819Y-211923809D01*
X654824819Y-211923809D02*
X654967676Y-211828571D01*
X654967676Y-211828571D02*
X655062914Y-211733333D01*
X655062914Y-211733333D02*
X655110533Y-211638095D01*
X655824819Y-213161904D02*
X655824819Y-212590476D01*
X655824819Y-212876190D02*
X654824819Y-212876190D01*
X654824819Y-212876190D02*
X654967676Y-212780952D01*
X654967676Y-212780952D02*
X655062914Y-212685714D01*
X655062914Y-212685714D02*
X655110533Y-212590476D01*
X612054819Y-245085714D02*
X611054819Y-245085714D01*
X611054819Y-245085714D02*
X611054819Y-245323809D01*
X611054819Y-245323809D02*
X611102438Y-245466666D01*
X611102438Y-245466666D02*
X611197676Y-245561904D01*
X611197676Y-245561904D02*
X611292914Y-245609523D01*
X611292914Y-245609523D02*
X611483390Y-245657142D01*
X611483390Y-245657142D02*
X611626247Y-245657142D01*
X611626247Y-245657142D02*
X611816723Y-245609523D01*
X611816723Y-245609523D02*
X611911961Y-245561904D01*
X611911961Y-245561904D02*
X612007200Y-245466666D01*
X612007200Y-245466666D02*
X612054819Y-245323809D01*
X612054819Y-245323809D02*
X612054819Y-245085714D01*
X611054819Y-246514285D02*
X611054819Y-246323809D01*
X611054819Y-246323809D02*
X611102438Y-246228571D01*
X611102438Y-246228571D02*
X611150057Y-246180952D01*
X611150057Y-246180952D02*
X611292914Y-246085714D01*
X611292914Y-246085714D02*
X611483390Y-246038095D01*
X611483390Y-246038095D02*
X611864342Y-246038095D01*
X611864342Y-246038095D02*
X611959580Y-246085714D01*
X611959580Y-246085714D02*
X612007200Y-246133333D01*
X612007200Y-246133333D02*
X612054819Y-246228571D01*
X612054819Y-246228571D02*
X612054819Y-246419047D01*
X612054819Y-246419047D02*
X612007200Y-246514285D01*
X612007200Y-246514285D02*
X611959580Y-246561904D01*
X611959580Y-246561904D02*
X611864342Y-246609523D01*
X611864342Y-246609523D02*
X611626247Y-246609523D01*
X611626247Y-246609523D02*
X611531009Y-246561904D01*
X611531009Y-246561904D02*
X611483390Y-246514285D01*
X611483390Y-246514285D02*
X611435771Y-246419047D01*
X611435771Y-246419047D02*
X611435771Y-246228571D01*
X611435771Y-246228571D02*
X611483390Y-246133333D01*
X611483390Y-246133333D02*
X611531009Y-246085714D01*
X611531009Y-246085714D02*
X611626247Y-246038095D01*
X611388152Y-247466666D02*
X612054819Y-247466666D01*
X611007200Y-247228571D02*
X611721485Y-246990476D01*
X611721485Y-246990476D02*
X611721485Y-247609523D01*
X426354819Y-225985714D02*
X425354819Y-225985714D01*
X425354819Y-225985714D02*
X425354819Y-226223809D01*
X425354819Y-226223809D02*
X425402438Y-226366666D01*
X425402438Y-226366666D02*
X425497676Y-226461904D01*
X425497676Y-226461904D02*
X425592914Y-226509523D01*
X425592914Y-226509523D02*
X425783390Y-226557142D01*
X425783390Y-226557142D02*
X425926247Y-226557142D01*
X425926247Y-226557142D02*
X426116723Y-226509523D01*
X426116723Y-226509523D02*
X426211961Y-226461904D01*
X426211961Y-226461904D02*
X426307200Y-226366666D01*
X426307200Y-226366666D02*
X426354819Y-226223809D01*
X426354819Y-226223809D02*
X426354819Y-225985714D01*
X426354819Y-227509523D02*
X426354819Y-226938095D01*
X426354819Y-227223809D02*
X425354819Y-227223809D01*
X425354819Y-227223809D02*
X425497676Y-227128571D01*
X425497676Y-227128571D02*
X425592914Y-227033333D01*
X425592914Y-227033333D02*
X425640533Y-226938095D01*
X425354819Y-227842857D02*
X425354819Y-228461904D01*
X425354819Y-228461904D02*
X425735771Y-228128571D01*
X425735771Y-228128571D02*
X425735771Y-228271428D01*
X425735771Y-228271428D02*
X425783390Y-228366666D01*
X425783390Y-228366666D02*
X425831009Y-228414285D01*
X425831009Y-228414285D02*
X425926247Y-228461904D01*
X425926247Y-228461904D02*
X426164342Y-228461904D01*
X426164342Y-228461904D02*
X426259580Y-228414285D01*
X426259580Y-228414285D02*
X426307200Y-228366666D01*
X426307200Y-228366666D02*
X426354819Y-228271428D01*
X426354819Y-228271428D02*
X426354819Y-227985714D01*
X426354819Y-227985714D02*
X426307200Y-227890476D01*
X426307200Y-227890476D02*
X426259580Y-227842857D01*
X373954819Y-188361905D02*
X372954819Y-188361905D01*
X372954819Y-188361905D02*
X372954819Y-188600000D01*
X372954819Y-188600000D02*
X373002438Y-188742857D01*
X373002438Y-188742857D02*
X373097676Y-188838095D01*
X373097676Y-188838095D02*
X373192914Y-188885714D01*
X373192914Y-188885714D02*
X373383390Y-188933333D01*
X373383390Y-188933333D02*
X373526247Y-188933333D01*
X373526247Y-188933333D02*
X373716723Y-188885714D01*
X373716723Y-188885714D02*
X373811961Y-188838095D01*
X373811961Y-188838095D02*
X373907200Y-188742857D01*
X373907200Y-188742857D02*
X373954819Y-188600000D01*
X373954819Y-188600000D02*
X373954819Y-188361905D01*
X373954819Y-189885714D02*
X373954819Y-189314286D01*
X373954819Y-189600000D02*
X372954819Y-189600000D01*
X372954819Y-189600000D02*
X373097676Y-189504762D01*
X373097676Y-189504762D02*
X373192914Y-189409524D01*
X373192914Y-189409524D02*
X373240533Y-189314286D01*
X512054819Y-244985714D02*
X511054819Y-244985714D01*
X511054819Y-244985714D02*
X511054819Y-245223809D01*
X511054819Y-245223809D02*
X511102438Y-245366666D01*
X511102438Y-245366666D02*
X511197676Y-245461904D01*
X511197676Y-245461904D02*
X511292914Y-245509523D01*
X511292914Y-245509523D02*
X511483390Y-245557142D01*
X511483390Y-245557142D02*
X511626247Y-245557142D01*
X511626247Y-245557142D02*
X511816723Y-245509523D01*
X511816723Y-245509523D02*
X511911961Y-245461904D01*
X511911961Y-245461904D02*
X512007200Y-245366666D01*
X512007200Y-245366666D02*
X512054819Y-245223809D01*
X512054819Y-245223809D02*
X512054819Y-244985714D01*
X511054819Y-245890476D02*
X511054819Y-246509523D01*
X511054819Y-246509523D02*
X511435771Y-246176190D01*
X511435771Y-246176190D02*
X511435771Y-246319047D01*
X511435771Y-246319047D02*
X511483390Y-246414285D01*
X511483390Y-246414285D02*
X511531009Y-246461904D01*
X511531009Y-246461904D02*
X511626247Y-246509523D01*
X511626247Y-246509523D02*
X511864342Y-246509523D01*
X511864342Y-246509523D02*
X511959580Y-246461904D01*
X511959580Y-246461904D02*
X512007200Y-246414285D01*
X512007200Y-246414285D02*
X512054819Y-246319047D01*
X512054819Y-246319047D02*
X512054819Y-246033333D01*
X512054819Y-246033333D02*
X512007200Y-245938095D01*
X512007200Y-245938095D02*
X511959580Y-245890476D01*
X512054819Y-246985714D02*
X512054819Y-247176190D01*
X512054819Y-247176190D02*
X512007200Y-247271428D01*
X512007200Y-247271428D02*
X511959580Y-247319047D01*
X511959580Y-247319047D02*
X511816723Y-247414285D01*
X511816723Y-247414285D02*
X511626247Y-247461904D01*
X511626247Y-247461904D02*
X511245295Y-247461904D01*
X511245295Y-247461904D02*
X511150057Y-247414285D01*
X511150057Y-247414285D02*
X511102438Y-247366666D01*
X511102438Y-247366666D02*
X511054819Y-247271428D01*
X511054819Y-247271428D02*
X511054819Y-247080952D01*
X511054819Y-247080952D02*
X511102438Y-246985714D01*
X511102438Y-246985714D02*
X511150057Y-246938095D01*
X511150057Y-246938095D02*
X511245295Y-246890476D01*
X511245295Y-246890476D02*
X511483390Y-246890476D01*
X511483390Y-246890476D02*
X511578628Y-246938095D01*
X511578628Y-246938095D02*
X511626247Y-246985714D01*
X511626247Y-246985714D02*
X511673866Y-247080952D01*
X511673866Y-247080952D02*
X511673866Y-247271428D01*
X511673866Y-247271428D02*
X511626247Y-247366666D01*
X511626247Y-247366666D02*
X511578628Y-247414285D01*
X511578628Y-247414285D02*
X511483390Y-247461904D01*
X671789580Y-200470833D02*
X671837200Y-200423214D01*
X671837200Y-200423214D02*
X671884819Y-200280357D01*
X671884819Y-200280357D02*
X671884819Y-200185119D01*
X671884819Y-200185119D02*
X671837200Y-200042262D01*
X671837200Y-200042262D02*
X671741961Y-199947024D01*
X671741961Y-199947024D02*
X671646723Y-199899405D01*
X671646723Y-199899405D02*
X671456247Y-199851786D01*
X671456247Y-199851786D02*
X671313390Y-199851786D01*
X671313390Y-199851786D02*
X671122914Y-199899405D01*
X671122914Y-199899405D02*
X671027676Y-199947024D01*
X671027676Y-199947024D02*
X670932438Y-200042262D01*
X670932438Y-200042262D02*
X670884819Y-200185119D01*
X670884819Y-200185119D02*
X670884819Y-200280357D01*
X670884819Y-200280357D02*
X670932438Y-200423214D01*
X670932438Y-200423214D02*
X670980057Y-200470833D01*
X671218152Y-201327976D02*
X671884819Y-201327976D01*
X670837200Y-201089881D02*
X671551485Y-200851786D01*
X671551485Y-200851786D02*
X671551485Y-201470833D01*
X559654819Y-225985714D02*
X558654819Y-225985714D01*
X558654819Y-225985714D02*
X558654819Y-226223809D01*
X558654819Y-226223809D02*
X558702438Y-226366666D01*
X558702438Y-226366666D02*
X558797676Y-226461904D01*
X558797676Y-226461904D02*
X558892914Y-226509523D01*
X558892914Y-226509523D02*
X559083390Y-226557142D01*
X559083390Y-226557142D02*
X559226247Y-226557142D01*
X559226247Y-226557142D02*
X559416723Y-226509523D01*
X559416723Y-226509523D02*
X559511961Y-226461904D01*
X559511961Y-226461904D02*
X559607200Y-226366666D01*
X559607200Y-226366666D02*
X559654819Y-226223809D01*
X559654819Y-226223809D02*
X559654819Y-225985714D01*
X558988152Y-227414285D02*
X559654819Y-227414285D01*
X558607200Y-227176190D02*
X559321485Y-226938095D01*
X559321485Y-226938095D02*
X559321485Y-227557142D01*
X559083390Y-228080952D02*
X559035771Y-227985714D01*
X559035771Y-227985714D02*
X558988152Y-227938095D01*
X558988152Y-227938095D02*
X558892914Y-227890476D01*
X558892914Y-227890476D02*
X558845295Y-227890476D01*
X558845295Y-227890476D02*
X558750057Y-227938095D01*
X558750057Y-227938095D02*
X558702438Y-227985714D01*
X558702438Y-227985714D02*
X558654819Y-228080952D01*
X558654819Y-228080952D02*
X558654819Y-228271428D01*
X558654819Y-228271428D02*
X558702438Y-228366666D01*
X558702438Y-228366666D02*
X558750057Y-228414285D01*
X558750057Y-228414285D02*
X558845295Y-228461904D01*
X558845295Y-228461904D02*
X558892914Y-228461904D01*
X558892914Y-228461904D02*
X558988152Y-228414285D01*
X558988152Y-228414285D02*
X559035771Y-228366666D01*
X559035771Y-228366666D02*
X559083390Y-228271428D01*
X559083390Y-228271428D02*
X559083390Y-228080952D01*
X559083390Y-228080952D02*
X559131009Y-227985714D01*
X559131009Y-227985714D02*
X559178628Y-227938095D01*
X559178628Y-227938095D02*
X559273866Y-227890476D01*
X559273866Y-227890476D02*
X559464342Y-227890476D01*
X559464342Y-227890476D02*
X559559580Y-227938095D01*
X559559580Y-227938095D02*
X559607200Y-227985714D01*
X559607200Y-227985714D02*
X559654819Y-228080952D01*
X559654819Y-228080952D02*
X559654819Y-228271428D01*
X559654819Y-228271428D02*
X559607200Y-228366666D01*
X559607200Y-228366666D02*
X559559580Y-228414285D01*
X559559580Y-228414285D02*
X559464342Y-228461904D01*
X559464342Y-228461904D02*
X559273866Y-228461904D01*
X559273866Y-228461904D02*
X559178628Y-228414285D01*
X559178628Y-228414285D02*
X559131009Y-228366666D01*
X559131009Y-228366666D02*
X559083390Y-228271428D01*
X459654819Y-206935714D02*
X458654819Y-206935714D01*
X458654819Y-206935714D02*
X458654819Y-207173809D01*
X458654819Y-207173809D02*
X458702438Y-207316666D01*
X458702438Y-207316666D02*
X458797676Y-207411904D01*
X458797676Y-207411904D02*
X458892914Y-207459523D01*
X458892914Y-207459523D02*
X459083390Y-207507142D01*
X459083390Y-207507142D02*
X459226247Y-207507142D01*
X459226247Y-207507142D02*
X459416723Y-207459523D01*
X459416723Y-207459523D02*
X459511961Y-207411904D01*
X459511961Y-207411904D02*
X459607200Y-207316666D01*
X459607200Y-207316666D02*
X459654819Y-207173809D01*
X459654819Y-207173809D02*
X459654819Y-206935714D01*
X458750057Y-207888095D02*
X458702438Y-207935714D01*
X458702438Y-207935714D02*
X458654819Y-208030952D01*
X458654819Y-208030952D02*
X458654819Y-208269047D01*
X458654819Y-208269047D02*
X458702438Y-208364285D01*
X458702438Y-208364285D02*
X458750057Y-208411904D01*
X458750057Y-208411904D02*
X458845295Y-208459523D01*
X458845295Y-208459523D02*
X458940533Y-208459523D01*
X458940533Y-208459523D02*
X459083390Y-208411904D01*
X459083390Y-208411904D02*
X459654819Y-207840476D01*
X459654819Y-207840476D02*
X459654819Y-208459523D01*
X458750057Y-208840476D02*
X458702438Y-208888095D01*
X458702438Y-208888095D02*
X458654819Y-208983333D01*
X458654819Y-208983333D02*
X458654819Y-209221428D01*
X458654819Y-209221428D02*
X458702438Y-209316666D01*
X458702438Y-209316666D02*
X458750057Y-209364285D01*
X458750057Y-209364285D02*
X458845295Y-209411904D01*
X458845295Y-209411904D02*
X458940533Y-209411904D01*
X458940533Y-209411904D02*
X459083390Y-209364285D01*
X459083390Y-209364285D02*
X459654819Y-208792857D01*
X459654819Y-208792857D02*
X459654819Y-209411904D01*
X550154819Y-244985714D02*
X549154819Y-244985714D01*
X549154819Y-244985714D02*
X549154819Y-245223809D01*
X549154819Y-245223809D02*
X549202438Y-245366666D01*
X549202438Y-245366666D02*
X549297676Y-245461904D01*
X549297676Y-245461904D02*
X549392914Y-245509523D01*
X549392914Y-245509523D02*
X549583390Y-245557142D01*
X549583390Y-245557142D02*
X549726247Y-245557142D01*
X549726247Y-245557142D02*
X549916723Y-245509523D01*
X549916723Y-245509523D02*
X550011961Y-245461904D01*
X550011961Y-245461904D02*
X550107200Y-245366666D01*
X550107200Y-245366666D02*
X550154819Y-245223809D01*
X550154819Y-245223809D02*
X550154819Y-244985714D01*
X549488152Y-246414285D02*
X550154819Y-246414285D01*
X549107200Y-246176190D02*
X549821485Y-245938095D01*
X549821485Y-245938095D02*
X549821485Y-246557142D01*
X550154819Y-246985714D02*
X550154819Y-247176190D01*
X550154819Y-247176190D02*
X550107200Y-247271428D01*
X550107200Y-247271428D02*
X550059580Y-247319047D01*
X550059580Y-247319047D02*
X549916723Y-247414285D01*
X549916723Y-247414285D02*
X549726247Y-247461904D01*
X549726247Y-247461904D02*
X549345295Y-247461904D01*
X549345295Y-247461904D02*
X549250057Y-247414285D01*
X549250057Y-247414285D02*
X549202438Y-247366666D01*
X549202438Y-247366666D02*
X549154819Y-247271428D01*
X549154819Y-247271428D02*
X549154819Y-247080952D01*
X549154819Y-247080952D02*
X549202438Y-246985714D01*
X549202438Y-246985714D02*
X549250057Y-246938095D01*
X549250057Y-246938095D02*
X549345295Y-246890476D01*
X549345295Y-246890476D02*
X549583390Y-246890476D01*
X549583390Y-246890476D02*
X549678628Y-246938095D01*
X549678628Y-246938095D02*
X549726247Y-246985714D01*
X549726247Y-246985714D02*
X549773866Y-247080952D01*
X549773866Y-247080952D02*
X549773866Y-247271428D01*
X549773866Y-247271428D02*
X549726247Y-247366666D01*
X549726247Y-247366666D02*
X549678628Y-247414285D01*
X549678628Y-247414285D02*
X549583390Y-247461904D01*
X392954819Y-188361905D02*
X391954819Y-188361905D01*
X391954819Y-188361905D02*
X391954819Y-188600000D01*
X391954819Y-188600000D02*
X392002438Y-188742857D01*
X392002438Y-188742857D02*
X392097676Y-188838095D01*
X392097676Y-188838095D02*
X392192914Y-188885714D01*
X392192914Y-188885714D02*
X392383390Y-188933333D01*
X392383390Y-188933333D02*
X392526247Y-188933333D01*
X392526247Y-188933333D02*
X392716723Y-188885714D01*
X392716723Y-188885714D02*
X392811961Y-188838095D01*
X392811961Y-188838095D02*
X392907200Y-188742857D01*
X392907200Y-188742857D02*
X392954819Y-188600000D01*
X392954819Y-188600000D02*
X392954819Y-188361905D01*
X391954819Y-189790476D02*
X391954819Y-189600000D01*
X391954819Y-189600000D02*
X392002438Y-189504762D01*
X392002438Y-189504762D02*
X392050057Y-189457143D01*
X392050057Y-189457143D02*
X392192914Y-189361905D01*
X392192914Y-189361905D02*
X392383390Y-189314286D01*
X392383390Y-189314286D02*
X392764342Y-189314286D01*
X392764342Y-189314286D02*
X392859580Y-189361905D01*
X392859580Y-189361905D02*
X392907200Y-189409524D01*
X392907200Y-189409524D02*
X392954819Y-189504762D01*
X392954819Y-189504762D02*
X392954819Y-189695238D01*
X392954819Y-189695238D02*
X392907200Y-189790476D01*
X392907200Y-189790476D02*
X392859580Y-189838095D01*
X392859580Y-189838095D02*
X392764342Y-189885714D01*
X392764342Y-189885714D02*
X392526247Y-189885714D01*
X392526247Y-189885714D02*
X392431009Y-189838095D01*
X392431009Y-189838095D02*
X392383390Y-189790476D01*
X392383390Y-189790476D02*
X392335771Y-189695238D01*
X392335771Y-189695238D02*
X392335771Y-189504762D01*
X392335771Y-189504762D02*
X392383390Y-189409524D01*
X392383390Y-189409524D02*
X392431009Y-189361905D01*
X392431009Y-189361905D02*
X392526247Y-189314286D01*
X612054819Y-206885714D02*
X611054819Y-206885714D01*
X611054819Y-206885714D02*
X611054819Y-207123809D01*
X611054819Y-207123809D02*
X611102438Y-207266666D01*
X611102438Y-207266666D02*
X611197676Y-207361904D01*
X611197676Y-207361904D02*
X611292914Y-207409523D01*
X611292914Y-207409523D02*
X611483390Y-207457142D01*
X611483390Y-207457142D02*
X611626247Y-207457142D01*
X611626247Y-207457142D02*
X611816723Y-207409523D01*
X611816723Y-207409523D02*
X611911961Y-207361904D01*
X611911961Y-207361904D02*
X612007200Y-207266666D01*
X612007200Y-207266666D02*
X612054819Y-207123809D01*
X612054819Y-207123809D02*
X612054819Y-206885714D01*
X611054819Y-208314285D02*
X611054819Y-208123809D01*
X611054819Y-208123809D02*
X611102438Y-208028571D01*
X611102438Y-208028571D02*
X611150057Y-207980952D01*
X611150057Y-207980952D02*
X611292914Y-207885714D01*
X611292914Y-207885714D02*
X611483390Y-207838095D01*
X611483390Y-207838095D02*
X611864342Y-207838095D01*
X611864342Y-207838095D02*
X611959580Y-207885714D01*
X611959580Y-207885714D02*
X612007200Y-207933333D01*
X612007200Y-207933333D02*
X612054819Y-208028571D01*
X612054819Y-208028571D02*
X612054819Y-208219047D01*
X612054819Y-208219047D02*
X612007200Y-208314285D01*
X612007200Y-208314285D02*
X611959580Y-208361904D01*
X611959580Y-208361904D02*
X611864342Y-208409523D01*
X611864342Y-208409523D02*
X611626247Y-208409523D01*
X611626247Y-208409523D02*
X611531009Y-208361904D01*
X611531009Y-208361904D02*
X611483390Y-208314285D01*
X611483390Y-208314285D02*
X611435771Y-208219047D01*
X611435771Y-208219047D02*
X611435771Y-208028571D01*
X611435771Y-208028571D02*
X611483390Y-207933333D01*
X611483390Y-207933333D02*
X611531009Y-207885714D01*
X611531009Y-207885714D02*
X611626247Y-207838095D01*
X611150057Y-208790476D02*
X611102438Y-208838095D01*
X611102438Y-208838095D02*
X611054819Y-208933333D01*
X611054819Y-208933333D02*
X611054819Y-209171428D01*
X611054819Y-209171428D02*
X611102438Y-209266666D01*
X611102438Y-209266666D02*
X611150057Y-209314285D01*
X611150057Y-209314285D02*
X611245295Y-209361904D01*
X611245295Y-209361904D02*
X611340533Y-209361904D01*
X611340533Y-209361904D02*
X611483390Y-209314285D01*
X611483390Y-209314285D02*
X612054819Y-208742857D01*
X612054819Y-208742857D02*
X612054819Y-209361904D01*
X478754819Y-206885714D02*
X477754819Y-206885714D01*
X477754819Y-206885714D02*
X477754819Y-207123809D01*
X477754819Y-207123809D02*
X477802438Y-207266666D01*
X477802438Y-207266666D02*
X477897676Y-207361904D01*
X477897676Y-207361904D02*
X477992914Y-207409523D01*
X477992914Y-207409523D02*
X478183390Y-207457142D01*
X478183390Y-207457142D02*
X478326247Y-207457142D01*
X478326247Y-207457142D02*
X478516723Y-207409523D01*
X478516723Y-207409523D02*
X478611961Y-207361904D01*
X478611961Y-207361904D02*
X478707200Y-207266666D01*
X478707200Y-207266666D02*
X478754819Y-207123809D01*
X478754819Y-207123809D02*
X478754819Y-206885714D01*
X477850057Y-207838095D02*
X477802438Y-207885714D01*
X477802438Y-207885714D02*
X477754819Y-207980952D01*
X477754819Y-207980952D02*
X477754819Y-208219047D01*
X477754819Y-208219047D02*
X477802438Y-208314285D01*
X477802438Y-208314285D02*
X477850057Y-208361904D01*
X477850057Y-208361904D02*
X477945295Y-208409523D01*
X477945295Y-208409523D02*
X478040533Y-208409523D01*
X478040533Y-208409523D02*
X478183390Y-208361904D01*
X478183390Y-208361904D02*
X478754819Y-207790476D01*
X478754819Y-207790476D02*
X478754819Y-208409523D01*
X477754819Y-208742857D02*
X477754819Y-209409523D01*
X477754819Y-209409523D02*
X478754819Y-208980952D01*
X492954819Y-245085714D02*
X491954819Y-245085714D01*
X491954819Y-245085714D02*
X491954819Y-245323809D01*
X491954819Y-245323809D02*
X492002438Y-245466666D01*
X492002438Y-245466666D02*
X492097676Y-245561904D01*
X492097676Y-245561904D02*
X492192914Y-245609523D01*
X492192914Y-245609523D02*
X492383390Y-245657142D01*
X492383390Y-245657142D02*
X492526247Y-245657142D01*
X492526247Y-245657142D02*
X492716723Y-245609523D01*
X492716723Y-245609523D02*
X492811961Y-245561904D01*
X492811961Y-245561904D02*
X492907200Y-245466666D01*
X492907200Y-245466666D02*
X492954819Y-245323809D01*
X492954819Y-245323809D02*
X492954819Y-245085714D01*
X491954819Y-245990476D02*
X491954819Y-246609523D01*
X491954819Y-246609523D02*
X492335771Y-246276190D01*
X492335771Y-246276190D02*
X492335771Y-246419047D01*
X492335771Y-246419047D02*
X492383390Y-246514285D01*
X492383390Y-246514285D02*
X492431009Y-246561904D01*
X492431009Y-246561904D02*
X492526247Y-246609523D01*
X492526247Y-246609523D02*
X492764342Y-246609523D01*
X492764342Y-246609523D02*
X492859580Y-246561904D01*
X492859580Y-246561904D02*
X492907200Y-246514285D01*
X492907200Y-246514285D02*
X492954819Y-246419047D01*
X492954819Y-246419047D02*
X492954819Y-246133333D01*
X492954819Y-246133333D02*
X492907200Y-246038095D01*
X492907200Y-246038095D02*
X492859580Y-245990476D01*
X492288152Y-247466666D02*
X492954819Y-247466666D01*
X491907200Y-247228571D02*
X492621485Y-246990476D01*
X492621485Y-246990476D02*
X492621485Y-247609523D01*
X488154819Y-187885714D02*
X487154819Y-187885714D01*
X487154819Y-187885714D02*
X487154819Y-188123809D01*
X487154819Y-188123809D02*
X487202438Y-188266666D01*
X487202438Y-188266666D02*
X487297676Y-188361904D01*
X487297676Y-188361904D02*
X487392914Y-188409523D01*
X487392914Y-188409523D02*
X487583390Y-188457142D01*
X487583390Y-188457142D02*
X487726247Y-188457142D01*
X487726247Y-188457142D02*
X487916723Y-188409523D01*
X487916723Y-188409523D02*
X488011961Y-188361904D01*
X488011961Y-188361904D02*
X488107200Y-188266666D01*
X488107200Y-188266666D02*
X488154819Y-188123809D01*
X488154819Y-188123809D02*
X488154819Y-187885714D01*
X487154819Y-188790476D02*
X487154819Y-189409523D01*
X487154819Y-189409523D02*
X487535771Y-189076190D01*
X487535771Y-189076190D02*
X487535771Y-189219047D01*
X487535771Y-189219047D02*
X487583390Y-189314285D01*
X487583390Y-189314285D02*
X487631009Y-189361904D01*
X487631009Y-189361904D02*
X487726247Y-189409523D01*
X487726247Y-189409523D02*
X487964342Y-189409523D01*
X487964342Y-189409523D02*
X488059580Y-189361904D01*
X488059580Y-189361904D02*
X488107200Y-189314285D01*
X488107200Y-189314285D02*
X488154819Y-189219047D01*
X488154819Y-189219047D02*
X488154819Y-188933333D01*
X488154819Y-188933333D02*
X488107200Y-188838095D01*
X488107200Y-188838095D02*
X488059580Y-188790476D01*
X488154819Y-190361904D02*
X488154819Y-189790476D01*
X488154819Y-190076190D02*
X487154819Y-190076190D01*
X487154819Y-190076190D02*
X487297676Y-189980952D01*
X487297676Y-189980952D02*
X487392914Y-189885714D01*
X487392914Y-189885714D02*
X487440533Y-189790476D01*
X691666666Y-212554819D02*
X691999999Y-212078628D01*
X692238094Y-212554819D02*
X692238094Y-211554819D01*
X692238094Y-211554819D02*
X691857142Y-211554819D01*
X691857142Y-211554819D02*
X691761904Y-211602438D01*
X691761904Y-211602438D02*
X691714285Y-211650057D01*
X691714285Y-211650057D02*
X691666666Y-211745295D01*
X691666666Y-211745295D02*
X691666666Y-211888152D01*
X691666666Y-211888152D02*
X691714285Y-211983390D01*
X691714285Y-211983390D02*
X691761904Y-212031009D01*
X691761904Y-212031009D02*
X691857142Y-212078628D01*
X691857142Y-212078628D02*
X692238094Y-212078628D01*
X690714285Y-212554819D02*
X691285713Y-212554819D01*
X690999999Y-212554819D02*
X690999999Y-211554819D01*
X690999999Y-211554819D02*
X691095237Y-211697676D01*
X691095237Y-211697676D02*
X691190475Y-211792914D01*
X691190475Y-211792914D02*
X691285713Y-211840533D01*
X435854819Y-244985714D02*
X434854819Y-244985714D01*
X434854819Y-244985714D02*
X434854819Y-245223809D01*
X434854819Y-245223809D02*
X434902438Y-245366666D01*
X434902438Y-245366666D02*
X434997676Y-245461904D01*
X434997676Y-245461904D02*
X435092914Y-245509523D01*
X435092914Y-245509523D02*
X435283390Y-245557142D01*
X435283390Y-245557142D02*
X435426247Y-245557142D01*
X435426247Y-245557142D02*
X435616723Y-245509523D01*
X435616723Y-245509523D02*
X435711961Y-245461904D01*
X435711961Y-245461904D02*
X435807200Y-245366666D01*
X435807200Y-245366666D02*
X435854819Y-245223809D01*
X435854819Y-245223809D02*
X435854819Y-244985714D01*
X435854819Y-246509523D02*
X435854819Y-245938095D01*
X435854819Y-246223809D02*
X434854819Y-246223809D01*
X434854819Y-246223809D02*
X434997676Y-246128571D01*
X434997676Y-246128571D02*
X435092914Y-246033333D01*
X435092914Y-246033333D02*
X435140533Y-245938095D01*
X435854819Y-246985714D02*
X435854819Y-247176190D01*
X435854819Y-247176190D02*
X435807200Y-247271428D01*
X435807200Y-247271428D02*
X435759580Y-247319047D01*
X435759580Y-247319047D02*
X435616723Y-247414285D01*
X435616723Y-247414285D02*
X435426247Y-247461904D01*
X435426247Y-247461904D02*
X435045295Y-247461904D01*
X435045295Y-247461904D02*
X434950057Y-247414285D01*
X434950057Y-247414285D02*
X434902438Y-247366666D01*
X434902438Y-247366666D02*
X434854819Y-247271428D01*
X434854819Y-247271428D02*
X434854819Y-247080952D01*
X434854819Y-247080952D02*
X434902438Y-246985714D01*
X434902438Y-246985714D02*
X434950057Y-246938095D01*
X434950057Y-246938095D02*
X435045295Y-246890476D01*
X435045295Y-246890476D02*
X435283390Y-246890476D01*
X435283390Y-246890476D02*
X435378628Y-246938095D01*
X435378628Y-246938095D02*
X435426247Y-246985714D01*
X435426247Y-246985714D02*
X435473866Y-247080952D01*
X435473866Y-247080952D02*
X435473866Y-247271428D01*
X435473866Y-247271428D02*
X435426247Y-247366666D01*
X435426247Y-247366666D02*
X435378628Y-247414285D01*
X435378628Y-247414285D02*
X435283390Y-247461904D01*
X569154819Y-245035714D02*
X568154819Y-245035714D01*
X568154819Y-245035714D02*
X568154819Y-245273809D01*
X568154819Y-245273809D02*
X568202438Y-245416666D01*
X568202438Y-245416666D02*
X568297676Y-245511904D01*
X568297676Y-245511904D02*
X568392914Y-245559523D01*
X568392914Y-245559523D02*
X568583390Y-245607142D01*
X568583390Y-245607142D02*
X568726247Y-245607142D01*
X568726247Y-245607142D02*
X568916723Y-245559523D01*
X568916723Y-245559523D02*
X569011961Y-245511904D01*
X569011961Y-245511904D02*
X569107200Y-245416666D01*
X569107200Y-245416666D02*
X569154819Y-245273809D01*
X569154819Y-245273809D02*
X569154819Y-245035714D01*
X568154819Y-246511904D02*
X568154819Y-246035714D01*
X568154819Y-246035714D02*
X568631009Y-245988095D01*
X568631009Y-245988095D02*
X568583390Y-246035714D01*
X568583390Y-246035714D02*
X568535771Y-246130952D01*
X568535771Y-246130952D02*
X568535771Y-246369047D01*
X568535771Y-246369047D02*
X568583390Y-246464285D01*
X568583390Y-246464285D02*
X568631009Y-246511904D01*
X568631009Y-246511904D02*
X568726247Y-246559523D01*
X568726247Y-246559523D02*
X568964342Y-246559523D01*
X568964342Y-246559523D02*
X569059580Y-246511904D01*
X569059580Y-246511904D02*
X569107200Y-246464285D01*
X569107200Y-246464285D02*
X569154819Y-246369047D01*
X569154819Y-246369047D02*
X569154819Y-246130952D01*
X569154819Y-246130952D02*
X569107200Y-246035714D01*
X569107200Y-246035714D02*
X569059580Y-245988095D01*
X568488152Y-247416666D02*
X569154819Y-247416666D01*
X568107200Y-247178571D02*
X568821485Y-246940476D01*
X568821485Y-246940476D02*
X568821485Y-247559523D01*
X578654819Y-225985714D02*
X577654819Y-225985714D01*
X577654819Y-225985714D02*
X577654819Y-226223809D01*
X577654819Y-226223809D02*
X577702438Y-226366666D01*
X577702438Y-226366666D02*
X577797676Y-226461904D01*
X577797676Y-226461904D02*
X577892914Y-226509523D01*
X577892914Y-226509523D02*
X578083390Y-226557142D01*
X578083390Y-226557142D02*
X578226247Y-226557142D01*
X578226247Y-226557142D02*
X578416723Y-226509523D01*
X578416723Y-226509523D02*
X578511961Y-226461904D01*
X578511961Y-226461904D02*
X578607200Y-226366666D01*
X578607200Y-226366666D02*
X578654819Y-226223809D01*
X578654819Y-226223809D02*
X578654819Y-225985714D01*
X577654819Y-227461904D02*
X577654819Y-226985714D01*
X577654819Y-226985714D02*
X578131009Y-226938095D01*
X578131009Y-226938095D02*
X578083390Y-226985714D01*
X578083390Y-226985714D02*
X578035771Y-227080952D01*
X578035771Y-227080952D02*
X578035771Y-227319047D01*
X578035771Y-227319047D02*
X578083390Y-227414285D01*
X578083390Y-227414285D02*
X578131009Y-227461904D01*
X578131009Y-227461904D02*
X578226247Y-227509523D01*
X578226247Y-227509523D02*
X578464342Y-227509523D01*
X578464342Y-227509523D02*
X578559580Y-227461904D01*
X578559580Y-227461904D02*
X578607200Y-227414285D01*
X578607200Y-227414285D02*
X578654819Y-227319047D01*
X578654819Y-227319047D02*
X578654819Y-227080952D01*
X578654819Y-227080952D02*
X578607200Y-226985714D01*
X578607200Y-226985714D02*
X578559580Y-226938095D01*
X577654819Y-227842857D02*
X577654819Y-228461904D01*
X577654819Y-228461904D02*
X578035771Y-228128571D01*
X578035771Y-228128571D02*
X578035771Y-228271428D01*
X578035771Y-228271428D02*
X578083390Y-228366666D01*
X578083390Y-228366666D02*
X578131009Y-228414285D01*
X578131009Y-228414285D02*
X578226247Y-228461904D01*
X578226247Y-228461904D02*
X578464342Y-228461904D01*
X578464342Y-228461904D02*
X578559580Y-228414285D01*
X578559580Y-228414285D02*
X578607200Y-228366666D01*
X578607200Y-228366666D02*
X578654819Y-228271428D01*
X578654819Y-228271428D02*
X578654819Y-227985714D01*
X578654819Y-227985714D02*
X578607200Y-227890476D01*
X578607200Y-227890476D02*
X578559580Y-227842857D01*
X588254819Y-245085714D02*
X587254819Y-245085714D01*
X587254819Y-245085714D02*
X587254819Y-245323809D01*
X587254819Y-245323809D02*
X587302438Y-245466666D01*
X587302438Y-245466666D02*
X587397676Y-245561904D01*
X587397676Y-245561904D02*
X587492914Y-245609523D01*
X587492914Y-245609523D02*
X587683390Y-245657142D01*
X587683390Y-245657142D02*
X587826247Y-245657142D01*
X587826247Y-245657142D02*
X588016723Y-245609523D01*
X588016723Y-245609523D02*
X588111961Y-245561904D01*
X588111961Y-245561904D02*
X588207200Y-245466666D01*
X588207200Y-245466666D02*
X588254819Y-245323809D01*
X588254819Y-245323809D02*
X588254819Y-245085714D01*
X587254819Y-246561904D02*
X587254819Y-246085714D01*
X587254819Y-246085714D02*
X587731009Y-246038095D01*
X587731009Y-246038095D02*
X587683390Y-246085714D01*
X587683390Y-246085714D02*
X587635771Y-246180952D01*
X587635771Y-246180952D02*
X587635771Y-246419047D01*
X587635771Y-246419047D02*
X587683390Y-246514285D01*
X587683390Y-246514285D02*
X587731009Y-246561904D01*
X587731009Y-246561904D02*
X587826247Y-246609523D01*
X587826247Y-246609523D02*
X588064342Y-246609523D01*
X588064342Y-246609523D02*
X588159580Y-246561904D01*
X588159580Y-246561904D02*
X588207200Y-246514285D01*
X588207200Y-246514285D02*
X588254819Y-246419047D01*
X588254819Y-246419047D02*
X588254819Y-246180952D01*
X588254819Y-246180952D02*
X588207200Y-246085714D01*
X588207200Y-246085714D02*
X588159580Y-246038095D01*
X588254819Y-247085714D02*
X588254819Y-247276190D01*
X588254819Y-247276190D02*
X588207200Y-247371428D01*
X588207200Y-247371428D02*
X588159580Y-247419047D01*
X588159580Y-247419047D02*
X588016723Y-247514285D01*
X588016723Y-247514285D02*
X587826247Y-247561904D01*
X587826247Y-247561904D02*
X587445295Y-247561904D01*
X587445295Y-247561904D02*
X587350057Y-247514285D01*
X587350057Y-247514285D02*
X587302438Y-247466666D01*
X587302438Y-247466666D02*
X587254819Y-247371428D01*
X587254819Y-247371428D02*
X587254819Y-247180952D01*
X587254819Y-247180952D02*
X587302438Y-247085714D01*
X587302438Y-247085714D02*
X587350057Y-247038095D01*
X587350057Y-247038095D02*
X587445295Y-246990476D01*
X587445295Y-246990476D02*
X587683390Y-246990476D01*
X587683390Y-246990476D02*
X587778628Y-247038095D01*
X587778628Y-247038095D02*
X587826247Y-247085714D01*
X587826247Y-247085714D02*
X587873866Y-247180952D01*
X587873866Y-247180952D02*
X587873866Y-247371428D01*
X587873866Y-247371428D02*
X587826247Y-247466666D01*
X587826247Y-247466666D02*
X587778628Y-247514285D01*
X587778628Y-247514285D02*
X587683390Y-247561904D01*
X385754819Y-245511905D02*
X384754819Y-245511905D01*
X384754819Y-245511905D02*
X384754819Y-245750000D01*
X384754819Y-245750000D02*
X384802438Y-245892857D01*
X384802438Y-245892857D02*
X384897676Y-245988095D01*
X384897676Y-245988095D02*
X384992914Y-246035714D01*
X384992914Y-246035714D02*
X385183390Y-246083333D01*
X385183390Y-246083333D02*
X385326247Y-246083333D01*
X385326247Y-246083333D02*
X385516723Y-246035714D01*
X385516723Y-246035714D02*
X385611961Y-245988095D01*
X385611961Y-245988095D02*
X385707200Y-245892857D01*
X385707200Y-245892857D02*
X385754819Y-245750000D01*
X385754819Y-245750000D02*
X385754819Y-245511905D01*
X385088152Y-246940476D02*
X385754819Y-246940476D01*
X384707200Y-246702381D02*
X385421485Y-246464286D01*
X385421485Y-246464286D02*
X385421485Y-247083333D01*
X464354819Y-225985714D02*
X463354819Y-225985714D01*
X463354819Y-225985714D02*
X463354819Y-226223809D01*
X463354819Y-226223809D02*
X463402438Y-226366666D01*
X463402438Y-226366666D02*
X463497676Y-226461904D01*
X463497676Y-226461904D02*
X463592914Y-226509523D01*
X463592914Y-226509523D02*
X463783390Y-226557142D01*
X463783390Y-226557142D02*
X463926247Y-226557142D01*
X463926247Y-226557142D02*
X464116723Y-226509523D01*
X464116723Y-226509523D02*
X464211961Y-226461904D01*
X464211961Y-226461904D02*
X464307200Y-226366666D01*
X464307200Y-226366666D02*
X464354819Y-226223809D01*
X464354819Y-226223809D02*
X464354819Y-225985714D01*
X463450057Y-226938095D02*
X463402438Y-226985714D01*
X463402438Y-226985714D02*
X463354819Y-227080952D01*
X463354819Y-227080952D02*
X463354819Y-227319047D01*
X463354819Y-227319047D02*
X463402438Y-227414285D01*
X463402438Y-227414285D02*
X463450057Y-227461904D01*
X463450057Y-227461904D02*
X463545295Y-227509523D01*
X463545295Y-227509523D02*
X463640533Y-227509523D01*
X463640533Y-227509523D02*
X463783390Y-227461904D01*
X463783390Y-227461904D02*
X464354819Y-226890476D01*
X464354819Y-226890476D02*
X464354819Y-227509523D01*
X463354819Y-227842857D02*
X463354819Y-228461904D01*
X463354819Y-228461904D02*
X463735771Y-228128571D01*
X463735771Y-228128571D02*
X463735771Y-228271428D01*
X463735771Y-228271428D02*
X463783390Y-228366666D01*
X463783390Y-228366666D02*
X463831009Y-228414285D01*
X463831009Y-228414285D02*
X463926247Y-228461904D01*
X463926247Y-228461904D02*
X464164342Y-228461904D01*
X464164342Y-228461904D02*
X464259580Y-228414285D01*
X464259580Y-228414285D02*
X464307200Y-228366666D01*
X464307200Y-228366666D02*
X464354819Y-228271428D01*
X464354819Y-228271428D02*
X464354819Y-227985714D01*
X464354819Y-227985714D02*
X464307200Y-227890476D01*
X464307200Y-227890476D02*
X464259580Y-227842857D01*
X400154819Y-264085714D02*
X399154819Y-264085714D01*
X399154819Y-264085714D02*
X399154819Y-264323809D01*
X399154819Y-264323809D02*
X399202438Y-264466666D01*
X399202438Y-264466666D02*
X399297676Y-264561904D01*
X399297676Y-264561904D02*
X399392914Y-264609523D01*
X399392914Y-264609523D02*
X399583390Y-264657142D01*
X399583390Y-264657142D02*
X399726247Y-264657142D01*
X399726247Y-264657142D02*
X399916723Y-264609523D01*
X399916723Y-264609523D02*
X400011961Y-264561904D01*
X400011961Y-264561904D02*
X400107200Y-264466666D01*
X400107200Y-264466666D02*
X400154819Y-264323809D01*
X400154819Y-264323809D02*
X400154819Y-264085714D01*
X400154819Y-265609523D02*
X400154819Y-265038095D01*
X400154819Y-265323809D02*
X399154819Y-265323809D01*
X399154819Y-265323809D02*
X399297676Y-265228571D01*
X399297676Y-265228571D02*
X399392914Y-265133333D01*
X399392914Y-265133333D02*
X399440533Y-265038095D01*
X399154819Y-266228571D02*
X399154819Y-266323809D01*
X399154819Y-266323809D02*
X399202438Y-266419047D01*
X399202438Y-266419047D02*
X399250057Y-266466666D01*
X399250057Y-266466666D02*
X399345295Y-266514285D01*
X399345295Y-266514285D02*
X399535771Y-266561904D01*
X399535771Y-266561904D02*
X399773866Y-266561904D01*
X399773866Y-266561904D02*
X399964342Y-266514285D01*
X399964342Y-266514285D02*
X400059580Y-266466666D01*
X400059580Y-266466666D02*
X400107200Y-266419047D01*
X400107200Y-266419047D02*
X400154819Y-266323809D01*
X400154819Y-266323809D02*
X400154819Y-266228571D01*
X400154819Y-266228571D02*
X400107200Y-266133333D01*
X400107200Y-266133333D02*
X400059580Y-266085714D01*
X400059580Y-266085714D02*
X399964342Y-266038095D01*
X399964342Y-266038095D02*
X399773866Y-265990476D01*
X399773866Y-265990476D02*
X399535771Y-265990476D01*
X399535771Y-265990476D02*
X399345295Y-266038095D01*
X399345295Y-266038095D02*
X399250057Y-266085714D01*
X399250057Y-266085714D02*
X399202438Y-266133333D01*
X399202438Y-266133333D02*
X399154819Y-266228571D01*
X651479166Y-207434580D02*
X651526785Y-207482200D01*
X651526785Y-207482200D02*
X651669642Y-207529819D01*
X651669642Y-207529819D02*
X651764880Y-207529819D01*
X651764880Y-207529819D02*
X651907737Y-207482200D01*
X651907737Y-207482200D02*
X652002975Y-207386961D01*
X652002975Y-207386961D02*
X652050594Y-207291723D01*
X652050594Y-207291723D02*
X652098213Y-207101247D01*
X652098213Y-207101247D02*
X652098213Y-206958390D01*
X652098213Y-206958390D02*
X652050594Y-206767914D01*
X652050594Y-206767914D02*
X652002975Y-206672676D01*
X652002975Y-206672676D02*
X651907737Y-206577438D01*
X651907737Y-206577438D02*
X651764880Y-206529819D01*
X651764880Y-206529819D02*
X651669642Y-206529819D01*
X651669642Y-206529819D02*
X651526785Y-206577438D01*
X651526785Y-206577438D02*
X651479166Y-206625057D01*
X650526785Y-207529819D02*
X651098213Y-207529819D01*
X650812499Y-207529819D02*
X650812499Y-206529819D01*
X650812499Y-206529819D02*
X650907737Y-206672676D01*
X650907737Y-206672676D02*
X651002975Y-206767914D01*
X651002975Y-206767914D02*
X651098213Y-206815533D01*
X416754819Y-244985714D02*
X415754819Y-244985714D01*
X415754819Y-244985714D02*
X415754819Y-245223809D01*
X415754819Y-245223809D02*
X415802438Y-245366666D01*
X415802438Y-245366666D02*
X415897676Y-245461904D01*
X415897676Y-245461904D02*
X415992914Y-245509523D01*
X415992914Y-245509523D02*
X416183390Y-245557142D01*
X416183390Y-245557142D02*
X416326247Y-245557142D01*
X416326247Y-245557142D02*
X416516723Y-245509523D01*
X416516723Y-245509523D02*
X416611961Y-245461904D01*
X416611961Y-245461904D02*
X416707200Y-245366666D01*
X416707200Y-245366666D02*
X416754819Y-245223809D01*
X416754819Y-245223809D02*
X416754819Y-244985714D01*
X416754819Y-246509523D02*
X416754819Y-245938095D01*
X416754819Y-246223809D02*
X415754819Y-246223809D01*
X415754819Y-246223809D02*
X415897676Y-246128571D01*
X415897676Y-246128571D02*
X415992914Y-246033333D01*
X415992914Y-246033333D02*
X416040533Y-245938095D01*
X416088152Y-247366666D02*
X416754819Y-247366666D01*
X415707200Y-247128571D02*
X416421485Y-246890476D01*
X416421485Y-246890476D02*
X416421485Y-247509523D01*
X678689580Y-219770833D02*
X678737200Y-219723214D01*
X678737200Y-219723214D02*
X678784819Y-219580357D01*
X678784819Y-219580357D02*
X678784819Y-219485119D01*
X678784819Y-219485119D02*
X678737200Y-219342262D01*
X678737200Y-219342262D02*
X678641961Y-219247024D01*
X678641961Y-219247024D02*
X678546723Y-219199405D01*
X678546723Y-219199405D02*
X678356247Y-219151786D01*
X678356247Y-219151786D02*
X678213390Y-219151786D01*
X678213390Y-219151786D02*
X678022914Y-219199405D01*
X678022914Y-219199405D02*
X677927676Y-219247024D01*
X677927676Y-219247024D02*
X677832438Y-219342262D01*
X677832438Y-219342262D02*
X677784819Y-219485119D01*
X677784819Y-219485119D02*
X677784819Y-219580357D01*
X677784819Y-219580357D02*
X677832438Y-219723214D01*
X677832438Y-219723214D02*
X677880057Y-219770833D01*
X677784819Y-220104167D02*
X677784819Y-220770833D01*
X677784819Y-220770833D02*
X678784819Y-220342262D01*
X651604166Y-200289580D02*
X651651785Y-200337200D01*
X651651785Y-200337200D02*
X651794642Y-200384819D01*
X651794642Y-200384819D02*
X651889880Y-200384819D01*
X651889880Y-200384819D02*
X652032737Y-200337200D01*
X652032737Y-200337200D02*
X652127975Y-200241961D01*
X652127975Y-200241961D02*
X652175594Y-200146723D01*
X652175594Y-200146723D02*
X652223213Y-199956247D01*
X652223213Y-199956247D02*
X652223213Y-199813390D01*
X652223213Y-199813390D02*
X652175594Y-199622914D01*
X652175594Y-199622914D02*
X652127975Y-199527676D01*
X652127975Y-199527676D02*
X652032737Y-199432438D01*
X652032737Y-199432438D02*
X651889880Y-199384819D01*
X651889880Y-199384819D02*
X651794642Y-199384819D01*
X651794642Y-199384819D02*
X651651785Y-199432438D01*
X651651785Y-199432438D02*
X651604166Y-199480057D01*
X651223213Y-199480057D02*
X651175594Y-199432438D01*
X651175594Y-199432438D02*
X651080356Y-199384819D01*
X651080356Y-199384819D02*
X650842261Y-199384819D01*
X650842261Y-199384819D02*
X650747023Y-199432438D01*
X650747023Y-199432438D02*
X650699404Y-199480057D01*
X650699404Y-199480057D02*
X650651785Y-199575295D01*
X650651785Y-199575295D02*
X650651785Y-199670533D01*
X650651785Y-199670533D02*
X650699404Y-199813390D01*
X650699404Y-199813390D02*
X651270832Y-200384819D01*
X651270832Y-200384819D02*
X650651785Y-200384819D01*
X583454819Y-187885714D02*
X582454819Y-187885714D01*
X582454819Y-187885714D02*
X582454819Y-188123809D01*
X582454819Y-188123809D02*
X582502438Y-188266666D01*
X582502438Y-188266666D02*
X582597676Y-188361904D01*
X582597676Y-188361904D02*
X582692914Y-188409523D01*
X582692914Y-188409523D02*
X582883390Y-188457142D01*
X582883390Y-188457142D02*
X583026247Y-188457142D01*
X583026247Y-188457142D02*
X583216723Y-188409523D01*
X583216723Y-188409523D02*
X583311961Y-188361904D01*
X583311961Y-188361904D02*
X583407200Y-188266666D01*
X583407200Y-188266666D02*
X583454819Y-188123809D01*
X583454819Y-188123809D02*
X583454819Y-187885714D01*
X582454819Y-189361904D02*
X582454819Y-188885714D01*
X582454819Y-188885714D02*
X582931009Y-188838095D01*
X582931009Y-188838095D02*
X582883390Y-188885714D01*
X582883390Y-188885714D02*
X582835771Y-188980952D01*
X582835771Y-188980952D02*
X582835771Y-189219047D01*
X582835771Y-189219047D02*
X582883390Y-189314285D01*
X582883390Y-189314285D02*
X582931009Y-189361904D01*
X582931009Y-189361904D02*
X583026247Y-189409523D01*
X583026247Y-189409523D02*
X583264342Y-189409523D01*
X583264342Y-189409523D02*
X583359580Y-189361904D01*
X583359580Y-189361904D02*
X583407200Y-189314285D01*
X583407200Y-189314285D02*
X583454819Y-189219047D01*
X583454819Y-189219047D02*
X583454819Y-188980952D01*
X583454819Y-188980952D02*
X583407200Y-188885714D01*
X583407200Y-188885714D02*
X583359580Y-188838095D01*
X582454819Y-190266666D02*
X582454819Y-190076190D01*
X582454819Y-190076190D02*
X582502438Y-189980952D01*
X582502438Y-189980952D02*
X582550057Y-189933333D01*
X582550057Y-189933333D02*
X582692914Y-189838095D01*
X582692914Y-189838095D02*
X582883390Y-189790476D01*
X582883390Y-189790476D02*
X583264342Y-189790476D01*
X583264342Y-189790476D02*
X583359580Y-189838095D01*
X583359580Y-189838095D02*
X583407200Y-189885714D01*
X583407200Y-189885714D02*
X583454819Y-189980952D01*
X583454819Y-189980952D02*
X583454819Y-190171428D01*
X583454819Y-190171428D02*
X583407200Y-190266666D01*
X583407200Y-190266666D02*
X583359580Y-190314285D01*
X583359580Y-190314285D02*
X583264342Y-190361904D01*
X583264342Y-190361904D02*
X583026247Y-190361904D01*
X583026247Y-190361904D02*
X582931009Y-190314285D01*
X582931009Y-190314285D02*
X582883390Y-190266666D01*
X582883390Y-190266666D02*
X582835771Y-190171428D01*
X582835771Y-190171428D02*
X582835771Y-189980952D01*
X582835771Y-189980952D02*
X582883390Y-189885714D01*
X582883390Y-189885714D02*
X582931009Y-189838095D01*
X582931009Y-189838095D02*
X583026247Y-189790476D01*
X564454819Y-187885714D02*
X563454819Y-187885714D01*
X563454819Y-187885714D02*
X563454819Y-188123809D01*
X563454819Y-188123809D02*
X563502438Y-188266666D01*
X563502438Y-188266666D02*
X563597676Y-188361904D01*
X563597676Y-188361904D02*
X563692914Y-188409523D01*
X563692914Y-188409523D02*
X563883390Y-188457142D01*
X563883390Y-188457142D02*
X564026247Y-188457142D01*
X564026247Y-188457142D02*
X564216723Y-188409523D01*
X564216723Y-188409523D02*
X564311961Y-188361904D01*
X564311961Y-188361904D02*
X564407200Y-188266666D01*
X564407200Y-188266666D02*
X564454819Y-188123809D01*
X564454819Y-188123809D02*
X564454819Y-187885714D01*
X563454819Y-189361904D02*
X563454819Y-188885714D01*
X563454819Y-188885714D02*
X563931009Y-188838095D01*
X563931009Y-188838095D02*
X563883390Y-188885714D01*
X563883390Y-188885714D02*
X563835771Y-188980952D01*
X563835771Y-188980952D02*
X563835771Y-189219047D01*
X563835771Y-189219047D02*
X563883390Y-189314285D01*
X563883390Y-189314285D02*
X563931009Y-189361904D01*
X563931009Y-189361904D02*
X564026247Y-189409523D01*
X564026247Y-189409523D02*
X564264342Y-189409523D01*
X564264342Y-189409523D02*
X564359580Y-189361904D01*
X564359580Y-189361904D02*
X564407200Y-189314285D01*
X564407200Y-189314285D02*
X564454819Y-189219047D01*
X564454819Y-189219047D02*
X564454819Y-188980952D01*
X564454819Y-188980952D02*
X564407200Y-188885714D01*
X564407200Y-188885714D02*
X564359580Y-188838095D01*
X564454819Y-190361904D02*
X564454819Y-189790476D01*
X564454819Y-190076190D02*
X563454819Y-190076190D01*
X563454819Y-190076190D02*
X563597676Y-189980952D01*
X563597676Y-189980952D02*
X563692914Y-189885714D01*
X563692914Y-189885714D02*
X563740533Y-189790476D01*
X440654819Y-206835714D02*
X439654819Y-206835714D01*
X439654819Y-206835714D02*
X439654819Y-207073809D01*
X439654819Y-207073809D02*
X439702438Y-207216666D01*
X439702438Y-207216666D02*
X439797676Y-207311904D01*
X439797676Y-207311904D02*
X439892914Y-207359523D01*
X439892914Y-207359523D02*
X440083390Y-207407142D01*
X440083390Y-207407142D02*
X440226247Y-207407142D01*
X440226247Y-207407142D02*
X440416723Y-207359523D01*
X440416723Y-207359523D02*
X440511961Y-207311904D01*
X440511961Y-207311904D02*
X440607200Y-207216666D01*
X440607200Y-207216666D02*
X440654819Y-207073809D01*
X440654819Y-207073809D02*
X440654819Y-206835714D01*
X440654819Y-208359523D02*
X440654819Y-207788095D01*
X440654819Y-208073809D02*
X439654819Y-208073809D01*
X439654819Y-208073809D02*
X439797676Y-207978571D01*
X439797676Y-207978571D02*
X439892914Y-207883333D01*
X439892914Y-207883333D02*
X439940533Y-207788095D01*
X439654819Y-208692857D02*
X439654819Y-209359523D01*
X439654819Y-209359523D02*
X440654819Y-208930952D01*
X590554819Y-264085714D02*
X589554819Y-264085714D01*
X589554819Y-264085714D02*
X589554819Y-264323809D01*
X589554819Y-264323809D02*
X589602438Y-264466666D01*
X589602438Y-264466666D02*
X589697676Y-264561904D01*
X589697676Y-264561904D02*
X589792914Y-264609523D01*
X589792914Y-264609523D02*
X589983390Y-264657142D01*
X589983390Y-264657142D02*
X590126247Y-264657142D01*
X590126247Y-264657142D02*
X590316723Y-264609523D01*
X590316723Y-264609523D02*
X590411961Y-264561904D01*
X590411961Y-264561904D02*
X590507200Y-264466666D01*
X590507200Y-264466666D02*
X590554819Y-264323809D01*
X590554819Y-264323809D02*
X590554819Y-264085714D01*
X589554819Y-265561904D02*
X589554819Y-265085714D01*
X589554819Y-265085714D02*
X590031009Y-265038095D01*
X590031009Y-265038095D02*
X589983390Y-265085714D01*
X589983390Y-265085714D02*
X589935771Y-265180952D01*
X589935771Y-265180952D02*
X589935771Y-265419047D01*
X589935771Y-265419047D02*
X589983390Y-265514285D01*
X589983390Y-265514285D02*
X590031009Y-265561904D01*
X590031009Y-265561904D02*
X590126247Y-265609523D01*
X590126247Y-265609523D02*
X590364342Y-265609523D01*
X590364342Y-265609523D02*
X590459580Y-265561904D01*
X590459580Y-265561904D02*
X590507200Y-265514285D01*
X590507200Y-265514285D02*
X590554819Y-265419047D01*
X590554819Y-265419047D02*
X590554819Y-265180952D01*
X590554819Y-265180952D02*
X590507200Y-265085714D01*
X590507200Y-265085714D02*
X590459580Y-265038095D01*
X589554819Y-266514285D02*
X589554819Y-266038095D01*
X589554819Y-266038095D02*
X590031009Y-265990476D01*
X590031009Y-265990476D02*
X589983390Y-266038095D01*
X589983390Y-266038095D02*
X589935771Y-266133333D01*
X589935771Y-266133333D02*
X589935771Y-266371428D01*
X589935771Y-266371428D02*
X589983390Y-266466666D01*
X589983390Y-266466666D02*
X590031009Y-266514285D01*
X590031009Y-266514285D02*
X590126247Y-266561904D01*
X590126247Y-266561904D02*
X590364342Y-266561904D01*
X590364342Y-266561904D02*
X590459580Y-266514285D01*
X590459580Y-266514285D02*
X590507200Y-266466666D01*
X590507200Y-266466666D02*
X590554819Y-266371428D01*
X590554819Y-266371428D02*
X590554819Y-266133333D01*
X590554819Y-266133333D02*
X590507200Y-266038095D01*
X590507200Y-266038095D02*
X590459580Y-265990476D01*
X526254819Y-187885714D02*
X525254819Y-187885714D01*
X525254819Y-187885714D02*
X525254819Y-188123809D01*
X525254819Y-188123809D02*
X525302438Y-188266666D01*
X525302438Y-188266666D02*
X525397676Y-188361904D01*
X525397676Y-188361904D02*
X525492914Y-188409523D01*
X525492914Y-188409523D02*
X525683390Y-188457142D01*
X525683390Y-188457142D02*
X525826247Y-188457142D01*
X525826247Y-188457142D02*
X526016723Y-188409523D01*
X526016723Y-188409523D02*
X526111961Y-188361904D01*
X526111961Y-188361904D02*
X526207200Y-188266666D01*
X526207200Y-188266666D02*
X526254819Y-188123809D01*
X526254819Y-188123809D02*
X526254819Y-187885714D01*
X525588152Y-189314285D02*
X526254819Y-189314285D01*
X525207200Y-189076190D02*
X525921485Y-188838095D01*
X525921485Y-188838095D02*
X525921485Y-189457142D01*
X526254819Y-190361904D02*
X526254819Y-189790476D01*
X526254819Y-190076190D02*
X525254819Y-190076190D01*
X525254819Y-190076190D02*
X525397676Y-189980952D01*
X525397676Y-189980952D02*
X525492914Y-189885714D01*
X525492914Y-189885714D02*
X525540533Y-189790476D01*
X473954819Y-244985714D02*
X472954819Y-244985714D01*
X472954819Y-244985714D02*
X472954819Y-245223809D01*
X472954819Y-245223809D02*
X473002438Y-245366666D01*
X473002438Y-245366666D02*
X473097676Y-245461904D01*
X473097676Y-245461904D02*
X473192914Y-245509523D01*
X473192914Y-245509523D02*
X473383390Y-245557142D01*
X473383390Y-245557142D02*
X473526247Y-245557142D01*
X473526247Y-245557142D02*
X473716723Y-245509523D01*
X473716723Y-245509523D02*
X473811961Y-245461904D01*
X473811961Y-245461904D02*
X473907200Y-245366666D01*
X473907200Y-245366666D02*
X473954819Y-245223809D01*
X473954819Y-245223809D02*
X473954819Y-244985714D01*
X473050057Y-245938095D02*
X473002438Y-245985714D01*
X473002438Y-245985714D02*
X472954819Y-246080952D01*
X472954819Y-246080952D02*
X472954819Y-246319047D01*
X472954819Y-246319047D02*
X473002438Y-246414285D01*
X473002438Y-246414285D02*
X473050057Y-246461904D01*
X473050057Y-246461904D02*
X473145295Y-246509523D01*
X473145295Y-246509523D02*
X473240533Y-246509523D01*
X473240533Y-246509523D02*
X473383390Y-246461904D01*
X473383390Y-246461904D02*
X473954819Y-245890476D01*
X473954819Y-245890476D02*
X473954819Y-246509523D01*
X473954819Y-246985714D02*
X473954819Y-247176190D01*
X473954819Y-247176190D02*
X473907200Y-247271428D01*
X473907200Y-247271428D02*
X473859580Y-247319047D01*
X473859580Y-247319047D02*
X473716723Y-247414285D01*
X473716723Y-247414285D02*
X473526247Y-247461904D01*
X473526247Y-247461904D02*
X473145295Y-247461904D01*
X473145295Y-247461904D02*
X473050057Y-247414285D01*
X473050057Y-247414285D02*
X473002438Y-247366666D01*
X473002438Y-247366666D02*
X472954819Y-247271428D01*
X472954819Y-247271428D02*
X472954819Y-247080952D01*
X472954819Y-247080952D02*
X473002438Y-246985714D01*
X473002438Y-246985714D02*
X473050057Y-246938095D01*
X473050057Y-246938095D02*
X473145295Y-246890476D01*
X473145295Y-246890476D02*
X473383390Y-246890476D01*
X473383390Y-246890476D02*
X473478628Y-246938095D01*
X473478628Y-246938095D02*
X473526247Y-246985714D01*
X473526247Y-246985714D02*
X473573866Y-247080952D01*
X473573866Y-247080952D02*
X473573866Y-247271428D01*
X473573866Y-247271428D02*
X473526247Y-247366666D01*
X473526247Y-247366666D02*
X473478628Y-247414285D01*
X473478628Y-247414285D02*
X473383390Y-247461904D01*
X497754819Y-206885714D02*
X496754819Y-206885714D01*
X496754819Y-206885714D02*
X496754819Y-207123809D01*
X496754819Y-207123809D02*
X496802438Y-207266666D01*
X496802438Y-207266666D02*
X496897676Y-207361904D01*
X496897676Y-207361904D02*
X496992914Y-207409523D01*
X496992914Y-207409523D02*
X497183390Y-207457142D01*
X497183390Y-207457142D02*
X497326247Y-207457142D01*
X497326247Y-207457142D02*
X497516723Y-207409523D01*
X497516723Y-207409523D02*
X497611961Y-207361904D01*
X497611961Y-207361904D02*
X497707200Y-207266666D01*
X497707200Y-207266666D02*
X497754819Y-207123809D01*
X497754819Y-207123809D02*
X497754819Y-206885714D01*
X496754819Y-207790476D02*
X496754819Y-208409523D01*
X496754819Y-208409523D02*
X497135771Y-208076190D01*
X497135771Y-208076190D02*
X497135771Y-208219047D01*
X497135771Y-208219047D02*
X497183390Y-208314285D01*
X497183390Y-208314285D02*
X497231009Y-208361904D01*
X497231009Y-208361904D02*
X497326247Y-208409523D01*
X497326247Y-208409523D02*
X497564342Y-208409523D01*
X497564342Y-208409523D02*
X497659580Y-208361904D01*
X497659580Y-208361904D02*
X497707200Y-208314285D01*
X497707200Y-208314285D02*
X497754819Y-208219047D01*
X497754819Y-208219047D02*
X497754819Y-207933333D01*
X497754819Y-207933333D02*
X497707200Y-207838095D01*
X497707200Y-207838095D02*
X497659580Y-207790476D01*
X496850057Y-208790476D02*
X496802438Y-208838095D01*
X496802438Y-208838095D02*
X496754819Y-208933333D01*
X496754819Y-208933333D02*
X496754819Y-209171428D01*
X496754819Y-209171428D02*
X496802438Y-209266666D01*
X496802438Y-209266666D02*
X496850057Y-209314285D01*
X496850057Y-209314285D02*
X496945295Y-209361904D01*
X496945295Y-209361904D02*
X497040533Y-209361904D01*
X497040533Y-209361904D02*
X497183390Y-209314285D01*
X497183390Y-209314285D02*
X497754819Y-208742857D01*
X497754819Y-208742857D02*
X497754819Y-209361904D01*
X421554819Y-206885714D02*
X420554819Y-206885714D01*
X420554819Y-206885714D02*
X420554819Y-207123809D01*
X420554819Y-207123809D02*
X420602438Y-207266666D01*
X420602438Y-207266666D02*
X420697676Y-207361904D01*
X420697676Y-207361904D02*
X420792914Y-207409523D01*
X420792914Y-207409523D02*
X420983390Y-207457142D01*
X420983390Y-207457142D02*
X421126247Y-207457142D01*
X421126247Y-207457142D02*
X421316723Y-207409523D01*
X421316723Y-207409523D02*
X421411961Y-207361904D01*
X421411961Y-207361904D02*
X421507200Y-207266666D01*
X421507200Y-207266666D02*
X421554819Y-207123809D01*
X421554819Y-207123809D02*
X421554819Y-206885714D01*
X421554819Y-208409523D02*
X421554819Y-207838095D01*
X421554819Y-208123809D02*
X420554819Y-208123809D01*
X420554819Y-208123809D02*
X420697676Y-208028571D01*
X420697676Y-208028571D02*
X420792914Y-207933333D01*
X420792914Y-207933333D02*
X420840533Y-207838095D01*
X420650057Y-208790476D02*
X420602438Y-208838095D01*
X420602438Y-208838095D02*
X420554819Y-208933333D01*
X420554819Y-208933333D02*
X420554819Y-209171428D01*
X420554819Y-209171428D02*
X420602438Y-209266666D01*
X420602438Y-209266666D02*
X420650057Y-209314285D01*
X420650057Y-209314285D02*
X420745295Y-209361904D01*
X420745295Y-209361904D02*
X420840533Y-209361904D01*
X420840533Y-209361904D02*
X420983390Y-209314285D01*
X420983390Y-209314285D02*
X421554819Y-208742857D01*
X421554819Y-208742857D02*
X421554819Y-209361904D01*
X423954819Y-264085714D02*
X422954819Y-264085714D01*
X422954819Y-264085714D02*
X422954819Y-264323809D01*
X422954819Y-264323809D02*
X423002438Y-264466666D01*
X423002438Y-264466666D02*
X423097676Y-264561904D01*
X423097676Y-264561904D02*
X423192914Y-264609523D01*
X423192914Y-264609523D02*
X423383390Y-264657142D01*
X423383390Y-264657142D02*
X423526247Y-264657142D01*
X423526247Y-264657142D02*
X423716723Y-264609523D01*
X423716723Y-264609523D02*
X423811961Y-264561904D01*
X423811961Y-264561904D02*
X423907200Y-264466666D01*
X423907200Y-264466666D02*
X423954819Y-264323809D01*
X423954819Y-264323809D02*
X423954819Y-264085714D01*
X423954819Y-265609523D02*
X423954819Y-265038095D01*
X423954819Y-265323809D02*
X422954819Y-265323809D01*
X422954819Y-265323809D02*
X423097676Y-265228571D01*
X423097676Y-265228571D02*
X423192914Y-265133333D01*
X423192914Y-265133333D02*
X423240533Y-265038095D01*
X422954819Y-266514285D02*
X422954819Y-266038095D01*
X422954819Y-266038095D02*
X423431009Y-265990476D01*
X423431009Y-265990476D02*
X423383390Y-266038095D01*
X423383390Y-266038095D02*
X423335771Y-266133333D01*
X423335771Y-266133333D02*
X423335771Y-266371428D01*
X423335771Y-266371428D02*
X423383390Y-266466666D01*
X423383390Y-266466666D02*
X423431009Y-266514285D01*
X423431009Y-266514285D02*
X423526247Y-266561904D01*
X423526247Y-266561904D02*
X423764342Y-266561904D01*
X423764342Y-266561904D02*
X423859580Y-266514285D01*
X423859580Y-266514285D02*
X423907200Y-266466666D01*
X423907200Y-266466666D02*
X423954819Y-266371428D01*
X423954819Y-266371428D02*
X423954819Y-266133333D01*
X423954819Y-266133333D02*
X423907200Y-266038095D01*
X423907200Y-266038095D02*
X423859580Y-265990476D01*
X483454819Y-225985714D02*
X482454819Y-225985714D01*
X482454819Y-225985714D02*
X482454819Y-226223809D01*
X482454819Y-226223809D02*
X482502438Y-226366666D01*
X482502438Y-226366666D02*
X482597676Y-226461904D01*
X482597676Y-226461904D02*
X482692914Y-226509523D01*
X482692914Y-226509523D02*
X482883390Y-226557142D01*
X482883390Y-226557142D02*
X483026247Y-226557142D01*
X483026247Y-226557142D02*
X483216723Y-226509523D01*
X483216723Y-226509523D02*
X483311961Y-226461904D01*
X483311961Y-226461904D02*
X483407200Y-226366666D01*
X483407200Y-226366666D02*
X483454819Y-226223809D01*
X483454819Y-226223809D02*
X483454819Y-225985714D01*
X482550057Y-226938095D02*
X482502438Y-226985714D01*
X482502438Y-226985714D02*
X482454819Y-227080952D01*
X482454819Y-227080952D02*
X482454819Y-227319047D01*
X482454819Y-227319047D02*
X482502438Y-227414285D01*
X482502438Y-227414285D02*
X482550057Y-227461904D01*
X482550057Y-227461904D02*
X482645295Y-227509523D01*
X482645295Y-227509523D02*
X482740533Y-227509523D01*
X482740533Y-227509523D02*
X482883390Y-227461904D01*
X482883390Y-227461904D02*
X483454819Y-226890476D01*
X483454819Y-226890476D02*
X483454819Y-227509523D01*
X482883390Y-228080952D02*
X482835771Y-227985714D01*
X482835771Y-227985714D02*
X482788152Y-227938095D01*
X482788152Y-227938095D02*
X482692914Y-227890476D01*
X482692914Y-227890476D02*
X482645295Y-227890476D01*
X482645295Y-227890476D02*
X482550057Y-227938095D01*
X482550057Y-227938095D02*
X482502438Y-227985714D01*
X482502438Y-227985714D02*
X482454819Y-228080952D01*
X482454819Y-228080952D02*
X482454819Y-228271428D01*
X482454819Y-228271428D02*
X482502438Y-228366666D01*
X482502438Y-228366666D02*
X482550057Y-228414285D01*
X482550057Y-228414285D02*
X482645295Y-228461904D01*
X482645295Y-228461904D02*
X482692914Y-228461904D01*
X482692914Y-228461904D02*
X482788152Y-228414285D01*
X482788152Y-228414285D02*
X482835771Y-228366666D01*
X482835771Y-228366666D02*
X482883390Y-228271428D01*
X482883390Y-228271428D02*
X482883390Y-228080952D01*
X482883390Y-228080952D02*
X482931009Y-227985714D01*
X482931009Y-227985714D02*
X482978628Y-227938095D01*
X482978628Y-227938095D02*
X483073866Y-227890476D01*
X483073866Y-227890476D02*
X483264342Y-227890476D01*
X483264342Y-227890476D02*
X483359580Y-227938095D01*
X483359580Y-227938095D02*
X483407200Y-227985714D01*
X483407200Y-227985714D02*
X483454819Y-228080952D01*
X483454819Y-228080952D02*
X483454819Y-228271428D01*
X483454819Y-228271428D02*
X483407200Y-228366666D01*
X483407200Y-228366666D02*
X483359580Y-228414285D01*
X483359580Y-228414285D02*
X483264342Y-228461904D01*
X483264342Y-228461904D02*
X483073866Y-228461904D01*
X483073866Y-228461904D02*
X482978628Y-228414285D01*
X482978628Y-228414285D02*
X482931009Y-228366666D01*
X482931009Y-228366666D02*
X482883390Y-228271428D01*
X649624819Y-180933333D02*
X649148628Y-180600000D01*
X649624819Y-180361905D02*
X648624819Y-180361905D01*
X648624819Y-180361905D02*
X648624819Y-180742857D01*
X648624819Y-180742857D02*
X648672438Y-180838095D01*
X648672438Y-180838095D02*
X648720057Y-180885714D01*
X648720057Y-180885714D02*
X648815295Y-180933333D01*
X648815295Y-180933333D02*
X648958152Y-180933333D01*
X648958152Y-180933333D02*
X649053390Y-180885714D01*
X649053390Y-180885714D02*
X649101009Y-180838095D01*
X649101009Y-180838095D02*
X649148628Y-180742857D01*
X649148628Y-180742857D02*
X649148628Y-180361905D01*
X648624819Y-181266667D02*
X648624819Y-181885714D01*
X648624819Y-181885714D02*
X649005771Y-181552381D01*
X649005771Y-181552381D02*
X649005771Y-181695238D01*
X649005771Y-181695238D02*
X649053390Y-181790476D01*
X649053390Y-181790476D02*
X649101009Y-181838095D01*
X649101009Y-181838095D02*
X649196247Y-181885714D01*
X649196247Y-181885714D02*
X649434342Y-181885714D01*
X649434342Y-181885714D02*
X649529580Y-181838095D01*
X649529580Y-181838095D02*
X649577200Y-181790476D01*
X649577200Y-181790476D02*
X649624819Y-181695238D01*
X649624819Y-181695238D02*
X649624819Y-181409524D01*
X649624819Y-181409524D02*
X649577200Y-181314286D01*
X649577200Y-181314286D02*
X649529580Y-181266667D01*
X378654819Y-207411905D02*
X377654819Y-207411905D01*
X377654819Y-207411905D02*
X377654819Y-207650000D01*
X377654819Y-207650000D02*
X377702438Y-207792857D01*
X377702438Y-207792857D02*
X377797676Y-207888095D01*
X377797676Y-207888095D02*
X377892914Y-207935714D01*
X377892914Y-207935714D02*
X378083390Y-207983333D01*
X378083390Y-207983333D02*
X378226247Y-207983333D01*
X378226247Y-207983333D02*
X378416723Y-207935714D01*
X378416723Y-207935714D02*
X378511961Y-207888095D01*
X378511961Y-207888095D02*
X378607200Y-207792857D01*
X378607200Y-207792857D02*
X378654819Y-207650000D01*
X378654819Y-207650000D02*
X378654819Y-207411905D01*
X377750057Y-208364286D02*
X377702438Y-208411905D01*
X377702438Y-208411905D02*
X377654819Y-208507143D01*
X377654819Y-208507143D02*
X377654819Y-208745238D01*
X377654819Y-208745238D02*
X377702438Y-208840476D01*
X377702438Y-208840476D02*
X377750057Y-208888095D01*
X377750057Y-208888095D02*
X377845295Y-208935714D01*
X377845295Y-208935714D02*
X377940533Y-208935714D01*
X377940533Y-208935714D02*
X378083390Y-208888095D01*
X378083390Y-208888095D02*
X378654819Y-208316667D01*
X378654819Y-208316667D02*
X378654819Y-208935714D01*
X648524819Y-180933333D02*
X648048628Y-180600000D01*
X648524819Y-180361905D02*
X647524819Y-180361905D01*
X647524819Y-180361905D02*
X647524819Y-180742857D01*
X647524819Y-180742857D02*
X647572438Y-180838095D01*
X647572438Y-180838095D02*
X647620057Y-180885714D01*
X647620057Y-180885714D02*
X647715295Y-180933333D01*
X647715295Y-180933333D02*
X647858152Y-180933333D01*
X647858152Y-180933333D02*
X647953390Y-180885714D01*
X647953390Y-180885714D02*
X648001009Y-180838095D01*
X648001009Y-180838095D02*
X648048628Y-180742857D01*
X648048628Y-180742857D02*
X648048628Y-180361905D01*
X647858152Y-181790476D02*
X648524819Y-181790476D01*
X647477200Y-181552381D02*
X648191485Y-181314286D01*
X648191485Y-181314286D02*
X648191485Y-181933333D01*
X502554819Y-225985714D02*
X501554819Y-225985714D01*
X501554819Y-225985714D02*
X501554819Y-226223809D01*
X501554819Y-226223809D02*
X501602438Y-226366666D01*
X501602438Y-226366666D02*
X501697676Y-226461904D01*
X501697676Y-226461904D02*
X501792914Y-226509523D01*
X501792914Y-226509523D02*
X501983390Y-226557142D01*
X501983390Y-226557142D02*
X502126247Y-226557142D01*
X502126247Y-226557142D02*
X502316723Y-226509523D01*
X502316723Y-226509523D02*
X502411961Y-226461904D01*
X502411961Y-226461904D02*
X502507200Y-226366666D01*
X502507200Y-226366666D02*
X502554819Y-226223809D01*
X502554819Y-226223809D02*
X502554819Y-225985714D01*
X501554819Y-226890476D02*
X501554819Y-227509523D01*
X501554819Y-227509523D02*
X501935771Y-227176190D01*
X501935771Y-227176190D02*
X501935771Y-227319047D01*
X501935771Y-227319047D02*
X501983390Y-227414285D01*
X501983390Y-227414285D02*
X502031009Y-227461904D01*
X502031009Y-227461904D02*
X502126247Y-227509523D01*
X502126247Y-227509523D02*
X502364342Y-227509523D01*
X502364342Y-227509523D02*
X502459580Y-227461904D01*
X502459580Y-227461904D02*
X502507200Y-227414285D01*
X502507200Y-227414285D02*
X502554819Y-227319047D01*
X502554819Y-227319047D02*
X502554819Y-227033333D01*
X502554819Y-227033333D02*
X502507200Y-226938095D01*
X502507200Y-226938095D02*
X502459580Y-226890476D01*
X501554819Y-227842857D02*
X501554819Y-228461904D01*
X501554819Y-228461904D02*
X501935771Y-228128571D01*
X501935771Y-228128571D02*
X501935771Y-228271428D01*
X501935771Y-228271428D02*
X501983390Y-228366666D01*
X501983390Y-228366666D02*
X502031009Y-228414285D01*
X502031009Y-228414285D02*
X502126247Y-228461904D01*
X502126247Y-228461904D02*
X502364342Y-228461904D01*
X502364342Y-228461904D02*
X502459580Y-228414285D01*
X502459580Y-228414285D02*
X502507200Y-228366666D01*
X502507200Y-228366666D02*
X502554819Y-228271428D01*
X502554819Y-228271428D02*
X502554819Y-227985714D01*
X502554819Y-227985714D02*
X502507200Y-227890476D01*
X502507200Y-227890476D02*
X502459580Y-227842857D01*
X663759580Y-211308333D02*
X663807200Y-211260714D01*
X663807200Y-211260714D02*
X663854819Y-211117857D01*
X663854819Y-211117857D02*
X663854819Y-211022619D01*
X663854819Y-211022619D02*
X663807200Y-210879762D01*
X663807200Y-210879762D02*
X663711961Y-210784524D01*
X663711961Y-210784524D02*
X663616723Y-210736905D01*
X663616723Y-210736905D02*
X663426247Y-210689286D01*
X663426247Y-210689286D02*
X663283390Y-210689286D01*
X663283390Y-210689286D02*
X663092914Y-210736905D01*
X663092914Y-210736905D02*
X662997676Y-210784524D01*
X662997676Y-210784524D02*
X662902438Y-210879762D01*
X662902438Y-210879762D02*
X662854819Y-211022619D01*
X662854819Y-211022619D02*
X662854819Y-211117857D01*
X662854819Y-211117857D02*
X662902438Y-211260714D01*
X662902438Y-211260714D02*
X662950057Y-211308333D01*
X662854819Y-212213095D02*
X662854819Y-211736905D01*
X662854819Y-211736905D02*
X663331009Y-211689286D01*
X663331009Y-211689286D02*
X663283390Y-211736905D01*
X663283390Y-211736905D02*
X663235771Y-211832143D01*
X663235771Y-211832143D02*
X663235771Y-212070238D01*
X663235771Y-212070238D02*
X663283390Y-212165476D01*
X663283390Y-212165476D02*
X663331009Y-212213095D01*
X663331009Y-212213095D02*
X663426247Y-212260714D01*
X663426247Y-212260714D02*
X663664342Y-212260714D01*
X663664342Y-212260714D02*
X663759580Y-212213095D01*
X663759580Y-212213095D02*
X663807200Y-212165476D01*
X663807200Y-212165476D02*
X663854819Y-212070238D01*
X663854819Y-212070238D02*
X663854819Y-211832143D01*
X663854819Y-211832143D02*
X663807200Y-211736905D01*
X663807200Y-211736905D02*
X663759580Y-211689286D01*
X454854819Y-245035714D02*
X453854819Y-245035714D01*
X453854819Y-245035714D02*
X453854819Y-245273809D01*
X453854819Y-245273809D02*
X453902438Y-245416666D01*
X453902438Y-245416666D02*
X453997676Y-245511904D01*
X453997676Y-245511904D02*
X454092914Y-245559523D01*
X454092914Y-245559523D02*
X454283390Y-245607142D01*
X454283390Y-245607142D02*
X454426247Y-245607142D01*
X454426247Y-245607142D02*
X454616723Y-245559523D01*
X454616723Y-245559523D02*
X454711961Y-245511904D01*
X454711961Y-245511904D02*
X454807200Y-245416666D01*
X454807200Y-245416666D02*
X454854819Y-245273809D01*
X454854819Y-245273809D02*
X454854819Y-245035714D01*
X453950057Y-245988095D02*
X453902438Y-246035714D01*
X453902438Y-246035714D02*
X453854819Y-246130952D01*
X453854819Y-246130952D02*
X453854819Y-246369047D01*
X453854819Y-246369047D02*
X453902438Y-246464285D01*
X453902438Y-246464285D02*
X453950057Y-246511904D01*
X453950057Y-246511904D02*
X454045295Y-246559523D01*
X454045295Y-246559523D02*
X454140533Y-246559523D01*
X454140533Y-246559523D02*
X454283390Y-246511904D01*
X454283390Y-246511904D02*
X454854819Y-245940476D01*
X454854819Y-245940476D02*
X454854819Y-246559523D01*
X454188152Y-247416666D02*
X454854819Y-247416666D01*
X453807200Y-247178571D02*
X454521485Y-246940476D01*
X454521485Y-246940476D02*
X454521485Y-247559523D01*
X593054819Y-206935714D02*
X592054819Y-206935714D01*
X592054819Y-206935714D02*
X592054819Y-207173809D01*
X592054819Y-207173809D02*
X592102438Y-207316666D01*
X592102438Y-207316666D02*
X592197676Y-207411904D01*
X592197676Y-207411904D02*
X592292914Y-207459523D01*
X592292914Y-207459523D02*
X592483390Y-207507142D01*
X592483390Y-207507142D02*
X592626247Y-207507142D01*
X592626247Y-207507142D02*
X592816723Y-207459523D01*
X592816723Y-207459523D02*
X592911961Y-207411904D01*
X592911961Y-207411904D02*
X593007200Y-207316666D01*
X593007200Y-207316666D02*
X593054819Y-207173809D01*
X593054819Y-207173809D02*
X593054819Y-206935714D01*
X592054819Y-208411904D02*
X592054819Y-207935714D01*
X592054819Y-207935714D02*
X592531009Y-207888095D01*
X592531009Y-207888095D02*
X592483390Y-207935714D01*
X592483390Y-207935714D02*
X592435771Y-208030952D01*
X592435771Y-208030952D02*
X592435771Y-208269047D01*
X592435771Y-208269047D02*
X592483390Y-208364285D01*
X592483390Y-208364285D02*
X592531009Y-208411904D01*
X592531009Y-208411904D02*
X592626247Y-208459523D01*
X592626247Y-208459523D02*
X592864342Y-208459523D01*
X592864342Y-208459523D02*
X592959580Y-208411904D01*
X592959580Y-208411904D02*
X593007200Y-208364285D01*
X593007200Y-208364285D02*
X593054819Y-208269047D01*
X593054819Y-208269047D02*
X593054819Y-208030952D01*
X593054819Y-208030952D02*
X593007200Y-207935714D01*
X593007200Y-207935714D02*
X592959580Y-207888095D01*
X592054819Y-208792857D02*
X592054819Y-209459523D01*
X592054819Y-209459523D02*
X593054819Y-209030952D01*
X673759580Y-219633333D02*
X673807200Y-219585714D01*
X673807200Y-219585714D02*
X673854819Y-219442857D01*
X673854819Y-219442857D02*
X673854819Y-219347619D01*
X673854819Y-219347619D02*
X673807200Y-219204762D01*
X673807200Y-219204762D02*
X673711961Y-219109524D01*
X673711961Y-219109524D02*
X673616723Y-219061905D01*
X673616723Y-219061905D02*
X673426247Y-219014286D01*
X673426247Y-219014286D02*
X673283390Y-219014286D01*
X673283390Y-219014286D02*
X673092914Y-219061905D01*
X673092914Y-219061905D02*
X672997676Y-219109524D01*
X672997676Y-219109524D02*
X672902438Y-219204762D01*
X672902438Y-219204762D02*
X672854819Y-219347619D01*
X672854819Y-219347619D02*
X672854819Y-219442857D01*
X672854819Y-219442857D02*
X672902438Y-219585714D01*
X672902438Y-219585714D02*
X672950057Y-219633333D01*
X672854819Y-220490476D02*
X672854819Y-220300000D01*
X672854819Y-220300000D02*
X672902438Y-220204762D01*
X672902438Y-220204762D02*
X672950057Y-220157143D01*
X672950057Y-220157143D02*
X673092914Y-220061905D01*
X673092914Y-220061905D02*
X673283390Y-220014286D01*
X673283390Y-220014286D02*
X673664342Y-220014286D01*
X673664342Y-220014286D02*
X673759580Y-220061905D01*
X673759580Y-220061905D02*
X673807200Y-220109524D01*
X673807200Y-220109524D02*
X673854819Y-220204762D01*
X673854819Y-220204762D02*
X673854819Y-220395238D01*
X673854819Y-220395238D02*
X673807200Y-220490476D01*
X673807200Y-220490476D02*
X673759580Y-220538095D01*
X673759580Y-220538095D02*
X673664342Y-220585714D01*
X673664342Y-220585714D02*
X673426247Y-220585714D01*
X673426247Y-220585714D02*
X673331009Y-220538095D01*
X673331009Y-220538095D02*
X673283390Y-220490476D01*
X673283390Y-220490476D02*
X673235771Y-220395238D01*
X673235771Y-220395238D02*
X673235771Y-220204762D01*
X673235771Y-220204762D02*
X673283390Y-220109524D01*
X673283390Y-220109524D02*
X673331009Y-220061905D01*
X673331009Y-220061905D02*
X673426247Y-220014286D01*
X381054819Y-226361905D02*
X380054819Y-226361905D01*
X380054819Y-226361905D02*
X380054819Y-226600000D01*
X380054819Y-226600000D02*
X380102438Y-226742857D01*
X380102438Y-226742857D02*
X380197676Y-226838095D01*
X380197676Y-226838095D02*
X380292914Y-226885714D01*
X380292914Y-226885714D02*
X380483390Y-226933333D01*
X380483390Y-226933333D02*
X380626247Y-226933333D01*
X380626247Y-226933333D02*
X380816723Y-226885714D01*
X380816723Y-226885714D02*
X380911961Y-226838095D01*
X380911961Y-226838095D02*
X381007200Y-226742857D01*
X381007200Y-226742857D02*
X381054819Y-226600000D01*
X381054819Y-226600000D02*
X381054819Y-226361905D01*
X380054819Y-227266667D02*
X380054819Y-227885714D01*
X380054819Y-227885714D02*
X380435771Y-227552381D01*
X380435771Y-227552381D02*
X380435771Y-227695238D01*
X380435771Y-227695238D02*
X380483390Y-227790476D01*
X380483390Y-227790476D02*
X380531009Y-227838095D01*
X380531009Y-227838095D02*
X380626247Y-227885714D01*
X380626247Y-227885714D02*
X380864342Y-227885714D01*
X380864342Y-227885714D02*
X380959580Y-227838095D01*
X380959580Y-227838095D02*
X381007200Y-227790476D01*
X381007200Y-227790476D02*
X381054819Y-227695238D01*
X381054819Y-227695238D02*
X381054819Y-227409524D01*
X381054819Y-227409524D02*
X381007200Y-227314286D01*
X381007200Y-227314286D02*
X380959580Y-227266667D01*
X597754819Y-225985714D02*
X596754819Y-225985714D01*
X596754819Y-225985714D02*
X596754819Y-226223809D01*
X596754819Y-226223809D02*
X596802438Y-226366666D01*
X596802438Y-226366666D02*
X596897676Y-226461904D01*
X596897676Y-226461904D02*
X596992914Y-226509523D01*
X596992914Y-226509523D02*
X597183390Y-226557142D01*
X597183390Y-226557142D02*
X597326247Y-226557142D01*
X597326247Y-226557142D02*
X597516723Y-226509523D01*
X597516723Y-226509523D02*
X597611961Y-226461904D01*
X597611961Y-226461904D02*
X597707200Y-226366666D01*
X597707200Y-226366666D02*
X597754819Y-226223809D01*
X597754819Y-226223809D02*
X597754819Y-225985714D01*
X596754819Y-227461904D02*
X596754819Y-226985714D01*
X596754819Y-226985714D02*
X597231009Y-226938095D01*
X597231009Y-226938095D02*
X597183390Y-226985714D01*
X597183390Y-226985714D02*
X597135771Y-227080952D01*
X597135771Y-227080952D02*
X597135771Y-227319047D01*
X597135771Y-227319047D02*
X597183390Y-227414285D01*
X597183390Y-227414285D02*
X597231009Y-227461904D01*
X597231009Y-227461904D02*
X597326247Y-227509523D01*
X597326247Y-227509523D02*
X597564342Y-227509523D01*
X597564342Y-227509523D02*
X597659580Y-227461904D01*
X597659580Y-227461904D02*
X597707200Y-227414285D01*
X597707200Y-227414285D02*
X597754819Y-227319047D01*
X597754819Y-227319047D02*
X597754819Y-227080952D01*
X597754819Y-227080952D02*
X597707200Y-226985714D01*
X597707200Y-226985714D02*
X597659580Y-226938095D01*
X597183390Y-228080952D02*
X597135771Y-227985714D01*
X597135771Y-227985714D02*
X597088152Y-227938095D01*
X597088152Y-227938095D02*
X596992914Y-227890476D01*
X596992914Y-227890476D02*
X596945295Y-227890476D01*
X596945295Y-227890476D02*
X596850057Y-227938095D01*
X596850057Y-227938095D02*
X596802438Y-227985714D01*
X596802438Y-227985714D02*
X596754819Y-228080952D01*
X596754819Y-228080952D02*
X596754819Y-228271428D01*
X596754819Y-228271428D02*
X596802438Y-228366666D01*
X596802438Y-228366666D02*
X596850057Y-228414285D01*
X596850057Y-228414285D02*
X596945295Y-228461904D01*
X596945295Y-228461904D02*
X596992914Y-228461904D01*
X596992914Y-228461904D02*
X597088152Y-228414285D01*
X597088152Y-228414285D02*
X597135771Y-228366666D01*
X597135771Y-228366666D02*
X597183390Y-228271428D01*
X597183390Y-228271428D02*
X597183390Y-228080952D01*
X597183390Y-228080952D02*
X597231009Y-227985714D01*
X597231009Y-227985714D02*
X597278628Y-227938095D01*
X597278628Y-227938095D02*
X597373866Y-227890476D01*
X597373866Y-227890476D02*
X597564342Y-227890476D01*
X597564342Y-227890476D02*
X597659580Y-227938095D01*
X597659580Y-227938095D02*
X597707200Y-227985714D01*
X597707200Y-227985714D02*
X597754819Y-228080952D01*
X597754819Y-228080952D02*
X597754819Y-228271428D01*
X597754819Y-228271428D02*
X597707200Y-228366666D01*
X597707200Y-228366666D02*
X597659580Y-228414285D01*
X597659580Y-228414285D02*
X597564342Y-228461904D01*
X597564342Y-228461904D02*
X597373866Y-228461904D01*
X597373866Y-228461904D02*
X597278628Y-228414285D01*
X597278628Y-228414285D02*
X597231009Y-228366666D01*
X597231009Y-228366666D02*
X597183390Y-228271428D01*
X673533333Y-173254819D02*
X673533333Y-173969104D01*
X673533333Y-173969104D02*
X673580952Y-174111961D01*
X673580952Y-174111961D02*
X673676190Y-174207200D01*
X673676190Y-174207200D02*
X673819047Y-174254819D01*
X673819047Y-174254819D02*
X673914285Y-174254819D01*
X672580952Y-173254819D02*
X673057142Y-173254819D01*
X673057142Y-173254819D02*
X673104761Y-173731009D01*
X673104761Y-173731009D02*
X673057142Y-173683390D01*
X673057142Y-173683390D02*
X672961904Y-173635771D01*
X672961904Y-173635771D02*
X672723809Y-173635771D01*
X672723809Y-173635771D02*
X672628571Y-173683390D01*
X672628571Y-173683390D02*
X672580952Y-173731009D01*
X672580952Y-173731009D02*
X672533333Y-173826247D01*
X672533333Y-173826247D02*
X672533333Y-174064342D01*
X672533333Y-174064342D02*
X672580952Y-174159580D01*
X672580952Y-174159580D02*
X672628571Y-174207200D01*
X672628571Y-174207200D02*
X672723809Y-174254819D01*
X672723809Y-174254819D02*
X672961904Y-174254819D01*
X672961904Y-174254819D02*
X673057142Y-174207200D01*
X673057142Y-174207200D02*
X673104761Y-174159580D01*
X628754819Y-225935714D02*
X627754819Y-225935714D01*
X627754819Y-225935714D02*
X627754819Y-226173809D01*
X627754819Y-226173809D02*
X627802438Y-226316666D01*
X627802438Y-226316666D02*
X627897676Y-226411904D01*
X627897676Y-226411904D02*
X627992914Y-226459523D01*
X627992914Y-226459523D02*
X628183390Y-226507142D01*
X628183390Y-226507142D02*
X628326247Y-226507142D01*
X628326247Y-226507142D02*
X628516723Y-226459523D01*
X628516723Y-226459523D02*
X628611961Y-226411904D01*
X628611961Y-226411904D02*
X628707200Y-226316666D01*
X628707200Y-226316666D02*
X628754819Y-226173809D01*
X628754819Y-226173809D02*
X628754819Y-225935714D01*
X627754819Y-227364285D02*
X627754819Y-227173809D01*
X627754819Y-227173809D02*
X627802438Y-227078571D01*
X627802438Y-227078571D02*
X627850057Y-227030952D01*
X627850057Y-227030952D02*
X627992914Y-226935714D01*
X627992914Y-226935714D02*
X628183390Y-226888095D01*
X628183390Y-226888095D02*
X628564342Y-226888095D01*
X628564342Y-226888095D02*
X628659580Y-226935714D01*
X628659580Y-226935714D02*
X628707200Y-226983333D01*
X628707200Y-226983333D02*
X628754819Y-227078571D01*
X628754819Y-227078571D02*
X628754819Y-227269047D01*
X628754819Y-227269047D02*
X628707200Y-227364285D01*
X628707200Y-227364285D02*
X628659580Y-227411904D01*
X628659580Y-227411904D02*
X628564342Y-227459523D01*
X628564342Y-227459523D02*
X628326247Y-227459523D01*
X628326247Y-227459523D02*
X628231009Y-227411904D01*
X628231009Y-227411904D02*
X628183390Y-227364285D01*
X628183390Y-227364285D02*
X628135771Y-227269047D01*
X628135771Y-227269047D02*
X628135771Y-227078571D01*
X628135771Y-227078571D02*
X628183390Y-226983333D01*
X628183390Y-226983333D02*
X628231009Y-226935714D01*
X628231009Y-226935714D02*
X628326247Y-226888095D01*
X628183390Y-228030952D02*
X628135771Y-227935714D01*
X628135771Y-227935714D02*
X628088152Y-227888095D01*
X628088152Y-227888095D02*
X627992914Y-227840476D01*
X627992914Y-227840476D02*
X627945295Y-227840476D01*
X627945295Y-227840476D02*
X627850057Y-227888095D01*
X627850057Y-227888095D02*
X627802438Y-227935714D01*
X627802438Y-227935714D02*
X627754819Y-228030952D01*
X627754819Y-228030952D02*
X627754819Y-228221428D01*
X627754819Y-228221428D02*
X627802438Y-228316666D01*
X627802438Y-228316666D02*
X627850057Y-228364285D01*
X627850057Y-228364285D02*
X627945295Y-228411904D01*
X627945295Y-228411904D02*
X627992914Y-228411904D01*
X627992914Y-228411904D02*
X628088152Y-228364285D01*
X628088152Y-228364285D02*
X628135771Y-228316666D01*
X628135771Y-228316666D02*
X628183390Y-228221428D01*
X628183390Y-228221428D02*
X628183390Y-228030952D01*
X628183390Y-228030952D02*
X628231009Y-227935714D01*
X628231009Y-227935714D02*
X628278628Y-227888095D01*
X628278628Y-227888095D02*
X628373866Y-227840476D01*
X628373866Y-227840476D02*
X628564342Y-227840476D01*
X628564342Y-227840476D02*
X628659580Y-227888095D01*
X628659580Y-227888095D02*
X628707200Y-227935714D01*
X628707200Y-227935714D02*
X628754819Y-228030952D01*
X628754819Y-228030952D02*
X628754819Y-228221428D01*
X628754819Y-228221428D02*
X628707200Y-228316666D01*
X628707200Y-228316666D02*
X628659580Y-228364285D01*
X628659580Y-228364285D02*
X628564342Y-228411904D01*
X628564342Y-228411904D02*
X628373866Y-228411904D01*
X628373866Y-228411904D02*
X628278628Y-228364285D01*
X628278628Y-228364285D02*
X628231009Y-228316666D01*
X628231009Y-228316666D02*
X628183390Y-228221428D01*
X507254819Y-187885714D02*
X506254819Y-187885714D01*
X506254819Y-187885714D02*
X506254819Y-188123809D01*
X506254819Y-188123809D02*
X506302438Y-188266666D01*
X506302438Y-188266666D02*
X506397676Y-188361904D01*
X506397676Y-188361904D02*
X506492914Y-188409523D01*
X506492914Y-188409523D02*
X506683390Y-188457142D01*
X506683390Y-188457142D02*
X506826247Y-188457142D01*
X506826247Y-188457142D02*
X507016723Y-188409523D01*
X507016723Y-188409523D02*
X507111961Y-188361904D01*
X507111961Y-188361904D02*
X507207200Y-188266666D01*
X507207200Y-188266666D02*
X507254819Y-188123809D01*
X507254819Y-188123809D02*
X507254819Y-187885714D01*
X506254819Y-188790476D02*
X506254819Y-189409523D01*
X506254819Y-189409523D02*
X506635771Y-189076190D01*
X506635771Y-189076190D02*
X506635771Y-189219047D01*
X506635771Y-189219047D02*
X506683390Y-189314285D01*
X506683390Y-189314285D02*
X506731009Y-189361904D01*
X506731009Y-189361904D02*
X506826247Y-189409523D01*
X506826247Y-189409523D02*
X507064342Y-189409523D01*
X507064342Y-189409523D02*
X507159580Y-189361904D01*
X507159580Y-189361904D02*
X507207200Y-189314285D01*
X507207200Y-189314285D02*
X507254819Y-189219047D01*
X507254819Y-189219047D02*
X507254819Y-188933333D01*
X507254819Y-188933333D02*
X507207200Y-188838095D01*
X507207200Y-188838095D02*
X507159580Y-188790476D01*
X506254819Y-190266666D02*
X506254819Y-190076190D01*
X506254819Y-190076190D02*
X506302438Y-189980952D01*
X506302438Y-189980952D02*
X506350057Y-189933333D01*
X506350057Y-189933333D02*
X506492914Y-189838095D01*
X506492914Y-189838095D02*
X506683390Y-189790476D01*
X506683390Y-189790476D02*
X507064342Y-189790476D01*
X507064342Y-189790476D02*
X507159580Y-189838095D01*
X507159580Y-189838095D02*
X507207200Y-189885714D01*
X507207200Y-189885714D02*
X507254819Y-189980952D01*
X507254819Y-189980952D02*
X507254819Y-190171428D01*
X507254819Y-190171428D02*
X507207200Y-190266666D01*
X507207200Y-190266666D02*
X507159580Y-190314285D01*
X507159580Y-190314285D02*
X507064342Y-190361904D01*
X507064342Y-190361904D02*
X506826247Y-190361904D01*
X506826247Y-190361904D02*
X506731009Y-190314285D01*
X506731009Y-190314285D02*
X506683390Y-190266666D01*
X506683390Y-190266666D02*
X506635771Y-190171428D01*
X506635771Y-190171428D02*
X506635771Y-189980952D01*
X506635771Y-189980952D02*
X506683390Y-189885714D01*
X506683390Y-189885714D02*
X506731009Y-189838095D01*
X506731009Y-189838095D02*
X506826247Y-189790476D01*
X658342857Y-214534580D02*
X658390476Y-214582200D01*
X658390476Y-214582200D02*
X658533333Y-214629819D01*
X658533333Y-214629819D02*
X658628571Y-214629819D01*
X658628571Y-214629819D02*
X658771428Y-214582200D01*
X658771428Y-214582200D02*
X658866666Y-214486961D01*
X658866666Y-214486961D02*
X658914285Y-214391723D01*
X658914285Y-214391723D02*
X658961904Y-214201247D01*
X658961904Y-214201247D02*
X658961904Y-214058390D01*
X658961904Y-214058390D02*
X658914285Y-213867914D01*
X658914285Y-213867914D02*
X658866666Y-213772676D01*
X658866666Y-213772676D02*
X658771428Y-213677438D01*
X658771428Y-213677438D02*
X658628571Y-213629819D01*
X658628571Y-213629819D02*
X658533333Y-213629819D01*
X658533333Y-213629819D02*
X658390476Y-213677438D01*
X658390476Y-213677438D02*
X658342857Y-213725057D01*
X657390476Y-214629819D02*
X657961904Y-214629819D01*
X657676190Y-214629819D02*
X657676190Y-213629819D01*
X657676190Y-213629819D02*
X657771428Y-213772676D01*
X657771428Y-213772676D02*
X657866666Y-213867914D01*
X657866666Y-213867914D02*
X657961904Y-213915533D01*
X657009523Y-213725057D02*
X656961904Y-213677438D01*
X656961904Y-213677438D02*
X656866666Y-213629819D01*
X656866666Y-213629819D02*
X656628571Y-213629819D01*
X656628571Y-213629819D02*
X656533333Y-213677438D01*
X656533333Y-213677438D02*
X656485714Y-213725057D01*
X656485714Y-213725057D02*
X656438095Y-213820295D01*
X656438095Y-213820295D02*
X656438095Y-213915533D01*
X656438095Y-213915533D02*
X656485714Y-214058390D01*
X656485714Y-214058390D02*
X657057142Y-214629819D01*
X657057142Y-214629819D02*
X656438095Y-214629819D01*
X614354819Y-264085714D02*
X613354819Y-264085714D01*
X613354819Y-264085714D02*
X613354819Y-264323809D01*
X613354819Y-264323809D02*
X613402438Y-264466666D01*
X613402438Y-264466666D02*
X613497676Y-264561904D01*
X613497676Y-264561904D02*
X613592914Y-264609523D01*
X613592914Y-264609523D02*
X613783390Y-264657142D01*
X613783390Y-264657142D02*
X613926247Y-264657142D01*
X613926247Y-264657142D02*
X614116723Y-264609523D01*
X614116723Y-264609523D02*
X614211961Y-264561904D01*
X614211961Y-264561904D02*
X614307200Y-264466666D01*
X614307200Y-264466666D02*
X614354819Y-264323809D01*
X614354819Y-264323809D02*
X614354819Y-264085714D01*
X613354819Y-265514285D02*
X613354819Y-265323809D01*
X613354819Y-265323809D02*
X613402438Y-265228571D01*
X613402438Y-265228571D02*
X613450057Y-265180952D01*
X613450057Y-265180952D02*
X613592914Y-265085714D01*
X613592914Y-265085714D02*
X613783390Y-265038095D01*
X613783390Y-265038095D02*
X614164342Y-265038095D01*
X614164342Y-265038095D02*
X614259580Y-265085714D01*
X614259580Y-265085714D02*
X614307200Y-265133333D01*
X614307200Y-265133333D02*
X614354819Y-265228571D01*
X614354819Y-265228571D02*
X614354819Y-265419047D01*
X614354819Y-265419047D02*
X614307200Y-265514285D01*
X614307200Y-265514285D02*
X614259580Y-265561904D01*
X614259580Y-265561904D02*
X614164342Y-265609523D01*
X614164342Y-265609523D02*
X613926247Y-265609523D01*
X613926247Y-265609523D02*
X613831009Y-265561904D01*
X613831009Y-265561904D02*
X613783390Y-265514285D01*
X613783390Y-265514285D02*
X613735771Y-265419047D01*
X613735771Y-265419047D02*
X613735771Y-265228571D01*
X613735771Y-265228571D02*
X613783390Y-265133333D01*
X613783390Y-265133333D02*
X613831009Y-265085714D01*
X613831009Y-265085714D02*
X613926247Y-265038095D01*
X613354819Y-266228571D02*
X613354819Y-266323809D01*
X613354819Y-266323809D02*
X613402438Y-266419047D01*
X613402438Y-266419047D02*
X613450057Y-266466666D01*
X613450057Y-266466666D02*
X613545295Y-266514285D01*
X613545295Y-266514285D02*
X613735771Y-266561904D01*
X613735771Y-266561904D02*
X613973866Y-266561904D01*
X613973866Y-266561904D02*
X614164342Y-266514285D01*
X614164342Y-266514285D02*
X614259580Y-266466666D01*
X614259580Y-266466666D02*
X614307200Y-266419047D01*
X614307200Y-266419047D02*
X614354819Y-266323809D01*
X614354819Y-266323809D02*
X614354819Y-266228571D01*
X614354819Y-266228571D02*
X614307200Y-266133333D01*
X614307200Y-266133333D02*
X614259580Y-266085714D01*
X614259580Y-266085714D02*
X614164342Y-266038095D01*
X614164342Y-266038095D02*
X613973866Y-265990476D01*
X613973866Y-265990476D02*
X613735771Y-265990476D01*
X613735771Y-265990476D02*
X613545295Y-266038095D01*
X613545295Y-266038095D02*
X613450057Y-266085714D01*
X613450057Y-266085714D02*
X613402438Y-266133333D01*
X613402438Y-266133333D02*
X613354819Y-266228571D01*
X661642857Y-214534580D02*
X661690476Y-214582200D01*
X661690476Y-214582200D02*
X661833333Y-214629819D01*
X661833333Y-214629819D02*
X661928571Y-214629819D01*
X661928571Y-214629819D02*
X662071428Y-214582200D01*
X662071428Y-214582200D02*
X662166666Y-214486961D01*
X662166666Y-214486961D02*
X662214285Y-214391723D01*
X662214285Y-214391723D02*
X662261904Y-214201247D01*
X662261904Y-214201247D02*
X662261904Y-214058390D01*
X662261904Y-214058390D02*
X662214285Y-213867914D01*
X662214285Y-213867914D02*
X662166666Y-213772676D01*
X662166666Y-213772676D02*
X662071428Y-213677438D01*
X662071428Y-213677438D02*
X661928571Y-213629819D01*
X661928571Y-213629819D02*
X661833333Y-213629819D01*
X661833333Y-213629819D02*
X661690476Y-213677438D01*
X661690476Y-213677438D02*
X661642857Y-213725057D01*
X660690476Y-214629819D02*
X661261904Y-214629819D01*
X660976190Y-214629819D02*
X660976190Y-213629819D01*
X660976190Y-213629819D02*
X661071428Y-213772676D01*
X661071428Y-213772676D02*
X661166666Y-213867914D01*
X661166666Y-213867914D02*
X661261904Y-213915533D01*
X660357142Y-213629819D02*
X659738095Y-213629819D01*
X659738095Y-213629819D02*
X660071428Y-214010771D01*
X660071428Y-214010771D02*
X659928571Y-214010771D01*
X659928571Y-214010771D02*
X659833333Y-214058390D01*
X659833333Y-214058390D02*
X659785714Y-214106009D01*
X659785714Y-214106009D02*
X659738095Y-214201247D01*
X659738095Y-214201247D02*
X659738095Y-214439342D01*
X659738095Y-214439342D02*
X659785714Y-214534580D01*
X659785714Y-214534580D02*
X659833333Y-214582200D01*
X659833333Y-214582200D02*
X659928571Y-214629819D01*
X659928571Y-214629819D02*
X660214285Y-214629819D01*
X660214285Y-214629819D02*
X660309523Y-214582200D01*
X660309523Y-214582200D02*
X660357142Y-214534580D01*
X554854819Y-206885714D02*
X553854819Y-206885714D01*
X553854819Y-206885714D02*
X553854819Y-207123809D01*
X553854819Y-207123809D02*
X553902438Y-207266666D01*
X553902438Y-207266666D02*
X553997676Y-207361904D01*
X553997676Y-207361904D02*
X554092914Y-207409523D01*
X554092914Y-207409523D02*
X554283390Y-207457142D01*
X554283390Y-207457142D02*
X554426247Y-207457142D01*
X554426247Y-207457142D02*
X554616723Y-207409523D01*
X554616723Y-207409523D02*
X554711961Y-207361904D01*
X554711961Y-207361904D02*
X554807200Y-207266666D01*
X554807200Y-207266666D02*
X554854819Y-207123809D01*
X554854819Y-207123809D02*
X554854819Y-206885714D01*
X554188152Y-208314285D02*
X554854819Y-208314285D01*
X553807200Y-208076190D02*
X554521485Y-207838095D01*
X554521485Y-207838095D02*
X554521485Y-208457142D01*
X553854819Y-208742857D02*
X553854819Y-209409523D01*
X553854819Y-209409523D02*
X554854819Y-208980952D01*
X638154819Y-264085714D02*
X637154819Y-264085714D01*
X637154819Y-264085714D02*
X637154819Y-264323809D01*
X637154819Y-264323809D02*
X637202438Y-264466666D01*
X637202438Y-264466666D02*
X637297676Y-264561904D01*
X637297676Y-264561904D02*
X637392914Y-264609523D01*
X637392914Y-264609523D02*
X637583390Y-264657142D01*
X637583390Y-264657142D02*
X637726247Y-264657142D01*
X637726247Y-264657142D02*
X637916723Y-264609523D01*
X637916723Y-264609523D02*
X638011961Y-264561904D01*
X638011961Y-264561904D02*
X638107200Y-264466666D01*
X638107200Y-264466666D02*
X638154819Y-264323809D01*
X638154819Y-264323809D02*
X638154819Y-264085714D01*
X637154819Y-265514285D02*
X637154819Y-265323809D01*
X637154819Y-265323809D02*
X637202438Y-265228571D01*
X637202438Y-265228571D02*
X637250057Y-265180952D01*
X637250057Y-265180952D02*
X637392914Y-265085714D01*
X637392914Y-265085714D02*
X637583390Y-265038095D01*
X637583390Y-265038095D02*
X637964342Y-265038095D01*
X637964342Y-265038095D02*
X638059580Y-265085714D01*
X638059580Y-265085714D02*
X638107200Y-265133333D01*
X638107200Y-265133333D02*
X638154819Y-265228571D01*
X638154819Y-265228571D02*
X638154819Y-265419047D01*
X638154819Y-265419047D02*
X638107200Y-265514285D01*
X638107200Y-265514285D02*
X638059580Y-265561904D01*
X638059580Y-265561904D02*
X637964342Y-265609523D01*
X637964342Y-265609523D02*
X637726247Y-265609523D01*
X637726247Y-265609523D02*
X637631009Y-265561904D01*
X637631009Y-265561904D02*
X637583390Y-265514285D01*
X637583390Y-265514285D02*
X637535771Y-265419047D01*
X637535771Y-265419047D02*
X637535771Y-265228571D01*
X637535771Y-265228571D02*
X637583390Y-265133333D01*
X637583390Y-265133333D02*
X637631009Y-265085714D01*
X637631009Y-265085714D02*
X637726247Y-265038095D01*
X637154819Y-266514285D02*
X637154819Y-266038095D01*
X637154819Y-266038095D02*
X637631009Y-265990476D01*
X637631009Y-265990476D02*
X637583390Y-266038095D01*
X637583390Y-266038095D02*
X637535771Y-266133333D01*
X637535771Y-266133333D02*
X637535771Y-266371428D01*
X637535771Y-266371428D02*
X637583390Y-266466666D01*
X637583390Y-266466666D02*
X637631009Y-266514285D01*
X637631009Y-266514285D02*
X637726247Y-266561904D01*
X637726247Y-266561904D02*
X637964342Y-266561904D01*
X637964342Y-266561904D02*
X638059580Y-266514285D01*
X638059580Y-266514285D02*
X638107200Y-266466666D01*
X638107200Y-266466666D02*
X638154819Y-266371428D01*
X638154819Y-266371428D02*
X638154819Y-266133333D01*
X638154819Y-266133333D02*
X638107200Y-266038095D01*
X638107200Y-266038095D02*
X638059580Y-265990476D01*
X469254819Y-187885714D02*
X468254819Y-187885714D01*
X468254819Y-187885714D02*
X468254819Y-188123809D01*
X468254819Y-188123809D02*
X468302438Y-188266666D01*
X468302438Y-188266666D02*
X468397676Y-188361904D01*
X468397676Y-188361904D02*
X468492914Y-188409523D01*
X468492914Y-188409523D02*
X468683390Y-188457142D01*
X468683390Y-188457142D02*
X468826247Y-188457142D01*
X468826247Y-188457142D02*
X469016723Y-188409523D01*
X469016723Y-188409523D02*
X469111961Y-188361904D01*
X469111961Y-188361904D02*
X469207200Y-188266666D01*
X469207200Y-188266666D02*
X469254819Y-188123809D01*
X469254819Y-188123809D02*
X469254819Y-187885714D01*
X468350057Y-188838095D02*
X468302438Y-188885714D01*
X468302438Y-188885714D02*
X468254819Y-188980952D01*
X468254819Y-188980952D02*
X468254819Y-189219047D01*
X468254819Y-189219047D02*
X468302438Y-189314285D01*
X468302438Y-189314285D02*
X468350057Y-189361904D01*
X468350057Y-189361904D02*
X468445295Y-189409523D01*
X468445295Y-189409523D02*
X468540533Y-189409523D01*
X468540533Y-189409523D02*
X468683390Y-189361904D01*
X468683390Y-189361904D02*
X469254819Y-188790476D01*
X469254819Y-188790476D02*
X469254819Y-189409523D01*
X468254819Y-190266666D02*
X468254819Y-190076190D01*
X468254819Y-190076190D02*
X468302438Y-189980952D01*
X468302438Y-189980952D02*
X468350057Y-189933333D01*
X468350057Y-189933333D02*
X468492914Y-189838095D01*
X468492914Y-189838095D02*
X468683390Y-189790476D01*
X468683390Y-189790476D02*
X469064342Y-189790476D01*
X469064342Y-189790476D02*
X469159580Y-189838095D01*
X469159580Y-189838095D02*
X469207200Y-189885714D01*
X469207200Y-189885714D02*
X469254819Y-189980952D01*
X469254819Y-189980952D02*
X469254819Y-190171428D01*
X469254819Y-190171428D02*
X469207200Y-190266666D01*
X469207200Y-190266666D02*
X469159580Y-190314285D01*
X469159580Y-190314285D02*
X469064342Y-190361904D01*
X469064342Y-190361904D02*
X468826247Y-190361904D01*
X468826247Y-190361904D02*
X468731009Y-190314285D01*
X468731009Y-190314285D02*
X468683390Y-190266666D01*
X468683390Y-190266666D02*
X468635771Y-190171428D01*
X468635771Y-190171428D02*
X468635771Y-189980952D01*
X468635771Y-189980952D02*
X468683390Y-189885714D01*
X468683390Y-189885714D02*
X468731009Y-189838095D01*
X468731009Y-189838095D02*
X468826247Y-189790476D01*
X663342857Y-188559580D02*
X663390476Y-188607200D01*
X663390476Y-188607200D02*
X663533333Y-188654819D01*
X663533333Y-188654819D02*
X663628571Y-188654819D01*
X663628571Y-188654819D02*
X663771428Y-188607200D01*
X663771428Y-188607200D02*
X663866666Y-188511961D01*
X663866666Y-188511961D02*
X663914285Y-188416723D01*
X663914285Y-188416723D02*
X663961904Y-188226247D01*
X663961904Y-188226247D02*
X663961904Y-188083390D01*
X663961904Y-188083390D02*
X663914285Y-187892914D01*
X663914285Y-187892914D02*
X663866666Y-187797676D01*
X663866666Y-187797676D02*
X663771428Y-187702438D01*
X663771428Y-187702438D02*
X663628571Y-187654819D01*
X663628571Y-187654819D02*
X663533333Y-187654819D01*
X663533333Y-187654819D02*
X663390476Y-187702438D01*
X663390476Y-187702438D02*
X663342857Y-187750057D01*
X662390476Y-188654819D02*
X662961904Y-188654819D01*
X662676190Y-188654819D02*
X662676190Y-187654819D01*
X662676190Y-187654819D02*
X662771428Y-187797676D01*
X662771428Y-187797676D02*
X662866666Y-187892914D01*
X662866666Y-187892914D02*
X662961904Y-187940533D01*
X661533333Y-187988152D02*
X661533333Y-188654819D01*
X661771428Y-187607200D02*
X662009523Y-188321485D01*
X662009523Y-188321485D02*
X661390476Y-188321485D01*
X635854819Y-206935714D02*
X634854819Y-206935714D01*
X634854819Y-206935714D02*
X634854819Y-207173809D01*
X634854819Y-207173809D02*
X634902438Y-207316666D01*
X634902438Y-207316666D02*
X634997676Y-207411904D01*
X634997676Y-207411904D02*
X635092914Y-207459523D01*
X635092914Y-207459523D02*
X635283390Y-207507142D01*
X635283390Y-207507142D02*
X635426247Y-207507142D01*
X635426247Y-207507142D02*
X635616723Y-207459523D01*
X635616723Y-207459523D02*
X635711961Y-207411904D01*
X635711961Y-207411904D02*
X635807200Y-207316666D01*
X635807200Y-207316666D02*
X635854819Y-207173809D01*
X635854819Y-207173809D02*
X635854819Y-206935714D01*
X634854819Y-208364285D02*
X634854819Y-208173809D01*
X634854819Y-208173809D02*
X634902438Y-208078571D01*
X634902438Y-208078571D02*
X634950057Y-208030952D01*
X634950057Y-208030952D02*
X635092914Y-207935714D01*
X635092914Y-207935714D02*
X635283390Y-207888095D01*
X635283390Y-207888095D02*
X635664342Y-207888095D01*
X635664342Y-207888095D02*
X635759580Y-207935714D01*
X635759580Y-207935714D02*
X635807200Y-207983333D01*
X635807200Y-207983333D02*
X635854819Y-208078571D01*
X635854819Y-208078571D02*
X635854819Y-208269047D01*
X635854819Y-208269047D02*
X635807200Y-208364285D01*
X635807200Y-208364285D02*
X635759580Y-208411904D01*
X635759580Y-208411904D02*
X635664342Y-208459523D01*
X635664342Y-208459523D02*
X635426247Y-208459523D01*
X635426247Y-208459523D02*
X635331009Y-208411904D01*
X635331009Y-208411904D02*
X635283390Y-208364285D01*
X635283390Y-208364285D02*
X635235771Y-208269047D01*
X635235771Y-208269047D02*
X635235771Y-208078571D01*
X635235771Y-208078571D02*
X635283390Y-207983333D01*
X635283390Y-207983333D02*
X635331009Y-207935714D01*
X635331009Y-207935714D02*
X635426247Y-207888095D01*
X634854819Y-208792857D02*
X634854819Y-209459523D01*
X634854819Y-209459523D02*
X635854819Y-209030952D01*
X516854819Y-206985714D02*
X515854819Y-206985714D01*
X515854819Y-206985714D02*
X515854819Y-207223809D01*
X515854819Y-207223809D02*
X515902438Y-207366666D01*
X515902438Y-207366666D02*
X515997676Y-207461904D01*
X515997676Y-207461904D02*
X516092914Y-207509523D01*
X516092914Y-207509523D02*
X516283390Y-207557142D01*
X516283390Y-207557142D02*
X516426247Y-207557142D01*
X516426247Y-207557142D02*
X516616723Y-207509523D01*
X516616723Y-207509523D02*
X516711961Y-207461904D01*
X516711961Y-207461904D02*
X516807200Y-207366666D01*
X516807200Y-207366666D02*
X516854819Y-207223809D01*
X516854819Y-207223809D02*
X516854819Y-206985714D01*
X515854819Y-207890476D02*
X515854819Y-208509523D01*
X515854819Y-208509523D02*
X516235771Y-208176190D01*
X516235771Y-208176190D02*
X516235771Y-208319047D01*
X516235771Y-208319047D02*
X516283390Y-208414285D01*
X516283390Y-208414285D02*
X516331009Y-208461904D01*
X516331009Y-208461904D02*
X516426247Y-208509523D01*
X516426247Y-208509523D02*
X516664342Y-208509523D01*
X516664342Y-208509523D02*
X516759580Y-208461904D01*
X516759580Y-208461904D02*
X516807200Y-208414285D01*
X516807200Y-208414285D02*
X516854819Y-208319047D01*
X516854819Y-208319047D02*
X516854819Y-208033333D01*
X516854819Y-208033333D02*
X516807200Y-207938095D01*
X516807200Y-207938095D02*
X516759580Y-207890476D01*
X515854819Y-208842857D02*
X515854819Y-209509523D01*
X515854819Y-209509523D02*
X516854819Y-209080952D01*
X445354819Y-225985714D02*
X444354819Y-225985714D01*
X444354819Y-225985714D02*
X444354819Y-226223809D01*
X444354819Y-226223809D02*
X444402438Y-226366666D01*
X444402438Y-226366666D02*
X444497676Y-226461904D01*
X444497676Y-226461904D02*
X444592914Y-226509523D01*
X444592914Y-226509523D02*
X444783390Y-226557142D01*
X444783390Y-226557142D02*
X444926247Y-226557142D01*
X444926247Y-226557142D02*
X445116723Y-226509523D01*
X445116723Y-226509523D02*
X445211961Y-226461904D01*
X445211961Y-226461904D02*
X445307200Y-226366666D01*
X445307200Y-226366666D02*
X445354819Y-226223809D01*
X445354819Y-226223809D02*
X445354819Y-225985714D01*
X445354819Y-227509523D02*
X445354819Y-226938095D01*
X445354819Y-227223809D02*
X444354819Y-227223809D01*
X444354819Y-227223809D02*
X444497676Y-227128571D01*
X444497676Y-227128571D02*
X444592914Y-227033333D01*
X444592914Y-227033333D02*
X444640533Y-226938095D01*
X444783390Y-228080952D02*
X444735771Y-227985714D01*
X444735771Y-227985714D02*
X444688152Y-227938095D01*
X444688152Y-227938095D02*
X444592914Y-227890476D01*
X444592914Y-227890476D02*
X444545295Y-227890476D01*
X444545295Y-227890476D02*
X444450057Y-227938095D01*
X444450057Y-227938095D02*
X444402438Y-227985714D01*
X444402438Y-227985714D02*
X444354819Y-228080952D01*
X444354819Y-228080952D02*
X444354819Y-228271428D01*
X444354819Y-228271428D02*
X444402438Y-228366666D01*
X444402438Y-228366666D02*
X444450057Y-228414285D01*
X444450057Y-228414285D02*
X444545295Y-228461904D01*
X444545295Y-228461904D02*
X444592914Y-228461904D01*
X444592914Y-228461904D02*
X444688152Y-228414285D01*
X444688152Y-228414285D02*
X444735771Y-228366666D01*
X444735771Y-228366666D02*
X444783390Y-228271428D01*
X444783390Y-228271428D02*
X444783390Y-228080952D01*
X444783390Y-228080952D02*
X444831009Y-227985714D01*
X444831009Y-227985714D02*
X444878628Y-227938095D01*
X444878628Y-227938095D02*
X444973866Y-227890476D01*
X444973866Y-227890476D02*
X445164342Y-227890476D01*
X445164342Y-227890476D02*
X445259580Y-227938095D01*
X445259580Y-227938095D02*
X445307200Y-227985714D01*
X445307200Y-227985714D02*
X445354819Y-228080952D01*
X445354819Y-228080952D02*
X445354819Y-228271428D01*
X445354819Y-228271428D02*
X445307200Y-228366666D01*
X445307200Y-228366666D02*
X445259580Y-228414285D01*
X445259580Y-228414285D02*
X445164342Y-228461904D01*
X445164342Y-228461904D02*
X444973866Y-228461904D01*
X444973866Y-228461904D02*
X444878628Y-228414285D01*
X444878628Y-228414285D02*
X444831009Y-228366666D01*
X444831009Y-228366666D02*
X444783390Y-228271428D01*
X376254819Y-264561905D02*
X375254819Y-264561905D01*
X375254819Y-264561905D02*
X375254819Y-264800000D01*
X375254819Y-264800000D02*
X375302438Y-264942857D01*
X375302438Y-264942857D02*
X375397676Y-265038095D01*
X375397676Y-265038095D02*
X375492914Y-265085714D01*
X375492914Y-265085714D02*
X375683390Y-265133333D01*
X375683390Y-265133333D02*
X375826247Y-265133333D01*
X375826247Y-265133333D02*
X376016723Y-265085714D01*
X376016723Y-265085714D02*
X376111961Y-265038095D01*
X376111961Y-265038095D02*
X376207200Y-264942857D01*
X376207200Y-264942857D02*
X376254819Y-264800000D01*
X376254819Y-264800000D02*
X376254819Y-264561905D01*
X375254819Y-266038095D02*
X375254819Y-265561905D01*
X375254819Y-265561905D02*
X375731009Y-265514286D01*
X375731009Y-265514286D02*
X375683390Y-265561905D01*
X375683390Y-265561905D02*
X375635771Y-265657143D01*
X375635771Y-265657143D02*
X375635771Y-265895238D01*
X375635771Y-265895238D02*
X375683390Y-265990476D01*
X375683390Y-265990476D02*
X375731009Y-266038095D01*
X375731009Y-266038095D02*
X375826247Y-266085714D01*
X375826247Y-266085714D02*
X376064342Y-266085714D01*
X376064342Y-266085714D02*
X376159580Y-266038095D01*
X376159580Y-266038095D02*
X376207200Y-265990476D01*
X376207200Y-265990476D02*
X376254819Y-265895238D01*
X376254819Y-265895238D02*
X376254819Y-265657143D01*
X376254819Y-265657143D02*
X376207200Y-265561905D01*
X376207200Y-265561905D02*
X376159580Y-265514286D01*
X566754819Y-264035714D02*
X565754819Y-264035714D01*
X565754819Y-264035714D02*
X565754819Y-264273809D01*
X565754819Y-264273809D02*
X565802438Y-264416666D01*
X565802438Y-264416666D02*
X565897676Y-264511904D01*
X565897676Y-264511904D02*
X565992914Y-264559523D01*
X565992914Y-264559523D02*
X566183390Y-264607142D01*
X566183390Y-264607142D02*
X566326247Y-264607142D01*
X566326247Y-264607142D02*
X566516723Y-264559523D01*
X566516723Y-264559523D02*
X566611961Y-264511904D01*
X566611961Y-264511904D02*
X566707200Y-264416666D01*
X566707200Y-264416666D02*
X566754819Y-264273809D01*
X566754819Y-264273809D02*
X566754819Y-264035714D01*
X565754819Y-265511904D02*
X565754819Y-265035714D01*
X565754819Y-265035714D02*
X566231009Y-264988095D01*
X566231009Y-264988095D02*
X566183390Y-265035714D01*
X566183390Y-265035714D02*
X566135771Y-265130952D01*
X566135771Y-265130952D02*
X566135771Y-265369047D01*
X566135771Y-265369047D02*
X566183390Y-265464285D01*
X566183390Y-265464285D02*
X566231009Y-265511904D01*
X566231009Y-265511904D02*
X566326247Y-265559523D01*
X566326247Y-265559523D02*
X566564342Y-265559523D01*
X566564342Y-265559523D02*
X566659580Y-265511904D01*
X566659580Y-265511904D02*
X566707200Y-265464285D01*
X566707200Y-265464285D02*
X566754819Y-265369047D01*
X566754819Y-265369047D02*
X566754819Y-265130952D01*
X566754819Y-265130952D02*
X566707200Y-265035714D01*
X566707200Y-265035714D02*
X566659580Y-264988095D01*
X565754819Y-266178571D02*
X565754819Y-266273809D01*
X565754819Y-266273809D02*
X565802438Y-266369047D01*
X565802438Y-266369047D02*
X565850057Y-266416666D01*
X565850057Y-266416666D02*
X565945295Y-266464285D01*
X565945295Y-266464285D02*
X566135771Y-266511904D01*
X566135771Y-266511904D02*
X566373866Y-266511904D01*
X566373866Y-266511904D02*
X566564342Y-266464285D01*
X566564342Y-266464285D02*
X566659580Y-266416666D01*
X566659580Y-266416666D02*
X566707200Y-266369047D01*
X566707200Y-266369047D02*
X566754819Y-266273809D01*
X566754819Y-266273809D02*
X566754819Y-266178571D01*
X566754819Y-266178571D02*
X566707200Y-266083333D01*
X566707200Y-266083333D02*
X566659580Y-266035714D01*
X566659580Y-266035714D02*
X566564342Y-265988095D01*
X566564342Y-265988095D02*
X566373866Y-265940476D01*
X566373866Y-265940476D02*
X566135771Y-265940476D01*
X566135771Y-265940476D02*
X565945295Y-265988095D01*
X565945295Y-265988095D02*
X565850057Y-266035714D01*
X565850057Y-266035714D02*
X565802438Y-266083333D01*
X565802438Y-266083333D02*
X565754819Y-266178571D01*
X662866666Y-193559580D02*
X662914285Y-193607200D01*
X662914285Y-193607200D02*
X663057142Y-193654819D01*
X663057142Y-193654819D02*
X663152380Y-193654819D01*
X663152380Y-193654819D02*
X663295237Y-193607200D01*
X663295237Y-193607200D02*
X663390475Y-193511961D01*
X663390475Y-193511961D02*
X663438094Y-193416723D01*
X663438094Y-193416723D02*
X663485713Y-193226247D01*
X663485713Y-193226247D02*
X663485713Y-193083390D01*
X663485713Y-193083390D02*
X663438094Y-192892914D01*
X663438094Y-192892914D02*
X663390475Y-192797676D01*
X663390475Y-192797676D02*
X663295237Y-192702438D01*
X663295237Y-192702438D02*
X663152380Y-192654819D01*
X663152380Y-192654819D02*
X663057142Y-192654819D01*
X663057142Y-192654819D02*
X662914285Y-192702438D01*
X662914285Y-192702438D02*
X662866666Y-192750057D01*
X662533332Y-192654819D02*
X661914285Y-192654819D01*
X661914285Y-192654819D02*
X662247618Y-193035771D01*
X662247618Y-193035771D02*
X662104761Y-193035771D01*
X662104761Y-193035771D02*
X662009523Y-193083390D01*
X662009523Y-193083390D02*
X661961904Y-193131009D01*
X661961904Y-193131009D02*
X661914285Y-193226247D01*
X661914285Y-193226247D02*
X661914285Y-193464342D01*
X661914285Y-193464342D02*
X661961904Y-193559580D01*
X661961904Y-193559580D02*
X662009523Y-193607200D01*
X662009523Y-193607200D02*
X662104761Y-193654819D01*
X662104761Y-193654819D02*
X662390475Y-193654819D01*
X662390475Y-193654819D02*
X662485713Y-193607200D01*
X662485713Y-193607200D02*
X662533332Y-193559580D01*
X670806333Y-177704819D02*
X670806333Y-178419104D01*
X670806333Y-178419104D02*
X670853952Y-178561961D01*
X670853952Y-178561961D02*
X670949190Y-178657200D01*
X670949190Y-178657200D02*
X671092047Y-178704819D01*
X671092047Y-178704819D02*
X671187285Y-178704819D01*
X669901571Y-177704819D02*
X670092047Y-177704819D01*
X670092047Y-177704819D02*
X670187285Y-177752438D01*
X670187285Y-177752438D02*
X670234904Y-177800057D01*
X670234904Y-177800057D02*
X670330142Y-177942914D01*
X670330142Y-177942914D02*
X670377761Y-178133390D01*
X670377761Y-178133390D02*
X670377761Y-178514342D01*
X670377761Y-178514342D02*
X670330142Y-178609580D01*
X670330142Y-178609580D02*
X670282523Y-178657200D01*
X670282523Y-178657200D02*
X670187285Y-178704819D01*
X670187285Y-178704819D02*
X669996809Y-178704819D01*
X669996809Y-178704819D02*
X669901571Y-178657200D01*
X669901571Y-178657200D02*
X669853952Y-178609580D01*
X669853952Y-178609580D02*
X669806333Y-178514342D01*
X669806333Y-178514342D02*
X669806333Y-178276247D01*
X669806333Y-178276247D02*
X669853952Y-178181009D01*
X669853952Y-178181009D02*
X669901571Y-178133390D01*
X669901571Y-178133390D02*
X669996809Y-178085771D01*
X669996809Y-178085771D02*
X670187285Y-178085771D01*
X670187285Y-178085771D02*
X670282523Y-178133390D01*
X670282523Y-178133390D02*
X670330142Y-178181009D01*
X670330142Y-178181009D02*
X670377761Y-178276247D01*
X573954819Y-206985714D02*
X572954819Y-206985714D01*
X572954819Y-206985714D02*
X572954819Y-207223809D01*
X572954819Y-207223809D02*
X573002438Y-207366666D01*
X573002438Y-207366666D02*
X573097676Y-207461904D01*
X573097676Y-207461904D02*
X573192914Y-207509523D01*
X573192914Y-207509523D02*
X573383390Y-207557142D01*
X573383390Y-207557142D02*
X573526247Y-207557142D01*
X573526247Y-207557142D02*
X573716723Y-207509523D01*
X573716723Y-207509523D02*
X573811961Y-207461904D01*
X573811961Y-207461904D02*
X573907200Y-207366666D01*
X573907200Y-207366666D02*
X573954819Y-207223809D01*
X573954819Y-207223809D02*
X573954819Y-206985714D01*
X572954819Y-208461904D02*
X572954819Y-207985714D01*
X572954819Y-207985714D02*
X573431009Y-207938095D01*
X573431009Y-207938095D02*
X573383390Y-207985714D01*
X573383390Y-207985714D02*
X573335771Y-208080952D01*
X573335771Y-208080952D02*
X573335771Y-208319047D01*
X573335771Y-208319047D02*
X573383390Y-208414285D01*
X573383390Y-208414285D02*
X573431009Y-208461904D01*
X573431009Y-208461904D02*
X573526247Y-208509523D01*
X573526247Y-208509523D02*
X573764342Y-208509523D01*
X573764342Y-208509523D02*
X573859580Y-208461904D01*
X573859580Y-208461904D02*
X573907200Y-208414285D01*
X573907200Y-208414285D02*
X573954819Y-208319047D01*
X573954819Y-208319047D02*
X573954819Y-208080952D01*
X573954819Y-208080952D02*
X573907200Y-207985714D01*
X573907200Y-207985714D02*
X573859580Y-207938095D01*
X573050057Y-208890476D02*
X573002438Y-208938095D01*
X573002438Y-208938095D02*
X572954819Y-209033333D01*
X572954819Y-209033333D02*
X572954819Y-209271428D01*
X572954819Y-209271428D02*
X573002438Y-209366666D01*
X573002438Y-209366666D02*
X573050057Y-209414285D01*
X573050057Y-209414285D02*
X573145295Y-209461904D01*
X573145295Y-209461904D02*
X573240533Y-209461904D01*
X573240533Y-209461904D02*
X573383390Y-209414285D01*
X573383390Y-209414285D02*
X573954819Y-208842857D01*
X573954819Y-208842857D02*
X573954819Y-209461904D01*
X638254819Y-244985714D02*
X637254819Y-244985714D01*
X637254819Y-244985714D02*
X637254819Y-245223809D01*
X637254819Y-245223809D02*
X637302438Y-245366666D01*
X637302438Y-245366666D02*
X637397676Y-245461904D01*
X637397676Y-245461904D02*
X637492914Y-245509523D01*
X637492914Y-245509523D02*
X637683390Y-245557142D01*
X637683390Y-245557142D02*
X637826247Y-245557142D01*
X637826247Y-245557142D02*
X638016723Y-245509523D01*
X638016723Y-245509523D02*
X638111961Y-245461904D01*
X638111961Y-245461904D02*
X638207200Y-245366666D01*
X638207200Y-245366666D02*
X638254819Y-245223809D01*
X638254819Y-245223809D02*
X638254819Y-244985714D01*
X637254819Y-246414285D02*
X637254819Y-246223809D01*
X637254819Y-246223809D02*
X637302438Y-246128571D01*
X637302438Y-246128571D02*
X637350057Y-246080952D01*
X637350057Y-246080952D02*
X637492914Y-245985714D01*
X637492914Y-245985714D02*
X637683390Y-245938095D01*
X637683390Y-245938095D02*
X638064342Y-245938095D01*
X638064342Y-245938095D02*
X638159580Y-245985714D01*
X638159580Y-245985714D02*
X638207200Y-246033333D01*
X638207200Y-246033333D02*
X638254819Y-246128571D01*
X638254819Y-246128571D02*
X638254819Y-246319047D01*
X638254819Y-246319047D02*
X638207200Y-246414285D01*
X638207200Y-246414285D02*
X638159580Y-246461904D01*
X638159580Y-246461904D02*
X638064342Y-246509523D01*
X638064342Y-246509523D02*
X637826247Y-246509523D01*
X637826247Y-246509523D02*
X637731009Y-246461904D01*
X637731009Y-246461904D02*
X637683390Y-246414285D01*
X637683390Y-246414285D02*
X637635771Y-246319047D01*
X637635771Y-246319047D02*
X637635771Y-246128571D01*
X637635771Y-246128571D02*
X637683390Y-246033333D01*
X637683390Y-246033333D02*
X637731009Y-245985714D01*
X637731009Y-245985714D02*
X637826247Y-245938095D01*
X638254819Y-246985714D02*
X638254819Y-247176190D01*
X638254819Y-247176190D02*
X638207200Y-247271428D01*
X638207200Y-247271428D02*
X638159580Y-247319047D01*
X638159580Y-247319047D02*
X638016723Y-247414285D01*
X638016723Y-247414285D02*
X637826247Y-247461904D01*
X637826247Y-247461904D02*
X637445295Y-247461904D01*
X637445295Y-247461904D02*
X637350057Y-247414285D01*
X637350057Y-247414285D02*
X637302438Y-247366666D01*
X637302438Y-247366666D02*
X637254819Y-247271428D01*
X637254819Y-247271428D02*
X637254819Y-247080952D01*
X637254819Y-247080952D02*
X637302438Y-246985714D01*
X637302438Y-246985714D02*
X637350057Y-246938095D01*
X637350057Y-246938095D02*
X637445295Y-246890476D01*
X637445295Y-246890476D02*
X637683390Y-246890476D01*
X637683390Y-246890476D02*
X637778628Y-246938095D01*
X637778628Y-246938095D02*
X637826247Y-246985714D01*
X637826247Y-246985714D02*
X637873866Y-247080952D01*
X637873866Y-247080952D02*
X637873866Y-247271428D01*
X637873866Y-247271428D02*
X637826247Y-247366666D01*
X637826247Y-247366666D02*
X637778628Y-247414285D01*
X637778628Y-247414285D02*
X637683390Y-247461904D01*
X402454819Y-207361905D02*
X401454819Y-207361905D01*
X401454819Y-207361905D02*
X401454819Y-207600000D01*
X401454819Y-207600000D02*
X401502438Y-207742857D01*
X401502438Y-207742857D02*
X401597676Y-207838095D01*
X401597676Y-207838095D02*
X401692914Y-207885714D01*
X401692914Y-207885714D02*
X401883390Y-207933333D01*
X401883390Y-207933333D02*
X402026247Y-207933333D01*
X402026247Y-207933333D02*
X402216723Y-207885714D01*
X402216723Y-207885714D02*
X402311961Y-207838095D01*
X402311961Y-207838095D02*
X402407200Y-207742857D01*
X402407200Y-207742857D02*
X402454819Y-207600000D01*
X402454819Y-207600000D02*
X402454819Y-207361905D01*
X401454819Y-208266667D02*
X401454819Y-208933333D01*
X401454819Y-208933333D02*
X402454819Y-208504762D01*
X535854819Y-206885714D02*
X534854819Y-206885714D01*
X534854819Y-206885714D02*
X534854819Y-207123809D01*
X534854819Y-207123809D02*
X534902438Y-207266666D01*
X534902438Y-207266666D02*
X534997676Y-207361904D01*
X534997676Y-207361904D02*
X535092914Y-207409523D01*
X535092914Y-207409523D02*
X535283390Y-207457142D01*
X535283390Y-207457142D02*
X535426247Y-207457142D01*
X535426247Y-207457142D02*
X535616723Y-207409523D01*
X535616723Y-207409523D02*
X535711961Y-207361904D01*
X535711961Y-207361904D02*
X535807200Y-207266666D01*
X535807200Y-207266666D02*
X535854819Y-207123809D01*
X535854819Y-207123809D02*
X535854819Y-206885714D01*
X535188152Y-208314285D02*
X535854819Y-208314285D01*
X534807200Y-208076190D02*
X535521485Y-207838095D01*
X535521485Y-207838095D02*
X535521485Y-208457142D01*
X534950057Y-208790476D02*
X534902438Y-208838095D01*
X534902438Y-208838095D02*
X534854819Y-208933333D01*
X534854819Y-208933333D02*
X534854819Y-209171428D01*
X534854819Y-209171428D02*
X534902438Y-209266666D01*
X534902438Y-209266666D02*
X534950057Y-209314285D01*
X534950057Y-209314285D02*
X535045295Y-209361904D01*
X535045295Y-209361904D02*
X535140533Y-209361904D01*
X535140533Y-209361904D02*
X535283390Y-209314285D01*
X535283390Y-209314285D02*
X535854819Y-208742857D01*
X535854819Y-208742857D02*
X535854819Y-209361904D01*
X631154819Y-187885714D02*
X630154819Y-187885714D01*
X630154819Y-187885714D02*
X630154819Y-188123809D01*
X630154819Y-188123809D02*
X630202438Y-188266666D01*
X630202438Y-188266666D02*
X630297676Y-188361904D01*
X630297676Y-188361904D02*
X630392914Y-188409523D01*
X630392914Y-188409523D02*
X630583390Y-188457142D01*
X630583390Y-188457142D02*
X630726247Y-188457142D01*
X630726247Y-188457142D02*
X630916723Y-188409523D01*
X630916723Y-188409523D02*
X631011961Y-188361904D01*
X631011961Y-188361904D02*
X631107200Y-188266666D01*
X631107200Y-188266666D02*
X631154819Y-188123809D01*
X631154819Y-188123809D02*
X631154819Y-187885714D01*
X630154819Y-189314285D02*
X630154819Y-189123809D01*
X630154819Y-189123809D02*
X630202438Y-189028571D01*
X630202438Y-189028571D02*
X630250057Y-188980952D01*
X630250057Y-188980952D02*
X630392914Y-188885714D01*
X630392914Y-188885714D02*
X630583390Y-188838095D01*
X630583390Y-188838095D02*
X630964342Y-188838095D01*
X630964342Y-188838095D02*
X631059580Y-188885714D01*
X631059580Y-188885714D02*
X631107200Y-188933333D01*
X631107200Y-188933333D02*
X631154819Y-189028571D01*
X631154819Y-189028571D02*
X631154819Y-189219047D01*
X631154819Y-189219047D02*
X631107200Y-189314285D01*
X631107200Y-189314285D02*
X631059580Y-189361904D01*
X631059580Y-189361904D02*
X630964342Y-189409523D01*
X630964342Y-189409523D02*
X630726247Y-189409523D01*
X630726247Y-189409523D02*
X630631009Y-189361904D01*
X630631009Y-189361904D02*
X630583390Y-189314285D01*
X630583390Y-189314285D02*
X630535771Y-189219047D01*
X630535771Y-189219047D02*
X630535771Y-189028571D01*
X630535771Y-189028571D02*
X630583390Y-188933333D01*
X630583390Y-188933333D02*
X630631009Y-188885714D01*
X630631009Y-188885714D02*
X630726247Y-188838095D01*
X630154819Y-190266666D02*
X630154819Y-190076190D01*
X630154819Y-190076190D02*
X630202438Y-189980952D01*
X630202438Y-189980952D02*
X630250057Y-189933333D01*
X630250057Y-189933333D02*
X630392914Y-189838095D01*
X630392914Y-189838095D02*
X630583390Y-189790476D01*
X630583390Y-189790476D02*
X630964342Y-189790476D01*
X630964342Y-189790476D02*
X631059580Y-189838095D01*
X631059580Y-189838095D02*
X631107200Y-189885714D01*
X631107200Y-189885714D02*
X631154819Y-189980952D01*
X631154819Y-189980952D02*
X631154819Y-190171428D01*
X631154819Y-190171428D02*
X631107200Y-190266666D01*
X631107200Y-190266666D02*
X631059580Y-190314285D01*
X631059580Y-190314285D02*
X630964342Y-190361904D01*
X630964342Y-190361904D02*
X630726247Y-190361904D01*
X630726247Y-190361904D02*
X630631009Y-190314285D01*
X630631009Y-190314285D02*
X630583390Y-190266666D01*
X630583390Y-190266666D02*
X630535771Y-190171428D01*
X630535771Y-190171428D02*
X630535771Y-189980952D01*
X630535771Y-189980952D02*
X630583390Y-189885714D01*
X630583390Y-189885714D02*
X630631009Y-189838095D01*
X630631009Y-189838095D02*
X630726247Y-189790476D01*
X540554819Y-225985714D02*
X539554819Y-225985714D01*
X539554819Y-225985714D02*
X539554819Y-226223809D01*
X539554819Y-226223809D02*
X539602438Y-226366666D01*
X539602438Y-226366666D02*
X539697676Y-226461904D01*
X539697676Y-226461904D02*
X539792914Y-226509523D01*
X539792914Y-226509523D02*
X539983390Y-226557142D01*
X539983390Y-226557142D02*
X540126247Y-226557142D01*
X540126247Y-226557142D02*
X540316723Y-226509523D01*
X540316723Y-226509523D02*
X540411961Y-226461904D01*
X540411961Y-226461904D02*
X540507200Y-226366666D01*
X540507200Y-226366666D02*
X540554819Y-226223809D01*
X540554819Y-226223809D02*
X540554819Y-225985714D01*
X539888152Y-227414285D02*
X540554819Y-227414285D01*
X539507200Y-227176190D02*
X540221485Y-226938095D01*
X540221485Y-226938095D02*
X540221485Y-227557142D01*
X539554819Y-227842857D02*
X539554819Y-228461904D01*
X539554819Y-228461904D02*
X539935771Y-228128571D01*
X539935771Y-228128571D02*
X539935771Y-228271428D01*
X539935771Y-228271428D02*
X539983390Y-228366666D01*
X539983390Y-228366666D02*
X540031009Y-228414285D01*
X540031009Y-228414285D02*
X540126247Y-228461904D01*
X540126247Y-228461904D02*
X540364342Y-228461904D01*
X540364342Y-228461904D02*
X540459580Y-228414285D01*
X540459580Y-228414285D02*
X540507200Y-228366666D01*
X540507200Y-228366666D02*
X540554819Y-228271428D01*
X540554819Y-228271428D02*
X540554819Y-227985714D01*
X540554819Y-227985714D02*
X540507200Y-227890476D01*
X540507200Y-227890476D02*
X540459580Y-227842857D01*
X521554819Y-225885714D02*
X520554819Y-225885714D01*
X520554819Y-225885714D02*
X520554819Y-226123809D01*
X520554819Y-226123809D02*
X520602438Y-226266666D01*
X520602438Y-226266666D02*
X520697676Y-226361904D01*
X520697676Y-226361904D02*
X520792914Y-226409523D01*
X520792914Y-226409523D02*
X520983390Y-226457142D01*
X520983390Y-226457142D02*
X521126247Y-226457142D01*
X521126247Y-226457142D02*
X521316723Y-226409523D01*
X521316723Y-226409523D02*
X521411961Y-226361904D01*
X521411961Y-226361904D02*
X521507200Y-226266666D01*
X521507200Y-226266666D02*
X521554819Y-226123809D01*
X521554819Y-226123809D02*
X521554819Y-225885714D01*
X520554819Y-226790476D02*
X520554819Y-227409523D01*
X520554819Y-227409523D02*
X520935771Y-227076190D01*
X520935771Y-227076190D02*
X520935771Y-227219047D01*
X520935771Y-227219047D02*
X520983390Y-227314285D01*
X520983390Y-227314285D02*
X521031009Y-227361904D01*
X521031009Y-227361904D02*
X521126247Y-227409523D01*
X521126247Y-227409523D02*
X521364342Y-227409523D01*
X521364342Y-227409523D02*
X521459580Y-227361904D01*
X521459580Y-227361904D02*
X521507200Y-227314285D01*
X521507200Y-227314285D02*
X521554819Y-227219047D01*
X521554819Y-227219047D02*
X521554819Y-226933333D01*
X521554819Y-226933333D02*
X521507200Y-226838095D01*
X521507200Y-226838095D02*
X521459580Y-226790476D01*
X520983390Y-227980952D02*
X520935771Y-227885714D01*
X520935771Y-227885714D02*
X520888152Y-227838095D01*
X520888152Y-227838095D02*
X520792914Y-227790476D01*
X520792914Y-227790476D02*
X520745295Y-227790476D01*
X520745295Y-227790476D02*
X520650057Y-227838095D01*
X520650057Y-227838095D02*
X520602438Y-227885714D01*
X520602438Y-227885714D02*
X520554819Y-227980952D01*
X520554819Y-227980952D02*
X520554819Y-228171428D01*
X520554819Y-228171428D02*
X520602438Y-228266666D01*
X520602438Y-228266666D02*
X520650057Y-228314285D01*
X520650057Y-228314285D02*
X520745295Y-228361904D01*
X520745295Y-228361904D02*
X520792914Y-228361904D01*
X520792914Y-228361904D02*
X520888152Y-228314285D01*
X520888152Y-228314285D02*
X520935771Y-228266666D01*
X520935771Y-228266666D02*
X520983390Y-228171428D01*
X520983390Y-228171428D02*
X520983390Y-227980952D01*
X520983390Y-227980952D02*
X521031009Y-227885714D01*
X521031009Y-227885714D02*
X521078628Y-227838095D01*
X521078628Y-227838095D02*
X521173866Y-227790476D01*
X521173866Y-227790476D02*
X521364342Y-227790476D01*
X521364342Y-227790476D02*
X521459580Y-227838095D01*
X521459580Y-227838095D02*
X521507200Y-227885714D01*
X521507200Y-227885714D02*
X521554819Y-227980952D01*
X521554819Y-227980952D02*
X521554819Y-228171428D01*
X521554819Y-228171428D02*
X521507200Y-228266666D01*
X521507200Y-228266666D02*
X521459580Y-228314285D01*
X521459580Y-228314285D02*
X521364342Y-228361904D01*
X521364342Y-228361904D02*
X521173866Y-228361904D01*
X521173866Y-228361904D02*
X521078628Y-228314285D01*
X521078628Y-228314285D02*
X521031009Y-228266666D01*
X521031009Y-228266666D02*
X520983390Y-228171428D01*
X545354819Y-187885714D02*
X544354819Y-187885714D01*
X544354819Y-187885714D02*
X544354819Y-188123809D01*
X544354819Y-188123809D02*
X544402438Y-188266666D01*
X544402438Y-188266666D02*
X544497676Y-188361904D01*
X544497676Y-188361904D02*
X544592914Y-188409523D01*
X544592914Y-188409523D02*
X544783390Y-188457142D01*
X544783390Y-188457142D02*
X544926247Y-188457142D01*
X544926247Y-188457142D02*
X545116723Y-188409523D01*
X545116723Y-188409523D02*
X545211961Y-188361904D01*
X545211961Y-188361904D02*
X545307200Y-188266666D01*
X545307200Y-188266666D02*
X545354819Y-188123809D01*
X545354819Y-188123809D02*
X545354819Y-187885714D01*
X544688152Y-189314285D02*
X545354819Y-189314285D01*
X544307200Y-189076190D02*
X545021485Y-188838095D01*
X545021485Y-188838095D02*
X545021485Y-189457142D01*
X544354819Y-190266666D02*
X544354819Y-190076190D01*
X544354819Y-190076190D02*
X544402438Y-189980952D01*
X544402438Y-189980952D02*
X544450057Y-189933333D01*
X544450057Y-189933333D02*
X544592914Y-189838095D01*
X544592914Y-189838095D02*
X544783390Y-189790476D01*
X544783390Y-189790476D02*
X545164342Y-189790476D01*
X545164342Y-189790476D02*
X545259580Y-189838095D01*
X545259580Y-189838095D02*
X545307200Y-189885714D01*
X545307200Y-189885714D02*
X545354819Y-189980952D01*
X545354819Y-189980952D02*
X545354819Y-190171428D01*
X545354819Y-190171428D02*
X545307200Y-190266666D01*
X545307200Y-190266666D02*
X545259580Y-190314285D01*
X545259580Y-190314285D02*
X545164342Y-190361904D01*
X545164342Y-190361904D02*
X544926247Y-190361904D01*
X544926247Y-190361904D02*
X544831009Y-190314285D01*
X544831009Y-190314285D02*
X544783390Y-190266666D01*
X544783390Y-190266666D02*
X544735771Y-190171428D01*
X544735771Y-190171428D02*
X544735771Y-189980952D01*
X544735771Y-189980952D02*
X544783390Y-189885714D01*
X544783390Y-189885714D02*
X544831009Y-189838095D01*
X544831009Y-189838095D02*
X544926247Y-189790476D01*
X651992857Y-202834580D02*
X652040476Y-202882200D01*
X652040476Y-202882200D02*
X652183333Y-202929819D01*
X652183333Y-202929819D02*
X652278571Y-202929819D01*
X652278571Y-202929819D02*
X652421428Y-202882200D01*
X652421428Y-202882200D02*
X652516666Y-202786961D01*
X652516666Y-202786961D02*
X652564285Y-202691723D01*
X652564285Y-202691723D02*
X652611904Y-202501247D01*
X652611904Y-202501247D02*
X652611904Y-202358390D01*
X652611904Y-202358390D02*
X652564285Y-202167914D01*
X652564285Y-202167914D02*
X652516666Y-202072676D01*
X652516666Y-202072676D02*
X652421428Y-201977438D01*
X652421428Y-201977438D02*
X652278571Y-201929819D01*
X652278571Y-201929819D02*
X652183333Y-201929819D01*
X652183333Y-201929819D02*
X652040476Y-201977438D01*
X652040476Y-201977438D02*
X651992857Y-202025057D01*
X651040476Y-202929819D02*
X651611904Y-202929819D01*
X651326190Y-202929819D02*
X651326190Y-201929819D01*
X651326190Y-201929819D02*
X651421428Y-202072676D01*
X651421428Y-202072676D02*
X651516666Y-202167914D01*
X651516666Y-202167914D02*
X651611904Y-202215533D01*
X650421428Y-201929819D02*
X650326190Y-201929819D01*
X650326190Y-201929819D02*
X650230952Y-201977438D01*
X650230952Y-201977438D02*
X650183333Y-202025057D01*
X650183333Y-202025057D02*
X650135714Y-202120295D01*
X650135714Y-202120295D02*
X650088095Y-202310771D01*
X650088095Y-202310771D02*
X650088095Y-202548866D01*
X650088095Y-202548866D02*
X650135714Y-202739342D01*
X650135714Y-202739342D02*
X650183333Y-202834580D01*
X650183333Y-202834580D02*
X650230952Y-202882200D01*
X650230952Y-202882200D02*
X650326190Y-202929819D01*
X650326190Y-202929819D02*
X650421428Y-202929819D01*
X650421428Y-202929819D02*
X650516666Y-202882200D01*
X650516666Y-202882200D02*
X650564285Y-202834580D01*
X650564285Y-202834580D02*
X650611904Y-202739342D01*
X650611904Y-202739342D02*
X650659523Y-202548866D01*
X650659523Y-202548866D02*
X650659523Y-202310771D01*
X650659523Y-202310771D02*
X650611904Y-202120295D01*
X650611904Y-202120295D02*
X650564285Y-202025057D01*
X650564285Y-202025057D02*
X650516666Y-201977438D01*
X650516666Y-201977438D02*
X650421428Y-201929819D01*
D12*
%TO.C,D8*%
X409800000Y-224740000D02*
X409800000Y-228750000D01*
X407800000Y-224740000D02*
X409800000Y-224740000D01*
X407800000Y-224740000D02*
X407800000Y-228750000D01*
D13*
%TO.C,U1*%
X655950000Y-196050000D02*
X655950000Y-205350000D01*
X655950000Y-205350000D02*
X665250000Y-205350000D01*
X665250000Y-196050000D02*
X655950000Y-196050000D01*
X665250000Y-205350000D02*
X665250000Y-196050000D01*
D14*
X654500000Y-205200000D02*
G75*
G03*
X654500000Y-205200000I-125000J0D01*
G01*
D12*
%TO.C,D30*%
X497900000Y-262940000D02*
X497900000Y-266950000D01*
X495900000Y-262940000D02*
X497900000Y-262940000D01*
X495900000Y-262940000D02*
X495900000Y-266950000D01*
%TO.C,D16*%
X433600000Y-186640000D02*
X433600000Y-190650000D01*
X431600000Y-186640000D02*
X433600000Y-186640000D01*
X431600000Y-186640000D02*
X431600000Y-190650000D01*
%TO.C,D21*%
X452700000Y-186740000D02*
X452700000Y-190750000D01*
X450700000Y-186740000D02*
X452700000Y-186740000D01*
X450700000Y-186740000D02*
X450700000Y-190750000D01*
%TO.C,D44*%
X533700000Y-243940000D02*
X533700000Y-247950000D01*
X531700000Y-243940000D02*
X533700000Y-243940000D01*
X531700000Y-243940000D02*
X531700000Y-247950000D01*
%TO.C,D61*%
X605100000Y-186740000D02*
X605100000Y-190750000D01*
X603100000Y-186740000D02*
X605100000Y-186740000D01*
X603100000Y-186740000D02*
X603100000Y-190750000D01*
%TO.C,R9*%
X689819359Y-177899000D02*
X690126641Y-177899000D01*
X689819359Y-178659000D02*
X690126641Y-178659000D01*
%TO.C,D11*%
X414600000Y-186740000D02*
X414600000Y-190750000D01*
X412600000Y-186740000D02*
X414600000Y-186740000D01*
X412600000Y-186740000D02*
X412600000Y-190750000D01*
%TO.C,C11*%
X657310000Y-211391233D02*
X657310000Y-211683767D01*
X656290000Y-211391233D02*
X656290000Y-211683767D01*
%TO.C,D64*%
X614600000Y-243940000D02*
X614600000Y-247950000D01*
X612600000Y-243940000D02*
X614600000Y-243940000D01*
X612600000Y-243940000D02*
X612600000Y-247950000D01*
%TO.C,D13*%
X428900000Y-224840000D02*
X428900000Y-228850000D01*
X426900000Y-224840000D02*
X428900000Y-224840000D01*
X426900000Y-224840000D02*
X426900000Y-228850000D01*
%TO.C,D1*%
X376500000Y-186740000D02*
X376500000Y-190750000D01*
X374500000Y-186740000D02*
X376500000Y-186740000D01*
X374500000Y-186740000D02*
X374500000Y-190750000D01*
%TO.C,D39*%
X514600000Y-243840000D02*
X514600000Y-247850000D01*
X512600000Y-243840000D02*
X514600000Y-243840000D01*
X512600000Y-243840000D02*
X512600000Y-247850000D01*
%TO.C,C4*%
X669490000Y-200783767D02*
X669490000Y-200491233D01*
X670510000Y-200783767D02*
X670510000Y-200491233D01*
%TO.C,D48*%
X562200000Y-224840000D02*
X562200000Y-228850000D01*
X560200000Y-224840000D02*
X562200000Y-224840000D01*
X560200000Y-224840000D02*
X560200000Y-228850000D01*
%TO.C,D22*%
X462200000Y-205790000D02*
X462200000Y-209800000D01*
X460200000Y-205790000D02*
X462200000Y-205790000D01*
X460200000Y-205790000D02*
X460200000Y-209800000D01*
%TO.C,D49*%
X552700000Y-243840000D02*
X552700000Y-247850000D01*
X550700000Y-243840000D02*
X552700000Y-243840000D01*
X550700000Y-243840000D02*
X550700000Y-247850000D01*
%TO.C,D6*%
X395500000Y-186740000D02*
X395500000Y-190750000D01*
X393500000Y-186740000D02*
X395500000Y-186740000D01*
X393500000Y-186740000D02*
X393500000Y-190750000D01*
%TO.C,D62*%
X614600000Y-205740000D02*
X614600000Y-209750000D01*
X612600000Y-205740000D02*
X614600000Y-205740000D01*
X612600000Y-205740000D02*
X612600000Y-209750000D01*
%TO.C,D27*%
X481300000Y-205740000D02*
X481300000Y-209750000D01*
X479300000Y-205740000D02*
X481300000Y-205740000D01*
X479300000Y-205740000D02*
X479300000Y-209750000D01*
%TO.C,D34*%
X495500000Y-243940000D02*
X495500000Y-247950000D01*
X493500000Y-243940000D02*
X495500000Y-243940000D01*
X493500000Y-243940000D02*
X493500000Y-247950000D01*
%TO.C,D31*%
X490700000Y-186740000D02*
X490700000Y-190750000D01*
X488700000Y-186740000D02*
X490700000Y-186740000D01*
X488700000Y-186740000D02*
X488700000Y-190750000D01*
%TO.C,R1*%
X689763641Y-212480000D02*
X689456359Y-212480000D01*
X689763641Y-211720000D02*
X689456359Y-211720000D01*
%TO.C,D19*%
X438400000Y-243840000D02*
X438400000Y-247850000D01*
X436400000Y-243840000D02*
X438400000Y-243840000D01*
X436400000Y-243840000D02*
X436400000Y-247850000D01*
%TO.C,D54*%
X571700000Y-243890000D02*
X571700000Y-247900000D01*
X569700000Y-243890000D02*
X571700000Y-243890000D01*
X569700000Y-243890000D02*
X569700000Y-247900000D01*
%TO.C,D53*%
X581200000Y-224840000D02*
X581200000Y-228850000D01*
X579200000Y-224840000D02*
X581200000Y-224840000D01*
X579200000Y-224840000D02*
X579200000Y-228850000D01*
%TO.C,D59*%
X590800000Y-243940000D02*
X590800000Y-247950000D01*
X588800000Y-243940000D02*
X590800000Y-243940000D01*
X588800000Y-243940000D02*
X588800000Y-247950000D01*
%TO.C,D4*%
X388300000Y-243890000D02*
X388300000Y-247900000D01*
X386300000Y-243890000D02*
X388300000Y-243890000D01*
X386300000Y-243890000D02*
X386300000Y-247900000D01*
%TO.C,D23*%
X466900000Y-224840000D02*
X466900000Y-228850000D01*
X464900000Y-224840000D02*
X466900000Y-224840000D01*
X464900000Y-224840000D02*
X464900000Y-228850000D01*
%TO.C,D10*%
X402700000Y-262940000D02*
X402700000Y-266950000D01*
X400700000Y-262940000D02*
X402700000Y-262940000D01*
X400700000Y-262940000D02*
X400700000Y-266950000D01*
%TO.C,C1*%
X651166233Y-205165000D02*
X651458767Y-205165000D01*
X651166233Y-206185000D02*
X651458767Y-206185000D01*
%TO.C,D14*%
X419300000Y-243840000D02*
X419300000Y-247850000D01*
X417300000Y-243840000D02*
X419300000Y-243840000D01*
X417300000Y-243840000D02*
X417300000Y-247850000D01*
%TO.C,C7*%
X676390000Y-220083767D02*
X676390000Y-219791233D01*
X677410000Y-220083767D02*
X677410000Y-219791233D01*
%TO.C,C2*%
X651291233Y-197990000D02*
X651583767Y-197990000D01*
X651291233Y-199010000D02*
X651583767Y-199010000D01*
%TO.C,D56*%
X586000000Y-186740000D02*
X586000000Y-190750000D01*
X584000000Y-186740000D02*
X586000000Y-186740000D01*
X584000000Y-186740000D02*
X584000000Y-190750000D01*
%TO.C,D51*%
X567000000Y-186740000D02*
X567000000Y-190750000D01*
X565000000Y-186740000D02*
X567000000Y-186740000D01*
X565000000Y-186740000D02*
X565000000Y-190750000D01*
%TO.C,D17*%
X443200000Y-205690000D02*
X443200000Y-209700000D01*
X441200000Y-205690000D02*
X443200000Y-205690000D01*
X441200000Y-205690000D02*
X441200000Y-209700000D01*
%TO.C,D55*%
X593100000Y-262940000D02*
X593100000Y-266950000D01*
X591100000Y-262940000D02*
X593100000Y-262940000D01*
X591100000Y-262940000D02*
X591100000Y-266950000D01*
%TO.C,D41*%
X528800000Y-186740000D02*
X528800000Y-190750000D01*
X526800000Y-186740000D02*
X528800000Y-186740000D01*
X526800000Y-186740000D02*
X526800000Y-190750000D01*
%TO.C,D29*%
X476500000Y-243840000D02*
X476500000Y-247850000D01*
X474500000Y-243840000D02*
X476500000Y-243840000D01*
X474500000Y-243840000D02*
X474500000Y-247850000D01*
%TO.C,D32*%
X500300000Y-205740000D02*
X500300000Y-209750000D01*
X498300000Y-205740000D02*
X500300000Y-205740000D01*
X498300000Y-205740000D02*
X498300000Y-209750000D01*
%TO.C,D12*%
X424100000Y-205740000D02*
X424100000Y-209750000D01*
X422100000Y-205740000D02*
X424100000Y-205740000D01*
X422100000Y-205740000D02*
X422100000Y-209750000D01*
%TO.C,D15*%
X426500000Y-262940000D02*
X426500000Y-266950000D01*
X424500000Y-262940000D02*
X426500000Y-262940000D01*
X424500000Y-262940000D02*
X424500000Y-266950000D01*
%TO.C,D28*%
X486000000Y-224840000D02*
X486000000Y-228850000D01*
X484000000Y-224840000D02*
X486000000Y-224840000D01*
X484000000Y-224840000D02*
X484000000Y-228850000D01*
%TO.C,R3*%
X648380000Y-181253641D02*
X648380000Y-180946359D01*
X647620000Y-181253641D02*
X647620000Y-180946359D01*
%TO.C,D2*%
X381200000Y-205790000D02*
X381200000Y-209800000D01*
X379200000Y-205790000D02*
X381200000Y-205790000D01*
X379200000Y-205790000D02*
X379200000Y-209800000D01*
%TO.C,R4*%
X647280000Y-181253641D02*
X647280000Y-180946359D01*
X646520000Y-181253641D02*
X646520000Y-180946359D01*
%TO.C,D33*%
X505100000Y-224840000D02*
X505100000Y-228850000D01*
X503100000Y-224840000D02*
X505100000Y-224840000D01*
X503100000Y-224840000D02*
X503100000Y-228850000D01*
%TO.C,C5*%
X662410000Y-211391233D02*
X662410000Y-211683767D01*
X661390000Y-211391233D02*
X661390000Y-211683767D01*
%TO.C,D24*%
X457400000Y-243890000D02*
X457400000Y-247900000D01*
X455400000Y-243890000D02*
X457400000Y-243890000D01*
X455400000Y-243890000D02*
X455400000Y-247900000D01*
%TO.C,D57*%
X595600000Y-205790000D02*
X595600000Y-209800000D01*
X593600000Y-205790000D02*
X595600000Y-205790000D01*
X593600000Y-205790000D02*
X593600000Y-209800000D01*
%TO.C,C6*%
X674290000Y-220108767D02*
X674290000Y-219816233D01*
X675310000Y-220108767D02*
X675310000Y-219816233D01*
%TO.C,D3*%
X383600000Y-224740000D02*
X383600000Y-228750000D01*
X381600000Y-224740000D02*
X383600000Y-224740000D01*
X381600000Y-224740000D02*
X381600000Y-228750000D01*
%TO.C,D58*%
X600300000Y-224840000D02*
X600300000Y-228850000D01*
X598300000Y-224840000D02*
X600300000Y-224840000D01*
X598300000Y-224840000D02*
X598300000Y-228850000D01*
%TO.C,J5*%
X671724000Y-174600000D02*
G75*
G03*
X671724000Y-174600000I-1251000J0D01*
G01*
%TO.C,D68*%
X631300000Y-224790000D02*
X631300000Y-228800000D01*
X629300000Y-224790000D02*
X631300000Y-224790000D01*
X629300000Y-224790000D02*
X629300000Y-228800000D01*
%TO.C,D36*%
X509800000Y-186740000D02*
X509800000Y-190750000D01*
X507800000Y-186740000D02*
X509800000Y-186740000D01*
X507800000Y-186740000D02*
X507800000Y-190750000D01*
%TO.C,C12*%
X659010000Y-211353733D02*
X659010000Y-211646267D01*
X657990000Y-211353733D02*
X657990000Y-211646267D01*
%TO.C,D60*%
X616900000Y-262940000D02*
X616900000Y-266950000D01*
X614900000Y-262940000D02*
X616900000Y-262940000D01*
X614900000Y-262940000D02*
X614900000Y-266950000D01*
%TO.C,C13*%
X660710000Y-211353733D02*
X660710000Y-211646267D01*
X659690000Y-211353733D02*
X659690000Y-211646267D01*
%TO.C,D47*%
X557400000Y-205740000D02*
X557400000Y-209750000D01*
X555400000Y-205740000D02*
X557400000Y-205740000D01*
X555400000Y-205740000D02*
X555400000Y-209750000D01*
%TO.C,D65*%
X640700000Y-262940000D02*
X640700000Y-266950000D01*
X638700000Y-262940000D02*
X640700000Y-262940000D01*
X638700000Y-262940000D02*
X638700000Y-266950000D01*
%TO.C,D26*%
X471800000Y-186740000D02*
X471800000Y-190750000D01*
X469800000Y-186740000D02*
X471800000Y-186740000D01*
X469800000Y-186740000D02*
X469800000Y-190750000D01*
%TO.C,C14*%
X662591233Y-189390000D02*
X662883767Y-189390000D01*
X662591233Y-190410000D02*
X662883767Y-190410000D01*
%TO.C,D67*%
X638400000Y-205790000D02*
X638400000Y-209800000D01*
X636400000Y-205790000D02*
X638400000Y-205790000D01*
X636400000Y-205790000D02*
X636400000Y-209800000D01*
%TO.C,D37*%
X519400000Y-205840000D02*
X519400000Y-209850000D01*
X517400000Y-205840000D02*
X519400000Y-205840000D01*
X517400000Y-205840000D02*
X517400000Y-209850000D01*
%TO.C,D18*%
X447900000Y-224840000D02*
X447900000Y-228850000D01*
X445900000Y-224840000D02*
X447900000Y-224840000D01*
X445900000Y-224840000D02*
X445900000Y-228850000D01*
%TO.C,D5*%
X378800000Y-262940000D02*
X378800000Y-266950000D01*
X376800000Y-262940000D02*
X378800000Y-262940000D01*
X376800000Y-262940000D02*
X376800000Y-266950000D01*
%TO.C,D50*%
X569300000Y-262890000D02*
X569300000Y-266900000D01*
X567300000Y-262890000D02*
X569300000Y-262890000D01*
X567300000Y-262890000D02*
X567300000Y-266900000D01*
%TO.C,C3*%
X662908767Y-192010000D02*
X662616233Y-192010000D01*
X662908767Y-190990000D02*
X662616233Y-190990000D01*
%TO.C,J6*%
X671724000Y-180500000D02*
G75*
G03*
X671724000Y-180500000I-1251000J0D01*
G01*
%TO.C,D52*%
X576500000Y-205840000D02*
X576500000Y-209850000D01*
X574500000Y-205840000D02*
X576500000Y-205840000D01*
X574500000Y-205840000D02*
X574500000Y-209850000D01*
%TO.C,D69*%
X640800000Y-243840000D02*
X640800000Y-247850000D01*
X638800000Y-243840000D02*
X640800000Y-243840000D01*
X638800000Y-243840000D02*
X638800000Y-247850000D01*
%TO.C,D7*%
X405000000Y-205740000D02*
X405000000Y-209750000D01*
X403000000Y-205740000D02*
X405000000Y-205740000D01*
X403000000Y-205740000D02*
X403000000Y-209750000D01*
%TO.C,D42*%
X538400000Y-205740000D02*
X538400000Y-209750000D01*
X536400000Y-205740000D02*
X538400000Y-205740000D01*
X536400000Y-205740000D02*
X536400000Y-209750000D01*
%TO.C,D66*%
X633700000Y-186740000D02*
X633700000Y-190750000D01*
X631700000Y-186740000D02*
X633700000Y-186740000D01*
X631700000Y-186740000D02*
X631700000Y-190750000D01*
%TO.C,D43*%
X543100000Y-224840000D02*
X543100000Y-228850000D01*
X541100000Y-224840000D02*
X543100000Y-224840000D01*
X541100000Y-224840000D02*
X541100000Y-228850000D01*
%TO.C,D38*%
X524100000Y-224740000D02*
X524100000Y-228750000D01*
X522100000Y-224740000D02*
X524100000Y-224740000D01*
X522100000Y-224740000D02*
X522100000Y-228750000D01*
%TO.C,D46*%
X547900000Y-186740000D02*
X547900000Y-190750000D01*
X545900000Y-186740000D02*
X547900000Y-186740000D01*
X545900000Y-186740000D02*
X545900000Y-190750000D01*
%TO.C,C10*%
X651166233Y-203465000D02*
X651458767Y-203465000D01*
X651166233Y-204485000D02*
X651458767Y-204485000D01*
%TD*%
%LPC*%
D15*
%TO.C,U3*%
X685000000Y-216900000D03*
X655790000Y-216900000D03*
X685000000Y-267700000D03*
X655790000Y-267700000D03*
D16*
X658965000Y-216900000D03*
D17*
X661505000Y-216900000D03*
X664045000Y-216900000D03*
X666585000Y-216900000D03*
X669125000Y-216900000D03*
X671665000Y-216900000D03*
X674205000Y-216900000D03*
X676745000Y-216900000D03*
X679285000Y-216900000D03*
X681825000Y-216900000D03*
%TD*%
D18*
%TO.C,K39*%
X569305500Y-222504000D03*
D19*
X570575500Y-219964000D03*
D20*
X574385500Y-222504000D03*
D19*
X576925500Y-217424000D03*
D18*
X579465500Y-222504000D03*
D21*
X567035500Y-219964000D03*
D22*
X580479000Y-217424000D03*
%TD*%
D18*
%TO.C,K4*%
X421668000Y-184404000D03*
D19*
X422938000Y-181864000D03*
D20*
X426748000Y-184404000D03*
D19*
X429288000Y-179324000D03*
D18*
X431828000Y-184404000D03*
D21*
X419398000Y-181864000D03*
D22*
X432841500Y-179324000D03*
%TD*%
D18*
%TO.C,K38*%
X550255500Y-222504000D03*
D19*
X551525500Y-219964000D03*
D20*
X555335500Y-222504000D03*
D19*
X557875500Y-217424000D03*
D18*
X560415500Y-222504000D03*
D21*
X547985500Y-219964000D03*
D22*
X561429000Y-217424000D03*
%TD*%
D18*
%TO.C,K32*%
X435955500Y-222504000D03*
D19*
X437225500Y-219964000D03*
D20*
X441035500Y-222504000D03*
D19*
X443575500Y-217424000D03*
D18*
X446115500Y-222504000D03*
D21*
X433685500Y-219964000D03*
D22*
X447129000Y-217424000D03*
%TD*%
D18*
%TO.C,K56*%
X390714260Y-260604000D03*
D19*
X391984260Y-258064000D03*
D20*
X395794260Y-260604000D03*
D19*
X398334260Y-255524000D03*
D18*
X400874260Y-260604000D03*
D23*
X388444260Y-258074000D03*
D22*
X401887760Y-255524000D03*
%TD*%
D18*
%TO.C,K50*%
X540730500Y-241554000D03*
D19*
X542000500Y-239014000D03*
D20*
X545810500Y-241554000D03*
D19*
X548350500Y-236474000D03*
D18*
X550890500Y-241554000D03*
D21*
X538460500Y-239014000D03*
D22*
X551904000Y-236474000D03*
%TD*%
D18*
%TO.C,K46*%
X464530500Y-241554000D03*
D19*
X465800500Y-239014000D03*
D20*
X469610500Y-241554000D03*
D19*
X472150500Y-236474000D03*
D18*
X474690500Y-241554000D03*
D21*
X462260500Y-239014000D03*
D22*
X475704000Y-236474000D03*
%TD*%
D18*
%TO.C,K17*%
X412143000Y-203454000D03*
D19*
X413413000Y-200914000D03*
D20*
X417223000Y-203454000D03*
D19*
X419763000Y-198374000D03*
D18*
X422303000Y-203454000D03*
D21*
X409873000Y-200914000D03*
D22*
X423316500Y-198374000D03*
%TD*%
D24*
%TO.C,K14*%
X614835000Y-177419000D03*
D20*
X614835000Y-192659000D03*
D18*
X621693000Y-184404000D03*
D19*
X622963000Y-181864000D03*
D20*
X626773000Y-184404000D03*
D19*
X629313000Y-179324000D03*
D18*
X631853000Y-184404000D03*
D24*
X638711000Y-177419000D03*
D20*
X638711000Y-192659000D03*
D21*
X619423000Y-181864000D03*
D25*
X632866500Y-179334000D03*
%TD*%
D18*
%TO.C,K2*%
X383568000Y-184404000D03*
D19*
X384838000Y-181864000D03*
D20*
X388648000Y-184404000D03*
D19*
X391188000Y-179324000D03*
D18*
X393728000Y-184404000D03*
D21*
X381298000Y-181864000D03*
D22*
X394741500Y-179324000D03*
%TD*%
D18*
%TO.C,K48*%
X502630500Y-241554000D03*
D19*
X503900500Y-239014000D03*
D20*
X507710500Y-241554000D03*
D19*
X510250500Y-236474000D03*
D18*
X512790500Y-241554000D03*
D21*
X500360500Y-239014000D03*
D22*
X513804000Y-236474000D03*
%TD*%
D26*
%TO.C,J3*%
X680673000Y-203979000D03*
D27*
X683213000Y-203979000D03*
X685753000Y-203979000D03*
X688293000Y-203979000D03*
X690833000Y-203979000D03*
X693373000Y-203979000D03*
%TD*%
D18*
%TO.C,K23*%
X526443000Y-203454000D03*
D19*
X527713000Y-200914000D03*
D20*
X531523000Y-203454000D03*
D19*
X534063000Y-198374000D03*
D18*
X536603000Y-203454000D03*
D21*
X524173000Y-200914000D03*
D22*
X537616500Y-198374000D03*
%TD*%
D18*
%TO.C,K1*%
X364518000Y-184404000D03*
D19*
X365788000Y-181864000D03*
D20*
X369598000Y-184404000D03*
D19*
X372138000Y-179324000D03*
D18*
X374678000Y-184404000D03*
D21*
X362248000Y-181864000D03*
D22*
X375691500Y-179324000D03*
%TD*%
D18*
%TO.C,K31*%
X416905500Y-222504000D03*
D19*
X418175500Y-219964000D03*
D20*
X421985500Y-222504000D03*
D19*
X424525500Y-217424000D03*
D18*
X427065500Y-222504000D03*
D21*
X414635500Y-219964000D03*
D22*
X428079000Y-217424000D03*
%TD*%
D18*
%TO.C,K51*%
X559780500Y-241554000D03*
D19*
X561050500Y-239014000D03*
D20*
X564860500Y-241554000D03*
D19*
X567400500Y-236474000D03*
D18*
X569940500Y-241554000D03*
D21*
X557510500Y-239014000D03*
D22*
X570954000Y-236474000D03*
%TD*%
D18*
%TO.C,K54*%
X628778000Y-241554000D03*
D19*
X630048000Y-239014000D03*
D20*
X633858000Y-241554000D03*
D19*
X636398000Y-236474000D03*
D18*
X638938000Y-241554000D03*
D23*
X626508000Y-239024000D03*
D22*
X639951500Y-236474000D03*
%TD*%
D18*
%TO.C,K61*%
X604965500Y-260604000D03*
D19*
X606235500Y-258064000D03*
D20*
X610045500Y-260604000D03*
D19*
X612585500Y-255524000D03*
D18*
X615125500Y-260604000D03*
D23*
X602695500Y-258074000D03*
D22*
X616139000Y-255524000D03*
%TD*%
D18*
%TO.C,K29*%
X371663020Y-222504000D03*
D19*
X372933020Y-219964000D03*
D20*
X376743020Y-222504000D03*
D19*
X379283020Y-217424000D03*
D18*
X381823020Y-222504000D03*
D21*
X369393020Y-219964000D03*
D22*
X382836520Y-217424000D03*
%TD*%
D18*
%TO.C,K33*%
X455005500Y-222504000D03*
D19*
X456275500Y-219964000D03*
D20*
X460085500Y-222504000D03*
D19*
X462625500Y-217424000D03*
D18*
X465165500Y-222504000D03*
D21*
X452735500Y-219964000D03*
D22*
X466179000Y-217424000D03*
%TD*%
D18*
%TO.C,K8*%
X497868000Y-184404000D03*
D19*
X499138000Y-181864000D03*
D20*
X502948000Y-184404000D03*
D19*
X505488000Y-179324000D03*
D18*
X508028000Y-184404000D03*
D21*
X495598000Y-181864000D03*
D22*
X509041500Y-179324000D03*
%TD*%
D18*
%TO.C,K44*%
X426430500Y-241554000D03*
D19*
X427700500Y-239014000D03*
D20*
X431510500Y-241554000D03*
D19*
X434050500Y-236474000D03*
D18*
X436590500Y-241554000D03*
D21*
X424160500Y-239014000D03*
D22*
X437604000Y-236474000D03*
%TD*%
D18*
%TO.C,K3*%
X402618000Y-184404000D03*
D19*
X403888000Y-181864000D03*
D20*
X407698000Y-184404000D03*
D19*
X410238000Y-179324000D03*
D18*
X412778000Y-184404000D03*
D21*
X400348000Y-181864000D03*
D22*
X413791500Y-179324000D03*
%TD*%
D18*
%TO.C,K5*%
X440718000Y-184404000D03*
D19*
X441988000Y-181864000D03*
D20*
X445798000Y-184404000D03*
D19*
X448338000Y-179324000D03*
D18*
X450878000Y-184404000D03*
D21*
X438448000Y-181864000D03*
D22*
X451891500Y-179324000D03*
%TD*%
D18*
%TO.C,K10*%
X535968000Y-184404000D03*
D19*
X537238000Y-181864000D03*
D20*
X541048000Y-184404000D03*
D19*
X543588000Y-179324000D03*
D18*
X546128000Y-184404000D03*
D21*
X533698000Y-181864000D03*
D22*
X547141500Y-179324000D03*
%TD*%
D18*
%TO.C,K28*%
X626455500Y-203454000D03*
D19*
X627725500Y-200914000D03*
D20*
X631535500Y-203454000D03*
D19*
X634075500Y-198374000D03*
D18*
X636615500Y-203454000D03*
D21*
X624185500Y-200914000D03*
D22*
X637629000Y-198374000D03*
%TD*%
D18*
%TO.C,K7*%
X478818000Y-184404000D03*
D19*
X480088000Y-181864000D03*
D20*
X483898000Y-184404000D03*
D19*
X486438000Y-179324000D03*
D18*
X488978000Y-184404000D03*
D21*
X476548000Y-181864000D03*
D22*
X489991500Y-179324000D03*
%TD*%
D18*
%TO.C,K59*%
X557340500Y-260604000D03*
D19*
X558610500Y-258064000D03*
D20*
X562420500Y-260604000D03*
D19*
X564960500Y-255524000D03*
D18*
X567500500Y-260604000D03*
D23*
X555070500Y-258074000D03*
D22*
X568514000Y-255524000D03*
%TD*%
D18*
%TO.C,K11*%
X555018000Y-184404000D03*
D19*
X556288000Y-181864000D03*
D20*
X560098000Y-184404000D03*
D19*
X562638000Y-179324000D03*
D18*
X565178000Y-184404000D03*
D21*
X552748000Y-181864000D03*
D22*
X566191500Y-179324000D03*
%TD*%
D18*
%TO.C,K18*%
X431193000Y-203454000D03*
D19*
X432463000Y-200914000D03*
D20*
X436273000Y-203454000D03*
D19*
X438813000Y-198374000D03*
D18*
X441353000Y-203454000D03*
D21*
X428923000Y-200914000D03*
D22*
X442366500Y-198374000D03*
%TD*%
D18*
%TO.C,K40*%
X588355500Y-222504000D03*
D19*
X589625500Y-219964000D03*
D20*
X593435500Y-222504000D03*
D19*
X595975500Y-217424000D03*
D18*
X598515500Y-222504000D03*
D21*
X586085500Y-219964000D03*
D22*
X599529000Y-217424000D03*
%TD*%
D18*
%TO.C,K16*%
X393093000Y-203454000D03*
D19*
X394363000Y-200914000D03*
D20*
X398173000Y-203454000D03*
D19*
X400713000Y-198374000D03*
D18*
X403253000Y-203454000D03*
D21*
X390823000Y-200914000D03*
D22*
X404266500Y-198374000D03*
%TD*%
D18*
%TO.C,K6*%
X459768000Y-184404000D03*
D19*
X461038000Y-181864000D03*
D20*
X464848000Y-184404000D03*
D19*
X467388000Y-179324000D03*
D18*
X469928000Y-184404000D03*
D21*
X457498000Y-181864000D03*
D22*
X470941500Y-179324000D03*
%TD*%
D18*
%TO.C,K37*%
X531205500Y-222504000D03*
D19*
X532475500Y-219964000D03*
D20*
X536285500Y-222504000D03*
D19*
X538825500Y-217424000D03*
D18*
X541365500Y-222504000D03*
D21*
X528935500Y-219964000D03*
D22*
X542379000Y-217424000D03*
%TD*%
D18*
%TO.C,K35*%
X493105500Y-222504000D03*
D19*
X494375500Y-219964000D03*
D20*
X498185500Y-222504000D03*
D19*
X500725500Y-217424000D03*
D18*
X503265500Y-222504000D03*
D21*
X490835500Y-219964000D03*
D22*
X504279000Y-217424000D03*
%TD*%
D18*
%TO.C,K21*%
X488343000Y-203454000D03*
D19*
X489613000Y-200914000D03*
D20*
X493423000Y-203454000D03*
D19*
X495963000Y-198374000D03*
D18*
X498503000Y-203454000D03*
D21*
X486073000Y-200914000D03*
D22*
X499516500Y-198374000D03*
%TD*%
D18*
%TO.C,K13*%
X593118000Y-184404000D03*
D19*
X594388000Y-181864000D03*
D20*
X598198000Y-184404000D03*
D19*
X600738000Y-179324000D03*
D18*
X603278000Y-184404000D03*
D21*
X590848000Y-181864000D03*
D22*
X604291500Y-179324000D03*
%TD*%
D18*
%TO.C,K53*%
X602643000Y-241554000D03*
D19*
X603913000Y-239014000D03*
D20*
X607723000Y-241554000D03*
D19*
X610263000Y-236474000D03*
D18*
X612803000Y-241554000D03*
D21*
X600373000Y-239014000D03*
D22*
X613816500Y-236474000D03*
%TD*%
D24*
%TO.C,K58*%
X441035500Y-253619000D03*
D20*
X441035500Y-268859000D03*
D18*
X485955500Y-260604000D03*
D19*
X487225500Y-258064000D03*
D20*
X491035500Y-260604000D03*
D19*
X493575500Y-255524000D03*
D18*
X496115500Y-260604000D03*
D24*
X541035500Y-253619000D03*
D20*
X541035500Y-268859000D03*
D23*
X483685500Y-258074000D03*
D22*
X497129000Y-255524000D03*
%TD*%
D18*
%TO.C,K19*%
X450243000Y-203454000D03*
D19*
X451513000Y-200914000D03*
D20*
X455323000Y-203454000D03*
D19*
X457863000Y-198374000D03*
D18*
X460403000Y-203454000D03*
D21*
X447973000Y-200914000D03*
D22*
X461416500Y-198374000D03*
%TD*%
D18*
%TO.C,K47*%
X483580500Y-241554000D03*
D19*
X484850500Y-239014000D03*
D20*
X488660500Y-241554000D03*
D19*
X491200500Y-236474000D03*
D18*
X493740500Y-241554000D03*
D21*
X481310500Y-239014000D03*
D22*
X494754000Y-236474000D03*
%TD*%
D28*
%TO.C,J4*%
X688793000Y-182349000D03*
D29*
X688793000Y-181079000D03*
X690063000Y-182349000D03*
X690063000Y-181079000D03*
X691333000Y-182349000D03*
X691333000Y-181079000D03*
X692603000Y-182349000D03*
X692603000Y-181079000D03*
X693873000Y-182349000D03*
X693873000Y-181079000D03*
%TD*%
D18*
%TO.C,K36*%
X512155500Y-222504000D03*
D19*
X513425500Y-219964000D03*
D20*
X517235500Y-222504000D03*
D19*
X519775500Y-217424000D03*
D18*
X522315500Y-222504000D03*
D21*
X509885500Y-219964000D03*
D22*
X523329000Y-217424000D03*
%TD*%
D18*
%TO.C,K30*%
X397855500Y-222504000D03*
D19*
X399125500Y-219964000D03*
D20*
X402935500Y-222504000D03*
D19*
X405475500Y-217424000D03*
D18*
X408015500Y-222504000D03*
D21*
X395585500Y-219964000D03*
D22*
X409029000Y-217424000D03*
%TD*%
D18*
%TO.C,K15*%
X369280500Y-203454000D03*
D19*
X370550500Y-200914000D03*
D20*
X374360500Y-203454000D03*
D19*
X376900500Y-198374000D03*
D18*
X379440500Y-203454000D03*
D21*
X367010500Y-200914000D03*
D22*
X380454000Y-198374000D03*
%TD*%
D24*
%TO.C,K41*%
X612485500Y-215519000D03*
D20*
X612485500Y-230759000D03*
D18*
X619343500Y-222504000D03*
D19*
X620613500Y-219964000D03*
D20*
X624423500Y-222504000D03*
D19*
X626963500Y-217424000D03*
D18*
X629503500Y-222504000D03*
D24*
X636361500Y-215519000D03*
D20*
X636361500Y-230759000D03*
D23*
X617073500Y-219974000D03*
D22*
X630517000Y-217424000D03*
%TD*%
D26*
%TO.C,J2*%
X678000000Y-209800000D03*
D27*
X680540000Y-209800000D03*
X683080000Y-209800000D03*
X685620000Y-209800000D03*
X688160000Y-209800000D03*
X690700000Y-209800000D03*
X693240000Y-209800000D03*
%TD*%
D18*
%TO.C,K45*%
X445480500Y-241554000D03*
D19*
X446750500Y-239014000D03*
D20*
X450560500Y-241554000D03*
D19*
X453100500Y-236474000D03*
D18*
X455640500Y-241554000D03*
D21*
X443210500Y-239014000D03*
D22*
X456654000Y-236474000D03*
%TD*%
D18*
%TO.C,K22*%
X507393000Y-203454000D03*
D19*
X508663000Y-200914000D03*
D20*
X512473000Y-203454000D03*
D19*
X515013000Y-198374000D03*
D18*
X517553000Y-203454000D03*
D21*
X505123000Y-200914000D03*
D22*
X518566500Y-198374000D03*
%TD*%
D18*
%TO.C,K20*%
X469293000Y-203454000D03*
D19*
X470563000Y-200914000D03*
D20*
X474373000Y-203454000D03*
D19*
X476913000Y-198374000D03*
D18*
X479453000Y-203454000D03*
D21*
X467023000Y-200914000D03*
D22*
X480466500Y-198374000D03*
%TD*%
D24*
%TO.C,K42*%
X369567520Y-234569000D03*
D20*
X369567520Y-249809000D03*
D18*
X376425520Y-241554000D03*
D19*
X377695520Y-239014000D03*
D20*
X381505520Y-241554000D03*
D19*
X384045520Y-236474000D03*
D18*
X386585520Y-241554000D03*
D24*
X393443520Y-234569000D03*
D20*
X393443520Y-249809000D03*
D23*
X374155520Y-239024000D03*
D22*
X387599020Y-236474000D03*
%TD*%
D18*
%TO.C,K62*%
X628778000Y-260604000D03*
D19*
X630048000Y-258064000D03*
D20*
X633858000Y-260604000D03*
D19*
X636398000Y-255524000D03*
D18*
X638938000Y-260604000D03*
D23*
X626508000Y-258074000D03*
D22*
X639951500Y-255524000D03*
%TD*%
D18*
%TO.C,K49*%
X521680500Y-241554000D03*
D19*
X522950500Y-239014000D03*
D20*
X526760500Y-241554000D03*
D19*
X529300500Y-236474000D03*
D18*
X531840500Y-241554000D03*
D21*
X519410500Y-239014000D03*
D22*
X532854000Y-236474000D03*
%TD*%
D18*
%TO.C,K43*%
X407380500Y-241554000D03*
D19*
X408650500Y-239014000D03*
D20*
X412460500Y-241554000D03*
D19*
X415000500Y-236474000D03*
D18*
X417540500Y-241554000D03*
D21*
X405110500Y-239014000D03*
D22*
X418554000Y-236474000D03*
%TD*%
D18*
%TO.C,K52*%
X578830500Y-241554000D03*
D19*
X580100500Y-239014000D03*
D20*
X583910500Y-241554000D03*
D19*
X586450500Y-236474000D03*
D18*
X588990500Y-241554000D03*
D21*
X576560500Y-239014000D03*
D22*
X590004000Y-236474000D03*
%TD*%
D18*
%TO.C,K25*%
X564543000Y-203454000D03*
D19*
X565813000Y-200914000D03*
D20*
X569623000Y-203454000D03*
D19*
X572163000Y-198374000D03*
D18*
X574703000Y-203454000D03*
D21*
X562273000Y-200914000D03*
D22*
X575716500Y-198374000D03*
%TD*%
D30*
%TO.C,SW2*%
X656873000Y-176579000D03*
D31*
X659873000Y-176579000D03*
X662873000Y-176579000D03*
D32*
X654073000Y-176579000D03*
X665673000Y-176579000D03*
%TD*%
D18*
%TO.C,K57*%
X414528000Y-260604000D03*
D19*
X415798000Y-258064000D03*
D20*
X419608000Y-260604000D03*
D19*
X422148000Y-255524000D03*
D18*
X424688000Y-260604000D03*
D23*
X412258000Y-258074000D03*
D22*
X425701500Y-255524000D03*
%TD*%
D33*
%TO.C,J1*%
X649855000Y-174399000D03*
D34*
X649545000Y-177399000D03*
X644705000Y-177399000D03*
D33*
X644395000Y-174399000D03*
%TD*%
D18*
%TO.C,K26*%
X583593000Y-203454000D03*
D19*
X584863000Y-200914000D03*
D20*
X588673000Y-203454000D03*
D19*
X591213000Y-198374000D03*
D18*
X593753000Y-203454000D03*
D21*
X581323000Y-200914000D03*
D22*
X594766500Y-198374000D03*
%TD*%
D18*
%TO.C,K34*%
X474055500Y-222504000D03*
D19*
X475325500Y-219964000D03*
D20*
X479135500Y-222504000D03*
D19*
X481675500Y-217424000D03*
D18*
X484215500Y-222504000D03*
D21*
X471785500Y-219964000D03*
D22*
X485229000Y-217424000D03*
%TD*%
D18*
%TO.C,K27*%
X602643000Y-203454000D03*
D19*
X603913000Y-200914000D03*
D20*
X607723000Y-203454000D03*
D19*
X610263000Y-198374000D03*
D18*
X612803000Y-203454000D03*
D21*
X600373000Y-200914000D03*
D22*
X613816500Y-198374000D03*
%TD*%
D18*
%TO.C,K24*%
X545493000Y-203454000D03*
D19*
X546763000Y-200914000D03*
D20*
X550573000Y-203454000D03*
D19*
X553113000Y-198374000D03*
D18*
X555653000Y-203454000D03*
D21*
X543223000Y-200914000D03*
D22*
X556666500Y-198374000D03*
%TD*%
D18*
%TO.C,K55*%
X366900520Y-260604000D03*
D19*
X368170520Y-258064000D03*
D20*
X371980520Y-260604000D03*
D19*
X374520520Y-255524000D03*
D18*
X377060520Y-260604000D03*
D23*
X364630520Y-258074000D03*
D22*
X378074020Y-255524000D03*
%TD*%
D18*
%TO.C,K60*%
X581153000Y-260604000D03*
D19*
X582423000Y-258064000D03*
D20*
X586233000Y-260604000D03*
D19*
X588773000Y-255524000D03*
D18*
X591313000Y-260604000D03*
D23*
X578883000Y-258074000D03*
D22*
X592326500Y-255524000D03*
%TD*%
D18*
%TO.C,K12*%
X574068000Y-184404000D03*
D19*
X575338000Y-181864000D03*
D20*
X579148000Y-184404000D03*
D19*
X581688000Y-179324000D03*
D18*
X584228000Y-184404000D03*
D21*
X571798000Y-181864000D03*
D22*
X585241500Y-179324000D03*
%TD*%
D18*
%TO.C,K9*%
X516918000Y-184404000D03*
D19*
X518188000Y-181864000D03*
D20*
X521998000Y-184404000D03*
D19*
X524538000Y-179324000D03*
D18*
X527078000Y-184404000D03*
D21*
X514648000Y-181864000D03*
D22*
X528091500Y-179324000D03*
%TD*%
D35*
%TO.C,D8*%
X408800000Y-225450000D03*
X408800000Y-228750000D03*
%TD*%
D36*
%TO.C,U1*%
X654862000Y-204450000D03*
X654862000Y-203950000D03*
X654862000Y-203450000D03*
X654862000Y-202950000D03*
X654862000Y-202450000D03*
X654862000Y-201950000D03*
X654862000Y-201450000D03*
X654862000Y-200950000D03*
X654862000Y-200450000D03*
X654862000Y-199950000D03*
X654862000Y-199450000D03*
X654862000Y-198950000D03*
X654862000Y-198450000D03*
X654862000Y-197950000D03*
X654862000Y-197450000D03*
X654862000Y-196950000D03*
D37*
X656850000Y-194962000D03*
X657350000Y-194962000D03*
X657850000Y-194962000D03*
X658350000Y-194962000D03*
X658850000Y-194962000D03*
X659350000Y-194962000D03*
X659850000Y-194962000D03*
X660350000Y-194962000D03*
X660850000Y-194962000D03*
X661350000Y-194962000D03*
X661850000Y-194962000D03*
X662350000Y-194962000D03*
X662850000Y-194962000D03*
X663350000Y-194962000D03*
X663850000Y-194962000D03*
X664350000Y-194962000D03*
D36*
X666338000Y-196950000D03*
X666338000Y-197450000D03*
X666338000Y-197950000D03*
X666338000Y-198450000D03*
X666338000Y-198950000D03*
X666338000Y-199450000D03*
X666338000Y-199950000D03*
X666338000Y-200450000D03*
X666338000Y-200950000D03*
X666338000Y-201450000D03*
X666338000Y-201950000D03*
X666338000Y-202450000D03*
X666338000Y-202950000D03*
X666338000Y-203450000D03*
X666338000Y-203950000D03*
X666338000Y-204450000D03*
D37*
X664350000Y-206438000D03*
X663850000Y-206438000D03*
X663350000Y-206438000D03*
X662850000Y-206438000D03*
X662350000Y-206438000D03*
X661850000Y-206438000D03*
X661350000Y-206438000D03*
X660850000Y-206438000D03*
X660350000Y-206438000D03*
X659850000Y-206438000D03*
X659350000Y-206438000D03*
X658850000Y-206438000D03*
X658350000Y-206438000D03*
X657850000Y-206438000D03*
X657350000Y-206438000D03*
X656850000Y-206438000D03*
%TD*%
D35*
%TO.C,D30*%
X496900000Y-263650000D03*
X496900000Y-266950000D03*
%TD*%
%TO.C,D16*%
X432600000Y-187350000D03*
X432600000Y-190650000D03*
%TD*%
%TO.C,D21*%
X451700000Y-187450000D03*
X451700000Y-190750000D03*
%TD*%
%TO.C,D44*%
X532700000Y-244650000D03*
X532700000Y-247950000D03*
%TD*%
%TO.C,D61*%
X604100000Y-187450000D03*
X604100000Y-190750000D03*
%TD*%
D38*
%TO.C,R9*%
X689463000Y-178279000D03*
X690483000Y-178279000D03*
%TD*%
D35*
%TO.C,D11*%
X413600000Y-187450000D03*
X413600000Y-190750000D03*
%TD*%
D39*
%TO.C,C11*%
X656800000Y-210675000D03*
X656800000Y-212400000D03*
%TD*%
D35*
%TO.C,D64*%
X613600000Y-244650000D03*
X613600000Y-247950000D03*
%TD*%
%TO.C,D13*%
X427900000Y-225550000D03*
X427900000Y-228850000D03*
%TD*%
%TO.C,D1*%
X375500000Y-187450000D03*
X375500000Y-190750000D03*
%TD*%
%TO.C,D39*%
X513600000Y-244550000D03*
X513600000Y-247850000D03*
%TD*%
D40*
%TO.C,C4*%
X670000000Y-201500000D03*
X670000000Y-199775000D03*
%TD*%
D35*
%TO.C,D48*%
X561200000Y-225550000D03*
X561200000Y-228850000D03*
%TD*%
%TO.C,D22*%
X461200000Y-206500000D03*
X461200000Y-209800000D03*
%TD*%
%TO.C,D49*%
X551700000Y-244550000D03*
X551700000Y-247850000D03*
%TD*%
%TO.C,D6*%
X394500000Y-187450000D03*
X394500000Y-190750000D03*
%TD*%
%TO.C,D62*%
X613600000Y-206450000D03*
X613600000Y-209750000D03*
%TD*%
%TO.C,D27*%
X480300000Y-206450000D03*
X480300000Y-209750000D03*
%TD*%
%TO.C,D34*%
X494500000Y-244650000D03*
X494500000Y-247950000D03*
%TD*%
%TO.C,D31*%
X489700000Y-187450000D03*
X489700000Y-190750000D03*
%TD*%
D41*
%TO.C,R1*%
X690120000Y-212100000D03*
X689100000Y-212100000D03*
%TD*%
D35*
%TO.C,D19*%
X437400000Y-244550000D03*
X437400000Y-247850000D03*
%TD*%
%TO.C,D54*%
X570700000Y-244600000D03*
X570700000Y-247900000D03*
%TD*%
%TO.C,D53*%
X580200000Y-225550000D03*
X580200000Y-228850000D03*
%TD*%
%TO.C,D59*%
X589800000Y-244650000D03*
X589800000Y-247950000D03*
%TD*%
%TO.C,D4*%
X387300000Y-244600000D03*
X387300000Y-247900000D03*
%TD*%
%TO.C,D23*%
X465900000Y-225550000D03*
X465900000Y-228850000D03*
%TD*%
%TO.C,D10*%
X401700000Y-263650000D03*
X401700000Y-266950000D03*
%TD*%
D42*
%TO.C,C1*%
X650450000Y-205675000D03*
X652175000Y-205675000D03*
%TD*%
D35*
%TO.C,D14*%
X418300000Y-244550000D03*
X418300000Y-247850000D03*
%TD*%
D40*
%TO.C,C7*%
X676900000Y-220800000D03*
X676900000Y-219075000D03*
%TD*%
D42*
%TO.C,C2*%
X650575000Y-198500000D03*
X652300000Y-198500000D03*
%TD*%
D35*
%TO.C,D56*%
X585000000Y-187450000D03*
X585000000Y-190750000D03*
%TD*%
%TO.C,D51*%
X566000000Y-187450000D03*
X566000000Y-190750000D03*
%TD*%
%TO.C,D17*%
X442200000Y-206400000D03*
X442200000Y-209700000D03*
%TD*%
%TO.C,D55*%
X592100000Y-263650000D03*
X592100000Y-266950000D03*
%TD*%
%TO.C,D41*%
X527800000Y-187450000D03*
X527800000Y-190750000D03*
%TD*%
%TO.C,D29*%
X475500000Y-244550000D03*
X475500000Y-247850000D03*
%TD*%
%TO.C,D32*%
X499300000Y-206450000D03*
X499300000Y-209750000D03*
%TD*%
%TO.C,D12*%
X423100000Y-206450000D03*
X423100000Y-209750000D03*
%TD*%
%TO.C,D15*%
X425500000Y-263650000D03*
X425500000Y-266950000D03*
%TD*%
%TO.C,D28*%
X485000000Y-225550000D03*
X485000000Y-228850000D03*
%TD*%
D43*
%TO.C,R3*%
X648000000Y-180590000D03*
X648000000Y-181610000D03*
%TD*%
D35*
%TO.C,D2*%
X380200000Y-206500000D03*
X380200000Y-209800000D03*
%TD*%
D43*
%TO.C,R4*%
X646900000Y-180590000D03*
X646900000Y-181610000D03*
%TD*%
D35*
%TO.C,D33*%
X504100000Y-225550000D03*
X504100000Y-228850000D03*
%TD*%
D39*
%TO.C,C5*%
X661900000Y-210675000D03*
X661900000Y-212400000D03*
%TD*%
D35*
%TO.C,D24*%
X456400000Y-244600000D03*
X456400000Y-247900000D03*
%TD*%
%TO.C,D57*%
X594600000Y-206500000D03*
X594600000Y-209800000D03*
%TD*%
D40*
%TO.C,C6*%
X674800000Y-220825000D03*
X674800000Y-219100000D03*
%TD*%
D35*
%TO.C,D3*%
X382600000Y-225450000D03*
X382600000Y-228750000D03*
%TD*%
%TO.C,D58*%
X599300000Y-225550000D03*
X599300000Y-228850000D03*
%TD*%
D44*
%TO.C,J5*%
X670473000Y-174600000D03*
%TD*%
D35*
%TO.C,D68*%
X630300000Y-225500000D03*
X630300000Y-228800000D03*
%TD*%
%TO.C,D36*%
X508800000Y-187450000D03*
X508800000Y-190750000D03*
%TD*%
D39*
%TO.C,C12*%
X658500000Y-210637500D03*
X658500000Y-212362500D03*
%TD*%
D35*
%TO.C,D60*%
X615900000Y-263650000D03*
X615900000Y-266950000D03*
%TD*%
D39*
%TO.C,C13*%
X660200000Y-210637500D03*
X660200000Y-212362500D03*
%TD*%
D35*
%TO.C,D47*%
X556400000Y-206450000D03*
X556400000Y-209750000D03*
%TD*%
%TO.C,D65*%
X639700000Y-263650000D03*
X639700000Y-266950000D03*
%TD*%
%TO.C,D26*%
X470800000Y-187450000D03*
X470800000Y-190750000D03*
%TD*%
D42*
%TO.C,C14*%
X661875000Y-189900000D03*
X663600000Y-189900000D03*
%TD*%
D35*
%TO.C,D67*%
X637400000Y-206500000D03*
X637400000Y-209800000D03*
%TD*%
%TO.C,D37*%
X518400000Y-206550000D03*
X518400000Y-209850000D03*
%TD*%
%TO.C,D18*%
X446900000Y-225550000D03*
X446900000Y-228850000D03*
%TD*%
%TO.C,D5*%
X377800000Y-263650000D03*
X377800000Y-266950000D03*
%TD*%
%TO.C,D50*%
X568300000Y-263600000D03*
X568300000Y-266900000D03*
%TD*%
D45*
%TO.C,C3*%
X663625000Y-191500000D03*
X661900000Y-191500000D03*
%TD*%
D44*
%TO.C,J6*%
X670473000Y-180500000D03*
%TD*%
D35*
%TO.C,D52*%
X575500000Y-206550000D03*
X575500000Y-209850000D03*
%TD*%
%TO.C,D69*%
X639800000Y-244550000D03*
X639800000Y-247850000D03*
%TD*%
%TO.C,D7*%
X404000000Y-206450000D03*
X404000000Y-209750000D03*
%TD*%
%TO.C,D42*%
X537400000Y-206450000D03*
X537400000Y-209750000D03*
%TD*%
%TO.C,D66*%
X632700000Y-187450000D03*
X632700000Y-190750000D03*
%TD*%
%TO.C,D43*%
X542100000Y-225550000D03*
X542100000Y-228850000D03*
%TD*%
%TO.C,D38*%
X523100000Y-225450000D03*
X523100000Y-228750000D03*
%TD*%
%TO.C,D46*%
X546900000Y-187450000D03*
X546900000Y-190750000D03*
%TD*%
D42*
%TO.C,C10*%
X650450000Y-203975000D03*
X652175000Y-203975000D03*
%TD*%
%LPD*%
M02*
