M48
INCH
T1C0.0670
T2C0.0866
T3C0.1181
T4C0.1200
T5C0.1570
%
G90
G05
T1
X14.3511Y-7.26
X14.4449Y-10.26
X14.5386Y-8.01
X14.6324Y-8.76
X14.7511Y-7.26
X14.8199Y-9.51
X14.8449Y-10.26
X14.9386Y-8.01
X15.0324Y-8.76
X15.1011Y-7.26
X15.2199Y-9.51
X15.3825Y-10.26
X15.4761Y-8.01
X15.5011Y-7.26
X15.6636Y-8.76
X15.7825Y-10.26
X15.8511Y-7.26
X15.8761Y-8.01
X16.0386Y-9.51
X16.0636Y-8.76
X16.2261Y-8.01
X16.2511Y-7.26
X16.32Y-10.26
X16.4136Y-8.76
X16.4386Y-9.51
X16.6011Y-7.26
X16.6261Y-8.01
X16.72Y-10.26
X16.7886Y-9.51
X16.8136Y-8.76
X16.9761Y-8.01
X17.0011Y-7.26
X17.1636Y-8.76
X17.1886Y-9.51
X17.3511Y-7.26
X17.3761Y-8.01
X17.5386Y-9.51
X17.5636Y-8.76
X17.7261Y-8.01
X17.7511Y-7.26
X17.9136Y-8.76
X17.9386Y-9.51
X18.1011Y-7.26
X18.1261Y-8.01
X18.2886Y-9.51
X18.3136Y-8.76
X18.4761Y-8.01
X18.5011Y-7.26
X18.6636Y-8.76
X18.6886Y-9.51
X18.8511Y-7.26
X18.8761Y-8.01
X19.0386Y-9.51
X19.0636Y-8.76
X19.1321Y-10.26
X19.2261Y-8.01
X19.2511Y-7.26
X19.4136Y-8.76
X19.4386Y-9.51
X19.5321Y-10.26
X19.6011Y-7.26
X19.6261Y-8.01
X19.7886Y-9.51
X19.8136Y-8.76
X19.9761Y-8.01
X20.0011Y-7.26
X20.1636Y-8.76
X20.1886Y-9.51
X20.3511Y-7.26
X20.3761Y-8.01
X20.5386Y-9.51
X20.5636Y-8.76
X20.7261Y-8.01
X20.7511Y-7.26
X20.9136Y-8.76
X20.9386Y-9.51
X21.1011Y-7.26
X21.1261Y-8.01
X21.2886Y-9.51
X21.3136Y-8.76
X21.4761Y-8.01
X21.5011Y-7.26
X21.6636Y-8.76
X21.6886Y-9.51
X21.8511Y-7.26
X21.8761Y-8.01
X21.9425Y-10.26
X22.0386Y-9.51
X22.0636Y-8.76
X22.2261Y-8.01
X22.2511Y-7.26
X22.3425Y-10.26
X22.4136Y-8.76
X22.4386Y-9.51
X22.6011Y-7.26
X22.6261Y-8.01
X22.7886Y-9.51
X22.8136Y-8.76
X22.88Y-10.26
X22.9761Y-8.01
X23.0011Y-7.26
X23.1636Y-8.76
X23.1886Y-9.51
X23.28Y-10.26
X23.3511Y-7.26
X23.3761Y-8.01
X23.5636Y-8.76
X23.7261Y-8.01
X23.7261Y-9.51
X23.7511Y-7.26
X23.8175Y-10.26
X24.1261Y-8.01
X24.1261Y-9.51
X24.2175Y-10.26
X24.3836Y-8.76
X24.4761Y-7.26
X24.6636Y-8.01
X24.755Y-9.51
X24.755Y-10.26
X24.7836Y-8.76
X24.8761Y-7.26
X25.0636Y-8.01
X25.155Y-9.51
X25.155Y-10.26
T2
X25.8185Y-8.5394
X25.8185Y-10.5394
X26.9685Y-8.5394
X26.9685Y-10.5394
T3
X14.4011Y-7.16
X14.4949Y-10.16
X14.5886Y-7.91
X14.6511Y-7.06
X14.6824Y-8.66
X14.7449Y-10.06
X14.8386Y-7.81
X14.8699Y-9.41
X14.9324Y-8.56
X15.1199Y-9.31
X15.1511Y-7.16
X15.4011Y-7.06
X15.4325Y-10.16
X15.5261Y-7.91
X15.6825Y-10.06
X15.7136Y-8.66
X15.7761Y-7.81
X15.9011Y-7.16
X15.9636Y-8.56
X16.0886Y-9.41
X16.1511Y-7.06
X16.2761Y-7.91
X16.3386Y-9.31
X16.37Y-10.16
X16.4636Y-8.66
X16.5261Y-7.81
X16.62Y-10.06
X16.6511Y-7.16
X16.7136Y-8.56
X16.8386Y-9.41
X16.9011Y-7.06
X17.0261Y-7.91
X17.0886Y-9.31
X17.2136Y-8.66
X17.2761Y-7.81
X17.4011Y-7.16
X17.4636Y-8.56
X17.5886Y-9.41
X17.6511Y-7.06
X17.7761Y-7.91
X17.8386Y-9.31
X17.9636Y-8.66
X18.0261Y-7.81
X18.1511Y-7.16
X18.2136Y-8.56
X18.3386Y-9.41
X18.4011Y-7.06
X18.5261Y-7.91
X18.5886Y-9.31
X18.7136Y-8.66
X18.7761Y-7.81
X18.9011Y-7.16
X18.9636Y-8.56
X19.0886Y-9.41
X19.1511Y-7.06
X19.1821Y-10.16
X19.2761Y-7.91
X19.3386Y-9.31
X19.4321Y-10.06
X19.4636Y-8.66
X19.5261Y-7.81
X19.6511Y-7.16
X19.7136Y-8.56
X19.8386Y-9.41
X19.9011Y-7.06
X20.0261Y-7.91
X20.0886Y-9.31
X20.2136Y-8.66
X20.2761Y-7.81
X20.4011Y-7.16
X20.4636Y-8.56
X20.5886Y-9.41
X20.6511Y-7.06
X20.7761Y-7.91
X20.8386Y-9.31
X20.9636Y-8.66
X21.0261Y-7.81
X21.1511Y-7.16
X21.2136Y-8.56
X21.3386Y-9.41
X21.4011Y-7.06
X21.5261Y-7.91
X21.5886Y-9.31
X21.7136Y-8.66
X21.7761Y-7.81
X21.9011Y-7.16
X21.9636Y-8.56
X21.9925Y-10.16
X22.0886Y-9.41
X22.1511Y-7.06
X22.2425Y-10.06
X22.2761Y-7.91
X22.3386Y-9.31
X22.4636Y-8.66
X22.5261Y-7.81
X22.6511Y-7.16
X22.7136Y-8.56
X22.8386Y-9.41
X22.9011Y-7.06
X22.93Y-10.16
X23.0261Y-7.91
X23.0886Y-9.31
X23.18Y-10.06
X23.2136Y-8.66
X23.2761Y-7.81
X23.4011Y-7.16
X23.4636Y-8.56
X23.6511Y-7.06
X23.7761Y-7.91
X23.7761Y-9.41
X23.8675Y-10.16
X24.0261Y-7.81
X24.0261Y-9.31
X24.1175Y-10.06
X24.4336Y-8.66
X24.5261Y-7.16
X24.6836Y-8.56
X24.7136Y-7.91
X24.7761Y-7.06
X24.805Y-9.41
X24.805Y-10.16
X24.9636Y-7.81
X25.055Y-9.31
X25.055Y-10.06
T4
X14.5499Y-9.235
X15.4899Y-9.235
X17.3636Y-9.985
X21.3006Y-9.985
X24.1136Y-8.485
X24.2061Y-6.985
X25.0536Y-8.485
X25.1461Y-6.985
T5
X14.5499Y-9.835
X14.5511Y-7.26
X14.6449Y-10.26
X14.7386Y-8.01
X14.8324Y-8.76
X15.0199Y-9.51
X15.3011Y-7.26
X15.4899Y-9.835
X15.5825Y-10.26
X15.6761Y-8.01
X15.8636Y-8.76
X16.0511Y-7.26
X16.2386Y-9.51
X16.4261Y-8.01
X16.52Y-10.26
X16.6136Y-8.76
X16.8011Y-7.26
X16.9886Y-9.51
X17.1761Y-8.01
X17.3636Y-8.76
X17.3636Y-10.585
X17.5511Y-7.26
X17.7386Y-9.51
X17.9261Y-8.01
X18.1136Y-8.76
X18.3011Y-7.26
X18.4886Y-9.51
X18.6761Y-8.01
X18.8636Y-8.76
X19.0511Y-7.26
X19.2386Y-9.51
X19.3321Y-10.26
X19.4261Y-8.01
X19.6136Y-8.76
X19.8011Y-7.26
X19.9886Y-9.51
X20.1761Y-8.01
X20.3636Y-8.76
X20.5511Y-7.26
X20.7386Y-9.51
X20.9261Y-8.01
X21.1136Y-8.76
X21.3006Y-10.585
X21.3011Y-7.26
X21.4886Y-9.51
X21.6761Y-8.01
X21.8636Y-8.76
X22.0511Y-7.26
X22.1425Y-10.26
X22.2386Y-9.51
X22.4261Y-8.01
X22.6136Y-8.76
X22.8011Y-7.26
X22.9886Y-9.51
X23.08Y-10.26
X23.1761Y-8.01
X23.3636Y-8.76
X23.5511Y-7.26
X23.9261Y-8.01
X23.9261Y-9.51
X24.0175Y-10.26
X24.1136Y-9.085
X24.2061Y-7.585
X24.5836Y-8.76
X24.6761Y-7.26
X24.8636Y-8.01
X24.955Y-9.51
X24.955Y-10.26
X25.0536Y-9.085
X25.1461Y-7.585
T0
M30
