%TF.GenerationSoftware,KiCad,Pcbnew,7.0.7*%
%TF.CreationDate,2023-10-31T18:53:21-05:00*%
%TF.ProjectId,KeyboardPCB,4b657962-6f61-4726-9450-43422e6b6963,rev?*%
%TF.SameCoordinates,Original*%
%TF.FileFunction,Paste,Top*%
%TF.FilePolarity,Positive*%
%FSLAX46Y46*%
G04 Gerber Fmt 4.6, Leading zero omitted, Abs format (unit mm)*
G04 Created by KiCad (PCBNEW 7.0.7) date 2023-10-31 18:53:21*
%MOMM*%
%LPD*%
G01*
G04 APERTURE LIST*
G04 Aperture macros list*
%AMRoundRect*
0 Rectangle with rounded corners*
0 $1 Rounding radius*
0 $2 $3 $4 $5 $6 $7 $8 $9 X,Y pos of 4 corners*
0 Add a 4 corners polygon primitive as box body*
4,1,4,$2,$3,$4,$5,$6,$7,$8,$9,$2,$3,0*
0 Add four circle primitives for the rounded corners*
1,1,$1+$1,$2,$3*
1,1,$1+$1,$4,$5*
1,1,$1+$1,$6,$7*
1,1,$1+$1,$8,$9*
0 Add four rect primitives between the rounded corners*
20,1,$1+$1,$2,$3,$4,$5,0*
20,1,$1+$1,$4,$5,$6,$7,0*
20,1,$1+$1,$6,$7,$8,$9,0*
20,1,$1+$1,$8,$9,$2,$3,0*%
G04 Aperture macros list end*
%ADD10RoundRect,0.237500X-0.287500X-0.237500X0.287500X-0.237500X0.287500X0.237500X-0.287500X0.237500X0*%
%ADD11RoundRect,0.150000X-0.512500X-0.150000X0.512500X-0.150000X0.512500X0.150000X-0.512500X0.150000X0*%
%ADD12RoundRect,0.237500X0.300000X0.237500X-0.300000X0.237500X-0.300000X-0.237500X0.300000X-0.237500X0*%
%ADD13R,2.400000X2.000000*%
%ADD14RoundRect,0.237500X0.237500X-0.300000X0.237500X0.300000X-0.237500X0.300000X-0.237500X-0.300000X0*%
%ADD15O,0.800000X2.400000*%
%ADD16O,2.400000X0.800000*%
%ADD17RoundRect,0.135000X-0.135000X-0.185000X0.135000X-0.185000X0.135000X0.185000X-0.135000X0.185000X0*%
%ADD18R,0.850000X0.350000*%
%ADD19R,1.700000X2.450000*%
%ADD20RoundRect,0.135000X-0.185000X0.135000X-0.185000X-0.135000X0.185000X-0.135000X0.185000X0.135000X0*%
%ADD21R,0.400000X1.650000*%
%ADD22R,1.825000X0.700000*%
%ADD23R,2.000000X1.500000*%
%ADD24R,1.350000X2.000000*%
%ADD25R,1.430000X2.500000*%
%ADD26RoundRect,0.237500X-0.237500X0.300000X-0.237500X-0.300000X0.237500X-0.300000X0.237500X0.300000X0*%
G04 APERTURE END LIST*
D10*
%TO.C,D9*%
X689523000Y-176079000D03*
X691273000Y-176079000D03*
%TD*%
D11*
%TO.C,U2*%
X660262500Y-185650000D03*
X660262500Y-186600000D03*
X660262500Y-187550000D03*
X662537500Y-187550000D03*
X662537500Y-185650000D03*
%TD*%
D12*
%TO.C,C17*%
X657262500Y-182300000D03*
X655537500Y-182300000D03*
%TD*%
D13*
%TO.C,X2*%
X672500000Y-198737500D03*
X672500000Y-202737500D03*
%TD*%
D14*
%TO.C,C8*%
X669000000Y-200000000D03*
X669000000Y-198275000D03*
%TD*%
D15*
%TO.C,IC2*%
X694273000Y-187029000D03*
X693073000Y-187029000D03*
X691873000Y-187029000D03*
X690673000Y-187029000D03*
X689473000Y-187029000D03*
X688273000Y-187029000D03*
X687073000Y-187029000D03*
X685873000Y-187029000D03*
X684673000Y-187029000D03*
X683473000Y-187029000D03*
X682273000Y-187029000D03*
X681073000Y-187029000D03*
D16*
X680973000Y-189079000D03*
X680973000Y-190279000D03*
X680973000Y-191479000D03*
X680973000Y-192679000D03*
X680973000Y-193879000D03*
X680973000Y-195079000D03*
X680973000Y-196279000D03*
D15*
X681073000Y-198329000D03*
X682273000Y-198329000D03*
X683473000Y-198329000D03*
X684673000Y-198329000D03*
X685873000Y-198329000D03*
X687073000Y-198329000D03*
X688273000Y-198329000D03*
X689473000Y-198329000D03*
X690673000Y-198329000D03*
X691873000Y-198329000D03*
X693073000Y-198329000D03*
X694273000Y-198329000D03*
%TD*%
D12*
%TO.C,C19*%
X653562500Y-181800000D03*
X651837500Y-181800000D03*
%TD*%
D14*
%TO.C,C16*%
X665100000Y-187462500D03*
X665100000Y-185737500D03*
%TD*%
D17*
%TO.C,R7*%
X664480000Y-181100000D03*
X665500000Y-181100000D03*
%TD*%
%TO.C,R10*%
X682590000Y-177800000D03*
X683610000Y-177800000D03*
%TD*%
%TO.C,R6*%
X677580000Y-178000000D03*
X678600000Y-178000000D03*
%TD*%
D18*
%TO.C,IC1*%
X662900000Y-183450000D03*
X662900000Y-182800000D03*
X662900000Y-182150000D03*
X662900000Y-181500000D03*
X660000000Y-181500000D03*
X660000000Y-182150000D03*
X660000000Y-182800000D03*
X660000000Y-183450000D03*
D19*
X661450000Y-182475000D03*
%TD*%
D10*
%TO.C,D20*%
X683058000Y-176079000D03*
X684808000Y-176079000D03*
%TD*%
D20*
%TO.C,R2*%
X655400000Y-184190000D03*
X655400000Y-185210000D03*
%TD*%
D10*
%TO.C,D71*%
X676525000Y-176100000D03*
X678275000Y-176100000D03*
%TD*%
D21*
%TO.C,J1*%
X648425000Y-177279000D03*
X647775000Y-177279000D03*
X647125000Y-177279000D03*
X646475000Y-177279000D03*
X645825000Y-177279000D03*
D22*
X650075000Y-176079000D03*
D23*
X649975000Y-177379000D03*
D24*
X649855000Y-175329000D03*
D25*
X648085000Y-174129000D03*
X646165000Y-174129000D03*
D24*
X644375000Y-175329000D03*
D23*
X644225000Y-177399000D03*
D22*
X644125000Y-176079000D03*
%TD*%
D14*
%TO.C,C15*%
X657400000Y-186262500D03*
X657400000Y-184537500D03*
%TD*%
D26*
%TO.C,C9*%
X669000000Y-201675000D03*
X669000000Y-203400000D03*
%TD*%
M02*
