%TF.GenerationSoftware,KiCad,Pcbnew,7.0.7*%
%TF.CreationDate,2023-10-31T18:53:21-05:00*%
%TF.ProjectId,KeyboardPCB,4b657962-6f61-4726-9450-43422e6b6963,rev?*%
%TF.SameCoordinates,Original*%
%TF.FileFunction,Paste,Bot*%
%TF.FilePolarity,Positive*%
%FSLAX46Y46*%
G04 Gerber Fmt 4.6, Leading zero omitted, Abs format (unit mm)*
G04 Created by KiCad (PCBNEW 7.0.7) date 2023-10-31 18:53:21*
%MOMM*%
%LPD*%
G01*
G04 APERTURE LIST*
G04 Aperture macros list*
%AMRoundRect*
0 Rectangle with rounded corners*
0 $1 Rounding radius*
0 $2 $3 $4 $5 $6 $7 $8 $9 X,Y pos of 4 corners*
0 Add a 4 corners polygon primitive as box body*
4,1,4,$2,$3,$4,$5,$6,$7,$8,$9,$2,$3,0*
0 Add four circle primitives for the rounded corners*
1,1,$1+$1,$2,$3*
1,1,$1+$1,$4,$5*
1,1,$1+$1,$6,$7*
1,1,$1+$1,$8,$9*
0 Add four rect primitives between the rounded corners*
20,1,$1+$1,$2,$3,$4,$5,0*
20,1,$1+$1,$4,$5,$6,$7,0*
20,1,$1+$1,$6,$7,$8,$9,0*
20,1,$1+$1,$8,$9,$2,$3,0*%
G04 Aperture macros list end*
%ADD10RoundRect,0.200000X-1.340000X-1.050000X1.340000X-1.050000X1.340000X1.050000X-1.340000X1.050000X0*%
%ADD11RoundRect,0.200000X-1.326500X-1.050000X1.326500X-1.050000X1.326500X1.050000X-1.326500X1.050000X0*%
%ADD12RoundRect,0.201600X-1.338400X-1.058400X1.338400X-1.058400X1.338400X1.058400X-1.338400X1.058400X0*%
%ADD13RoundRect,0.201600X-1.324900X-1.058400X1.324900X-1.058400X1.324900X1.058400X-1.324900X1.058400X0*%
%ADD14RoundRect,0.225000X-0.375000X0.225000X-0.375000X-0.225000X0.375000X-0.225000X0.375000X0.225000X0*%
%ADD15R,1.475000X0.300000*%
%ADD16R,0.300000X1.475000*%
%ADD17RoundRect,0.135000X-0.135000X-0.185000X0.135000X-0.185000X0.135000X0.185000X-0.135000X0.185000X0*%
%ADD18RoundRect,0.237500X-0.237500X0.300000X-0.237500X-0.300000X0.237500X-0.300000X0.237500X0.300000X0*%
%ADD19RoundRect,0.237500X0.237500X-0.300000X0.237500X0.300000X-0.237500X0.300000X-0.237500X-0.300000X0*%
%ADD20RoundRect,0.135000X0.135000X0.185000X-0.135000X0.185000X-0.135000X-0.185000X0.135000X-0.185000X0*%
%ADD21RoundRect,0.237500X-0.300000X-0.237500X0.300000X-0.237500X0.300000X0.237500X-0.300000X0.237500X0*%
%ADD22RoundRect,0.135000X0.185000X-0.135000X0.185000X0.135000X-0.185000X0.135000X-0.185000X-0.135000X0*%
%ADD23RoundRect,0.237500X0.300000X0.237500X-0.300000X0.237500X-0.300000X-0.237500X0.300000X-0.237500X0*%
G04 APERTURE END LIST*
D10*
%TO.C,K39*%
X567035500Y-219964000D03*
D11*
X580479000Y-217424000D03*
%TD*%
D10*
%TO.C,K4*%
X419398000Y-181864000D03*
D11*
X432841500Y-179324000D03*
%TD*%
D10*
%TO.C,K38*%
X547985500Y-219964000D03*
D11*
X561429000Y-217424000D03*
%TD*%
D10*
%TO.C,K32*%
X433685500Y-219964000D03*
D11*
X447129000Y-217424000D03*
%TD*%
D12*
%TO.C,K56*%
X388444260Y-258074000D03*
D11*
X401887760Y-255524000D03*
%TD*%
D10*
%TO.C,K50*%
X538460500Y-239014000D03*
D11*
X551904000Y-236474000D03*
%TD*%
D10*
%TO.C,K46*%
X462260500Y-239014000D03*
D11*
X475704000Y-236474000D03*
%TD*%
D10*
%TO.C,K17*%
X409873000Y-200914000D03*
D11*
X423316500Y-198374000D03*
%TD*%
D10*
%TO.C,K14*%
X619423000Y-181864000D03*
D13*
X632866500Y-179334000D03*
%TD*%
D10*
%TO.C,K2*%
X381298000Y-181864000D03*
D11*
X394741500Y-179324000D03*
%TD*%
D10*
%TO.C,K48*%
X500360500Y-239014000D03*
D11*
X513804000Y-236474000D03*
%TD*%
D10*
%TO.C,K23*%
X524173000Y-200914000D03*
D11*
X537616500Y-198374000D03*
%TD*%
D10*
%TO.C,K1*%
X362248000Y-181864000D03*
D11*
X375691500Y-179324000D03*
%TD*%
D10*
%TO.C,K31*%
X414635500Y-219964000D03*
D11*
X428079000Y-217424000D03*
%TD*%
D10*
%TO.C,K51*%
X557510500Y-239014000D03*
D11*
X570954000Y-236474000D03*
%TD*%
D12*
%TO.C,K54*%
X626508000Y-239024000D03*
D11*
X639951500Y-236474000D03*
%TD*%
D12*
%TO.C,K61*%
X602695500Y-258074000D03*
D11*
X616139000Y-255524000D03*
%TD*%
D10*
%TO.C,K29*%
X369393020Y-219964000D03*
D11*
X382836520Y-217424000D03*
%TD*%
D10*
%TO.C,K33*%
X452735500Y-219964000D03*
D11*
X466179000Y-217424000D03*
%TD*%
D10*
%TO.C,K8*%
X495598000Y-181864000D03*
D11*
X509041500Y-179324000D03*
%TD*%
D10*
%TO.C,K44*%
X424160500Y-239014000D03*
D11*
X437604000Y-236474000D03*
%TD*%
D10*
%TO.C,K3*%
X400348000Y-181864000D03*
D11*
X413791500Y-179324000D03*
%TD*%
D10*
%TO.C,K5*%
X438448000Y-181864000D03*
D11*
X451891500Y-179324000D03*
%TD*%
D10*
%TO.C,K10*%
X533698000Y-181864000D03*
D11*
X547141500Y-179324000D03*
%TD*%
D10*
%TO.C,K28*%
X624185500Y-200914000D03*
D11*
X637629000Y-198374000D03*
%TD*%
D10*
%TO.C,K7*%
X476548000Y-181864000D03*
D11*
X489991500Y-179324000D03*
%TD*%
D12*
%TO.C,K59*%
X555070500Y-258074000D03*
D11*
X568514000Y-255524000D03*
%TD*%
D10*
%TO.C,K11*%
X552748000Y-181864000D03*
D11*
X566191500Y-179324000D03*
%TD*%
D10*
%TO.C,K18*%
X428923000Y-200914000D03*
D11*
X442366500Y-198374000D03*
%TD*%
D10*
%TO.C,K40*%
X586085500Y-219964000D03*
D11*
X599529000Y-217424000D03*
%TD*%
D10*
%TO.C,K16*%
X390823000Y-200914000D03*
D11*
X404266500Y-198374000D03*
%TD*%
D10*
%TO.C,K6*%
X457498000Y-181864000D03*
D11*
X470941500Y-179324000D03*
%TD*%
D10*
%TO.C,K37*%
X528935500Y-219964000D03*
D11*
X542379000Y-217424000D03*
%TD*%
D10*
%TO.C,K35*%
X490835500Y-219964000D03*
D11*
X504279000Y-217424000D03*
%TD*%
D10*
%TO.C,K21*%
X486073000Y-200914000D03*
D11*
X499516500Y-198374000D03*
%TD*%
D10*
%TO.C,K13*%
X590848000Y-181864000D03*
D11*
X604291500Y-179324000D03*
%TD*%
D10*
%TO.C,K53*%
X600373000Y-239014000D03*
D11*
X613816500Y-236474000D03*
%TD*%
D12*
%TO.C,K58*%
X483685500Y-258074000D03*
D11*
X497129000Y-255524000D03*
%TD*%
D10*
%TO.C,K19*%
X447973000Y-200914000D03*
D11*
X461416500Y-198374000D03*
%TD*%
D10*
%TO.C,K47*%
X481310500Y-239014000D03*
D11*
X494754000Y-236474000D03*
%TD*%
D10*
%TO.C,K36*%
X509885500Y-219964000D03*
D11*
X523329000Y-217424000D03*
%TD*%
D10*
%TO.C,K30*%
X395585500Y-219964000D03*
D11*
X409029000Y-217424000D03*
%TD*%
D10*
%TO.C,K15*%
X367010500Y-200914000D03*
D11*
X380454000Y-198374000D03*
%TD*%
D12*
%TO.C,K41*%
X617073500Y-219974000D03*
D11*
X630517000Y-217424000D03*
%TD*%
D10*
%TO.C,K45*%
X443210500Y-239014000D03*
D11*
X456654000Y-236474000D03*
%TD*%
D10*
%TO.C,K22*%
X505123000Y-200914000D03*
D11*
X518566500Y-198374000D03*
%TD*%
D10*
%TO.C,K20*%
X467023000Y-200914000D03*
D11*
X480466500Y-198374000D03*
%TD*%
D12*
%TO.C,K42*%
X374155520Y-239024000D03*
D11*
X387599020Y-236474000D03*
%TD*%
D12*
%TO.C,K62*%
X626508000Y-258074000D03*
D11*
X639951500Y-255524000D03*
%TD*%
D10*
%TO.C,K49*%
X519410500Y-239014000D03*
D11*
X532854000Y-236474000D03*
%TD*%
D10*
%TO.C,K43*%
X405110500Y-239014000D03*
D11*
X418554000Y-236474000D03*
%TD*%
D10*
%TO.C,K52*%
X576560500Y-239014000D03*
D11*
X590004000Y-236474000D03*
%TD*%
D10*
%TO.C,K25*%
X562273000Y-200914000D03*
D11*
X575716500Y-198374000D03*
%TD*%
D12*
%TO.C,K57*%
X412258000Y-258074000D03*
D11*
X425701500Y-255524000D03*
%TD*%
D10*
%TO.C,K26*%
X581323000Y-200914000D03*
D11*
X594766500Y-198374000D03*
%TD*%
D10*
%TO.C,K34*%
X471785500Y-219964000D03*
D11*
X485229000Y-217424000D03*
%TD*%
D10*
%TO.C,K27*%
X600373000Y-200914000D03*
D11*
X613816500Y-198374000D03*
%TD*%
D10*
%TO.C,K24*%
X543223000Y-200914000D03*
D11*
X556666500Y-198374000D03*
%TD*%
D12*
%TO.C,K55*%
X364630520Y-258074000D03*
D11*
X378074020Y-255524000D03*
%TD*%
D12*
%TO.C,K60*%
X578883000Y-258074000D03*
D11*
X592326500Y-255524000D03*
%TD*%
D10*
%TO.C,K12*%
X571798000Y-181864000D03*
D11*
X585241500Y-179324000D03*
%TD*%
D10*
%TO.C,K9*%
X514648000Y-181864000D03*
D11*
X528091500Y-179324000D03*
%TD*%
D14*
%TO.C,D8*%
X408800000Y-225450000D03*
X408800000Y-228750000D03*
%TD*%
D15*
%TO.C,U1*%
X654862000Y-204450000D03*
X654862000Y-203950000D03*
X654862000Y-203450000D03*
X654862000Y-202950000D03*
X654862000Y-202450000D03*
X654862000Y-201950000D03*
X654862000Y-201450000D03*
X654862000Y-200950000D03*
X654862000Y-200450000D03*
X654862000Y-199950000D03*
X654862000Y-199450000D03*
X654862000Y-198950000D03*
X654862000Y-198450000D03*
X654862000Y-197950000D03*
X654862000Y-197450000D03*
X654862000Y-196950000D03*
D16*
X656850000Y-194962000D03*
X657350000Y-194962000D03*
X657850000Y-194962000D03*
X658350000Y-194962000D03*
X658850000Y-194962000D03*
X659350000Y-194962000D03*
X659850000Y-194962000D03*
X660350000Y-194962000D03*
X660850000Y-194962000D03*
X661350000Y-194962000D03*
X661850000Y-194962000D03*
X662350000Y-194962000D03*
X662850000Y-194962000D03*
X663350000Y-194962000D03*
X663850000Y-194962000D03*
X664350000Y-194962000D03*
D15*
X666338000Y-196950000D03*
X666338000Y-197450000D03*
X666338000Y-197950000D03*
X666338000Y-198450000D03*
X666338000Y-198950000D03*
X666338000Y-199450000D03*
X666338000Y-199950000D03*
X666338000Y-200450000D03*
X666338000Y-200950000D03*
X666338000Y-201450000D03*
X666338000Y-201950000D03*
X666338000Y-202450000D03*
X666338000Y-202950000D03*
X666338000Y-203450000D03*
X666338000Y-203950000D03*
X666338000Y-204450000D03*
D16*
X664350000Y-206438000D03*
X663850000Y-206438000D03*
X663350000Y-206438000D03*
X662850000Y-206438000D03*
X662350000Y-206438000D03*
X661850000Y-206438000D03*
X661350000Y-206438000D03*
X660850000Y-206438000D03*
X660350000Y-206438000D03*
X659850000Y-206438000D03*
X659350000Y-206438000D03*
X658850000Y-206438000D03*
X658350000Y-206438000D03*
X657850000Y-206438000D03*
X657350000Y-206438000D03*
X656850000Y-206438000D03*
%TD*%
D14*
%TO.C,D30*%
X496900000Y-263650000D03*
X496900000Y-266950000D03*
%TD*%
%TO.C,D16*%
X432600000Y-187350000D03*
X432600000Y-190650000D03*
%TD*%
%TO.C,D21*%
X451700000Y-187450000D03*
X451700000Y-190750000D03*
%TD*%
%TO.C,D44*%
X532700000Y-244650000D03*
X532700000Y-247950000D03*
%TD*%
%TO.C,D61*%
X604100000Y-187450000D03*
X604100000Y-190750000D03*
%TD*%
D17*
%TO.C,R9*%
X689463000Y-178279000D03*
X690483000Y-178279000D03*
%TD*%
D14*
%TO.C,D11*%
X413600000Y-187450000D03*
X413600000Y-190750000D03*
%TD*%
D18*
%TO.C,C11*%
X656800000Y-210675000D03*
X656800000Y-212400000D03*
%TD*%
D14*
%TO.C,D64*%
X613600000Y-244650000D03*
X613600000Y-247950000D03*
%TD*%
%TO.C,D13*%
X427900000Y-225550000D03*
X427900000Y-228850000D03*
%TD*%
%TO.C,D1*%
X375500000Y-187450000D03*
X375500000Y-190750000D03*
%TD*%
%TO.C,D39*%
X513600000Y-244550000D03*
X513600000Y-247850000D03*
%TD*%
D19*
%TO.C,C4*%
X670000000Y-201500000D03*
X670000000Y-199775000D03*
%TD*%
D14*
%TO.C,D48*%
X561200000Y-225550000D03*
X561200000Y-228850000D03*
%TD*%
%TO.C,D22*%
X461200000Y-206500000D03*
X461200000Y-209800000D03*
%TD*%
%TO.C,D49*%
X551700000Y-244550000D03*
X551700000Y-247850000D03*
%TD*%
%TO.C,D6*%
X394500000Y-187450000D03*
X394500000Y-190750000D03*
%TD*%
%TO.C,D62*%
X613600000Y-206450000D03*
X613600000Y-209750000D03*
%TD*%
%TO.C,D27*%
X480300000Y-206450000D03*
X480300000Y-209750000D03*
%TD*%
%TO.C,D34*%
X494500000Y-244650000D03*
X494500000Y-247950000D03*
%TD*%
%TO.C,D31*%
X489700000Y-187450000D03*
X489700000Y-190750000D03*
%TD*%
D20*
%TO.C,R1*%
X690120000Y-212100000D03*
X689100000Y-212100000D03*
%TD*%
D14*
%TO.C,D19*%
X437400000Y-244550000D03*
X437400000Y-247850000D03*
%TD*%
%TO.C,D54*%
X570700000Y-244600000D03*
X570700000Y-247900000D03*
%TD*%
%TO.C,D53*%
X580200000Y-225550000D03*
X580200000Y-228850000D03*
%TD*%
%TO.C,D59*%
X589800000Y-244650000D03*
X589800000Y-247950000D03*
%TD*%
%TO.C,D4*%
X387300000Y-244600000D03*
X387300000Y-247900000D03*
%TD*%
%TO.C,D23*%
X465900000Y-225550000D03*
X465900000Y-228850000D03*
%TD*%
%TO.C,D10*%
X401700000Y-263650000D03*
X401700000Y-266950000D03*
%TD*%
D21*
%TO.C,C1*%
X650450000Y-205675000D03*
X652175000Y-205675000D03*
%TD*%
D14*
%TO.C,D14*%
X418300000Y-244550000D03*
X418300000Y-247850000D03*
%TD*%
D19*
%TO.C,C7*%
X676900000Y-220800000D03*
X676900000Y-219075000D03*
%TD*%
D21*
%TO.C,C2*%
X650575000Y-198500000D03*
X652300000Y-198500000D03*
%TD*%
D14*
%TO.C,D56*%
X585000000Y-187450000D03*
X585000000Y-190750000D03*
%TD*%
%TO.C,D51*%
X566000000Y-187450000D03*
X566000000Y-190750000D03*
%TD*%
%TO.C,D17*%
X442200000Y-206400000D03*
X442200000Y-209700000D03*
%TD*%
%TO.C,D55*%
X592100000Y-263650000D03*
X592100000Y-266950000D03*
%TD*%
%TO.C,D41*%
X527800000Y-187450000D03*
X527800000Y-190750000D03*
%TD*%
%TO.C,D29*%
X475500000Y-244550000D03*
X475500000Y-247850000D03*
%TD*%
%TO.C,D32*%
X499300000Y-206450000D03*
X499300000Y-209750000D03*
%TD*%
%TO.C,D12*%
X423100000Y-206450000D03*
X423100000Y-209750000D03*
%TD*%
%TO.C,D15*%
X425500000Y-263650000D03*
X425500000Y-266950000D03*
%TD*%
%TO.C,D28*%
X485000000Y-225550000D03*
X485000000Y-228850000D03*
%TD*%
D22*
%TO.C,R3*%
X648000000Y-180590000D03*
X648000000Y-181610000D03*
%TD*%
D14*
%TO.C,D2*%
X380200000Y-206500000D03*
X380200000Y-209800000D03*
%TD*%
D22*
%TO.C,R4*%
X646900000Y-180590000D03*
X646900000Y-181610000D03*
%TD*%
D14*
%TO.C,D33*%
X504100000Y-225550000D03*
X504100000Y-228850000D03*
%TD*%
D18*
%TO.C,C5*%
X661900000Y-210675000D03*
X661900000Y-212400000D03*
%TD*%
D14*
%TO.C,D24*%
X456400000Y-244600000D03*
X456400000Y-247900000D03*
%TD*%
%TO.C,D57*%
X594600000Y-206500000D03*
X594600000Y-209800000D03*
%TD*%
D19*
%TO.C,C6*%
X674800000Y-220825000D03*
X674800000Y-219100000D03*
%TD*%
D14*
%TO.C,D3*%
X382600000Y-225450000D03*
X382600000Y-228750000D03*
%TD*%
%TO.C,D58*%
X599300000Y-225550000D03*
X599300000Y-228850000D03*
%TD*%
%TO.C,D68*%
X630300000Y-225500000D03*
X630300000Y-228800000D03*
%TD*%
%TO.C,D36*%
X508800000Y-187450000D03*
X508800000Y-190750000D03*
%TD*%
D18*
%TO.C,C12*%
X658500000Y-210637500D03*
X658500000Y-212362500D03*
%TD*%
D14*
%TO.C,D60*%
X615900000Y-263650000D03*
X615900000Y-266950000D03*
%TD*%
D18*
%TO.C,C13*%
X660200000Y-210637500D03*
X660200000Y-212362500D03*
%TD*%
D14*
%TO.C,D47*%
X556400000Y-206450000D03*
X556400000Y-209750000D03*
%TD*%
%TO.C,D65*%
X639700000Y-263650000D03*
X639700000Y-266950000D03*
%TD*%
%TO.C,D26*%
X470800000Y-187450000D03*
X470800000Y-190750000D03*
%TD*%
D21*
%TO.C,C14*%
X661875000Y-189900000D03*
X663600000Y-189900000D03*
%TD*%
D14*
%TO.C,D67*%
X637400000Y-206500000D03*
X637400000Y-209800000D03*
%TD*%
%TO.C,D37*%
X518400000Y-206550000D03*
X518400000Y-209850000D03*
%TD*%
%TO.C,D18*%
X446900000Y-225550000D03*
X446900000Y-228850000D03*
%TD*%
%TO.C,D5*%
X377800000Y-263650000D03*
X377800000Y-266950000D03*
%TD*%
%TO.C,D50*%
X568300000Y-263600000D03*
X568300000Y-266900000D03*
%TD*%
D23*
%TO.C,C3*%
X663625000Y-191500000D03*
X661900000Y-191500000D03*
%TD*%
D14*
%TO.C,D52*%
X575500000Y-206550000D03*
X575500000Y-209850000D03*
%TD*%
%TO.C,D69*%
X639800000Y-244550000D03*
X639800000Y-247850000D03*
%TD*%
%TO.C,D7*%
X404000000Y-206450000D03*
X404000000Y-209750000D03*
%TD*%
%TO.C,D42*%
X537400000Y-206450000D03*
X537400000Y-209750000D03*
%TD*%
%TO.C,D66*%
X632700000Y-187450000D03*
X632700000Y-190750000D03*
%TD*%
%TO.C,D43*%
X542100000Y-225550000D03*
X542100000Y-228850000D03*
%TD*%
%TO.C,D38*%
X523100000Y-225450000D03*
X523100000Y-228750000D03*
%TD*%
%TO.C,D46*%
X546900000Y-187450000D03*
X546900000Y-190750000D03*
%TD*%
D21*
%TO.C,C10*%
X650450000Y-203975000D03*
X652175000Y-203975000D03*
%TD*%
M02*
