%TF.GenerationSoftware,KiCad,Pcbnew,7.0.7*%
%TF.CreationDate,2023-10-31T18:53:21-05:00*%
%TF.ProjectId,KeyboardPCB,4b657962-6f61-4726-9450-43422e6b6963,rev?*%
%TF.SameCoordinates,Original*%
%TF.FileFunction,Soldermask,Bot*%
%TF.FilePolarity,Negative*%
%FSLAX46Y46*%
G04 Gerber Fmt 4.6, Leading zero omitted, Abs format (unit mm)*
G04 Created by KiCad (PCBNEW 7.0.7) date 2023-10-31 18:53:21*
%MOMM*%
%LPD*%
G01*
G04 APERTURE LIST*
G04 Aperture macros list*
%AMRoundRect*
0 Rectangle with rounded corners*
0 $1 Rounding radius*
0 $2 $3 $4 $5 $6 $7 $8 $9 X,Y pos of 4 corners*
0 Add a 4 corners polygon primitive as box body*
4,1,4,$2,$3,$4,$5,$6,$7,$8,$9,$2,$3,0*
0 Add four circle primitives for the rounded corners*
1,1,$1+$1,$2,$3*
1,1,$1+$1,$4,$5*
1,1,$1+$1,$6,$7*
1,1,$1+$1,$8,$9*
0 Add four rect primitives between the rounded corners*
20,1,$1+$1,$2,$3,$4,$5,0*
20,1,$1+$1,$4,$5,$6,$7,0*
20,1,$1+$1,$6,$7,$8,$9,0*
20,1,$1+$1,$8,$9,$2,$3,0*%
G04 Aperture macros list end*
%ADD10C,2.200000*%
%ADD11RoundRect,0.102000X-0.889000X0.889000X-0.889000X-0.889000X0.889000X-0.889000X0.889000X0.889000X0*%
%ADD12C,1.982000*%
%ADD13C,1.701800*%
%ADD14C,3.000000*%
%ADD15C,3.987800*%
%ADD16RoundRect,0.200000X-1.340000X-1.050000X1.340000X-1.050000X1.340000X1.050000X-1.340000X1.050000X0*%
%ADD17RoundRect,0.200000X-1.326500X-1.050000X1.326500X-1.050000X1.326500X1.050000X-1.326500X1.050000X0*%
%ADD18RoundRect,0.201600X-1.338400X-1.058400X1.338400X-1.058400X1.338400X1.058400X-1.338400X1.058400X0*%
%ADD19C,3.048000*%
%ADD20RoundRect,0.201600X-1.324900X-1.058400X1.324900X-1.058400X1.324900X1.058400X-1.324900X1.058400X0*%
%ADD21R,1.700000X1.700000*%
%ADD22O,1.700000X1.700000*%
%ADD23R,1.000000X1.000000*%
%ADD24O,1.000000X1.000000*%
%ADD25R,1.515000X1.515000*%
%ADD26C,1.515000*%
%ADD27C,2.385000*%
%ADD28O,1.350000X1.700000*%
%ADD29O,1.100000X1.500000*%
%ADD30RoundRect,0.225000X-0.375000X0.225000X-0.375000X-0.225000X0.375000X-0.225000X0.375000X0.225000X0*%
%ADD31R,1.475000X0.300000*%
%ADD32R,0.300000X1.475000*%
%ADD33RoundRect,0.135000X-0.135000X-0.185000X0.135000X-0.185000X0.135000X0.185000X-0.135000X0.185000X0*%
%ADD34RoundRect,0.237500X-0.237500X0.300000X-0.237500X-0.300000X0.237500X-0.300000X0.237500X0.300000X0*%
%ADD35RoundRect,0.237500X0.237500X-0.300000X0.237500X0.300000X-0.237500X0.300000X-0.237500X-0.300000X0*%
%ADD36RoundRect,0.135000X0.135000X0.185000X-0.135000X0.185000X-0.135000X-0.185000X0.135000X-0.185000X0*%
%ADD37RoundRect,0.237500X-0.300000X-0.237500X0.300000X-0.237500X0.300000X0.237500X-0.300000X0.237500X0*%
%ADD38RoundRect,0.135000X0.185000X-0.135000X0.185000X0.135000X-0.185000X0.135000X-0.185000X-0.135000X0*%
%ADD39C,2.000000*%
%ADD40RoundRect,0.237500X0.300000X0.237500X-0.300000X0.237500X-0.300000X-0.237500X0.300000X-0.237500X0*%
G04 APERTURE END LIST*
D10*
%TO.C,U3*%
X685000000Y-216900000D03*
X655790000Y-216900000D03*
X685000000Y-267700000D03*
X655790000Y-267700000D03*
D11*
X658965000Y-216900000D03*
D12*
X661505000Y-216900000D03*
X664045000Y-216900000D03*
X666585000Y-216900000D03*
X669125000Y-216900000D03*
X671665000Y-216900000D03*
X674205000Y-216900000D03*
X676745000Y-216900000D03*
X679285000Y-216900000D03*
X681825000Y-216900000D03*
%TD*%
D13*
%TO.C,K39*%
X569305500Y-222504000D03*
D14*
X570575500Y-219964000D03*
D15*
X574385500Y-222504000D03*
D14*
X576925500Y-217424000D03*
D13*
X579465500Y-222504000D03*
D16*
X567035500Y-219964000D03*
D17*
X580479000Y-217424000D03*
%TD*%
D13*
%TO.C,K4*%
X421668000Y-184404000D03*
D14*
X422938000Y-181864000D03*
D15*
X426748000Y-184404000D03*
D14*
X429288000Y-179324000D03*
D13*
X431828000Y-184404000D03*
D16*
X419398000Y-181864000D03*
D17*
X432841500Y-179324000D03*
%TD*%
D13*
%TO.C,K38*%
X550255500Y-222504000D03*
D14*
X551525500Y-219964000D03*
D15*
X555335500Y-222504000D03*
D14*
X557875500Y-217424000D03*
D13*
X560415500Y-222504000D03*
D16*
X547985500Y-219964000D03*
D17*
X561429000Y-217424000D03*
%TD*%
D13*
%TO.C,K32*%
X435955500Y-222504000D03*
D14*
X437225500Y-219964000D03*
D15*
X441035500Y-222504000D03*
D14*
X443575500Y-217424000D03*
D13*
X446115500Y-222504000D03*
D16*
X433685500Y-219964000D03*
D17*
X447129000Y-217424000D03*
%TD*%
D13*
%TO.C,K56*%
X390714260Y-260604000D03*
D14*
X391984260Y-258064000D03*
D15*
X395794260Y-260604000D03*
D14*
X398334260Y-255524000D03*
D13*
X400874260Y-260604000D03*
D18*
X388444260Y-258074000D03*
D17*
X401887760Y-255524000D03*
%TD*%
D13*
%TO.C,K50*%
X540730500Y-241554000D03*
D14*
X542000500Y-239014000D03*
D15*
X545810500Y-241554000D03*
D14*
X548350500Y-236474000D03*
D13*
X550890500Y-241554000D03*
D16*
X538460500Y-239014000D03*
D17*
X551904000Y-236474000D03*
%TD*%
D13*
%TO.C,K46*%
X464530500Y-241554000D03*
D14*
X465800500Y-239014000D03*
D15*
X469610500Y-241554000D03*
D14*
X472150500Y-236474000D03*
D13*
X474690500Y-241554000D03*
D16*
X462260500Y-239014000D03*
D17*
X475704000Y-236474000D03*
%TD*%
D13*
%TO.C,K17*%
X412143000Y-203454000D03*
D14*
X413413000Y-200914000D03*
D15*
X417223000Y-203454000D03*
D14*
X419763000Y-198374000D03*
D13*
X422303000Y-203454000D03*
D16*
X409873000Y-200914000D03*
D17*
X423316500Y-198374000D03*
%TD*%
D19*
%TO.C,K14*%
X614835000Y-177419000D03*
D15*
X614835000Y-192659000D03*
D13*
X621693000Y-184404000D03*
D14*
X622963000Y-181864000D03*
D15*
X626773000Y-184404000D03*
D14*
X629313000Y-179324000D03*
D13*
X631853000Y-184404000D03*
D19*
X638711000Y-177419000D03*
D15*
X638711000Y-192659000D03*
D16*
X619423000Y-181864000D03*
D20*
X632866500Y-179334000D03*
%TD*%
D13*
%TO.C,K2*%
X383568000Y-184404000D03*
D14*
X384838000Y-181864000D03*
D15*
X388648000Y-184404000D03*
D14*
X391188000Y-179324000D03*
D13*
X393728000Y-184404000D03*
D16*
X381298000Y-181864000D03*
D17*
X394741500Y-179324000D03*
%TD*%
D13*
%TO.C,K48*%
X502630500Y-241554000D03*
D14*
X503900500Y-239014000D03*
D15*
X507710500Y-241554000D03*
D14*
X510250500Y-236474000D03*
D13*
X512790500Y-241554000D03*
D16*
X500360500Y-239014000D03*
D17*
X513804000Y-236474000D03*
%TD*%
D21*
%TO.C,J3*%
X680673000Y-203979000D03*
D22*
X683213000Y-203979000D03*
X685753000Y-203979000D03*
X688293000Y-203979000D03*
X690833000Y-203979000D03*
X693373000Y-203979000D03*
%TD*%
D13*
%TO.C,K23*%
X526443000Y-203454000D03*
D14*
X527713000Y-200914000D03*
D15*
X531523000Y-203454000D03*
D14*
X534063000Y-198374000D03*
D13*
X536603000Y-203454000D03*
D16*
X524173000Y-200914000D03*
D17*
X537616500Y-198374000D03*
%TD*%
D13*
%TO.C,K1*%
X364518000Y-184404000D03*
D14*
X365788000Y-181864000D03*
D15*
X369598000Y-184404000D03*
D14*
X372138000Y-179324000D03*
D13*
X374678000Y-184404000D03*
D16*
X362248000Y-181864000D03*
D17*
X375691500Y-179324000D03*
%TD*%
D13*
%TO.C,K31*%
X416905500Y-222504000D03*
D14*
X418175500Y-219964000D03*
D15*
X421985500Y-222504000D03*
D14*
X424525500Y-217424000D03*
D13*
X427065500Y-222504000D03*
D16*
X414635500Y-219964000D03*
D17*
X428079000Y-217424000D03*
%TD*%
D13*
%TO.C,K51*%
X559780500Y-241554000D03*
D14*
X561050500Y-239014000D03*
D15*
X564860500Y-241554000D03*
D14*
X567400500Y-236474000D03*
D13*
X569940500Y-241554000D03*
D16*
X557510500Y-239014000D03*
D17*
X570954000Y-236474000D03*
%TD*%
D13*
%TO.C,K54*%
X628778000Y-241554000D03*
D14*
X630048000Y-239014000D03*
D15*
X633858000Y-241554000D03*
D14*
X636398000Y-236474000D03*
D13*
X638938000Y-241554000D03*
D18*
X626508000Y-239024000D03*
D17*
X639951500Y-236474000D03*
%TD*%
D13*
%TO.C,K61*%
X604965500Y-260604000D03*
D14*
X606235500Y-258064000D03*
D15*
X610045500Y-260604000D03*
D14*
X612585500Y-255524000D03*
D13*
X615125500Y-260604000D03*
D18*
X602695500Y-258074000D03*
D17*
X616139000Y-255524000D03*
%TD*%
D13*
%TO.C,K29*%
X371663020Y-222504000D03*
D14*
X372933020Y-219964000D03*
D15*
X376743020Y-222504000D03*
D14*
X379283020Y-217424000D03*
D13*
X381823020Y-222504000D03*
D16*
X369393020Y-219964000D03*
D17*
X382836520Y-217424000D03*
%TD*%
D13*
%TO.C,K33*%
X455005500Y-222504000D03*
D14*
X456275500Y-219964000D03*
D15*
X460085500Y-222504000D03*
D14*
X462625500Y-217424000D03*
D13*
X465165500Y-222504000D03*
D16*
X452735500Y-219964000D03*
D17*
X466179000Y-217424000D03*
%TD*%
D13*
%TO.C,K8*%
X497868000Y-184404000D03*
D14*
X499138000Y-181864000D03*
D15*
X502948000Y-184404000D03*
D14*
X505488000Y-179324000D03*
D13*
X508028000Y-184404000D03*
D16*
X495598000Y-181864000D03*
D17*
X509041500Y-179324000D03*
%TD*%
D13*
%TO.C,K44*%
X426430500Y-241554000D03*
D14*
X427700500Y-239014000D03*
D15*
X431510500Y-241554000D03*
D14*
X434050500Y-236474000D03*
D13*
X436590500Y-241554000D03*
D16*
X424160500Y-239014000D03*
D17*
X437604000Y-236474000D03*
%TD*%
D13*
%TO.C,K3*%
X402618000Y-184404000D03*
D14*
X403888000Y-181864000D03*
D15*
X407698000Y-184404000D03*
D14*
X410238000Y-179324000D03*
D13*
X412778000Y-184404000D03*
D16*
X400348000Y-181864000D03*
D17*
X413791500Y-179324000D03*
%TD*%
D13*
%TO.C,K5*%
X440718000Y-184404000D03*
D14*
X441988000Y-181864000D03*
D15*
X445798000Y-184404000D03*
D14*
X448338000Y-179324000D03*
D13*
X450878000Y-184404000D03*
D16*
X438448000Y-181864000D03*
D17*
X451891500Y-179324000D03*
%TD*%
D13*
%TO.C,K10*%
X535968000Y-184404000D03*
D14*
X537238000Y-181864000D03*
D15*
X541048000Y-184404000D03*
D14*
X543588000Y-179324000D03*
D13*
X546128000Y-184404000D03*
D16*
X533698000Y-181864000D03*
D17*
X547141500Y-179324000D03*
%TD*%
D13*
%TO.C,K28*%
X626455500Y-203454000D03*
D14*
X627725500Y-200914000D03*
D15*
X631535500Y-203454000D03*
D14*
X634075500Y-198374000D03*
D13*
X636615500Y-203454000D03*
D16*
X624185500Y-200914000D03*
D17*
X637629000Y-198374000D03*
%TD*%
D13*
%TO.C,K7*%
X478818000Y-184404000D03*
D14*
X480088000Y-181864000D03*
D15*
X483898000Y-184404000D03*
D14*
X486438000Y-179324000D03*
D13*
X488978000Y-184404000D03*
D16*
X476548000Y-181864000D03*
D17*
X489991500Y-179324000D03*
%TD*%
D13*
%TO.C,K59*%
X557340500Y-260604000D03*
D14*
X558610500Y-258064000D03*
D15*
X562420500Y-260604000D03*
D14*
X564960500Y-255524000D03*
D13*
X567500500Y-260604000D03*
D18*
X555070500Y-258074000D03*
D17*
X568514000Y-255524000D03*
%TD*%
D13*
%TO.C,K11*%
X555018000Y-184404000D03*
D14*
X556288000Y-181864000D03*
D15*
X560098000Y-184404000D03*
D14*
X562638000Y-179324000D03*
D13*
X565178000Y-184404000D03*
D16*
X552748000Y-181864000D03*
D17*
X566191500Y-179324000D03*
%TD*%
D13*
%TO.C,K18*%
X431193000Y-203454000D03*
D14*
X432463000Y-200914000D03*
D15*
X436273000Y-203454000D03*
D14*
X438813000Y-198374000D03*
D13*
X441353000Y-203454000D03*
D16*
X428923000Y-200914000D03*
D17*
X442366500Y-198374000D03*
%TD*%
D13*
%TO.C,K40*%
X588355500Y-222504000D03*
D14*
X589625500Y-219964000D03*
D15*
X593435500Y-222504000D03*
D14*
X595975500Y-217424000D03*
D13*
X598515500Y-222504000D03*
D16*
X586085500Y-219964000D03*
D17*
X599529000Y-217424000D03*
%TD*%
D13*
%TO.C,K16*%
X393093000Y-203454000D03*
D14*
X394363000Y-200914000D03*
D15*
X398173000Y-203454000D03*
D14*
X400713000Y-198374000D03*
D13*
X403253000Y-203454000D03*
D16*
X390823000Y-200914000D03*
D17*
X404266500Y-198374000D03*
%TD*%
D13*
%TO.C,K6*%
X459768000Y-184404000D03*
D14*
X461038000Y-181864000D03*
D15*
X464848000Y-184404000D03*
D14*
X467388000Y-179324000D03*
D13*
X469928000Y-184404000D03*
D16*
X457498000Y-181864000D03*
D17*
X470941500Y-179324000D03*
%TD*%
D13*
%TO.C,K37*%
X531205500Y-222504000D03*
D14*
X532475500Y-219964000D03*
D15*
X536285500Y-222504000D03*
D14*
X538825500Y-217424000D03*
D13*
X541365500Y-222504000D03*
D16*
X528935500Y-219964000D03*
D17*
X542379000Y-217424000D03*
%TD*%
D13*
%TO.C,K35*%
X493105500Y-222504000D03*
D14*
X494375500Y-219964000D03*
D15*
X498185500Y-222504000D03*
D14*
X500725500Y-217424000D03*
D13*
X503265500Y-222504000D03*
D16*
X490835500Y-219964000D03*
D17*
X504279000Y-217424000D03*
%TD*%
D13*
%TO.C,K21*%
X488343000Y-203454000D03*
D14*
X489613000Y-200914000D03*
D15*
X493423000Y-203454000D03*
D14*
X495963000Y-198374000D03*
D13*
X498503000Y-203454000D03*
D16*
X486073000Y-200914000D03*
D17*
X499516500Y-198374000D03*
%TD*%
D13*
%TO.C,K13*%
X593118000Y-184404000D03*
D14*
X594388000Y-181864000D03*
D15*
X598198000Y-184404000D03*
D14*
X600738000Y-179324000D03*
D13*
X603278000Y-184404000D03*
D16*
X590848000Y-181864000D03*
D17*
X604291500Y-179324000D03*
%TD*%
D13*
%TO.C,K53*%
X602643000Y-241554000D03*
D14*
X603913000Y-239014000D03*
D15*
X607723000Y-241554000D03*
D14*
X610263000Y-236474000D03*
D13*
X612803000Y-241554000D03*
D16*
X600373000Y-239014000D03*
D17*
X613816500Y-236474000D03*
%TD*%
D19*
%TO.C,K58*%
X441035500Y-253619000D03*
D15*
X441035500Y-268859000D03*
D13*
X485955500Y-260604000D03*
D14*
X487225500Y-258064000D03*
D15*
X491035500Y-260604000D03*
D14*
X493575500Y-255524000D03*
D13*
X496115500Y-260604000D03*
D19*
X541035500Y-253619000D03*
D15*
X541035500Y-268859000D03*
D18*
X483685500Y-258074000D03*
D17*
X497129000Y-255524000D03*
%TD*%
D13*
%TO.C,K19*%
X450243000Y-203454000D03*
D14*
X451513000Y-200914000D03*
D15*
X455323000Y-203454000D03*
D14*
X457863000Y-198374000D03*
D13*
X460403000Y-203454000D03*
D16*
X447973000Y-200914000D03*
D17*
X461416500Y-198374000D03*
%TD*%
D13*
%TO.C,K47*%
X483580500Y-241554000D03*
D14*
X484850500Y-239014000D03*
D15*
X488660500Y-241554000D03*
D14*
X491200500Y-236474000D03*
D13*
X493740500Y-241554000D03*
D16*
X481310500Y-239014000D03*
D17*
X494754000Y-236474000D03*
%TD*%
D23*
%TO.C,J4*%
X688793000Y-182349000D03*
D24*
X688793000Y-181079000D03*
X690063000Y-182349000D03*
X690063000Y-181079000D03*
X691333000Y-182349000D03*
X691333000Y-181079000D03*
X692603000Y-182349000D03*
X692603000Y-181079000D03*
X693873000Y-182349000D03*
X693873000Y-181079000D03*
%TD*%
D13*
%TO.C,K36*%
X512155500Y-222504000D03*
D14*
X513425500Y-219964000D03*
D15*
X517235500Y-222504000D03*
D14*
X519775500Y-217424000D03*
D13*
X522315500Y-222504000D03*
D16*
X509885500Y-219964000D03*
D17*
X523329000Y-217424000D03*
%TD*%
D13*
%TO.C,K30*%
X397855500Y-222504000D03*
D14*
X399125500Y-219964000D03*
D15*
X402935500Y-222504000D03*
D14*
X405475500Y-217424000D03*
D13*
X408015500Y-222504000D03*
D16*
X395585500Y-219964000D03*
D17*
X409029000Y-217424000D03*
%TD*%
D13*
%TO.C,K15*%
X369280500Y-203454000D03*
D14*
X370550500Y-200914000D03*
D15*
X374360500Y-203454000D03*
D14*
X376900500Y-198374000D03*
D13*
X379440500Y-203454000D03*
D16*
X367010500Y-200914000D03*
D17*
X380454000Y-198374000D03*
%TD*%
D19*
%TO.C,K41*%
X612485500Y-215519000D03*
D15*
X612485500Y-230759000D03*
D13*
X619343500Y-222504000D03*
D14*
X620613500Y-219964000D03*
D15*
X624423500Y-222504000D03*
D14*
X626963500Y-217424000D03*
D13*
X629503500Y-222504000D03*
D19*
X636361500Y-215519000D03*
D15*
X636361500Y-230759000D03*
D18*
X617073500Y-219974000D03*
D17*
X630517000Y-217424000D03*
%TD*%
D21*
%TO.C,J2*%
X678000000Y-209800000D03*
D22*
X680540000Y-209800000D03*
X683080000Y-209800000D03*
X685620000Y-209800000D03*
X688160000Y-209800000D03*
X690700000Y-209800000D03*
X693240000Y-209800000D03*
%TD*%
D13*
%TO.C,K45*%
X445480500Y-241554000D03*
D14*
X446750500Y-239014000D03*
D15*
X450560500Y-241554000D03*
D14*
X453100500Y-236474000D03*
D13*
X455640500Y-241554000D03*
D16*
X443210500Y-239014000D03*
D17*
X456654000Y-236474000D03*
%TD*%
D13*
%TO.C,K22*%
X507393000Y-203454000D03*
D14*
X508663000Y-200914000D03*
D15*
X512473000Y-203454000D03*
D14*
X515013000Y-198374000D03*
D13*
X517553000Y-203454000D03*
D16*
X505123000Y-200914000D03*
D17*
X518566500Y-198374000D03*
%TD*%
D13*
%TO.C,K20*%
X469293000Y-203454000D03*
D14*
X470563000Y-200914000D03*
D15*
X474373000Y-203454000D03*
D14*
X476913000Y-198374000D03*
D13*
X479453000Y-203454000D03*
D16*
X467023000Y-200914000D03*
D17*
X480466500Y-198374000D03*
%TD*%
D19*
%TO.C,K42*%
X369567520Y-234569000D03*
D15*
X369567520Y-249809000D03*
D13*
X376425520Y-241554000D03*
D14*
X377695520Y-239014000D03*
D15*
X381505520Y-241554000D03*
D14*
X384045520Y-236474000D03*
D13*
X386585520Y-241554000D03*
D19*
X393443520Y-234569000D03*
D15*
X393443520Y-249809000D03*
D18*
X374155520Y-239024000D03*
D17*
X387599020Y-236474000D03*
%TD*%
D13*
%TO.C,K62*%
X628778000Y-260604000D03*
D14*
X630048000Y-258064000D03*
D15*
X633858000Y-260604000D03*
D14*
X636398000Y-255524000D03*
D13*
X638938000Y-260604000D03*
D18*
X626508000Y-258074000D03*
D17*
X639951500Y-255524000D03*
%TD*%
D13*
%TO.C,K49*%
X521680500Y-241554000D03*
D14*
X522950500Y-239014000D03*
D15*
X526760500Y-241554000D03*
D14*
X529300500Y-236474000D03*
D13*
X531840500Y-241554000D03*
D16*
X519410500Y-239014000D03*
D17*
X532854000Y-236474000D03*
%TD*%
D13*
%TO.C,K43*%
X407380500Y-241554000D03*
D14*
X408650500Y-239014000D03*
D15*
X412460500Y-241554000D03*
D14*
X415000500Y-236474000D03*
D13*
X417540500Y-241554000D03*
D16*
X405110500Y-239014000D03*
D17*
X418554000Y-236474000D03*
%TD*%
D13*
%TO.C,K52*%
X578830500Y-241554000D03*
D14*
X580100500Y-239014000D03*
D15*
X583910500Y-241554000D03*
D14*
X586450500Y-236474000D03*
D13*
X588990500Y-241554000D03*
D16*
X576560500Y-239014000D03*
D17*
X590004000Y-236474000D03*
%TD*%
D13*
%TO.C,K25*%
X564543000Y-203454000D03*
D14*
X565813000Y-200914000D03*
D15*
X569623000Y-203454000D03*
D14*
X572163000Y-198374000D03*
D13*
X574703000Y-203454000D03*
D16*
X562273000Y-200914000D03*
D17*
X575716500Y-198374000D03*
%TD*%
D25*
%TO.C,SW2*%
X656873000Y-176579000D03*
D26*
X659873000Y-176579000D03*
X662873000Y-176579000D03*
D27*
X654073000Y-176579000D03*
X665673000Y-176579000D03*
%TD*%
D13*
%TO.C,K57*%
X414528000Y-260604000D03*
D14*
X415798000Y-258064000D03*
D15*
X419608000Y-260604000D03*
D14*
X422148000Y-255524000D03*
D13*
X424688000Y-260604000D03*
D18*
X412258000Y-258074000D03*
D17*
X425701500Y-255524000D03*
%TD*%
D28*
%TO.C,J1*%
X649855000Y-174399000D03*
D29*
X649545000Y-177399000D03*
X644705000Y-177399000D03*
D28*
X644395000Y-174399000D03*
%TD*%
D13*
%TO.C,K26*%
X583593000Y-203454000D03*
D14*
X584863000Y-200914000D03*
D15*
X588673000Y-203454000D03*
D14*
X591213000Y-198374000D03*
D13*
X593753000Y-203454000D03*
D16*
X581323000Y-200914000D03*
D17*
X594766500Y-198374000D03*
%TD*%
D13*
%TO.C,K34*%
X474055500Y-222504000D03*
D14*
X475325500Y-219964000D03*
D15*
X479135500Y-222504000D03*
D14*
X481675500Y-217424000D03*
D13*
X484215500Y-222504000D03*
D16*
X471785500Y-219964000D03*
D17*
X485229000Y-217424000D03*
%TD*%
D13*
%TO.C,K27*%
X602643000Y-203454000D03*
D14*
X603913000Y-200914000D03*
D15*
X607723000Y-203454000D03*
D14*
X610263000Y-198374000D03*
D13*
X612803000Y-203454000D03*
D16*
X600373000Y-200914000D03*
D17*
X613816500Y-198374000D03*
%TD*%
D13*
%TO.C,K24*%
X545493000Y-203454000D03*
D14*
X546763000Y-200914000D03*
D15*
X550573000Y-203454000D03*
D14*
X553113000Y-198374000D03*
D13*
X555653000Y-203454000D03*
D16*
X543223000Y-200914000D03*
D17*
X556666500Y-198374000D03*
%TD*%
D13*
%TO.C,K55*%
X366900520Y-260604000D03*
D14*
X368170520Y-258064000D03*
D15*
X371980520Y-260604000D03*
D14*
X374520520Y-255524000D03*
D13*
X377060520Y-260604000D03*
D18*
X364630520Y-258074000D03*
D17*
X378074020Y-255524000D03*
%TD*%
D13*
%TO.C,K60*%
X581153000Y-260604000D03*
D14*
X582423000Y-258064000D03*
D15*
X586233000Y-260604000D03*
D14*
X588773000Y-255524000D03*
D13*
X591313000Y-260604000D03*
D18*
X578883000Y-258074000D03*
D17*
X592326500Y-255524000D03*
%TD*%
D13*
%TO.C,K12*%
X574068000Y-184404000D03*
D14*
X575338000Y-181864000D03*
D15*
X579148000Y-184404000D03*
D14*
X581688000Y-179324000D03*
D13*
X584228000Y-184404000D03*
D16*
X571798000Y-181864000D03*
D17*
X585241500Y-179324000D03*
%TD*%
D13*
%TO.C,K9*%
X516918000Y-184404000D03*
D14*
X518188000Y-181864000D03*
D15*
X521998000Y-184404000D03*
D14*
X524538000Y-179324000D03*
D13*
X527078000Y-184404000D03*
D16*
X514648000Y-181864000D03*
D17*
X528091500Y-179324000D03*
%TD*%
D30*
%TO.C,D8*%
X408800000Y-225450000D03*
X408800000Y-228750000D03*
%TD*%
D31*
%TO.C,U1*%
X654862000Y-204450000D03*
X654862000Y-203950000D03*
X654862000Y-203450000D03*
X654862000Y-202950000D03*
X654862000Y-202450000D03*
X654862000Y-201950000D03*
X654862000Y-201450000D03*
X654862000Y-200950000D03*
X654862000Y-200450000D03*
X654862000Y-199950000D03*
X654862000Y-199450000D03*
X654862000Y-198950000D03*
X654862000Y-198450000D03*
X654862000Y-197950000D03*
X654862000Y-197450000D03*
X654862000Y-196950000D03*
D32*
X656850000Y-194962000D03*
X657350000Y-194962000D03*
X657850000Y-194962000D03*
X658350000Y-194962000D03*
X658850000Y-194962000D03*
X659350000Y-194962000D03*
X659850000Y-194962000D03*
X660350000Y-194962000D03*
X660850000Y-194962000D03*
X661350000Y-194962000D03*
X661850000Y-194962000D03*
X662350000Y-194962000D03*
X662850000Y-194962000D03*
X663350000Y-194962000D03*
X663850000Y-194962000D03*
X664350000Y-194962000D03*
D31*
X666338000Y-196950000D03*
X666338000Y-197450000D03*
X666338000Y-197950000D03*
X666338000Y-198450000D03*
X666338000Y-198950000D03*
X666338000Y-199450000D03*
X666338000Y-199950000D03*
X666338000Y-200450000D03*
X666338000Y-200950000D03*
X666338000Y-201450000D03*
X666338000Y-201950000D03*
X666338000Y-202450000D03*
X666338000Y-202950000D03*
X666338000Y-203450000D03*
X666338000Y-203950000D03*
X666338000Y-204450000D03*
D32*
X664350000Y-206438000D03*
X663850000Y-206438000D03*
X663350000Y-206438000D03*
X662850000Y-206438000D03*
X662350000Y-206438000D03*
X661850000Y-206438000D03*
X661350000Y-206438000D03*
X660850000Y-206438000D03*
X660350000Y-206438000D03*
X659850000Y-206438000D03*
X659350000Y-206438000D03*
X658850000Y-206438000D03*
X658350000Y-206438000D03*
X657850000Y-206438000D03*
X657350000Y-206438000D03*
X656850000Y-206438000D03*
%TD*%
D30*
%TO.C,D30*%
X496900000Y-263650000D03*
X496900000Y-266950000D03*
%TD*%
%TO.C,D16*%
X432600000Y-187350000D03*
X432600000Y-190650000D03*
%TD*%
%TO.C,D21*%
X451700000Y-187450000D03*
X451700000Y-190750000D03*
%TD*%
%TO.C,D44*%
X532700000Y-244650000D03*
X532700000Y-247950000D03*
%TD*%
%TO.C,D61*%
X604100000Y-187450000D03*
X604100000Y-190750000D03*
%TD*%
D33*
%TO.C,R9*%
X689463000Y-178279000D03*
X690483000Y-178279000D03*
%TD*%
D30*
%TO.C,D11*%
X413600000Y-187450000D03*
X413600000Y-190750000D03*
%TD*%
D34*
%TO.C,C11*%
X656800000Y-210675000D03*
X656800000Y-212400000D03*
%TD*%
D30*
%TO.C,D64*%
X613600000Y-244650000D03*
X613600000Y-247950000D03*
%TD*%
%TO.C,D13*%
X427900000Y-225550000D03*
X427900000Y-228850000D03*
%TD*%
%TO.C,D1*%
X375500000Y-187450000D03*
X375500000Y-190750000D03*
%TD*%
%TO.C,D39*%
X513600000Y-244550000D03*
X513600000Y-247850000D03*
%TD*%
D35*
%TO.C,C4*%
X670000000Y-201500000D03*
X670000000Y-199775000D03*
%TD*%
D30*
%TO.C,D48*%
X561200000Y-225550000D03*
X561200000Y-228850000D03*
%TD*%
%TO.C,D22*%
X461200000Y-206500000D03*
X461200000Y-209800000D03*
%TD*%
%TO.C,D49*%
X551700000Y-244550000D03*
X551700000Y-247850000D03*
%TD*%
%TO.C,D6*%
X394500000Y-187450000D03*
X394500000Y-190750000D03*
%TD*%
%TO.C,D62*%
X613600000Y-206450000D03*
X613600000Y-209750000D03*
%TD*%
%TO.C,D27*%
X480300000Y-206450000D03*
X480300000Y-209750000D03*
%TD*%
%TO.C,D34*%
X494500000Y-244650000D03*
X494500000Y-247950000D03*
%TD*%
%TO.C,D31*%
X489700000Y-187450000D03*
X489700000Y-190750000D03*
%TD*%
D36*
%TO.C,R1*%
X690120000Y-212100000D03*
X689100000Y-212100000D03*
%TD*%
D30*
%TO.C,D19*%
X437400000Y-244550000D03*
X437400000Y-247850000D03*
%TD*%
%TO.C,D54*%
X570700000Y-244600000D03*
X570700000Y-247900000D03*
%TD*%
%TO.C,D53*%
X580200000Y-225550000D03*
X580200000Y-228850000D03*
%TD*%
%TO.C,D59*%
X589800000Y-244650000D03*
X589800000Y-247950000D03*
%TD*%
%TO.C,D4*%
X387300000Y-244600000D03*
X387300000Y-247900000D03*
%TD*%
%TO.C,D23*%
X465900000Y-225550000D03*
X465900000Y-228850000D03*
%TD*%
%TO.C,D10*%
X401700000Y-263650000D03*
X401700000Y-266950000D03*
%TD*%
D37*
%TO.C,C1*%
X650450000Y-205675000D03*
X652175000Y-205675000D03*
%TD*%
D30*
%TO.C,D14*%
X418300000Y-244550000D03*
X418300000Y-247850000D03*
%TD*%
D35*
%TO.C,C7*%
X676900000Y-220800000D03*
X676900000Y-219075000D03*
%TD*%
D37*
%TO.C,C2*%
X650575000Y-198500000D03*
X652300000Y-198500000D03*
%TD*%
D30*
%TO.C,D56*%
X585000000Y-187450000D03*
X585000000Y-190750000D03*
%TD*%
%TO.C,D51*%
X566000000Y-187450000D03*
X566000000Y-190750000D03*
%TD*%
%TO.C,D17*%
X442200000Y-206400000D03*
X442200000Y-209700000D03*
%TD*%
%TO.C,D55*%
X592100000Y-263650000D03*
X592100000Y-266950000D03*
%TD*%
%TO.C,D41*%
X527800000Y-187450000D03*
X527800000Y-190750000D03*
%TD*%
%TO.C,D29*%
X475500000Y-244550000D03*
X475500000Y-247850000D03*
%TD*%
%TO.C,D32*%
X499300000Y-206450000D03*
X499300000Y-209750000D03*
%TD*%
%TO.C,D12*%
X423100000Y-206450000D03*
X423100000Y-209750000D03*
%TD*%
%TO.C,D15*%
X425500000Y-263650000D03*
X425500000Y-266950000D03*
%TD*%
%TO.C,D28*%
X485000000Y-225550000D03*
X485000000Y-228850000D03*
%TD*%
D38*
%TO.C,R3*%
X648000000Y-180590000D03*
X648000000Y-181610000D03*
%TD*%
D30*
%TO.C,D2*%
X380200000Y-206500000D03*
X380200000Y-209800000D03*
%TD*%
D38*
%TO.C,R4*%
X646900000Y-180590000D03*
X646900000Y-181610000D03*
%TD*%
D30*
%TO.C,D33*%
X504100000Y-225550000D03*
X504100000Y-228850000D03*
%TD*%
D34*
%TO.C,C5*%
X661900000Y-210675000D03*
X661900000Y-212400000D03*
%TD*%
D30*
%TO.C,D24*%
X456400000Y-244600000D03*
X456400000Y-247900000D03*
%TD*%
%TO.C,D57*%
X594600000Y-206500000D03*
X594600000Y-209800000D03*
%TD*%
D35*
%TO.C,C6*%
X674800000Y-220825000D03*
X674800000Y-219100000D03*
%TD*%
D30*
%TO.C,D3*%
X382600000Y-225450000D03*
X382600000Y-228750000D03*
%TD*%
%TO.C,D58*%
X599300000Y-225550000D03*
X599300000Y-228850000D03*
%TD*%
D39*
%TO.C,J5*%
X670473000Y-174600000D03*
%TD*%
D30*
%TO.C,D68*%
X630300000Y-225500000D03*
X630300000Y-228800000D03*
%TD*%
%TO.C,D36*%
X508800000Y-187450000D03*
X508800000Y-190750000D03*
%TD*%
D34*
%TO.C,C12*%
X658500000Y-210637500D03*
X658500000Y-212362500D03*
%TD*%
D30*
%TO.C,D60*%
X615900000Y-263650000D03*
X615900000Y-266950000D03*
%TD*%
D34*
%TO.C,C13*%
X660200000Y-210637500D03*
X660200000Y-212362500D03*
%TD*%
D30*
%TO.C,D47*%
X556400000Y-206450000D03*
X556400000Y-209750000D03*
%TD*%
%TO.C,D65*%
X639700000Y-263650000D03*
X639700000Y-266950000D03*
%TD*%
%TO.C,D26*%
X470800000Y-187450000D03*
X470800000Y-190750000D03*
%TD*%
D37*
%TO.C,C14*%
X661875000Y-189900000D03*
X663600000Y-189900000D03*
%TD*%
D30*
%TO.C,D67*%
X637400000Y-206500000D03*
X637400000Y-209800000D03*
%TD*%
%TO.C,D37*%
X518400000Y-206550000D03*
X518400000Y-209850000D03*
%TD*%
%TO.C,D18*%
X446900000Y-225550000D03*
X446900000Y-228850000D03*
%TD*%
%TO.C,D5*%
X377800000Y-263650000D03*
X377800000Y-266950000D03*
%TD*%
%TO.C,D50*%
X568300000Y-263600000D03*
X568300000Y-266900000D03*
%TD*%
D40*
%TO.C,C3*%
X663625000Y-191500000D03*
X661900000Y-191500000D03*
%TD*%
D39*
%TO.C,J6*%
X670473000Y-180500000D03*
%TD*%
D30*
%TO.C,D52*%
X575500000Y-206550000D03*
X575500000Y-209850000D03*
%TD*%
%TO.C,D69*%
X639800000Y-244550000D03*
X639800000Y-247850000D03*
%TD*%
%TO.C,D7*%
X404000000Y-206450000D03*
X404000000Y-209750000D03*
%TD*%
%TO.C,D42*%
X537400000Y-206450000D03*
X537400000Y-209750000D03*
%TD*%
%TO.C,D66*%
X632700000Y-187450000D03*
X632700000Y-190750000D03*
%TD*%
%TO.C,D43*%
X542100000Y-225550000D03*
X542100000Y-228850000D03*
%TD*%
%TO.C,D38*%
X523100000Y-225450000D03*
X523100000Y-228750000D03*
%TD*%
%TO.C,D46*%
X546900000Y-187450000D03*
X546900000Y-190750000D03*
%TD*%
D37*
%TO.C,C10*%
X650450000Y-203975000D03*
X652175000Y-203975000D03*
%TD*%
M02*
